<svg width="618" height="248" viewBox="0 0 618 248" fill="none" xmlns="http://www.w3.org/2000/svg">
<path d="M144.023 152.788L144.014 152.8L144.004 152.812C142.487 154.76 141.499 156.681 141.179 158.571C140.848 160.527 141.257 162.333 142.321 163.879C144.314 166.777 148.373 168.443 152.965 169.433C162.374 171.462 176.499 171.146 190.145 169.365C203.789 167.584 217.35 164.286 225.601 160.12C227.678 159.071 229.493 157.931 230.906 156.693C232.304 155.468 233.442 154.03 233.925 152.362C234.435 150.602 234.146 148.83 233.128 147.196C232.183 145.679 230.641 144.32 228.629 143.073C214.696 130.182 196.102 105.106 180.792 80.1194C173.124 67.605 166.318 55.1756 161.364 44.3945C156.496 33.7979 153.54 25.0492 153.145 19.4163C153.76 17.7197 153.893 16.0382 153.443 14.4361C152.954 12.6981 151.846 11.2934 150.424 10.1807C147.658 8.01495 143.367 6.68579 138.463 5.89869C128.551 4.30752 114.856 4.74637 101.912 6.52185C89.0021 8.29264 76.488 11.4405 69.033 15.4634C67.1526 16.4781 65.5138 17.5902 64.2565 18.8115C63.0057 20.0265 62.0221 21.4585 61.6822 23.1133C61.0205 26.3347 62.9276 29.1177 66.1879 31.4295C64.0822 47.7224 57.7399 74.7892 48.6412 101.136C43.9753 114.647 38.6001 127.923 32.7251 139.427C26.8362 150.958 20.5079 160.582 13.9791 166.896L13.8846 166.988L13.8023 167.09C11.4352 170.042 10.6792 173.173 12.206 176.049C13.5793 178.636 16.5252 180.402 19.8822 181.629C26.7231 184.13 37.1407 185.06 47.6869 184.494C58.254 183.926 69.296 181.838 77.3962 178.051C81.4438 176.158 84.9146 173.769 87.1768 170.784C89.4928 167.729 90.4943 164.098 89.6019 160.025L89.3984 159.096L88.5628 158.641C80.5401 154.274 73.182 144.056 72.5949 119.071C93.6076 114.174 115.645 106.071 126.923 99.7936C133.801 112.975 139.38 124.523 142.587 133.742C144.27 138.578 145.259 142.661 145.478 145.936C145.699 149.234 145.122 151.418 144.023 152.788ZM101.624 63.7877C105.646 69.0831 110.005 74.8223 115.236 81.2784C104.683 85.1589 92.7722 86.4576 77.7177 85.762C80.9117 73.1586 83.6921 64.5283 86.7234 55.1189C87.486 52.7518 88.2645 50.3354 89.0695 47.794C92.9886 52.4599 96.6474 57.2376 100.603 62.4433C100.941 62.8884 101.282 63.3364 101.624 63.7877Z" fill="#280000" stroke="#280000" stroke-width="4.16667"/>
<path opacity="0.25" d="M136.523 152.788L136.514 152.8L136.504 152.812C134.987 154.76 133.999 156.681 133.679 158.571C133.348 160.527 133.757 162.333 134.821 163.879C136.814 166.777 140.873 168.443 145.465 169.433C154.874 171.462 168.999 171.146 182.645 169.365C196.289 167.584 209.85 164.286 218.101 160.12C220.178 159.071 221.993 157.931 223.406 156.693C224.804 155.468 225.942 154.03 226.425 152.362C226.935 150.602 226.646 148.83 225.628 147.196C224.683 145.679 223.141 144.32 221.129 143.073C207.196 130.182 188.602 105.106 173.292 80.1194C165.624 67.605 158.818 55.1756 153.864 44.3945C148.996 33.7979 146.04 25.0492 145.645 19.4163C146.26 17.7197 146.393 16.0382 145.943 14.4361C145.454 12.6981 144.346 11.2934 142.924 10.1807C140.158 8.01495 135.867 6.68579 130.963 5.89869C121.051 4.30752 107.356 4.74637 94.4118 6.52185C81.5021 8.29264 68.988 11.4405 61.533 15.4634C59.6526 16.4781 58.0138 17.5902 56.7565 18.8115C55.5057 20.0265 54.5221 21.4585 54.1822 23.1133C53.5205 26.3347 55.4276 29.1177 58.6879 31.4295C56.5822 47.7224 50.2399 74.7892 41.1412 101.136C36.4753 114.647 31.1001 127.923 25.2251 139.427C19.3362 150.958 13.0079 160.582 6.47914 166.896L6.3846 166.988L6.30231 167.09C3.9352 170.042 3.17921 173.173 4.706 176.049C6.07929 178.636 9.02519 180.402 12.3822 181.629C19.2231 184.13 29.6407 185.06 40.1869 184.494C50.754 183.926 61.796 181.838 69.8962 178.051C73.9438 176.158 77.4146 173.769 79.6768 170.784C81.9928 167.729 82.9943 164.098 82.1019 160.025L81.8984 159.096L81.0628 158.641C73.0401 154.274 65.682 144.056 65.0949 119.071C86.1076 114.174 108.145 106.071 119.423 99.7936C126.301 112.975 131.88 124.523 135.087 133.742C136.77 138.578 137.759 142.661 137.978 145.936C138.199 149.234 137.622 151.418 136.523 152.788ZM94.1245 63.7877C98.1461 69.0831 102.505 74.8223 107.736 81.2784C97.1827 85.1589 85.2722 86.4576 70.2177 85.762C73.4117 73.1586 76.1921 64.5283 79.2234 55.1189C79.986 52.7518 80.7645 50.3354 81.5695 47.794C85.4886 52.4599 89.1474 57.2376 93.1033 62.4433C93.4415 62.8884 93.7817 63.3364 94.1245 63.7877Z" fill="#280000" stroke="#280000" stroke-width="4.16667"/>
<path d="M153.327 152.788L153.318 152.8L153.309 152.812C151.791 154.76 150.803 156.681 150.483 158.571C150.152 160.527 150.562 162.333 151.625 163.879C153.618 166.777 157.677 168.443 162.27 169.433C171.678 171.462 185.803 171.146 199.449 169.365C213.094 167.584 226.654 164.286 234.905 160.12C236.982 159.071 238.797 157.931 240.21 156.693C241.609 155.468 242.746 154.03 243.229 152.362C243.739 150.602 243.45 148.83 242.432 147.196C241.488 145.679 239.945 144.32 237.933 143.073C224.001 130.182 205.406 105.106 190.096 80.1194C182.428 67.605 175.622 55.1756 170.669 44.3945C165.8 33.7979 162.844 25.0492 162.449 19.4163C163.064 17.7197 163.197 16.0382 162.747 14.4361C162.258 12.6981 161.15 11.2934 159.728 10.1807C156.962 8.01495 152.671 6.68579 147.768 5.89869C137.855 4.30752 124.16 4.74637 111.216 6.52185C98.3063 8.29264 85.7922 11.4405 78.3372 15.4634C76.4568 16.4781 74.818 17.5902 73.5607 18.8115C72.3099 20.0265 71.3263 21.4585 70.9864 23.1133C70.3247 26.3347 72.2318 29.1177 75.4921 31.4295C73.3864 47.7224 67.0441 74.7892 57.9454 101.136C53.2795 114.647 47.9043 127.923 42.0293 139.427C36.1404 150.958 29.8121 160.582 23.2833 166.896L23.1888 166.988L23.1065 167.09C20.7394 170.042 19.9834 173.173 21.5102 176.049C22.8835 178.636 25.8294 180.402 29.1864 181.629C36.0273 184.13 46.4449 185.06 56.9911 184.494C67.5582 183.926 78.6002 181.838 86.7004 178.051C90.748 176.158 94.2188 173.769 96.4809 170.784C98.797 167.729 99.7985 164.098 98.9061 160.025L98.7026 159.096L97.867 158.641C89.8443 154.274 82.4862 144.056 81.8991 119.071C102.912 114.174 124.949 106.071 136.228 99.7936C143.105 112.975 148.684 124.523 151.892 133.742C153.574 138.578 154.563 142.661 154.783 145.936C155.003 149.234 154.426 151.418 153.327 152.788ZM110.929 63.7877C114.95 69.0831 119.309 74.8223 124.54 81.2784C113.987 85.1589 102.076 86.4576 87.0219 85.762C90.2159 73.1586 92.9963 64.5283 96.0276 55.1189C96.7902 52.7518 97.5687 50.3354 98.3736 47.794C102.293 52.4599 105.952 57.2376 109.907 62.4433C110.246 62.8884 110.586 63.3364 110.929 63.7877Z" fill="#FFD126" stroke="#280000" stroke-width="4.16667"/>
<mask id="mask0_3200_2111" style="mask-type:alpha" maskUnits="userSpaceOnUse" x="22" y="7" width="220" height="176">
<path d="M84.3866 87.709C102.099 88.7588 115.787 87.2554 127.959 82.1745C114.991 66.376 107.362 54.8585 97.5119 43.5848C92.8075 58.7035 89.0546 68.8503 84.3866 87.709ZM77.7187 30.408C47.5755 11.6287 170.402 -5.23131 160.343 19.0868C161.504 43.2958 208.344 118.649 236.67 144.742C267.964 163.769 132.64 182.751 154.953 154.091C161.209 146.29 151.743 124.866 137.064 96.8996C126.535 103.298 102.439 112.309 79.787 117.418C80.0823 143.969 87.7122 155.486 96.8711 160.471C102.878 187.891 8.266 188.923 24.7317 168.394C51.8081 142.207 73.8141 63.036 77.7187 30.408Z" fill="#FFD126"/>
</mask>
<g mask="url(#mask0_3200_2111)">
<path d="M187.257 125.149C169.579 46.0631 108.636 31.1763 77.4666 30.7111L50.9495 13.9634L52.3451 -6.50594L153.761 -13.4841L177.022 25.1285L196.096 88.3975L187.257 125.149Z" fill="#EBAC16"/>
<path d="M179.348 63.7412C143.992 19.4529 96.6954 23.5778 77.4666 30.711L56.0668 23.2676L43.9713 -3.71473L77.4666 -13.4842L160.74 -21.858L184.466 32.5719L179.348 63.7412Z" fill="#E38D12"/>
</g>
<path d="M275.709 160.049L275.418 160.243L275.207 160.52C274.165 161.887 273.65 163.438 273.878 165.073C274.099 166.651 274.969 167.999 276.075 169.109C278.248 171.291 281.868 173.098 286.079 174.543C294.6 177.466 306.633 179.265 317.855 179.091C323.476 179.003 328.965 178.42 333.756 177.199C338.517 175.986 342.767 174.1 345.726 171.278C348.772 168.375 350.363 164.553 349.809 159.868C349.29 155.483 346.915 150.513 342.514 144.888C342.813 141.186 343.509 134.379 344.307 126.571C344.592 123.783 344.89 120.866 345.187 117.918C346.376 106.142 347.56 93.8548 347.841 87.4545C349.199 63.4577 330.666 46.6383 309.096 42.9791C293.344 40.307 275.789 44.5693 262.561 58.027C262.638 57.8719 262.707 57.716 262.769 57.5592C263.381 56.0214 263.274 54.4426 262.35 53.0856C261.52 51.8679 260.183 51.0511 258.781 50.473C257.342 49.8792 255.594 49.4395 253.655 49.1172C245.947 47.8362 233.952 48.2166 222.064 49.7377C210.17 51.2596 198.055 53.9654 190.124 57.5032C186.249 59.2322 182.929 61.3471 181.394 63.9841C180.572 65.3966 180.241 67.0004 180.669 68.6786C181.081 70.2951 182.135 71.7339 183.593 73.0184L183.601 73.0254L183.609 73.0322C184.787 74.0494 185.946 75.8236 186.98 78.3943C188.003 80.9355 188.842 84.0987 189.478 87.7189C190.749 94.9573 191.17 103.819 190.723 112.741C190.276 121.663 188.966 130.551 186.824 137.849C184.649 145.26 181.743 150.587 178.42 152.947C176.989 153.941 175.826 155.124 175.327 156.57C174.775 158.167 175.164 159.683 176.043 160.914C176.862 162.062 178.122 163.004 179.527 163.795C180.96 164.603 182.703 165.34 184.656 166.015C192.424 168.697 204.367 170.66 216.192 171.598C228.009 172.535 240.002 172.471 247.865 170.962C249.843 170.583 251.627 170.1 253.11 169.487C254.56 168.887 255.909 168.086 256.813 166.965C257.802 165.738 258.172 164.218 257.715 162.604C257.3 161.137 256.258 159.787 254.887 158.532L254.886 158.531C253.799 157.537 252.724 155.772 251.796 153.209C250.881 150.682 250.169 147.548 249.701 144.003C248.764 136.913 248.828 128.378 250.045 120.182C251.266 111.962 253.621 104.258 257.142 98.7208C260.644 93.2136 265.102 90.1037 270.629 90.2716C275.944 90.433 279.483 93.9178 281.684 100.063C283.901 106.254 284.53 114.669 284.119 123.42C283.71 132.13 282.28 140.97 280.525 147.898C279.646 151.365 278.698 154.306 277.776 156.492C277.314 157.587 276.876 158.451 276.48 159.082C276.06 159.752 275.784 159.999 275.709 160.049Z" fill="#280000" stroke="#280000" stroke-width="4.16667"/>
<path opacity="0.25" d="M269.553 160.049L269.263 160.243L269.051 160.52C268.01 161.887 267.494 163.438 267.723 165.073C267.943 166.651 268.813 167.999 269.919 169.109C272.092 171.291 275.712 173.098 279.923 174.543C288.444 177.466 300.477 179.265 311.699 179.091C317.32 179.003 322.809 178.42 327.601 177.199C332.362 175.986 336.611 174.1 339.57 171.278C342.616 168.375 344.208 164.553 343.653 159.868C343.135 155.483 340.759 150.513 336.359 144.888C336.657 141.186 337.353 134.379 338.151 126.571C338.436 123.783 338.734 120.866 339.032 117.918C340.221 106.142 341.404 93.8548 341.686 87.4545C343.043 63.4577 324.511 46.6383 302.94 42.9791C287.188 40.307 269.633 44.5693 256.406 58.027C256.482 57.8719 256.551 57.716 256.614 57.5592C257.225 56.0214 257.118 54.4426 256.194 53.0856C255.365 51.8679 254.027 51.0511 252.626 50.473C251.186 49.8792 249.438 49.4395 247.499 49.1172C239.792 47.8362 227.797 48.2166 215.909 49.7377C204.015 51.2596 191.899 53.9654 183.969 57.5032C180.093 59.2322 176.774 61.3471 175.239 63.9841C174.417 65.3966 174.085 67.0004 174.513 68.6786C174.925 70.2951 175.979 71.7339 177.438 73.0184L177.445 73.0254L177.453 73.0322C178.632 74.0494 179.79 75.8236 180.824 78.3943C181.847 80.9355 182.687 84.0987 183.322 87.7189C184.594 94.9573 185.015 103.819 184.568 112.741C184.121 121.663 182.81 130.551 180.668 137.849C178.493 145.26 175.587 150.587 172.264 152.947C170.833 153.941 169.67 155.124 169.171 156.57C168.62 158.167 169.008 159.683 169.887 160.914C170.706 162.062 171.966 163.004 173.371 163.795C174.805 164.603 176.548 165.34 178.5 166.015C186.268 168.697 198.211 170.66 210.036 171.598C221.853 172.535 233.846 172.471 241.71 170.962C243.688 170.583 245.471 170.1 246.954 169.487C248.405 168.887 249.753 168.086 250.657 166.965C251.646 165.738 252.016 164.218 251.56 162.604C251.144 161.137 250.102 159.787 248.731 158.532L248.73 158.531C247.643 157.537 246.568 155.772 245.64 153.209C244.725 150.682 244.013 147.548 243.545 144.003C242.608 136.913 242.672 128.378 243.889 120.182C245.11 111.962 247.465 104.258 250.986 98.7208C254.488 93.2136 258.946 90.1037 264.473 90.2716C269.788 90.433 273.328 93.9178 275.528 100.063C277.745 106.254 278.375 114.669 277.963 123.42C277.554 132.13 276.125 140.97 274.369 147.898C273.49 151.365 272.542 154.306 271.62 156.492C271.159 157.587 270.721 158.451 270.325 159.082C269.904 159.752 269.629 159.999 269.553 160.049Z" fill="#280000" stroke="#280000" stroke-width="4.16667"/>
<path d="M285.013 160.049L284.723 160.243L284.511 160.52C283.469 161.887 282.954 163.438 283.183 165.073C283.403 166.651 284.273 167.999 285.379 169.109C287.552 171.291 291.172 173.098 295.383 174.543C303.904 177.466 315.937 179.265 327.159 179.091C332.78 179.003 338.269 178.42 343.06 177.199C347.822 175.986 352.071 174.1 355.03 171.278C358.076 168.375 359.667 164.553 359.113 159.868C358.594 155.483 356.219 150.513 351.818 144.888C352.117 141.186 352.813 134.379 353.611 126.571C353.896 123.783 354.194 120.866 354.492 117.918C355.681 106.142 356.864 93.8548 357.145 87.4545C358.503 63.4577 339.97 46.6383 318.4 42.9791C302.648 40.307 285.093 44.5693 271.865 58.027C271.942 57.8719 272.011 57.716 272.074 57.5592C272.685 56.0214 272.578 54.4426 271.654 53.0856C270.825 51.8679 269.487 51.0511 268.085 50.473C266.646 49.8792 264.898 49.4395 262.959 49.1172C255.251 47.8362 243.257 48.2166 231.369 49.7377C219.475 51.2596 207.359 53.9654 199.429 57.5032C195.553 59.2322 192.234 61.3471 190.699 63.9841C189.876 65.3966 189.545 67.0004 189.973 68.6786C190.385 70.2951 191.439 71.7339 192.897 73.0184L192.905 73.0254L192.913 73.0322C194.092 74.0494 195.25 75.8236 196.284 78.3943C197.307 80.9355 198.147 84.0987 198.782 87.7189C200.054 94.9573 200.475 103.819 200.028 112.741C199.581 121.663 198.27 130.551 196.128 137.849C193.953 145.26 191.047 150.587 187.724 152.947C186.293 153.941 185.13 155.124 184.631 156.57C184.08 158.167 184.468 159.683 185.347 160.914C186.166 162.062 187.426 163.004 188.831 163.795C190.265 164.603 192.007 165.34 193.96 166.015C201.728 168.697 213.671 170.66 225.496 171.598C237.313 172.535 249.306 172.471 257.169 170.962C259.147 170.583 260.931 170.1 262.414 169.487C263.864 168.887 265.213 168.086 266.117 166.965C267.106 165.738 267.476 164.218 267.019 162.604C266.604 161.137 265.562 159.787 264.191 158.532L264.19 158.531C263.103 157.537 262.028 155.772 261.1 153.209C260.185 150.682 259.473 147.548 259.005 144.003C258.068 136.913 258.132 128.378 259.349 120.182C260.57 111.962 262.925 104.258 266.446 98.7208C269.948 93.2136 274.406 90.1037 279.933 90.2716C285.248 90.433 288.788 93.9178 290.988 100.063C293.205 106.254 293.834 114.669 293.423 123.42C293.014 132.13 291.585 140.97 289.829 147.898C288.95 151.365 288.002 154.306 287.08 156.492C286.618 157.587 286.181 158.451 285.785 159.082C285.364 159.752 285.089 159.999 285.013 160.049Z" fill="#FFD126" stroke="#280000" stroke-width="4.16667"/>
<mask id="mask1_3200_2111" style="mask-type:alpha" maskUnits="userSpaceOnUse" x="186" y="44" width="172" height="134">
<path d="M355.065 87.3496C354.511 99.9967 350.359 136.263 349.678 145.542C386.608 191.538 273.781 178.04 286.168 161.783C293.23 157.076 306.06 88.9808 279.996 88.1892C253.932 87.3977 251.243 149.52 262.784 160.068C282.716 178.322 168.477 168.827 188.921 154.653C204.666 143.492 206.558 82.0582 194.275 71.4552C173.944 53.545 289.817 40.7705 267.507 60.0321C267.109 60.3761 263.333 66.0699 260.95 78.2098C285.157 22.8898 357.643 42.0119 355.065 87.3496Z" fill="#FFD126"/>
</mask>
<g mask="url(#mask1_3200_2111)">
<path d="M221.683 136.779C244.943 115.845 211.591 87.2053 232.383 74.9061C243.836 68.1309 263.087 72.5801 263.087 72.5801L269.6 60.0193L274.252 55.3672L271.46 40.4804L229.126 36.2935L183.07 42.8064L194.235 89.7929L183.07 153.527L178.883 164.227L203.539 170.275H216.565C197.492 164.227 199.851 156.428 221.683 136.779Z" fill="#EBAC16"/>
<path d="M210.983 136.314C230.057 108.867 172.37 59.089 271.46 52.1108L260.761 40.0153L218.426 35.8284L172.37 42.3413L183.535 89.3278L172.37 153.062L168.183 163.762L192.84 169.81H205.865C186.792 163.762 194.222 160.434 210.983 136.314Z" fill="#E38D12"/>
</g>
<path d="M399.035 91.8454L399.049 91.8453L399.063 91.8451C403.322 91.7785 407.016 94.6854 409.855 100.018C412.672 105.311 414.361 112.54 414.694 119.9C415.027 127.266 413.989 134.513 411.583 139.853C409.186 145.175 405.647 148.226 401.004 148.31C395.773 148.32 391.608 145.195 388.593 139.924C385.562 134.625 383.875 127.41 383.679 120.069C383.483 112.727 384.784 105.511 387.48 100.213C390.163 94.9405 394.035 91.8559 399.035 91.8454ZM408.386 37.8899L408.387 37.891C409.734 38.8045 411.195 40.7843 412.329 47.392C413.26 52.8137 413.915 60.9811 414.33 73.4631C403.767 56.3843 389.366 43.6831 372.213 44.2471C356.093 44.7771 343.688 54.0718 335.477 67.3302C327.286 80.5574 323.162 97.8579 323.486 114.932C323.81 132.003 328.587 149.078 338.469 161.774C348.41 174.547 363.43 182.759 383.82 182.088C396.418 181.674 406.195 174.402 413.038 168.228C413.508 169.169 414.21 169.98 415.016 170.67C417.31 172.634 420.967 174.059 425.138 175.058C433.583 177.079 445.284 177.611 455.968 176.263C461.321 175.587 466.493 174.431 470.919 172.711C475.317 171.001 479.151 168.667 481.618 165.527C484.159 162.293 485.144 158.328 483.988 153.772C482.902 149.494 479.965 144.816 474.983 139.686C474.943 138.969 474.877 137.873 474.792 136.445C474.24 127.248 472.862 104.305 472.311 80.6698C471.971 66.083 471.953 51.3968 472.647 39.8245C472.994 34.0315 473.516 29.0812 474.249 25.3373C474.615 23.4636 475.024 21.9493 475.464 20.8066C475.922 19.618 476.336 19.0408 476.591 18.8167L477.226 18.2592L477.294 17.4168C477.59 13.704 475.97 10.8811 473.137 9.04384C470.459 7.30616 466.764 6.47616 462.71 6.21456C454.551 5.68804 443.918 7.40875 434.065 10.3023C424.237 13.1885 414.84 17.3422 409.275 21.9011C406.536 24.1448 404.358 26.7824 403.939 29.7258C403.481 32.9428 405.192 35.719 408.386 37.8899Z" fill="#280000" stroke="#280000" stroke-width="4.16667"/>
<path opacity="0.25" d="M392.817 91.8454L392.831 91.8453L392.845 91.8451C397.104 91.7785 400.798 94.6854 403.637 100.018C406.454 105.311 408.143 112.54 408.476 119.9C408.809 127.266 407.771 134.513 405.365 139.853C402.968 145.175 399.429 148.226 394.786 148.31C389.555 148.32 385.39 145.195 382.375 139.924C379.344 134.625 377.657 127.41 377.461 120.069C377.265 112.727 378.566 105.511 381.262 100.213C383.945 94.9405 387.817 91.8559 392.817 91.8454ZM402.168 37.8899L402.169 37.891C403.516 38.8045 404.977 40.7843 406.111 47.392C407.042 52.8137 407.697 60.9811 408.112 73.4631C397.549 56.3843 383.148 43.6831 365.995 44.2471C349.875 44.7771 337.47 54.0718 329.259 67.3302C321.068 80.5574 316.944 97.8579 317.268 114.932C317.592 132.003 322.369 149.078 332.251 161.774C342.192 174.547 357.212 182.759 377.602 182.088C390.2 181.674 399.977 174.402 406.82 168.228C407.29 169.169 407.992 169.98 408.798 170.67C411.092 172.634 414.749 174.059 418.92 175.058C427.365 177.079 439.066 177.611 449.75 176.263C455.103 175.587 460.275 174.431 464.701 172.711C469.099 171.001 472.933 168.667 475.4 165.527C477.941 162.293 478.926 158.328 477.77 153.772C476.684 149.494 473.747 144.816 468.765 139.686C468.725 138.969 468.659 137.873 468.574 136.445C468.022 127.248 466.644 104.305 466.093 80.6698C465.753 66.083 465.735 51.3968 466.429 39.8245C466.776 34.0315 467.298 29.0812 468.031 25.3373C468.397 23.4636 468.806 21.9493 469.246 20.8066C469.704 19.618 470.118 19.0408 470.373 18.8167L471.008 18.2592L471.076 17.4168C471.372 13.704 469.752 10.8811 466.919 9.04384C464.241 7.30616 460.546 6.47616 456.492 6.21456C448.332 5.68804 437.7 7.40875 427.847 10.3023C418.019 13.1885 408.622 17.3422 403.057 21.9011C400.318 24.1448 398.14 26.7824 397.721 29.7258C397.263 32.9428 398.973 35.719 402.168 37.8899Z" fill="#280000" stroke="#280000" stroke-width="4.16667"/>
<path d="M406.478 91.8454L406.493 91.8453L406.507 91.8451C410.765 91.7785 414.459 94.6854 417.298 100.018C420.116 105.31 421.805 112.54 422.137 119.9C422.47 127.266 421.433 134.513 419.027 139.853C416.629 145.175 413.09 148.226 408.446 148.31C403.216 148.32 399.052 145.195 396.037 139.924C393.006 134.625 391.319 127.41 391.123 120.069C390.926 112.727 392.228 105.511 394.924 100.213C397.606 94.9405 401.479 91.8559 406.478 91.8454ZM415.829 37.8899L415.831 37.891C417.178 38.8045 418.639 40.7843 419.773 47.392C420.703 52.8137 421.359 60.9811 421.774 73.4631C411.211 56.3843 396.809 43.6831 379.656 44.2471C363.537 44.7771 351.132 54.0718 342.921 67.3302C334.729 80.5574 330.605 97.8579 330.929 114.932C331.253 132.003 336.03 149.078 345.912 161.774C355.853 174.547 370.873 182.759 391.264 182.088C403.861 181.674 413.638 174.402 420.481 168.228C420.952 169.169 421.653 169.98 422.459 170.67C424.753 172.634 428.41 174.059 432.582 175.058C441.026 177.079 452.727 177.611 463.412 176.263C468.764 175.587 473.937 174.431 478.362 172.711C482.76 171.001 486.594 168.667 489.062 165.527C491.603 162.293 492.587 158.328 491.431 153.772C490.346 149.494 487.409 144.816 482.426 139.686C482.387 138.969 482.321 137.873 482.235 136.445C481.683 127.248 480.306 104.305 479.755 80.6698C479.415 66.083 479.397 51.3968 480.09 39.8245C480.437 34.0315 480.96 29.0812 481.692 25.3373C482.059 23.4636 482.467 21.9493 482.907 20.8066C483.365 19.618 483.78 19.0408 484.035 18.8167L484.67 18.2592L484.737 17.4168C485.033 13.704 483.413 10.8811 480.581 9.04384C477.902 7.30616 474.207 6.47616 470.153 6.21456C461.994 5.68804 451.361 7.40875 441.508 10.3023C431.68 13.1885 422.284 17.3422 416.718 21.9011C413.979 24.1448 411.802 26.7824 411.383 29.7258C410.924 32.9428 412.635 35.719 415.829 37.8899Z" fill="#FFD126" stroke="#280000" stroke-width="4.16667"/>
<mask id="mask2_3200_2111" style="mask-type:alpha" maskUnits="userSpaceOnUse" x="332" y="8" width="158" height="173">
<path d="M408.468 150.393C431.542 150.007 428.061 89.4246 406.474 89.762C382.272 89.813 383.521 150.468 408.468 150.393ZM480.385 140.581C521.976 182.409 412.074 180.809 422.671 163.331C415.811 169.887 405.33 179.541 391.195 180.006C312.338 182.599 318.722 48.3351 379.725 46.3293C397.951 45.7301 413.356 61.2355 424.084 81.7356C423.319 47.1302 421.19 39.008 417 36.1668C394.528 20.8937 484.506 -5.89648 482.66 17.2512C472.526 26.149 480.25 136.489 480.385 140.581Z" fill="#FFD126"/>
</mask>
<g mask="url(#mask2_3200_2111)">
<path d="M349.151 166.088C354.361 73.7897 389.625 71.1845 424.05 81.8844L418.933 68.8584L403.581 53.5064L392.416 46.063L381.251 43.2717L362.177 46.063L340.312 67.928L327.751 95.3756L328.682 127.94L332.869 147.014L349.151 166.088Z" fill="#EBAC16"/>
<path d="M337.055 139.571C342.266 47.2726 397.068 62.5005 424.05 81.8844L418.933 68.8584L403.581 53.5064L392.416 46.063L381.251 43.2717L362.177 46.063L340.312 67.928L327.751 95.3756L328.682 127.94L332.869 147.014L337.055 139.571Z" fill="#E38D12"/>
</g>
<path d="M548.411 58.6711L548.408 58.6734C546.866 59.6886 545.766 61.1525 545.071 62.7995C544.928 59.9875 543.806 57.2465 541.854 55.2241L541.847 55.2173C540.188 53.5146 537.781 51.9925 534.957 50.6299C532.108 49.255 528.711 47.9841 524.966 46.8328C517.476 44.5299 508.459 42.664 499.364 41.4142C490.269 40.1642 481.035 39.522 473.107 39.6896C465.289 39.8549 458.385 40.8088 454.211 43.0025L454.195 43.011L454.179 43.0198C449.574 45.5443 447.554 50.8136 448.284 55.597C449.029 60.4788 452.618 64.9399 459.109 66.0592C459.416 66.1849 459.896 66.4928 460.538 67.1509C461.239 67.8694 462.02 68.8874 462.872 70.215C464.574 72.8698 466.422 76.552 468.367 81.0214C472.252 89.9475 476.408 101.735 480.474 114.066C483.285 122.592 486.039 131.336 488.624 139.541C489.776 143.2 490.895 146.752 491.97 150.13C495.278 160.523 498.197 169.349 500.38 174.4C499.754 176.523 498.313 180.17 496.288 184.556C494.053 189.395 491.173 194.996 488.061 200.186C484.934 205.401 481.636 210.096 478.583 213.201C477.051 214.759 475.679 215.814 474.515 216.369C473.376 216.911 472.649 216.885 472.147 216.672C470.092 215.771 469.249 214.428 468.976 212.763C468.675 210.919 469.072 208.573 469.932 205.914C470.757 203.364 471.92 200.774 472.998 198.375L473.094 198.16C473.637 196.951 474.161 195.778 474.577 194.728C474.98 193.711 475.336 192.679 475.486 191.761C476.444 186.485 473.595 182.054 469.41 179.021C465.22 175.985 459.4 174.083 453.421 173.692C447.432 173.301 441.066 174.413 435.829 177.665C430.53 180.955 426.524 186.358 425.26 194.208C423.584 204.619 428.461 215.567 436.512 224.212C444.588 232.885 456.125 239.551 468.428 241.339C483.365 243.737 503.356 239.115 516.234 222.688L516.242 222.679C517.431 221.142 519.422 217.753 521.938 213.2C524.489 208.584 527.665 202.608 531.252 195.77C534.478 189.621 538.023 182.8 541.748 175.63C546.341 166.792 551.209 157.424 556.094 148.133C564.922 131.343 573.715 114.976 580.8 102.896C584.347 96.848 587.436 91.9256 589.869 88.5732C591.092 86.8876 592.098 85.6706 592.874 84.9149C593.222 84.5757 593.471 84.3813 593.627 84.2814C598.53 84.3847 602.371 82.2614 604.544 79.195C606.707 76.1424 607.21 72.1003 605.241 68.7795C603.383 65.645 599.298 63.1956 594.67 61.3242C589.918 59.4026 584.119 57.9065 578.252 56.9381C572.381 55.9692 566.36 55.5151 561.149 55.7169C556.051 55.9143 551.342 56.7493 548.411 58.6711ZM530.182 75.2117C537.515 75.5359 542.244 72.4487 544.16 67.9816C544.175 68.3486 544.206 68.712 544.253 69.0695C544.759 72.9192 547.218 76.849 552.06 77.6284C552.495 77.6984 552.562 77.8292 552.615 77.931L552.615 77.9317C552.737 78.169 552.873 78.7262 552.76 79.8058C552.535 81.9561 551.454 85.0929 549.708 88.9589C546.877 95.223 542.594 102.782 538.505 109.997C538.431 110.128 538.357 110.259 538.283 110.39C537.374 107.45 536.298 104.395 535.204 101.377C534.812 100.298 534.419 99.224 534.029 98.1601C532.689 94.5004 531.391 90.958 530.364 87.7115C529.02 83.462 528.251 80.044 528.351 77.7424C528.4 76.6121 528.651 76.0235 528.885 75.7339C529.055 75.5242 529.372 75.2702 530.182 75.2117ZM593.751 84.2123C593.751 84.2128 593.743 84.2167 593.729 84.2222C593.744 84.2145 593.751 84.2117 593.751 84.2123Z" fill="#280000" stroke="#280000" stroke-width="4.16667"/>
<path opacity="0.25" d="M540.729 58.6711L540.725 58.6734C539.184 59.6886 538.084 61.1525 537.389 62.7995C537.246 59.9875 536.123 57.2465 534.171 55.2241L534.165 55.2173C532.506 53.5146 530.099 51.9925 527.275 50.6299C524.426 49.255 521.029 47.9841 517.284 46.8328C509.794 44.5299 500.777 42.664 491.682 41.4142C482.587 40.1642 473.353 39.522 465.424 39.6896C457.607 39.8549 450.702 40.8088 446.529 43.0025L446.512 43.011L446.496 43.0198C441.891 45.5443 439.872 50.8136 440.602 55.597C441.346 60.4788 444.936 64.9399 451.427 66.0592C451.734 66.1849 452.213 66.4928 452.855 67.1509C453.557 67.8694 454.338 68.8874 455.189 70.215C456.892 72.8698 458.739 76.552 460.685 81.0214C464.57 89.9475 468.726 101.735 472.792 114.066C475.603 122.592 478.357 131.336 480.941 139.541C482.094 143.2 483.213 146.752 484.288 150.13C487.596 160.523 490.514 169.349 492.698 174.4C492.072 176.523 490.631 180.17 488.606 184.556C486.371 189.395 483.49 194.996 480.379 200.186C477.252 205.401 473.954 210.096 470.901 213.201C469.369 214.759 467.996 215.814 466.832 216.369C465.694 216.911 464.967 216.885 464.465 216.672C462.41 215.771 461.566 214.428 461.294 212.763C460.992 210.919 461.39 208.573 462.25 205.914C463.075 203.364 464.238 200.774 465.316 198.375L465.412 198.16C465.955 196.951 466.479 195.778 466.895 194.728C467.298 193.711 467.653 192.679 467.804 191.761C468.762 186.485 465.912 182.054 461.728 179.021C457.538 175.985 451.718 174.083 445.739 173.692C439.75 173.301 433.384 174.413 428.147 177.665C422.848 180.955 418.841 186.358 417.578 194.208C415.902 204.619 420.779 215.567 428.829 224.212C436.906 232.885 448.443 239.551 460.746 241.339C475.683 243.737 495.674 239.115 508.552 222.688L508.559 222.679C509.749 221.142 511.74 217.753 514.256 213.2C516.806 208.584 519.983 202.608 523.57 195.77C526.796 189.621 530.34 182.8 534.066 175.63C538.659 166.792 543.527 157.424 548.412 148.133C557.239 131.343 566.033 114.976 573.118 102.896C576.665 96.848 579.754 91.9256 582.186 88.5732C583.41 86.8876 584.416 85.6706 585.191 84.9149C585.54 84.5757 585.789 84.3813 585.945 84.2814C590.847 84.3847 594.689 82.2614 596.862 79.195C599.025 76.1424 599.527 72.1003 597.559 68.7795C595.7 65.645 591.616 63.1956 586.988 61.3242C582.236 59.4026 576.437 57.9065 570.57 56.9381C564.699 55.9692 558.678 55.5151 553.467 55.7169C548.369 55.9143 543.66 56.7493 540.729 58.6711ZM522.5 75.2117C529.833 75.5359 534.562 72.4487 536.478 67.9816C536.493 68.3486 536.524 68.712 536.571 69.0695C537.076 72.9192 539.536 76.849 544.378 77.6284C544.813 77.6984 544.88 77.8292 544.933 77.931L544.933 77.9317C545.055 78.169 545.19 78.7262 545.077 79.8058C544.852 81.9561 543.772 85.0929 542.025 88.9589C539.195 95.223 534.911 102.782 530.823 109.997C530.749 110.128 530.674 110.259 530.6 110.39C529.692 107.45 528.616 104.395 527.521 101.377C527.13 100.298 526.737 99.224 526.347 98.1601C525.007 94.5004 523.709 90.958 522.682 87.7115C521.338 83.462 520.569 80.044 520.669 77.7424C520.718 76.6121 520.969 76.0235 521.203 75.7339C521.372 75.5242 521.69 75.2702 522.5 75.2117ZM586.069 84.2123C586.069 84.2128 586.061 84.2167 586.046 84.2222C586.062 84.2145 586.069 84.2117 586.069 84.2123Z" fill="#280000" stroke="#280000" stroke-width="4.16667"/>
<path d="M555.854 58.671L555.851 58.6733C554.309 59.6885 553.21 61.1523 552.515 62.7993C552.372 59.9874 551.249 57.2463 549.297 55.224L549.291 55.2172C547.632 53.5144 545.225 51.9924 542.401 50.6297C539.552 49.2549 536.154 47.9839 532.41 46.8326C524.92 44.5298 515.902 42.6639 506.808 41.4141C497.712 40.1641 488.478 39.5219 480.55 39.6895C472.733 39.8547 465.828 40.8086 461.654 43.0024L461.638 43.0109L461.622 43.0197C457.017 45.5441 454.997 50.8134 455.727 55.5968C456.472 60.4787 460.062 64.9397 466.553 66.059C466.86 66.1847 467.339 66.4927 467.981 67.1508C468.682 67.8693 469.464 68.8872 470.315 70.2149C472.017 72.8697 473.865 76.5519 475.811 81.0213C479.696 89.9473 483.852 101.735 487.917 114.066C490.728 122.592 493.483 131.336 496.067 139.541C497.22 143.2 498.339 146.752 499.414 150.13C502.722 160.523 505.64 169.349 507.824 174.399C507.198 176.523 505.756 180.17 503.731 184.556C501.497 189.395 498.616 194.996 495.504 200.186C492.378 205.401 489.08 210.096 486.027 213.201C484.494 214.759 483.122 215.814 481.958 216.369C480.82 216.911 480.092 216.884 479.59 216.672C477.536 215.771 476.692 214.427 476.42 212.763C476.118 210.919 476.516 208.573 477.376 205.914C478.201 203.364 479.364 200.774 480.441 198.375L480.538 198.16C481.081 196.951 481.605 195.778 482.02 194.728C482.423 193.711 482.779 192.679 482.93 191.761C483.887 186.485 481.038 182.054 476.853 179.021C472.664 175.985 466.844 174.082 460.864 173.692C454.876 173.301 448.51 174.413 443.273 177.665C437.973 180.955 433.967 186.358 432.704 194.208C431.028 204.619 435.905 215.567 443.955 224.212C452.032 232.885 463.568 239.551 475.872 241.339C490.808 243.737 510.8 239.115 523.678 222.688L523.685 222.678C524.875 221.142 526.866 217.753 529.382 213.2C531.932 208.583 535.108 202.608 538.696 195.77C541.921 189.621 545.466 182.8 549.192 175.63C553.785 166.792 558.653 157.424 563.538 148.133C572.365 131.343 581.159 114.976 588.243 102.896C591.79 96.8479 594.879 91.9255 597.312 88.5731C598.535 86.8875 599.542 85.6705 600.317 84.9147C600.665 84.5756 600.915 84.3812 601.07 84.2813C605.973 84.3846 609.815 82.2612 611.988 79.1949C614.15 76.1423 614.653 72.1001 612.684 68.7794C610.826 65.6449 606.742 63.1955 602.114 61.324C597.362 59.4025 591.563 57.9063 585.695 56.938C579.825 55.969 573.803 55.5149 568.593 55.7168C563.495 55.9142 558.785 56.7492 555.854 58.671ZM537.625 75.2115C544.959 75.5358 549.687 72.4486 551.604 67.9814C551.619 68.3484 551.65 68.7119 551.697 69.0694C552.202 72.9191 554.661 76.8489 559.503 77.6282C559.939 77.6983 560.006 77.8291 560.058 77.9309L560.059 77.9315C560.181 78.1689 560.316 78.726 560.203 79.8057C559.978 81.9559 558.898 85.0928 557.151 88.9588C554.321 95.2228 550.037 102.782 545.949 109.997C545.874 110.128 545.8 110.259 545.726 110.39C544.818 107.45 543.741 104.395 542.647 101.377C542.256 100.298 541.863 99.2239 541.473 98.16C540.132 94.5003 538.835 90.9579 537.808 87.7114C536.463 83.4619 535.694 80.0439 535.795 77.7423C535.844 76.612 536.095 76.0234 536.329 75.7338C536.498 75.5241 536.816 75.2701 537.625 75.2115ZM601.195 84.2122C601.194 84.2127 601.187 84.2166 601.172 84.222C601.187 84.2143 601.195 84.2116 601.195 84.2122Z" fill="#FFD126" stroke="#280000" stroke-width="4.16667"/>
<mask id="mask3_3200_2111" style="mask-type:alpha" maskUnits="userSpaceOnUse" x="434" y="41" width="178" height="199">
<path d="M559.835 75.5714C552.486 74.3886 551.937 63.7454 556.997 60.4132C566.69 54.0572 604.963 59.8404 610.892 69.8418C613.857 74.8425 609.617 82.4531 600.988 82.1952C592.904 80.8941 530.604 210.342 522.038 221.403C509.705 237.135 490.517 241.586 476.187 239.279C452.612 235.862 431.685 213.646 434.761 194.539C439.433 165.511 483.965 174.563 480.877 191.406C479.99 196.918 467.847 213.811 478.764 218.584C488.639 222.812 507.874 182.935 510.028 174.235C501.417 155.131 479.272 67.882 467.075 64.034C455.684 62.2006 455.182 48.9262 462.624 44.8465C477.448 37.0547 536.475 45.0475 547.798 56.6709C552.968 62.0264 551.075 73.7846 537.611 73.1253C526.967 73.6739 540.997 98.9266 545.068 115.791C554.58 98.8511 567.918 76.8725 559.835 75.5714Z" fill="#FFD126"/>
</mask>
<g mask="url(#mask3_3200_2111)">
<path d="M506.393 72.5801C489.9 64.8835 463.903 66.9976 467.78 77.2322L462.198 80.0236L454.289 74.441L449.172 61.415L451.498 50.2499L475.224 47.4587L486.389 41.4109L552.449 50.2499L554.31 62.8107C553.069 70.5642 550.588 86.1644 550.588 86.5365C550.588 86.9087 546.866 116.31 545.471 115.38C535.05 117.985 527.328 82.3496 506.393 72.5801Z" fill="#EBAC16"/>
<path d="M505.463 57.6934C489.856 48.3294 463.903 53.9717 467.78 64.2064L462.198 66.9977L454.289 61.4151L449.172 48.3892L451.498 37.2241L475.224 34.4328L486.389 28.385L552.449 37.2241L554.31 49.7848C553.069 57.5383 550.588 73.1385 550.588 73.5107C550.588 73.8828 547.797 72.115 546.401 71.1846C526.862 79.0932 517.093 64.6716 505.463 57.6934Z" fill="#E38D12"/>
</g>
</svg>
