<svg width="44" height="51" viewBox="0 0 44 51" fill="none" xmlns="http://www.w3.org/2000/svg">
<path d="M2.01029 49.2814L1.21112 49.3179L1.24444 50.0472L1.97377 50.0806L2.01029 49.2814ZM2.01029 49.2814C1.21112 49.3179 1.21111 49.3177 1.2111 49.3175L1.21108 49.317L1.21101 49.3155L1.21081 49.3109L1.21016 49.2949L1.20812 49.2373C1.20651 49.1877 1.20455 49.1161 1.20295 49.0251C1.19976 48.8432 1.19805 48.5829 1.2037 48.2639C1.215 47.6273 1.25577 46.7504 1.37454 45.7927C1.49295 44.8378 1.6912 43.7832 2.02468 42.7985C2.35567 41.8212 2.83798 40.8582 3.55724 40.1389C5.06278 38.6334 6.66949 38.0769 8.22842 38.3483L9.71669 38.6075L8.66597 39.6929C8.39563 39.9722 8.16527 40.392 7.9818 40.9203C7.80065 41.4419 7.68143 42.0219 7.60486 42.5757C7.54199 43.0305 7.50949 43.4556 7.49311 43.7986C7.83603 43.7822 8.26119 43.7497 8.71597 43.6868C9.26983 43.6103 9.84976 43.4911 10.3714 43.3099C10.8997 43.1264 11.3195 42.8961 11.5988 42.6257L12.6842 41.575L12.9434 43.0633C13.2148 44.6222 12.6583 46.2289 11.1528 47.7345C10.4335 48.4537 9.47051 48.936 8.49316 49.267C7.50844 49.6005 6.45384 49.7987 5.49899 49.9172C4.54128 50.0359 3.66442 50.0767 3.02779 50.088C2.70882 50.0936 2.44852 50.0919 2.26656 50.0887C2.17554 50.0871 2.10401 50.0852 2.05442 50.0836L1.99676 50.0815L1.98082 50.0809L1.97617 50.0807L1.97468 50.0806L1.97416 50.0806C1.97395 50.0806 1.97377 50.0806 2.01029 49.2814ZM42.66 9.34553L42.5933 8.69835L41.9461 8.6317C32.4607 7.65482 23.2291 11.8609 17.1427 18.8928C13.6109 19.6732 10.4594 21.0941 7.96553 23.3695C5.33381 25.7706 3.48522 29.0773 2.66789 33.4511L2.42841 34.7327L3.67942 34.3658C5.97527 33.6924 8.16335 33.4615 10.2406 33.7429C10.2062 33.9764 10.1746 34.2109 10.146 34.4462L10.0988 34.833L10.3744 35.1086L16.1831 40.9173L16.4586 41.1928L16.8455 41.1457C17.0808 41.1171 17.3153 41.0855 17.5488 41.051C17.8301 43.1283 17.5993 45.3164 16.9259 47.6123L16.559 48.8633L17.8405 48.6238C22.2144 47.8065 25.5211 45.9579 27.9222 43.3261C30.1976 40.8322 31.6185 37.6808 32.3989 34.149C39.4308 28.0626 43.6369 18.831 42.66 9.34553ZM26.7838 24.5079C25.3113 23.0353 25.3112 20.6477 26.7838 19.1751C28.2563 17.7026 30.6441 17.7026 32.1166 19.1751C33.5891 20.6476 33.5891 23.0354 32.1166 24.5079C30.644 25.9805 28.2564 25.9804 26.7838 24.5079Z" fill="#EBAC16" stroke="#280000" stroke-width="1.6"/>
<path d="M2.01029 45.6356L1.21112 45.6721L1.24444 46.4014L1.97377 46.4347L2.01029 45.6356ZM2.01029 45.6356C1.21112 45.6721 1.21111 45.6719 1.2111 45.6717L1.21108 45.6712L1.21101 45.6697L1.21081 45.665L1.21016 45.6491L1.20812 45.5914C1.20651 45.5418 1.20455 45.4703 1.20295 45.3793C1.19976 45.1973 1.19805 44.937 1.2037 44.618C1.215 43.9814 1.25577 43.1046 1.37454 42.1469C1.49295 41.192 1.6912 40.1374 2.02468 39.1527C2.35567 38.1754 2.83798 37.2124 3.55724 36.4931C5.06278 34.9876 6.66949 34.431 8.22842 34.7025L9.71669 34.9617L8.66597 36.0471C8.39563 36.3263 8.16527 36.7462 7.9818 37.2745C7.80065 37.7961 7.68143 38.376 7.60486 38.9299C7.54199 39.3847 7.50949 39.8098 7.49311 40.1527C7.83603 40.1364 8.26119 40.1039 8.71597 40.041C9.26983 39.9644 9.84976 39.8452 10.3714 39.6641C10.8997 39.4806 11.3195 39.2502 11.5988 38.9799L12.6842 37.9292L12.9434 39.4174C13.2148 40.9764 12.6583 42.5831 11.1528 44.0886C10.4335 44.8079 9.47051 45.2902 8.49316 45.6212C7.50844 45.9547 6.45384 46.1529 5.49899 46.2713C4.54128 46.3901 3.66442 46.4308 3.02779 46.4421C2.70882 46.4478 2.44852 46.4461 2.26656 46.4429C2.17554 46.4413 2.10401 46.4393 2.05442 46.4377L1.99676 46.4357L1.98082 46.435L1.97617 46.4348L1.97468 46.4348L1.97416 46.4347C1.97395 46.4347 1.97377 46.4347 2.01029 45.6356ZM42.66 5.6997L42.5933 5.05251L41.9461 4.98586C32.4607 4.00898 23.2291 8.21506 17.1427 15.247C13.6109 16.0273 10.4594 17.4482 7.96553 19.7236C5.33381 22.1248 3.48522 25.4315 2.66789 29.8053L2.42841 31.0868L3.67942 30.7199C5.97527 30.0466 8.16335 29.8157 10.2406 30.0971C10.2062 30.3306 10.1746 30.565 10.146 30.8003L10.0988 31.1872L10.3744 31.4628L16.1831 37.2714L16.4586 37.547L16.8455 37.4999C17.0808 37.4712 17.3153 37.4396 17.5488 37.4052C17.8301 39.4825 17.5993 41.6706 16.9259 43.9664L16.559 45.2174L17.8405 44.978C22.2144 44.1606 25.5211 42.312 27.9222 39.6803C30.1976 37.1864 31.6185 34.0349 32.3989 30.5031C39.4308 24.4167 43.6369 15.1852 42.66 5.6997ZM26.7838 20.862C25.3113 19.3895 25.3112 17.0018 26.7838 15.5293C28.2563 14.0567 30.6441 14.0567 32.1166 15.5293C33.5891 17.0018 33.5891 19.3895 32.1166 20.8621C30.644 22.3346 28.2564 22.3346 26.7838 20.862Z" fill="#E38D12" stroke="#280000" stroke-width="1.6"/>
<path d="M2.01029 41.9897L1.21112 42.0262L1.24444 42.7556L1.97377 42.7889L2.01029 41.9897ZM2.01029 41.9897C1.21112 42.0262 1.21111 42.026 1.2111 42.0258L1.21108 42.0253L1.21101 42.0238L1.21081 42.0192L1.21016 42.0032L1.20812 41.9456C1.20651 41.896 1.20455 41.8245 1.20295 41.7334C1.19976 41.5515 1.19805 41.2912 1.2037 40.9722C1.215 40.3356 1.25577 39.4587 1.37454 38.501C1.49295 37.5462 1.6912 36.4916 2.02468 35.5069C2.35567 34.5295 2.83798 33.5665 3.55724 32.8472C5.06278 31.3417 6.66949 30.7852 8.22842 31.0567L9.71669 31.3158L8.66597 32.4012C8.39563 32.6805 8.16527 33.1003 7.9818 33.6286C7.80065 34.1503 7.68143 34.7302 7.60486 35.284C7.54199 35.7388 7.50949 36.164 7.49311 36.5069C7.83603 36.4905 8.26119 36.458 8.71597 36.3951C9.26983 36.3186 9.84976 36.1994 10.3714 36.0182C10.8997 35.8348 11.3195 35.6044 11.5988 35.3341L12.6842 34.2833L12.9434 35.7716C13.2148 37.3305 12.6583 38.9372 11.1528 40.4428C10.4335 41.162 9.47051 41.6444 8.49316 41.9753C7.50844 42.3088 6.45384 42.5071 5.49899 42.6255C4.54128 42.7442 3.66442 42.785 3.02779 42.7963C2.70882 42.802 2.44852 42.8002 2.26656 42.797C2.17554 42.7955 2.10401 42.7935 2.05442 42.7919L1.99676 42.7898L1.98082 42.7892L1.97617 42.789L1.97468 42.7889L1.97416 42.7889C1.97395 42.7889 1.97377 42.7889 2.01029 41.9897ZM42.66 2.05385L42.5933 1.40667L41.9461 1.34002C32.4607 0.363139 23.2291 4.56921 17.1427 11.6011C13.6109 12.3815 10.4594 13.8024 7.96553 16.0778C5.33381 18.4789 3.48522 21.7856 2.66789 26.1595L2.42841 27.441L3.67942 27.0741C5.97527 26.4007 8.16335 26.1699 10.2406 26.4512C10.2062 26.6847 10.1746 26.9192 10.146 27.1545L10.0988 27.5413L10.3744 27.8169L16.1831 33.6256L16.4586 33.9012L16.8455 33.854C17.0808 33.8254 17.3153 33.7938 17.5488 33.7594C17.8301 35.8367 17.5993 38.0247 16.9259 40.3206L16.559 41.5716L17.8405 41.3321C22.2144 40.5148 25.5211 38.6662 27.9222 36.0345C30.1976 33.5406 31.6185 30.3891 32.3989 26.8573C39.4308 20.7709 43.6369 11.5394 42.66 2.05385ZM26.7838 17.2162C25.3113 15.7436 25.3112 13.356 26.7838 11.8834C28.2563 10.4109 30.6441 10.4109 32.1166 11.8834C33.5891 13.356 33.5891 15.7437 32.1166 17.2162C30.644 18.6888 28.2564 18.6888 26.7838 17.2162Z" fill="#FFD026" stroke="#280000" stroke-width="1.6"/>
</svg>
