<svg width="1451" height="1376" viewBox="0 0 1451 1376" fill="none" xmlns="http://www.w3.org/2000/svg">
<g clip-path="url(#clip0_3201_3252)">
<mask id="mask0_3201_3252" style="mask-type:alpha" maskUnits="userSpaceOnUse" x="-108" y="-137" width="1573" height="1665">
<path d="M-104.355 -26.4221C-124.516 -93.074 -57.4433 -154.914 8.38745 -132.215C117.071 -94.7408 260.378 -51.6004 374.766 -39.0898C505.948 -24.7422 582.991 -16.8098 716.432 -16.6642C848.405 -16.5203 921.673 -24.1023 1054.35 -38.2565C1173.47 -50.9642 1322.44 -96.2377 1435.67 -135.779C1457.7 -143.474 1475.94 -109.118 1456.82 -95.7344C1451.61 -92.0923 1448.52 -86.1406 1448.52 -79.7896V264.244C1448.52 309.807 1411.58 346.744 1366.02 346.744H69.7532C33.3896 346.744 1.31423 322.935 -9.2136 288.129L-104.355 -26.4221Z" fill="#160000"/>
<path d="M-104.355 1416.58C-124.516 1483.23 -57.4433 1545.07 8.38745 1522.37C117.071 1484.89 260.378 1441.75 374.766 1429.24C505.948 1414.9 582.991 1406.96 716.432 1406.82C848.405 1406.67 921.673 1414.26 1054.35 1428.41C1173.47 1441.12 1322.44 1486.39 1435.67 1525.93C1457.7 1533.63 1475.94 1499.27 1456.82 1485.89C1451.61 1482.25 1448.52 1476.29 1448.52 1469.94V1125.91C1448.52 1080.35 1411.58 1043.41 1366.02 1043.41H69.7532C33.3896 1043.41 1.31423 1067.22 -9.2136 1102.03L-104.355 1416.58Z" fill="#160000"/>
<path d="M-6.48438 195.077H1433.52V1306.74H-6.48438V195.077Z" fill="#160000"/>
</mask>
<g mask="url(#mask0_3201_3252)">
<path d="M415.024 741.265C430.166 745.89 451.591 742.749 465.482 739.332C501.524 730.482 522.807 725.674 537.999 695.49H369.249C371.641 699.44 374.032 703.399 376.416 707.349C385.766 722.249 396.457 735.599 415.016 741.265H415.024Z" fill="#0E0000"/>
<path d="M222.832 853.773C222.482 852.14 221.716 851.323 220.349 850.74C221.174 851.748 222.007 852.765 222.832 853.773Z" fill="#0E0000"/>
<path d="M57.9406 843.84C68.0656 856.44 79.8322 867.965 88.5489 881.89C101.257 902.19 105.507 934.207 130.741 941.999C169.257 953.899 198.966 911.632 235.524 927.657C249.766 933.899 253.032 949.132 260.616 962.123C266.499 972.198 272.724 983.407 281.574 990.524C291.899 998.832 303.107 1005.64 316.591 1010.93C332.791 1017.29 349.532 1020.74 363.191 1029.13C388.324 1044.57 402.607 1070.47 417.791 1095.86C426.457 1110.36 434.674 1125.06 447.574 1135.29C462.016 1146.74 483.882 1155.68 509.066 1147.97C516.899 1145.57 524.916 1142.08 531.399 1138.05C543.991 1130.22 555.557 1119.42 560.349 1103.86C567.191 1081.63 559.316 1054.18 554.557 1034.92C551.657 1023.19 551.407 1010.89 549.316 997.974C548.141 990.707 549.399 981.624 550.416 975.365C550.874 968.84 551.332 962.315 551.791 955.79C551.607 953.674 551.424 951.565 551.241 949.449C551.149 945.59 551.057 941.724 550.966 937.865C549.682 930.424 548.391 922.974 547.107 915.532C542.882 901.107 538.649 886.674 534.424 872.24C532.482 865.89 529.032 856.774 530.566 847.974C531.807 840.849 534.399 835.59 538.007 830.882C554.399 809.482 601.457 806.574 624.866 790.074C632.841 784.457 640.957 777.015 646.649 769.115C652.416 761.115 656.232 751.024 665.674 746.782C677.774 741.349 693.916 745.432 708.966 742.374C727.407 738.615 734.14 727.057 739.024 709.557C740.032 704.874 741.049 700.182 742.057 695.49H646.099C631.549 695.49 612.624 693.599 603.357 699.074C581.441 712.04 577.257 741.157 552.624 751.74C544.274 755.324 534.857 756.415 525.599 759.182C503.907 765.674 477.657 773.365 466.316 790.34C462.457 796.115 460.782 803.915 459.149 811.849C452.124 845.849 466.757 877.898 474.316 902.015C480.174 920.707 481.966 940.724 485.624 962.674C489.107 983.615 489.724 1019.47 475.974 1027.75C464.732 1034.51 451.799 1023.58 446.191 1018.1C425.857 998.207 412.232 969.34 383.874 957.715C376.499 954.69 368.266 953.799 360.157 951.374C345.607 947.015 330.574 940.648 322.107 930.14C315.232 921.615 308.841 912.84 303.082 903.115C293.991 887.765 288.641 869.998 273.299 860.923C251.466 848.007 211.016 859.732 183.957 853.757C145.224 845.199 105.024 814.59 97.0989 775.449C94.3905 762.09 96.6489 745.007 98.7572 732.982C100.824 721.174 100.991 709.09 100.966 695.482H35.6156C35.5656 711.849 32.5822 726.007 29.5489 739.874C28.3572 748.332 27.1572 756.79 25.9655 765.24C24.3155 774.565 24.2822 787.465 26.5156 796.124C32.0489 817.532 46.0739 829.057 57.9489 843.824L57.9406 843.84Z" fill="#0E0000"/>
<path d="M152.249 750.365C158.874 782.624 174.44 802.79 206.565 809.649C242.557 817.332 290.407 800.515 315.757 819.849C339.132 837.674 337.865 881.382 362.357 897.882C374.224 905.882 394.707 907.907 403.99 895.949C415.207 881.499 411.957 851.79 405.924 834.182C390.549 789.332 369.707 764.499 318.24 755.599C290.44 750.79 245.707 761.224 225.315 748.707C214.057 741.799 213.59 726.382 210.149 711.482C209.049 706.24 207.94 701.007 206.84 695.765C186.624 695.674 166.399 695.582 146.182 695.49C147.282 702.29 148.39 709.09 149.49 715.899C150.407 727.39 151.332 738.882 152.249 750.365Z" fill="#0E0000"/>
<path d="M287.632 703.215C292.424 701.773 296.041 698.99 300.041 697.149C300.407 696.69 300.774 696.232 301.141 695.773C286.066 695.682 270.991 695.59 255.916 695.499C259.482 703.365 276.491 706.565 287.624 703.215H287.632Z" fill="#0E0000"/>
<path d="M426.607 993.015C425.232 991.357 423.849 989.707 422.474 988.048C423.207 989.148 423.941 990.257 424.682 991.357C425.324 991.907 425.966 992.457 426.616 993.015H426.607Z" fill="#0E0000"/>
<path d="M248.199 853.49L248.474 853.215C247.832 852.39 247.191 851.557 246.541 850.732C246.816 851.465 247.091 852.198 247.366 852.94C247.641 853.123 247.916 853.307 248.191 853.49H248.199Z" fill="#0E0000"/>
<path d="M70.0738 961.032L63.1821 954.14C64.1738 957.265 67.3571 959.632 70.0738 961.032Z" fill="#0E0000"/>
<path d="M773.207 742.923C772.824 746.265 772.132 749.465 771.149 752.507C772.682 749.04 774.224 744.848 773.207 742.923Z" fill="#0E0000"/>
<path d="M769.066 756.982C768.024 759.365 766.957 761.524 765.816 763.474C768.057 760.165 769.849 756.474 771.141 752.499C770.316 754.357 769.491 756.007 769.066 756.982Z" fill="#0E0000"/>
<path d="M414.199 1242.56V1242.83H419.716C417.966 1242.56 416.224 1242.28 414.474 1242.01L414.199 1242.56Z" fill="#0E0000"/>
<path d="M519.799 719.765C516.307 721.974 512.816 724.174 509.324 726.382C520.191 724.332 536.449 705.54 539.657 695.499H538.832C535.932 704.274 526.615 714.474 519.807 719.765H519.799Z" fill="#0E0000"/>
<path d="M1008.41 772.423C1009.42 773.157 1010.43 773.89 1011.44 774.632C1010.65 773.573 1009.82 772.882 1008.41 772.423Z" fill="#0E0000"/>
<path d="M1011.44 774.632C1013.47 776.099 1015.48 777.574 1017.51 779.04C1016.13 777.349 1013.67 775.374 1011.44 774.632Z" fill="#0E0000"/>
<path d="M578.807 724.448C578.716 724.723 578.624 724.998 578.532 725.273C578.924 724.723 578.749 724.848 578.807 724.448Z" fill="#0E0000"/>
<path d="M577.982 725.823C577.799 726.282 577.615 726.74 577.432 727.199C578.049 726.54 577.982 726.465 577.982 725.823Z" fill="#0E0000"/>
<path d="M715.849 741.265C718.691 742.09 723.216 738.474 725.224 737.132C734.541 730.915 738.307 722.049 741.766 709.832C742.399 707.599 745.516 696.99 744.249 695.49C741.332 714.207 733.216 737.49 715.849 741.265Z" fill="#0E0000"/>
<path d="M594.249 704.323C596.44 702.573 602.399 699.207 602.799 696.882C600.041 698.907 597.282 700.924 594.524 702.949C588.749 707.557 581.574 716.94 579.082 724.457C585.199 718.874 587.699 709.532 594.249 704.332V704.323Z" fill="#0E0000"/>
<path d="M374.491 1108.82C374.032 1108.09 373.574 1107.36 373.116 1106.62C373.391 1107.26 373.666 1107.9 373.941 1108.55L374.491 1108.82Z" fill="#0E0000"/>
<path d="M231.107 1019.49C230.032 1017.18 226.874 1014.42 224.491 1013.42C226.699 1015.45 228.899 1017.47 231.107 1019.49Z" fill="#0E0000"/>
<path d="M340.574 1070.22C346.799 1073.91 356.141 1079.62 359.324 1086.22C359.782 1086.58 360.241 1086.95 360.699 1087.32C357.391 1079.77 339.791 1067.12 330.641 1065.26C333.949 1066.92 337.257 1068.57 340.566 1070.22H340.574Z" fill="#0E0000"/>
<path d="M270.257 1054.51V1054.23C266.766 1052.48 263.274 1050.74 259.782 1048.99C261.866 1051.26 266.807 1053.87 270.257 1054.51Z" fill="#0E0000"/>
<path d="M79.7239 993.565V994.115H79.9989C79.9072 993.932 79.8155 993.749 79.7239 993.565Z" fill="#0E0000"/>
<path d="M233.316 1021.97C236.041 1027.73 250.491 1043.95 256.199 1046.51C252.707 1043.11 249.216 1039.71 245.724 1036.31C241.941 1031.57 238.149 1025.63 233.316 1021.97Z" fill="#0E0000"/>
<path d="M218.699 1005.7C218.332 1005.61 217.966 1005.52 217.599 1005.42C217.966 1005.61 218.332 1005.79 218.699 1005.97V1005.7Z" fill="#0E0000"/>
<path d="M70.0739 956.065C67.8989 953.532 63.5405 951.273 60.9739 949.173C62.1405 952.582 66.6239 954.998 70.0739 956.065Z" fill="#0E0000"/>
<path d="M78.3488 991.09C77.9821 990.265 77.6154 989.432 77.2488 988.607C77.5238 989.248 77.7988 989.89 78.0738 990.54V991.09H78.3488Z" fill="#0E0000"/>
<path d="M59.324 945.59C60.1656 948.423 65.949 950.573 69.249 950.832V950.557C65.5656 949.798 61.9906 947.523 59.324 945.59Z" fill="#0E0000"/>
<path d="M75.0405 974.265C75.7739 974.723 76.5072 975.182 77.2489 975.64C76.6822 974.648 76.3655 974.507 75.0405 974.265Z" fill="#0E0000"/>
<path d="M73.3823 972.89H72.8323V973.44C73.0156 973.257 73.1989 973.073 73.3823 972.89Z" fill="#0E0000"/>
<path d="M385.516 1197.89C384.232 1196.97 382.941 1196.05 381.657 1195.13C381.949 1196.18 383.841 1197.43 385.516 1197.89Z" fill="#0E0000"/>
<path d="M384.416 1193.48C384.874 1193.67 385.332 1193.85 385.791 1194.03V1193.76C385.332 1193.67 384.874 1193.57 384.416 1193.48Z" fill="#0E0000"/>
<path d="M387.174 1202.02V1201.75C384.874 1200.92 382.574 1200.09 380.282 1199.27C381.191 1200.59 385.366 1201.77 387.174 1202.02Z" fill="#0E0000"/>
<path d="M384.966 1189.62C384.507 1189.43 384.049 1189.25 383.591 1189.07C384.141 1189.78 383.899 1189.62 384.966 1189.89V1189.62Z" fill="#0E0000"/>
<path d="M408.407 1232.63C407.766 1232.45 407.124 1232.27 406.474 1232.08C407.116 1232.36 407.757 1232.63 408.407 1232.91V1232.63Z" fill="#0E0000"/>
<path d="M398.199 1215.82H398.474C397.974 1215.26 398.474 1215.61 397.649 1215.27C397.832 1215.45 398.016 1215.63 398.199 1215.82Z" fill="#0E0000"/>
<path d="M389.107 1194.86C388.557 1194.77 388.007 1194.67 387.449 1194.58C387.999 1194.77 388.549 1194.95 389.107 1195.13V1194.86Z" fill="#0E0000"/>
<path d="M387.449 1194.31C386.899 1194.22 386.349 1194.12 385.791 1194.03C386.341 1194.22 386.891 1194.4 387.449 1194.58V1194.31Z" fill="#0E0000"/>
<path d="M373.107 1106.62C372.649 1105.8 372.191 1104.97 371.732 1104.14C372.007 1104.87 372.282 1105.61 372.557 1106.35L373.107 1106.62Z" fill="#0E0000"/>
<path d="M1045.36 802.482C1043.89 801.29 1042.42 800.09 1040.95 798.898C1041.84 800.373 1043.67 801.832 1045.36 802.482Z" fill="#0E0000"/>
<path d="M371.732 1104.14C371.282 1102.12 369.999 1099.89 368.699 1098.62C369.616 1100.28 370.541 1101.93 371.457 1103.59V1104.14H371.732Z" fill="#0E0000"/>
<path d="M743.424 779.598C754.882 776.457 760.999 771.773 765.824 763.482C759.257 773.165 748.824 779.657 735.707 780.982C737.891 781.79 741.449 780.148 743.424 779.607V779.598Z" fill="#0E0000"/>
<path d="M1358.6 1048.44C1358.69 1048.26 1358.78 1048.07 1358.87 1047.89C1344.8 1046.52 1330.76 1045.6 1318.34 1042.37C1309.88 1039.43 1301.42 1036.49 1292.97 1033.55C1295.32 1037.02 1302.62 1038.21 1306.76 1039.89C1320.69 1045.56 1339.58 1048.52 1358.6 1048.44Z" fill="#0E0000"/>
<path d="M1393.34 927.39C1393.25 927.115 1393.16 926.84 1393.07 926.565V927.39H1393.34Z" fill="#0E0000"/>
<path d="M1394.44 922.148C1394.26 922.973 1394.07 923.807 1393.89 924.632C1394.07 924.357 1394.26 924.082 1394.44 923.807C1394.97 923.248 1394.91 923.015 1394.44 922.148Z" fill="#0E0000"/>
<path d="M1393.62 924.907C1393.52 925.273 1393.43 925.64 1393.34 926.007L1393.89 925.732C1393.74 924.873 1394.2 925.548 1393.62 924.907Z" fill="#0E0000"/>
<path d="M1288.56 1160.39H1288.83C1290.21 1147.34 1294.17 1132.05 1299.31 1121.79C1300.42 1119.56 1305.88 1110.24 1305.65 1109.66C1304.09 1111.77 1302.52 1113.88 1300.97 1116C1295.27 1125.69 1288.59 1146.08 1288.56 1160.39Z" fill="#0E0000"/>
<path d="M1198.39 975.09C1204.46 978.032 1210.52 980.974 1216.59 983.915C1213.73 980.715 1209.17 979.507 1205.28 977.299C1190.95 969.157 1174.08 964.949 1155.1 961.307C1141.63 958.724 1125.92 960.982 1116.5 954.69C1110.04 950.374 1104.6 941.615 1102.99 932.632C1102.25 928.499 1104.23 923.824 1104.09 921.882C1097.95 933.374 1107.37 948.34 1114.02 953.59C1125.19 962.432 1147.85 960.407 1164.2 964.065C1176.5 966.824 1187.89 970.457 1198.39 975.098V975.09Z" fill="#0E0000"/>
<path d="M1102.16 878.307H1101.06C1095.51 881.207 1089.54 881.64 1085.89 886.307C1091.3 883.932 1095.14 879.707 1102.16 878.59V878.315V878.307Z" fill="#0E0000"/>
<path d="M1251.61 1082.63C1244.62 1049.92 1228.36 1032.81 1203.91 1017.83C1194.67 1012.18 1183.82 1005.43 1169.17 1005.7C1166.33 1006.77 1163.17 1006.26 1160.89 1007.63C1151.16 1013.48 1157.34 1025.79 1162.27 1032.17C1172.68 1045.66 1199.76 1061.67 1195.08 1088.97C1191.77 1108.36 1185.1 1121.35 1175.78 1134.47C1168.26 1145.06 1160.43 1153.59 1157.58 1169.22C1153.21 1193.19 1172.52 1225.94 1196.46 1221.61C1234.84 1214.66 1242.44 1171.07 1250.5 1133.37C1253.55 1119.11 1254.89 1098.04 1251.6 1082.64L1251.61 1082.63Z" fill="#0E0000"/>
<path d="M1396.37 919.949C1396.28 919.674 1396.19 919.399 1396.1 919.124V919.949H1396.37Z" fill="#0E0000"/>
<path d="M1247.75 1154.32C1247.66 1154.05 1247.57 1153.77 1247.47 1153.5V1154.32H1247.75Z" fill="#0E0000"/>
<path d="M1248.02 1153.5C1249.11 1148.04 1255.13 1131.27 1252.99 1125.65C1251.24 1134.93 1249.5 1144.22 1247.75 1153.5H1248.02Z" fill="#0E0000"/>
<path d="M1060.25 812.957V812.682C1055.37 809.374 1050.51 806.065 1045.63 802.757C1048.39 806.382 1055.43 811.74 1060.25 812.957Z" fill="#0E0000"/>
<path d="M1468.89 914.707C1466.68 913.882 1464.48 913.048 1462.27 912.223C1450.65 907.748 1440.27 902.223 1424.22 902.573V902.848C1428.45 903.307 1432.68 903.765 1436.91 904.223C1447.48 907.232 1458.24 910.648 1468.07 914.698H1468.89V914.707Z" fill="#0E0000"/>
<path d="M1396.65 918.565C1399.41 915.682 1401.51 912.515 1404.37 909.74L1403.82 909.465C1401.35 912.315 1397.57 914.207 1396.65 918.565Z" fill="#0E0000"/>
<path d="M1510.25 920.224V882.174C1506.55 882.015 1503.92 880.315 1500.87 879.415C1492.32 876.89 1483.82 874.099 1475.78 871.974C1453.42 866.049 1431.22 861.324 1407.12 856.532C1393.11 853.74 1365.48 855.69 1357.77 862.599C1352.98 866.882 1347.4 870.74 1343.98 876.382C1339.02 884.582 1332.45 920.84 1335.16 935.39C1337.03 945.474 1343.37 969.365 1339.29 978.682C1335.17 988.099 1327.33 986.982 1316.41 986.399V986.674C1318.52 987.132 1320.63 987.59 1322.75 988.049C1320.57 989.924 1313.76 986.607 1312 985.565C1303.5 980.557 1297.11 972.557 1289.39 966.54C1257.52 941.699 1217.09 925.665 1170.27 915.807C1151.51 911.857 1109.51 909.799 1104.65 926.282C1102.42 933.849 1107.19 941.265 1109.89 945.307C1122.1 963.649 1156.61 957.94 1179.65 965.157C1224.4 979.174 1254.08 1006.87 1290.77 1028.85C1302.4 1035.82 1314.87 1040.26 1330.76 1043.47C1337.56 1044.11 1344.36 1044.75 1351.17 1045.4C1357.84 1046.52 1367.9 1046.67 1374.61 1045.4C1387.44 1042.96 1398.39 1038.32 1402.73 1027.47C1405.71 1020.04 1403.22 1008.02 1401.36 1001.83C1397.02 987.499 1393.91 974.265 1390.88 957.99C1387.42 939.407 1392.67 916.924 1401.92 909.74C1426.77 890.432 1463.55 910.557 1484.92 919.94C1489.77 922.074 1508.4 928.049 1508.91 932.899C1511.36 931.532 1510.28 923.882 1510.28 920.215L1510.25 920.224Z" fill="#0E0000"/>
<path d="M1404.92 908.915C1404.73 909.007 1404.55 909.098 1404.37 909.19C1404.97 909.348 1404.72 909.173 1404.92 908.915Z" fill="#0E0000"/>
<path d="M1145.45 1092.56C1147.61 1079.34 1141 1068.03 1133.59 1062.5C1138.31 1072.57 1147.01 1076.25 1145.17 1092.56H1145.45Z" fill="#0E0000"/>
<path d="M1211.35 925.182V924.907C1211.07 924.815 1210.8 924.724 1210.52 924.632C1211.02 925.19 1210.52 924.84 1211.35 925.182Z" fill="#0E0000"/>
<path d="M1306.21 979.782C1308.1 982.332 1312.28 985.415 1315.86 986.123C1312.64 984.007 1309.42 981.898 1306.21 979.782Z" fill="#0E0000"/>
<path d="M1271.47 952.482C1275.69 955.24 1279.92 957.998 1284.15 960.757C1291.11 965.682 1296.71 972.29 1303.45 977.298C1300.29 970.598 1279.32 954.64 1271.47 952.482Z" fill="#0E0000"/>
<path d="M1207.22 923.807V923.532C1205.93 923.165 1204.64 922.798 1203.36 922.432C1204.12 923.365 1205.64 923.723 1207.22 923.807Z" fill="#0E0000"/>
<path d="M1192.05 919.398C1194.44 920.132 1196.83 920.865 1199.22 921.607C1198.11 920.29 1194.27 919.432 1192.05 919.398Z" fill="#0E0000"/>
<path d="M1189.29 918.565C1190.21 918.84 1191.13 919.115 1192.05 919.39V919.115C1191.13 918.932 1190.21 918.749 1189.29 918.565Z" fill="#0E0000"/>
<path d="M1111.53 784.282C1129.02 790.657 1156.75 793.032 1170.82 782.073C1187.18 769.332 1177.08 724.157 1170.27 706.798C1168.61 703.032 1166.96 699.265 1165.3 695.49H1124.77C1128.03 701.932 1131.25 709.057 1132.77 716.998C1134.69 727.107 1124.32 735.023 1116.22 730.782C1114.59 729.932 1113.05 729.29 1110.98 728.298C1112.57 730.49 1116.76 731.157 1119.26 732.432H1119.81C1115.06 734.115 1107.53 727.823 1104.64 725.815C1098.11 721.282 1090.86 716.182 1085.89 710.098C1081.57 705.415 1077.25 700.723 1072.93 696.032C1070.92 694.273 1062.45 695.482 1059.15 695.482H1020.27C1022.55 705.682 1032.21 717.965 1037.92 725.54C1054 746.832 1084.61 774.457 1111.55 784.273L1111.53 784.282Z" fill="#0E0000"/>
<path d="M1316.68 712.315C1335.66 720.482 1366.4 706.69 1390.03 710.94C1416.93 715.774 1435.9 723.832 1457.32 733.273C1472.37 739.915 1488.13 749.765 1510.26 747.89V729.69C1485.87 729.557 1466.62 714.465 1450.97 704.599C1446.29 701.565 1441.6 698.532 1436.91 695.499H1302.62C1306.5 702.057 1309.41 709.182 1316.69 712.315H1316.68Z" fill="#0E0000"/>
<path d="M1378.17 855.423C1377.44 855.332 1376.71 855.24 1375.97 855.148C1376.23 855.715 1376.11 855.632 1378.17 855.423Z" fill="#0E0000"/>
<path d="M1193.15 1092.01C1197.03 1086.89 1191.34 1070.2 1189.84 1066.92C1182.8 1051.52 1170.1 1044.14 1160.89 1031.35C1158.94 1028.64 1155.29 1024.68 1154.11 1019.87C1155.17 1024.83 1157.95 1029.8 1160.62 1033.27C1173.59 1050.21 1196.21 1059.92 1193.15 1092.01Z" fill="#0E0000"/>
<path d="M1153.77 1017.67C1153.82 1018.42 1153.93 1019.15 1154.11 1019.87C1153.95 1019.13 1153.83 1018.4 1153.77 1017.67Z" fill="#0E0000"/>
<path d="M1154 1014.25C1154.61 1011.51 1156.69 1009.6 1158.41 1007.91C1166.4 1000.03 1182.72 1004.92 1193.78 1009.47C1186.65 1005.92 1179.03 1002.74 1167.51 1002.95C1164.84 1003.77 1162.17 1004.61 1159.51 1005.43C1154.64 1008.42 1153.28 1012.95 1153.76 1017.67C1153.68 1016.57 1153.73 1015.43 1153.99 1014.26L1154 1014.25Z" fill="#0E0000"/>
<path d="M1206.94 1015.62C1206.36 1015.41 1205.78 1015.18 1205.22 1014.95C1205.79 1015.26 1206.37 1015.58 1206.94 1015.9V1015.62Z" fill="#0E0000"/>
<path d="M1201.42 1012.87C1199.46 1011.95 1196.82 1010.72 1193.78 1009.47C1197.56 1011.35 1201.2 1013.32 1205.22 1014.96C1203.95 1014.27 1202.69 1013.57 1201.42 1012.87Z" fill="#0E0000"/>
<path d="M1241.13 937.04V936.765C1231.45 933.832 1222.94 927.182 1212.18 925.457C1221.83 929.315 1231.48 933.182 1241.13 937.04Z" fill="#0E0000"/>
<path d="M1112.08 1037.69C1107.58 1029.41 1103.07 1021.15 1098.57 1012.87C1094.99 1004.6 1091.41 996.332 1087.82 988.057C1088.97 997.057 1106.72 1032.97 1112.09 1037.69H1112.08Z" fill="#0E0000"/>
<path d="M1153.17 875.273C1144.53 874.907 1135.89 874.54 1127.26 874.173C1125.88 874.265 1124.5 874.357 1123.12 874.448C1127.35 874.632 1131.58 874.815 1135.81 874.998C1145 875.915 1154.19 876.84 1163.38 877.757C1186.33 882.398 1210.15 891.457 1236.45 890.99C1226.16 889.332 1215.86 887.682 1205.57 886.023C1188.24 882.14 1171.65 878.607 1153.17 875.273Z" fill="#0E0000"/>
<path d="M1243.34 1051.75C1247.11 1064.11 1253.57 1075.87 1253.82 1092.56C1257.21 1083.94 1246.7 1055.17 1243.34 1051.75Z" fill="#0E0000"/>
<path d="M1086.44 985.848L1086.99 986.123C1084.42 978.407 1081.84 970.682 1079.27 962.965C1080.17 971.482 1085.07 978.007 1086.44 985.848Z" fill="#0E0000"/>
<path d="M1173.57 1135.57C1180.25 1130.01 1186.19 1115.47 1189.84 1106.62C1190.86 1104.17 1193.68 1097.65 1192.6 1094.77C1191.55 1106.14 1184.63 1118.29 1179.37 1126.47C1177.43 1129.51 1175.51 1132.54 1173.57 1135.57Z" fill="#0E0000"/>
<path d="M257.849 1047.89C257.357 1047 257.174 1046.91 256.19 1046.52C256.74 1046.97 257.29 1047.43 257.849 1047.89Z" fill="#0E0000"/>
<path d="M530.832 1322.52C530.324 1321.36 529.616 1321.19 528.349 1320.86C529.174 1321.41 530.007 1321.96 530.832 1322.52Z" fill="#0E0000"/>
<path d="M413.366 1364.16C411.807 1366.96 409.616 1369.74 408.957 1373.26C410.224 1371.72 413.791 1365.85 413.366 1364.16Z" fill="#0E0000"/>
<path d="M548.757 1312.32H548.207V1312.87L548.757 1312.32Z" fill="#0E0000"/>
<path d="M554.549 1317.28C554.182 1317.19 553.816 1317.1 553.449 1317.01C553.632 1317.28 553.816 1317.56 553.999 1317.83C554.182 1317.65 554.366 1317.47 554.549 1317.28Z" fill="#0E0000"/>
<path d="M541.307 1319.77C541.032 1319.58 540.757 1319.4 540.482 1319.22V1319.77H541.307Z" fill="#0E0000"/>
<path d="M888.191 1505.34C876.107 1502.88 858.149 1502.47 845.174 1504.52C836.074 1505.07 826.974 1505.62 817.874 1506.17C783.357 1512.01 735.249 1511.71 709.782 1498.73C683.657 1485.42 673.607 1461.47 661.807 1433.66C644.899 1393.81 631.241 1346.82 595.082 1326.12C588.799 1322.52 580.616 1320.37 572.474 1318.95C569.349 1318.86 566.224 1318.77 563.099 1318.67C554.574 1317.3 544.466 1320.27 537.732 1322.26C512.999 1329.55 495.482 1343.61 485.891 1365.82C480.941 1377.29 479.982 1390.09 477.616 1404.7C476.566 1411.19 477.249 1420.53 478.166 1426.21C478.991 1434.67 479.824 1443.12 480.649 1451.57C482.799 1463.57 484.791 1480.97 482.582 1494.87C481.174 1503.71 482.482 1512.79 479.082 1519.5C479.057 1519.74 479.024 1519.99 478.999 1520.23V1519.68C479.032 1519.62 479.057 1519.56 479.082 1519.5C479.974 1511.84 480.866 1504.18 481.757 1496.52C484.332 1479.84 479.949 1462.9 479.274 1447.43C479.916 1459.38 480.557 1471.33 481.207 1483.28C481.082 1503.67 478.057 1524.13 470.732 1538.43C460.549 1558.31 439.657 1570.97 415.582 1576.76C405.691 1579.14 395.024 1579.16 384.149 1580.89C364.574 1581.35 344.991 1581.81 325.416 1582.27C314.849 1584.1 305.382 1585.95 296.466 1589.43C291.757 1591.27 288.516 1593.69 282.399 1594.4V1594.67C285.841 1596.97 296.041 1595.5 301.149 1595.5H533.874C533.666 1593.12 538.482 1589.15 539.941 1586.95C544.507 1580.07 548.324 1572.18 551.249 1563.79C559.749 1539.37 559.407 1503.68 555.107 1476.11C552.482 1459.27 556.632 1437.62 568.891 1435.3C581.774 1432.86 589.424 1453.89 592.882 1462.32C606.249 1494.95 612.782 1536.09 611.632 1580.07C611.449 1570.42 611.266 1560.77 611.082 1551.12C610.166 1542.75 609.241 1534.39 608.324 1526.02C607.224 1519.68 606.116 1513.34 605.016 1507C606.299 1516.74 607.591 1526.48 608.874 1536.22C612.274 1555.43 609.274 1576 609.149 1595.51H815.124C814.941 1595.23 814.757 1594.96 814.574 1594.68C834.516 1591.12 850.474 1585.73 869.174 1595.51H965.957C965.441 1577.84 960.707 1560.43 953.824 1548.63C940.074 1525.06 919.182 1511.64 888.199 1505.34H888.191Z" fill="#0E0000"/>
<path d="M72.2822 968.473C71.4572 968.198 70.6238 967.923 69.7988 967.648C70.6238 968.015 71.4572 968.382 72.2822 968.748V968.473Z" fill="#0E0000"/>
<path d="M1429.73 1201.75C1429.64 1201.47 1429.55 1201.2 1429.46 1200.92V1201.75H1429.73Z" fill="#0E0000"/>
<path d="M1430.01 1200.65C1429.92 1200.37 1429.82 1200.1 1429.73 1199.82V1200.65H1430.01Z" fill="#0E0000"/>
<path d="M1424.77 1142.74C1420.92 1143.29 1417.05 1143.84 1413.19 1144.4C1399.57 1147.58 1387.15 1151.27 1380.1 1160.94C1365.3 1181.27 1376.7 1222.93 1384.51 1242.01C1397.21 1273.02 1412.92 1299.02 1430.83 1324.45C1439.55 1336.82 1448.29 1350.71 1460.06 1360.02C1466.64 1365.22 1473.68 1369.59 1481.02 1374.08C1488.64 1378.75 1496.52 1382.89 1504.46 1387.59C1506.12 1388.6 1507.77 1389.62 1509.42 1390.62C1508.7 1386.66 1497.79 1382.22 1494.26 1380.15C1480.86 1372.26 1468.17 1364.48 1456.48 1355.06C1445.56 1346.25 1437.66 1332.43 1429.46 1320.87C1409.04 1292.06 1391.31 1261.42 1379 1224.36C1377.72 1218.47 1376.42 1212.59 1375.14 1206.71C1366.87 1162.82 1389.29 1143.53 1431.12 1143.02C1429 1142.92 1426.89 1142.83 1424.77 1142.74Z" fill="#0E0000"/>
<path d="M1510.25 1181.35C1485.94 1181.26 1445.74 1179.92 1435.52 1193.48C1426.53 1205.42 1432.84 1230.5 1437.18 1242.84C1447.51 1272.2 1465.67 1305.08 1487.64 1322.81C1492.9 1327.05 1503.6 1338.83 1510.25 1340.46V1283.66C1508.69 1282.28 1507.12 1280.9 1505.57 1279.52C1500.51 1273.26 1494.51 1267.37 1491.22 1259.4C1484.79 1243.75 1494.36 1236.77 1510.25 1237.07V1181.37V1181.35Z" fill="#0E0000"/>
<path d="M1430.84 1196.51C1430.66 1197.24 1430.47 1197.97 1430.29 1198.72C1430.82 1198.01 1431.12 1197.32 1430.84 1196.51Z" fill="#0E0000"/>
<path d="M1429.18 1216.37C1429.09 1216.09 1429 1215.82 1428.91 1215.54V1216.37H1429.18Z" fill="#0E0000"/>
<path d="M592.874 1321.97C594.232 1323.57 597.299 1324.62 599.766 1325.01C597.466 1324 595.166 1322.98 592.874 1321.97Z" fill="#0E0000"/>
<path d="M1510.25 1343.21V1341.27L1509.15 1342.1C1479.14 1322.63 1456.06 1291.22 1441.04 1256.9C1437.5 1248.81 1434.72 1240.23 1432.22 1231.26C1431.12 1226.38 1430.01 1221.52 1428.91 1216.64C1429.07 1232.74 1435.85 1246.98 1441.04 1258.83C1456.78 1294.78 1479.58 1322.18 1509.7 1343.76C1509.88 1343.57 1510.07 1343.39 1510.25 1343.21Z" fill="#0E0000"/>
<path d="M1510.25 1494.86V1392.56C1504.92 1389.25 1499.59 1385.94 1494.26 1382.63C1482.27 1375.61 1470.62 1369.62 1460.07 1361.4C1447.69 1351.75 1438.58 1337.67 1429.46 1324.72C1411.92 1299.86 1396.43 1274.47 1383.96 1244.21C1375.85 1224.52 1363.4 1181.49 1378.99 1160.11C1392.38 1141.75 1423.26 1140.52 1455.09 1140.53C1465.11 1140.35 1475.13 1140.17 1485.15 1139.98C1491.39 1138.9 1497.24 1137.96 1502.52 1135.85C1505.1 1134.57 1507.67 1133.27 1510.24 1131.99V1031.35C1504.76 1019.64 1498.9 1007.37 1493.7 995.224C1487.27 980.224 1483.44 963.349 1461.99 963.24C1456.04 965.54 1451.85 965.007 1448.48 969.582C1443.26 976.682 1448.22 991.524 1450.69 998.532C1456.36 1014.64 1476.15 1053.13 1463.1 1070.77C1440.94 1100.73 1347.4 1079.09 1314.75 1102.48C1296.02 1115.91 1287.31 1163.47 1287.45 1197.33C1287.52 1213.77 1292.31 1235.29 1286.35 1249.17C1275.59 1274.21 1243.48 1268.32 1232.86 1293.02C1230.75 1297.92 1230.05 1303.87 1229 1309.83C1223.87 1338.97 1235.4 1358.98 1246.92 1373.52C1252.5 1380.57 1259.5 1386.27 1264.3 1394.21C1274.47 1411.06 1263.72 1425.97 1247.76 1429.5C1231.44 1433.12 1221.27 1420.58 1215.22 1412.41C1196.4 1387 1187.79 1354.35 1177.45 1320.03C1173.92 1308.34 1171.26 1295.81 1165.59 1286.12C1151.71 1262.38 1133.98 1242.89 1120.09 1219.12C1111.18 1203.87 1107.92 1184.34 1101.07 1167C1087.56 1132.79 1061.59 1096.14 1009.8 1100.82C1003.27 1101.65 996.749 1102.48 990.224 1103.31C978.349 1106.31 967.307 1110.08 957.965 1115.72C940.874 1126.02 924.041 1138.81 916.332 1158.46C911.341 1171.17 913.541 1190.07 917.707 1202.02C922.941 1217.02 930.607 1229.97 936.732 1243.93C943.532 1260.2 950.332 1276.47 957.14 1292.74C966.741 1314.58 978.666 1335.15 998.224 1347.06C1005.22 1351.32 1017.62 1356.1 1028.83 1352.57C1047.72 1346.62 1056.69 1329.17 1047.86 1306.52C1035.16 1273.96 1013.64 1250.49 1000.71 1218.02C992.632 1197.73 988.699 1169.32 1013.12 1163.42C1020.3 1161.67 1028.05 1164.12 1032.14 1167.27C1040.24 1173.51 1042.78 1186.71 1046.21 1197.61C1050.75 1212.08 1056.21 1226.06 1063.58 1237.87C1077.81 1260.67 1096.06 1278.68 1107.15 1304.87C1116.7 1327.42 1120.74 1353.4 1129.76 1376.56C1141.53 1406.79 1155.19 1435.11 1171.12 1461.21C1181.67 1478.5 1192.2 1497.22 1208.62 1508.63C1221.24 1517.41 1246.08 1517.49 1262.93 1512.49C1305.23 1499.95 1320.62 1464.77 1329.11 1418.47C1332.07 1402.33 1328.47 1384.82 1325.8 1371.32C1324.05 1362.5 1326.07 1354.14 1331.32 1350.63C1346.97 1340.17 1373.16 1363.11 1381.5 1369.66C1391.79 1378.57 1402.09 1387.49 1412.38 1396.41C1431.62 1410.91 1452.07 1424.17 1470.84 1439.15C1476.06 1443.31 1481.02 1448.85 1485.43 1454.6C1484.7 1453.45 1484.05 1452.27 1483.52 1451.01C1500.74 1463.86 1509.71 1500.37 1509.17 1531.8L1509.72 1532.07C1511.26 1529.88 1510.27 1500.35 1510.27 1494.85L1510.25 1494.86Z" fill="#0E0000"/>
<path d="M-2.07614 1009.56C-1.32614 1012.36 -0.601134 1015.24 0.082199 1018.19C-0.242801 1016.4 -0.617805 1014.62 -1.0678 1012.87C-1.40947 1011.76 -1.74281 1010.66 -2.08447 1009.56H-2.07614Z" fill="#0E0000"/>
<path d="M-12.0928 982.265C-5.87612 996.29 -0.117789 1009.42 3.34888 1027.21C7.31554 1047.53 0.615545 1071.33 4.72388 1090.9C6.04055 1097.18 7.34054 1103.68 9.69054 1109.1C10.9739 1111.67 12.2655 1114.25 13.5489 1116.82H13.2739C11.6155 1114.15 9.96554 1111.48 8.30721 1108.81C4.47387 1099.9 3.69887 1088.97 1.96554 1077.93C-0.401126 1062.86 5.62387 1048.33 3.06554 1032.99C2.19887 1027.82 1.18221 1022.91 0.073877 1018.17C1.02388 1023.39 1.59888 1028.8 2.51554 1034.37C5.17388 1050.52 -1.39279 1065.72 1.41554 1081.79C3.29054 1092.56 4.25721 1102.22 8.03221 1110.74C15.0822 1126.65 40.7572 1144.31 67.3155 1139.14C77.1489 1137.22 85.0989 1134.24 93.5072 1131.97C87.2655 1136.97 74.4155 1139.5 64.5572 1140.25C70.1655 1142.58 86.3239 1136.37 90.1989 1134.73C112.416 1125.39 130.641 1104.95 120.807 1071.31C117.207 1059.01 112.757 1047.41 106.466 1037.67C97.3572 1023.58 85.8989 1010.21 78.6155 994.382C70.4572 976.64 64.6655 956.165 54.8989 939.507C22.6072 884.432 -12.2761 846.407 -95.6511 842.723V917.723C-49.4928 921.857 -27.5261 947.448 -12.1011 982.248L-12.0928 982.265Z" fill="#0E0000"/>
<path d="M380.282 1218.57C377.799 1217.66 375.316 1216.73 372.841 1215.81C374.082 1217.59 377.707 1218.51 380.282 1218.85V1218.57Z" fill="#0E0000"/>
<path d="M285.699 1179.42H285.149C284.782 1179.69 284.416 1179.97 284.049 1180.24C284.999 1180.43 285.066 1180.22 285.707 1179.42H285.699Z" fill="#0E0000"/>
<path d="M-85.7178 1305.42C-82.8178 1299.47 -76.3928 1294.47 -70.8261 1290.26C-61.0761 1282.88 -50.2428 1277.17 -36.9094 1273.17C-1.83445 1262.64 45.8822 1273.67 62.9072 1296.05C77.7322 1315.54 83.7822 1343.81 90.7572 1371.32C96.0322 1392.15 97.2989 1413.86 107.574 1429.23C114.724 1439.92 127.882 1453.65 147.007 1447.71C151.399 1446.34 154.341 1443.35 158.041 1441.64C158.907 1440.37 162.266 1436.7 162.724 1437.78C172.391 1430.36 178.966 1401.23 175.407 1382.91C174.124 1374.63 172.832 1366.37 171.549 1358.09C166.891 1336.46 157.991 1299.45 167.691 1277.02C171.124 1269.09 177.266 1263.57 183.957 1258.82C190.474 1254.2 199.632 1249.19 210.149 1248.9C208.524 1248.32 205.982 1249.12 204.357 1249.45C189.524 1252.43 182.907 1258.63 173.199 1265.99C183.007 1250.83 210.966 1243.2 236.891 1248.9C253.449 1252.54 269.241 1256.56 286.799 1259.65C315.407 1264.69 344.524 1252.7 356.007 1238.42C368.399 1223.01 377.924 1206.56 383.582 1184.1C395.232 1137.85 366.524 1087.01 340.016 1071.32C320.099 1059.54 283.349 1064.85 263.357 1053.12C256.749 1049.25 249.841 1044.34 245.157 1038.51C236.007 1027.12 227.391 1012.72 210.141 1009.56C202.266 1008.11 194.766 1011.55 190.566 1014.24C168.932 1028.12 169.182 1060.46 180.091 1085.66C187.407 1102.57 201.841 1112.57 220.624 1118.19C241.082 1124.32 267.557 1122.52 283.766 1132.81C293.816 1139.18 301.182 1155.29 294.799 1170.58C290.141 1181.73 276.457 1188.21 260.057 1184.09C250.407 1181.33 240.757 1178.57 231.107 1175.82C223.666 1174.99 216.216 1174.16 208.774 1173.33C203.716 1173.15 198.666 1172.97 193.607 1172.78C181.241 1174.83 170.649 1176.02 159.966 1179.4C141.407 1185.26 124.716 1193.58 105.366 1198.42C69.6656 1207.37 21.1656 1201.94 -10.9928 1192.08C-28.9261 1186.59 -43.5928 1178.14 -50.4261 1161.75C-62.1178 1133.71 -51.6345 1091.69 -46.8428 1063.03C-45.4011 1054.44 -45.7595 1042.2 -47.1178 1034.08C-51.7511 1006.38 -54.9178 985.215 -87.3761 985.549C-90.1345 986.099 -92.8928 986.649 -95.6511 987.207C-94.3511 990.224 -95.6511 1008.23 -95.6511 1014.78V1320.85H-95.3761C-93.6761 1314.44 -88.2595 1310.61 -85.7261 1305.41L-85.7178 1305.42ZM189.749 1173.62H192.507C190.757 1173.9 189.016 1174.17 187.266 1174.45C188.091 1174.17 188.924 1173.9 189.749 1173.62ZM90.7572 1363.06H90.4822C86.4989 1341.66 78.1489 1320.77 70.0739 1303.5C77.8155 1310.03 90.0989 1348.56 90.7572 1363.06Z" fill="#0E0000"/>
<path d="M373.382 1222.71C372.374 1221.97 371.357 1221.24 370.349 1220.5C370.832 1221.91 371.949 1222.33 373.382 1222.71Z" fill="#0E0000"/>
<path d="M213.182 1170.32C211.899 1170.22 210.607 1170.13 209.324 1170.04C210.607 1170.32 211.899 1170.59 213.182 1170.87V1170.32Z" fill="#0E0000"/>
<path d="M256.474 1181.9H257.299C257.024 1181.72 256.749 1181.53 256.474 1181.35V1181.9Z" fill="#0E0000"/>
<path d="M49.3989 926.29C48.9406 925.557 48.4823 924.823 48.0239 924.082C48.2989 924.723 48.5739 925.365 48.8489 926.015L49.3989 926.29Z" fill="#0E0000"/>
<path d="M70.3489 965.165C70.8989 965.532 71.4489 965.898 72.0072 966.265C71.4072 965.54 71.4655 965.473 70.3489 965.165Z" fill="#0E0000"/>
<path d="M70.349 972.34C70.899 972.523 71.449 972.707 72.0074 972.89C71.0907 971.607 70.1657 970.315 69.249 969.032C69.6157 970.132 69.9824 971.24 70.349 972.34Z" fill="#0E0000"/>
<path d="M44.7073 919.399L45.5323 919.949C44.6156 918.574 43.6906 917.19 42.7739 915.815C43.4156 917.007 44.0573 918.207 44.7073 919.399Z" fill="#0E0000"/>
<path d="M46.3655 921.324C46.0905 920.865 45.8155 920.407 45.5405 919.948C45.6322 920.315 45.7239 920.682 45.8155 921.048L46.3655 921.324Z" fill="#0E0000"/>
<path d="M595.632 1319.76C591.407 1318.11 587.174 1316.46 582.949 1314.8C585.641 1316.97 591.741 1319.62 595.632 1320.04V1319.76Z" fill="#0E0000"/>
<path d="M6.10718 875.273C12.4488 881.248 18.7905 887.223 25.1322 893.198C23.0405 888.815 10.6488 877.273 6.10718 875.273Z" fill="#0E0000"/>
<path d="M3.62396 873.349C-0.892706 867.899 -10.6594 862.265 -17.6094 859.565C-10.5344 864.157 -3.45104 868.757 3.62396 873.349Z" fill="#0E0000"/>
<path d="M37.8155 908.64C36.3239 905.023 32.4739 900.498 29.5405 898.165C32.2989 901.657 35.0572 905.148 37.8155 908.64Z" fill="#0E0000"/>
<path d="M42.2238 915.532L42.7738 915.807C42.4072 915.165 42.0405 914.524 41.6738 913.874C41.8572 914.424 42.0405 914.974 42.2238 915.532Z" fill="#0E0000"/>
<path d="M378.899 1207.54L379.999 1208.09V1207.82L378.899 1207.54Z" fill="#0E0000"/>
<path d="M956.849 804.415V804.14C954.091 804.048 951.332 803.957 948.574 803.865C945.432 805.323 942.249 805.507 939.749 807.448C930.057 814.99 935.041 837.64 936.441 849.915H936.715C934.874 828.548 928.899 801.198 956.84 804.415H956.849Z" fill="#0E0000"/>
<path d="M1077.62 956.623C1077.34 955.523 1077.07 954.415 1076.79 953.315C1076.97 954.415 1077.16 955.523 1077.34 956.623H1077.62Z" fill="#0E0000"/>
<path d="M835.524 777.665C834.699 787.623 830.199 795.448 827.807 803.582C829.999 801.44 837.282 782.148 835.524 777.665Z" fill="#0E0000"/>
<path d="M1076.79 953.032C1075.97 948.899 1075.13 944.757 1074.31 940.624C1075.04 944.757 1075.77 948.899 1076.52 953.032H1076.79Z" fill="#0E0000"/>
<path d="M1073.48 916.365C1074.67 910.665 1075.87 904.965 1077.07 899.273C1075.08 903.932 1073.4 910.023 1073.48 916.365Z" fill="#0E0000"/>
<path d="M578.257 1318.67C578.074 1318.39 577.89 1318.12 577.707 1317.84L577.432 1318.39C577.707 1318.48 577.982 1318.57 578.257 1318.67Z" fill="#0E0000"/>
<path d="M591.49 1323.07C591.44 1323.02 577.424 1315.07 577.424 1315.07C580.999 1319.15 585.549 1321.32 591.49 1323.07Z" fill="#0E0000"/>
<path d="M1144.9 1093.38H1145.17C1145.08 1093.11 1144.99 1092.83 1144.9 1092.56V1093.38Z" fill="#0E0000"/>
<path d="M266.949 1256.62C262.357 1255.61 257.757 1254.6 253.166 1253.59C256.249 1255.52 262.649 1256.8 266.949 1256.9V1256.62Z" fill="#0E0000"/>
<path d="M232.482 1249.17C239.007 1250.55 245.532 1251.93 252.057 1253.31V1253.03C245.807 1251.79 239.607 1249.53 232.482 1249.17Z" fill="#0E0000"/>
<path d="M253.166 1253.31H252.066C252.432 1253.41 252.799 1253.5 253.166 1253.59V1253.31Z" fill="#0E0000"/>
<path d="M363.457 1232.91L362.907 1232.36C362.999 1232.63 363.091 1232.91 363.182 1233.18C363.274 1233.09 363.366 1233 363.457 1232.91Z" fill="#0E0000"/>
<path d="M407.574 1376.01C407.666 1375.74 407.757 1375.46 407.849 1375.19L407.649 1374.99C407.566 1375.32 407.491 1375.67 407.407 1376.01H407.574Z" fill="#0E0000"/>
<path d="M419.157 1485.48C436.457 1456.43 398.657 1425.33 404.541 1392.01C405.516 1386.49 406.349 1380.77 407.407 1376.02H407.299C407.391 1375.65 407.482 1375.28 407.574 1374.92L407.649 1374.99C407.891 1374 408.132 1373.04 408.399 1372.16C412.199 1359.52 424.274 1347.29 431.557 1337.42C456.091 1304.18 486.399 1281.62 531.099 1268.21C538.782 1265.9 546.916 1265.02 555.366 1263.52C577.399 1259.62 602.066 1267.86 615.749 1274.82C666.957 1300.88 679.982 1362.34 711.982 1407.46C726.591 1428.06 756.357 1455.75 794.982 1443.58C800.924 1441.71 806.732 1438.76 811.249 1435.31C829.982 1421.01 832.366 1391.97 844.616 1371.06C849.107 1363.39 854.949 1357.35 860.332 1350.65C862.724 1348.44 865.116 1346.24 867.499 1344.03C881.882 1326.17 892.449 1316.27 897.557 1288.06C898.716 1281.67 898.566 1272.26 897.282 1266C895.841 1258.96 893.824 1252.62 891.216 1246.7C886.182 1235.27 877.632 1226.6 870.532 1217.2C854.966 1196.57 838.007 1177.51 825.032 1154.33C819.216 1143.95 808.782 1122.88 817.316 1108.83C831.332 1085.74 869.616 1114.79 895.074 1109.38C917.691 1104.58 924.224 1087.62 939.191 1075.74C947.274 1069.32 955.616 1064.06 967.316 1061.12C972.741 1060.48 978.165 1059.84 983.582 1059.19C993.282 1057.57 1007.96 1060.52 1015.84 1062.22C1047.47 1069.07 1067.03 1078.69 1089.74 1093.66C1100.91 1101.02 1121.82 1113.17 1137.99 1101.37C1158.14 1086.68 1130.13 1062.91 1123.37 1054.5C1100.46 1025.99 1084.66 991.348 1074.29 949.99C1070.12 933.373 1069.42 907.207 1077.05 894.015C1086.36 877.923 1105.14 872.507 1130.54 872.507C1136.42 872.69 1142.31 872.873 1148.19 873.057C1175.13 877.732 1197.57 881.848 1224.02 886.84C1235.54 889.015 1252.5 891.148 1264.82 888.215C1279.26 884.782 1288.75 876.432 1293.77 863.673C1305.57 833.732 1292.67 803.473 1324.38 790.323C1347 780.948 1377.34 788.548 1395.25 796.39C1408.57 802.223 1420.17 809.498 1433.3 815.14C1443.72 819.615 1455.32 821.165 1467.77 823.965C1480.87 826.907 1494.05 829.532 1510.23 829.207V791.432C1496.87 791.398 1486.71 788.715 1476.32 785.64C1461.42 781.223 1447.56 777.765 1433.85 772.407C1421.71 767.657 1409.53 761.857 1396.35 758.34C1384.56 755.198 1363.42 752.665 1348.37 755.032C1339.6 756.415 1326.17 757.598 1317.22 756.132C1280.42 750.115 1261.82 732.707 1256.27 695.473H1217.95V695.748C1224.02 716.423 1230.08 737.115 1236.15 757.79C1237.62 766.707 1239.09 775.623 1240.56 784.54C1245.6 814.54 1229.77 838.515 1208.3 842.448C1199.41 844.073 1190.52 840.248 1183.76 838.59C1171.12 835.482 1158.23 834.048 1144.88 831.698C1130.17 830.598 1115.47 829.49 1100.77 828.39C1085.68 825.64 1073.05 822.273 1061.89 815.707C1044.25 805.323 1031.29 790.548 1015.29 778.757C1001.72 768.757 986.999 759.782 970.065 753.115C949.482 745.015 909.441 731.698 887.899 747.873C879.891 753.882 877.532 763.557 875.491 775.723C875.307 779.673 875.124 783.632 874.941 787.582C874.757 793.19 874.574 798.798 874.391 804.398C874.482 813.773 874.574 823.148 874.666 832.523C873.624 838.482 873.149 844.04 871.082 848.79C864.932 862.957 850.974 871.532 842.957 884.357C835.415 896.432 830.416 912.357 818.141 919.648C807.649 925.882 788.016 924.09 778.432 918.273C765.032 910.132 758.416 890.998 754.166 873.882C752.116 865.615 752.349 854.607 756.099 848.515C767.291 830.298 802.415 826.473 819.515 812.948C836.04 799.882 833.165 768.165 838.265 743.465C840.015 735.657 841.757 727.84 843.507 720.023C845.282 712.482 846.149 704.64 845.991 695.482H784.774C783.491 702.832 782.199 710.19 780.916 717.54C776.016 741.282 773.266 765.798 755.549 776.548C747.624 781.357 736.924 781.723 726.324 783.99C710.366 787.415 696.391 791.59 687.999 802.465C679.032 814.09 677.966 839.848 682.482 857.89C691.024 891.973 703.049 924.048 720.807 949.157C724.774 954.757 728.757 961.182 734.041 965.423C739.757 970.007 745.374 975.257 752.516 978.382C776.807 989.007 833.349 998.423 859.224 983.073C880.474 970.465 891.032 945.398 906.099 926.548C915.607 914.657 937.732 908.557 942.774 893.732C944.399 888.957 943.707 881.173 942.499 876.357C938.607 860.832 921.416 812.24 943.049 803.29C959.607 796.44 975.257 809.907 983.582 816.523C995.299 825.84 1002.7 839.19 1006.19 856.782C1009.64 874.14 1006.04 895.448 1009.22 912.757C1012.63 931.307 1016.14 958.832 1009.22 976.448C1006.71 982.848 1003.02 988.615 997.365 991.89C981.532 1001.06 957.757 988.257 939.74 993.823C912.357 1002.28 908.024 1032.97 880.457 1041.25C860.69 1047.18 837.607 1038.81 820.899 1035.18C788.957 1028.25 754.991 1034.63 740.932 1053.93C728.691 1070.74 732.849 1102.53 738.999 1122.87C746.682 1148.27 756.582 1168.29 770.157 1187.39C783.407 1206.03 800.082 1221.48 809.591 1243.91C821.449 1271.89 809.724 1316.66 784.224 1321.67C775.282 1323.43 768.974 1317.87 764.374 1314.78C749.399 1304.76 737.791 1290.03 727.424 1275.35C708.582 1248.65 700.182 1224 693.507 1184.63V1163.95C695.257 1152.87 694.349 1130.96 692.407 1121.21C686.766 1092.95 676.507 1070.65 670.349 1042.62C666.249 1023.97 667.857 999.282 670.899 980.307C672.882 967.932 670.341 953.64 668.416 943.907C661.999 911.44 650.216 886.007 633.124 864.498C625.966 855.49 611.324 843.598 593.966 850.432C570.307 859.748 581.949 889.99 588.449 908.615C590.566 915.873 592.674 923.14 594.791 930.398C598.291 941.94 601.532 959.148 598.649 973.965C595.949 987.832 591.707 1005.63 594.791 1022.22C601.407 1057.83 616.366 1078.38 625.949 1109.07C630.999 1125.27 631.032 1147.27 622.366 1159.53C600.382 1190.62 534.532 1188.47 495.799 1203.65C462.941 1216.53 439.774 1231.87 414.457 1251.62C390.491 1270.32 373.166 1297.92 340.832 1308.15C328.466 1312.07 307.649 1315.02 292.299 1312.84C275.607 1310.47 250.666 1307.67 238.532 1316.42C227.282 1324.53 222.007 1344.37 225.849 1364.67C231.399 1393.98 241.824 1433.65 228.057 1460.63C203.482 1508.77 144.391 1510.34 102.324 1539.77C90.4905 1548.05 75.9572 1563.65 69.5072 1574.78C65.9822 1580.88 62.7572 1590.58 57.0989 1594.63C59.8155 1596.96 86.8739 1595.46 92.9489 1595.46H195.799C194.607 1595.27 193.407 1595.09 192.216 1594.91V1594.36C205.999 1591.26 216.557 1582.22 226.682 1575.06C255.232 1554.88 276.949 1526.88 314.091 1515.77C350.066 1505.02 401.691 1514.76 419.149 1485.44L419.157 1485.48ZM236.624 1422.34H236.349C235.432 1414.62 234.507 1406.9 233.591 1399.18C229.574 1379.87 220.491 1349.87 229.457 1329.7C230.124 1328.81 230.791 1327.91 231.449 1327.02C231.524 1326.9 231.591 1326.78 231.657 1326.67C233.316 1324.46 234.966 1322.26 236.624 1320.05C234.899 1322.37 233.174 1324.69 231.449 1327.02C228.282 1332.11 227.041 1340.61 226.974 1348.45C226.749 1375.8 236.941 1394.69 236.624 1422.35V1422.34Z" fill="#0E0000"/>
<path d="M22.0988 1345.96C8.39051 1324.4 -24.7428 1320.36 -41.3178 1342.37C-38.9262 1340.53 -36.5345 1338.7 -34.1512 1336.86C-39.3678 1343.85 -45.3262 1349.34 -48.2178 1358.91C-52.7512 1373.97 -49.2012 1394.6 -45.4595 1407.16C-39.0262 1428.77 -32.2928 1447.23 -28.9178 1472.24C-26.6345 1489.14 -37.4095 1511.67 -43.8095 1522.15C-46.3845 1525.73 -48.9595 1529.32 -51.5262 1532.9C-51.3428 1532.81 -51.1595 1532.72 -50.9762 1532.62C-60.8928 1548.32 -72.4178 1563.16 -82.6845 1578.67C-85.6178 1583.11 -95.4595 1589.55 -95.6428 1595.49H4.17385C5.89051 1593.86 6.84052 1590.11 8.03219 1588.05C11.3572 1582.3 14.9905 1576.07 18.7822 1570.4C33.5905 1548.27 42.3322 1525.78 48.5655 1496.77C55.9822 1462.26 47.4822 1425.76 39.7405 1396.96C34.7155 1378.25 31.2155 1360.28 22.0905 1345.95L22.0988 1345.96Z" fill="#0E0000"/>
<path d="M937.266 851.29C937.082 850.832 936.899 850.373 936.716 849.915C936.891 851.015 936.691 850.732 937.266 851.29Z" fill="#0E0000"/>
<path d="M415.024 649.776C430.166 645.151 451.591 648.292 465.482 651.709C501.524 660.559 522.807 665.367 537.999 695.551H369.249C371.641 691.601 374.032 687.642 376.416 683.692C385.766 668.792 396.457 655.442 415.016 649.776H415.024Z" fill="#0E0000"/>
<path d="M222.832 537.268C222.482 538.901 221.716 539.718 220.349 540.301C221.174 539.293 222.007 538.276 222.832 537.268Z" fill="#0E0000"/>
<path d="M57.9406 547.201C68.0656 534.601 79.8322 523.076 88.5489 509.151C101.257 488.851 105.507 456.834 130.741 449.042C169.257 437.142 198.966 479.409 235.524 463.384C249.766 457.143 253.032 441.909 260.616 428.918C266.499 418.843 272.724 407.634 281.574 400.518C291.899 392.209 303.107 385.401 316.591 380.109C332.791 373.751 349.532 370.301 363.191 361.909C388.324 346.476 402.607 320.567 417.791 295.184C426.457 280.684 434.674 265.984 447.574 255.751C462.016 244.301 483.882 235.359 509.066 243.067C516.899 245.467 524.916 248.959 531.399 252.992C543.991 260.826 555.557 271.626 560.349 287.184C567.191 309.409 559.316 336.859 554.557 356.117C551.657 367.851 551.407 380.151 549.316 393.068C548.141 400.334 549.399 409.418 550.416 415.676C550.874 422.201 551.332 428.726 551.791 435.251C551.607 437.368 551.424 439.476 551.241 441.592C551.149 445.451 551.057 449.318 550.966 453.176C549.682 460.618 548.391 468.067 547.107 475.509C542.882 489.934 538.649 504.368 534.424 518.801C532.482 525.151 529.032 534.268 530.566 543.068C531.807 550.193 534.399 555.451 538.007 560.159C554.399 581.559 601.457 584.467 624.866 600.967C632.841 606.584 640.957 614.026 646.649 621.926C652.416 629.926 656.232 640.017 665.674 644.259C677.774 649.692 693.916 645.609 708.966 648.667C727.407 652.426 734.14 663.984 739.024 681.484C740.032 686.167 741.049 690.859 742.057 695.551H646.099C631.549 695.551 612.624 697.442 603.357 691.967C581.441 679.001 577.257 649.884 552.624 639.301C544.274 635.717 534.857 634.626 525.599 631.859C503.907 625.367 477.657 617.676 466.316 600.701C462.457 594.926 460.782 587.126 459.149 579.192C452.124 545.192 466.757 513.143 474.316 489.026C480.174 470.334 481.966 450.317 485.624 428.367C489.107 407.426 489.724 371.567 475.974 363.292C464.732 356.534 451.799 367.459 446.191 372.942C425.857 392.834 412.232 421.701 383.874 433.326C376.499 436.351 368.266 437.242 360.157 439.667C345.607 444.026 330.574 450.393 322.107 460.901C315.232 469.426 308.841 478.201 303.082 487.926C293.991 503.276 288.641 521.043 273.299 530.118C251.466 543.034 211.016 531.309 183.957 537.284C145.224 545.843 105.024 576.451 97.0989 615.592C94.3905 628.951 96.6489 646.034 98.7572 658.059C100.824 669.867 100.991 681.951 100.966 695.559H35.6156C35.5656 679.192 32.5822 665.034 29.5489 651.167C28.3572 642.709 27.1572 634.251 25.9655 625.801C24.3155 616.476 24.2822 603.576 26.5156 594.917C32.0489 573.509 46.0739 561.984 57.9489 547.217L57.9406 547.201Z" fill="#0E0000"/>
<path d="M152.249 640.676C158.874 608.417 174.44 588.251 206.565 581.392C242.557 573.709 290.407 590.526 315.757 571.192C339.132 553.367 337.865 509.659 362.357 493.159C374.224 485.159 394.707 483.134 403.99 495.092C415.207 509.542 411.957 539.251 405.924 556.859C390.549 601.709 369.707 626.542 318.24 635.442C290.44 640.251 245.707 629.817 225.315 642.334C214.057 649.242 213.59 664.659 210.149 679.559C209.049 684.801 207.94 690.034 206.84 695.276C186.624 695.367 166.399 695.459 146.182 695.551C147.282 688.751 148.39 681.951 149.49 675.142C150.407 663.651 151.332 652.159 152.249 640.676Z" fill="#0E0000"/>
<path d="M287.632 687.826C292.424 689.268 296.041 692.051 300.041 693.892C300.407 694.351 300.774 694.809 301.141 695.268C286.066 695.359 270.991 695.451 255.916 695.542C259.482 687.676 276.491 684.476 287.624 687.826H287.632Z" fill="#0E0000"/>
<path d="M426.607 398.026C425.232 399.684 423.849 401.334 422.474 402.993C423.207 401.893 423.941 400.784 424.682 399.684C425.324 399.134 425.966 398.584 426.616 398.026H426.607Z" fill="#0E0000"/>
<path d="M248.199 537.551L248.474 537.826C247.832 538.651 247.191 539.484 246.541 540.309C246.816 539.576 247.091 538.843 247.366 538.101C247.641 537.918 247.916 537.734 248.191 537.551H248.199Z" fill="#0E0000"/>
<path d="M70.0738 430.009L63.1821 436.901C64.1738 433.776 67.3571 431.409 70.0738 430.009Z" fill="#0E0000"/>
<path d="M773.207 648.118C772.824 644.776 772.132 641.576 771.149 638.534C772.682 642.001 774.224 646.193 773.207 648.118Z" fill="#0E0000"/>
<path d="M769.066 634.059C768.024 631.676 766.957 629.518 765.816 627.568C768.057 630.876 769.849 634.568 771.141 638.543C770.316 636.684 769.491 635.034 769.066 634.059Z" fill="#0E0000"/>
<path d="M414.199 148.484V148.209H419.716C417.966 148.484 416.224 148.759 414.474 149.034L414.199 148.484Z" fill="#0E0000"/>
<path d="M519.799 671.276C516.307 669.067 512.816 666.867 509.324 664.659C520.191 666.709 536.449 685.501 539.657 695.542H538.832C535.932 686.767 526.615 676.567 519.807 671.276H519.799Z" fill="#0E0000"/>
<path d="M1008.41 618.618C1009.42 617.884 1010.43 617.151 1011.44 616.409C1010.65 617.468 1009.82 618.159 1008.41 618.618Z" fill="#0E0000"/>
<path d="M1011.44 616.409C1013.47 614.943 1015.48 613.468 1017.51 612.001C1016.13 613.693 1013.67 615.668 1011.44 616.409Z" fill="#0E0000"/>
<path d="M578.807 666.593C578.716 666.318 578.624 666.043 578.532 665.768C578.924 666.318 578.749 666.193 578.807 666.593Z" fill="#0E0000"/>
<path d="M577.982 665.218C577.799 664.759 577.615 664.301 577.432 663.843C578.049 664.501 577.982 664.576 577.982 665.218Z" fill="#0E0000"/>
<path d="M715.849 649.776C718.691 648.951 723.216 652.567 725.224 653.909C734.541 660.126 738.307 668.992 741.766 681.209C742.399 683.442 745.516 694.051 744.249 695.551C741.332 676.834 733.216 653.551 715.849 649.776Z" fill="#0E0000"/>
<path d="M594.249 686.718C596.44 688.468 602.399 691.834 602.799 694.159C600.041 692.134 597.282 690.117 594.524 688.092C588.749 683.484 581.574 674.101 579.082 666.584C585.199 672.167 587.699 681.509 594.249 686.709V686.718Z" fill="#0E0000"/>
<path d="M374.491 282.218C374.032 282.951 373.574 283.684 373.116 284.426C373.391 283.784 373.666 283.143 373.941 282.493L374.491 282.218Z" fill="#0E0000"/>
<path d="M231.107 371.551C230.032 373.859 226.874 376.618 224.491 377.618C226.699 375.593 228.899 373.576 231.107 371.551Z" fill="#0E0000"/>
<path d="M340.574 320.818C346.799 317.134 356.141 311.426 359.324 304.826C359.782 304.459 360.241 304.093 360.699 303.726C357.391 311.268 339.791 323.918 330.641 325.784C333.949 324.126 337.257 322.476 340.566 320.818H340.574Z" fill="#0E0000"/>
<path d="M270.257 336.534V336.809C266.766 338.559 263.274 340.301 259.782 342.051C261.866 339.784 266.807 337.168 270.257 336.534Z" fill="#0E0000"/>
<path d="M79.7239 397.476V396.926H79.9989C79.9072 397.109 79.8155 397.292 79.7239 397.476Z" fill="#0E0000"/>
<path d="M233.316 369.076C236.041 363.309 250.491 347.093 256.199 344.534C252.707 347.934 249.216 351.334 245.724 354.734C241.941 359.476 238.149 365.409 233.316 369.076Z" fill="#0E0000"/>
<path d="M218.699 385.343C218.332 385.434 217.966 385.526 217.599 385.618C217.966 385.434 218.332 385.251 218.699 385.068V385.343Z" fill="#0E0000"/>
<path d="M70.0739 434.976C67.8989 437.509 63.5405 439.768 60.9739 441.868C62.1405 438.459 66.6239 436.043 70.0739 434.976Z" fill="#0E0000"/>
<path d="M78.3488 399.951C77.9821 400.776 77.6154 401.609 77.2488 402.434C77.5238 401.793 77.7988 401.151 78.0738 400.501V399.951H78.3488Z" fill="#0E0000"/>
<path d="M59.324 445.451C60.1656 442.618 65.949 440.468 69.249 440.209V440.484C65.5656 441.243 61.9906 443.518 59.324 445.451Z" fill="#0E0000"/>
<path d="M75.0405 416.776C75.7739 416.318 76.5072 415.859 77.2489 415.401C76.6822 416.393 76.3655 416.534 75.0405 416.776Z" fill="#0E0000"/>
<path d="M73.3823 418.151H72.8323V417.601C73.0156 417.784 73.1989 417.968 73.3823 418.151Z" fill="#0E0000"/>
<path d="M385.516 193.151C384.232 194.068 382.941 194.993 381.657 195.909C381.949 194.859 383.841 193.609 385.516 193.151Z" fill="#0E0000"/>
<path d="M384.416 197.559C384.874 197.376 385.332 197.193 385.791 197.009V197.284C385.332 197.376 384.874 197.468 384.416 197.559Z" fill="#0E0000"/>
<path d="M387.174 189.017V189.293C384.874 190.118 382.574 190.951 380.282 191.776C381.191 190.451 385.366 189.276 387.174 189.017Z" fill="#0E0000"/>
<path d="M384.966 201.426C384.507 201.609 384.049 201.793 383.591 201.976C384.141 201.259 383.899 201.426 384.966 201.151V201.426Z" fill="#0E0000"/>
<path d="M408.407 158.409C407.766 158.593 407.124 158.776 406.474 158.959C407.116 158.684 407.757 158.409 408.407 158.134V158.409Z" fill="#0E0000"/>
<path d="M398.199 175.226H398.474C397.974 175.784 398.474 175.434 397.649 175.776C397.832 175.593 398.016 175.409 398.199 175.226Z" fill="#0E0000"/>
<path d="M389.107 196.184C388.557 196.276 388.007 196.368 387.449 196.459C387.999 196.276 388.549 196.093 389.107 195.909V196.184Z" fill="#0E0000"/>
<path d="M387.449 196.734C386.899 196.826 386.349 196.918 385.791 197.009C386.341 196.826 386.891 196.643 387.449 196.459V196.734Z" fill="#0E0000"/>
<path d="M373.107 284.418C372.649 285.243 372.191 286.076 371.732 286.901C372.007 286.168 372.282 285.434 372.557 284.693L373.107 284.418Z" fill="#0E0000"/>
<path d="M1045.36 588.559C1043.89 589.751 1042.42 590.951 1040.95 592.143C1041.84 590.668 1043.67 589.209 1045.36 588.559Z" fill="#0E0000"/>
<path d="M371.732 286.901C371.282 288.926 369.999 291.151 368.699 292.418C369.616 290.759 370.541 289.109 371.457 287.451V286.901H371.732Z" fill="#0E0000"/>
<path d="M743.424 611.443C754.882 614.584 760.999 619.268 765.824 627.559C759.257 617.876 748.824 611.384 735.707 610.059C737.891 609.251 741.449 610.893 743.424 611.434V611.443Z" fill="#0E0000"/>
<path d="M1358.6 342.601C1358.69 342.784 1358.78 342.968 1358.87 343.151C1344.8 344.518 1330.76 345.443 1318.34 348.668C1309.88 351.609 1301.42 354.551 1292.97 357.493C1295.32 354.026 1302.62 352.834 1306.76 351.151C1320.69 345.476 1339.58 342.526 1358.6 342.601Z" fill="#0E0000"/>
<path d="M1393.34 463.651C1393.25 463.926 1393.16 464.201 1393.07 464.476V463.651H1393.34Z" fill="#0E0000"/>
<path d="M1394.44 468.893C1394.26 468.068 1394.07 467.234 1393.89 466.409C1394.07 466.684 1394.26 466.959 1394.44 467.234C1394.97 467.793 1394.91 468.026 1394.44 468.893Z" fill="#0E0000"/>
<path d="M1393.62 466.134C1393.52 465.768 1393.43 465.401 1393.34 465.034L1393.89 465.309C1393.74 466.168 1394.2 465.493 1393.62 466.134Z" fill="#0E0000"/>
<path d="M1288.56 230.651H1288.83C1290.21 243.701 1294.17 258.993 1299.31 269.251C1300.42 271.484 1305.88 280.801 1305.65 281.384C1304.09 279.268 1302.52 277.159 1300.97 275.043C1295.27 265.351 1288.59 244.959 1288.56 230.651Z" fill="#0E0000"/>
<path d="M1198.39 415.951C1204.46 413.009 1210.52 410.068 1216.59 407.126C1213.73 410.326 1209.17 411.534 1205.28 413.743C1190.95 421.884 1174.08 426.093 1155.1 429.734C1141.63 432.318 1125.92 430.059 1116.5 436.351C1110.04 440.668 1104.6 449.426 1102.99 458.409C1102.25 462.543 1104.23 467.218 1104.09 469.159C1097.95 457.668 1107.37 442.701 1114.02 437.451C1125.19 428.609 1147.85 430.634 1164.2 426.976C1176.5 424.218 1187.89 420.584 1198.39 415.943V415.951Z" fill="#0E0000"/>
<path d="M1102.16 512.734H1101.06C1095.51 509.834 1089.54 509.401 1085.89 504.734C1091.3 507.109 1095.14 511.334 1102.16 512.451V512.726V512.734Z" fill="#0E0000"/>
<path d="M1251.61 308.409C1244.62 341.118 1228.36 358.234 1203.91 373.209C1194.67 378.859 1183.82 385.609 1169.17 385.343C1166.33 384.268 1163.17 384.784 1160.89 383.409C1151.16 377.559 1157.34 365.251 1162.27 358.868C1172.68 345.376 1199.76 329.368 1195.08 302.068C1191.77 282.684 1185.1 269.693 1175.78 256.568C1168.26 245.976 1160.43 237.451 1157.58 221.826C1153.21 197.851 1172.52 165.101 1196.46 169.434C1234.84 176.384 1242.44 219.976 1250.5 257.668C1253.55 271.934 1254.89 293.001 1251.6 308.401L1251.61 308.409Z" fill="#0E0000"/>
<path d="M1396.37 471.093C1396.28 471.368 1396.19 471.643 1396.1 471.918V471.093H1396.37Z" fill="#0E0000"/>
<path d="M1247.75 236.718C1247.66 236.993 1247.57 237.268 1247.47 237.543V236.718H1247.75Z" fill="#0E0000"/>
<path d="M1248.02 237.543C1249.11 243.001 1255.13 259.768 1252.99 265.393C1251.24 256.109 1249.5 246.826 1247.75 237.543H1248.02Z" fill="#0E0000"/>
<path d="M1060.25 578.084V578.359C1055.37 581.668 1050.51 584.976 1045.63 588.284C1048.39 584.659 1055.43 579.301 1060.25 578.084Z" fill="#0E0000"/>
<path d="M1468.89 476.334C1466.68 477.159 1464.48 477.993 1462.27 478.818C1450.65 483.293 1440.27 488.818 1424.22 488.468V488.193C1428.45 487.734 1432.68 487.276 1436.91 486.818C1447.48 483.809 1458.24 480.393 1468.07 476.343H1468.89V476.334Z" fill="#0E0000"/>
<path d="M1396.65 472.476C1399.41 475.359 1401.51 478.526 1404.37 481.301L1403.82 481.576C1401.35 478.726 1397.57 476.834 1396.65 472.476Z" fill="#0E0000"/>
<path d="M1510.25 470.818V508.868C1506.55 509.026 1503.92 510.726 1500.87 511.626C1492.32 514.151 1483.82 516.943 1475.78 519.068C1453.42 524.993 1431.22 529.718 1407.12 534.509C1393.11 537.301 1365.48 535.351 1357.77 528.443C1352.98 524.159 1347.4 520.301 1343.98 514.659C1339.02 506.459 1332.45 470.201 1335.16 455.651C1337.03 445.568 1343.37 421.676 1339.29 412.359C1335.17 402.943 1327.33 404.059 1316.41 404.643V404.368C1318.52 403.909 1320.63 403.451 1322.75 402.993C1320.57 401.118 1313.76 404.434 1312 405.476C1303.5 410.484 1297.11 418.484 1289.39 424.501C1257.52 449.343 1217.09 465.376 1170.27 475.234C1151.51 479.184 1109.51 481.243 1104.65 464.759C1102.42 457.193 1107.19 449.776 1109.89 445.734C1122.1 427.393 1156.61 433.101 1179.65 425.884C1224.4 411.868 1254.08 384.168 1290.77 362.193C1302.4 355.226 1314.87 350.784 1330.76 347.576C1337.56 346.934 1344.36 346.293 1351.17 345.643C1357.84 344.526 1367.9 344.368 1374.61 345.643C1387.44 348.084 1398.39 352.726 1402.73 363.568C1405.71 371.001 1403.22 383.018 1401.36 389.209C1397.02 403.543 1393.91 416.776 1390.88 433.051C1387.42 451.634 1392.67 474.118 1401.92 481.301C1426.77 500.609 1463.55 480.484 1484.92 471.101C1489.77 468.968 1508.4 462.993 1508.91 458.143C1511.36 459.509 1510.28 467.159 1510.28 470.826L1510.25 470.818Z" fill="#0E0000"/>
<path d="M1404.92 482.126C1404.73 482.034 1404.55 481.943 1404.37 481.851C1404.97 481.693 1404.72 481.868 1404.92 482.126Z" fill="#0E0000"/>
<path d="M1145.45 298.484C1147.61 311.701 1141 323.009 1133.59 328.543C1138.31 318.476 1147.01 314.793 1145.17 298.484H1145.45Z" fill="#0E0000"/>
<path d="M1211.35 465.859V466.134C1211.07 466.226 1210.8 466.318 1210.52 466.409C1211.02 465.851 1210.52 466.201 1211.35 465.859Z" fill="#0E0000"/>
<path d="M1306.21 411.259C1308.1 408.709 1312.28 405.626 1315.86 404.918C1312.64 407.034 1309.42 409.143 1306.21 411.259Z" fill="#0E0000"/>
<path d="M1271.47 438.559C1275.69 435.801 1279.92 433.043 1284.15 430.284C1291.11 425.359 1296.71 418.751 1303.45 413.743C1300.29 420.443 1279.32 436.401 1271.47 438.559Z" fill="#0E0000"/>
<path d="M1207.22 467.234V467.509C1205.93 467.876 1204.64 468.243 1203.36 468.609C1204.12 467.676 1205.64 467.318 1207.22 467.234Z" fill="#0E0000"/>
<path d="M1192.05 471.643C1194.44 470.909 1196.83 470.176 1199.22 469.434C1198.11 470.751 1194.27 471.609 1192.05 471.643Z" fill="#0E0000"/>
<path d="M1189.29 472.476C1190.21 472.201 1191.13 471.926 1192.05 471.651V471.926C1191.13 472.109 1190.21 472.293 1189.29 472.476Z" fill="#0E0000"/>
<path d="M1111.53 606.759C1129.02 600.384 1156.75 598.009 1170.82 608.968C1187.18 621.709 1177.08 666.884 1170.27 684.243C1168.61 688.009 1166.96 691.776 1165.3 695.551H1124.77C1128.03 689.109 1131.25 681.984 1132.77 674.043C1134.69 663.934 1124.32 656.018 1116.22 660.259C1114.59 661.109 1113.05 661.751 1110.98 662.743C1112.57 660.551 1116.76 659.884 1119.26 658.609H1119.81C1115.06 656.926 1107.53 663.218 1104.64 665.226C1098.11 669.759 1090.86 674.859 1085.89 680.943C1081.57 685.626 1077.25 690.318 1072.93 695.009C1070.92 696.768 1062.45 695.559 1059.15 695.559H1020.27C1022.55 685.359 1032.21 673.076 1037.92 665.501C1054 644.209 1084.61 616.584 1111.55 606.768L1111.53 606.759Z" fill="#0E0000"/>
<path d="M1316.68 678.726C1335.66 670.559 1366.4 684.351 1390.03 680.101C1416.93 675.268 1435.9 667.209 1457.32 657.768C1472.37 651.126 1488.13 641.276 1510.26 643.151V661.351C1485.87 661.484 1466.62 676.576 1450.97 686.442C1446.29 689.476 1441.6 692.509 1436.91 695.542H1302.62C1306.5 688.984 1309.41 681.859 1316.69 678.726H1316.68Z" fill="#0E0000"/>
<path d="M1378.17 535.618C1377.44 535.709 1376.71 535.801 1375.97 535.893C1376.23 535.326 1376.11 535.409 1378.17 535.618Z" fill="#0E0000"/>
<path d="M1193.15 299.034C1197.03 304.151 1191.34 320.842 1189.84 324.126C1182.8 339.526 1170.1 346.901 1160.89 359.692C1158.94 362.401 1155.29 366.359 1154.11 371.176C1155.17 366.209 1157.95 361.242 1160.62 357.767C1173.59 340.834 1196.21 331.117 1193.15 299.034Z" fill="#0E0000"/>
<path d="M1153.77 373.376C1153.82 372.626 1153.93 371.893 1154.11 371.176C1153.95 371.909 1153.83 372.643 1153.77 373.376Z" fill="#0E0000"/>
<path d="M1154 376.793C1154.61 379.534 1156.69 381.443 1158.41 383.134C1166.4 391.009 1182.72 386.118 1193.78 381.568C1186.65 385.118 1179.03 388.301 1167.51 388.093C1164.84 387.268 1162.17 386.434 1159.51 385.609C1154.64 382.618 1153.28 378.093 1153.76 373.368C1153.68 374.468 1153.73 375.609 1153.99 376.784L1154 376.793Z" fill="#0E0000"/>
<path d="M1206.94 375.418C1206.36 375.634 1205.78 375.859 1205.22 376.093C1205.79 375.776 1206.37 375.459 1206.94 375.143V375.418Z" fill="#0E0000"/>
<path d="M1201.42 378.168C1199.46 379.093 1196.82 380.318 1193.78 381.568C1197.56 379.693 1201.2 377.718 1205.22 376.084C1203.95 376.776 1202.69 377.476 1201.42 378.168Z" fill="#0E0000"/>
<path d="M1241.13 454.001V454.276C1231.45 457.209 1222.94 463.859 1212.18 465.584C1221.83 461.726 1231.48 457.859 1241.13 454.001Z" fill="#0E0000"/>
<path d="M1112.08 353.351C1107.58 361.626 1103.07 369.893 1098.57 378.168C1094.99 386.443 1091.41 394.709 1087.82 402.984C1088.97 393.984 1106.72 358.068 1112.09 353.351H1112.08Z" fill="#0E0000"/>
<path d="M1153.17 515.768C1144.53 516.134 1135.89 516.501 1127.26 516.868C1125.88 516.776 1124.5 516.684 1123.12 516.593C1127.35 516.409 1131.58 516.226 1135.81 516.043C1145 515.126 1154.19 514.201 1163.38 513.284C1186.33 508.643 1210.15 499.584 1236.45 500.051C1226.16 501.709 1215.86 503.359 1205.57 505.018C1188.24 508.901 1171.65 512.434 1153.17 515.768Z" fill="#0E0000"/>
<path d="M1243.34 339.293C1247.11 326.934 1253.57 315.176 1253.82 298.484C1257.21 307.101 1246.7 335.868 1243.34 339.293Z" fill="#0E0000"/>
<path d="M1086.44 405.193L1086.99 404.918C1084.42 412.634 1081.84 420.359 1079.27 428.076C1080.17 419.559 1085.07 413.034 1086.44 405.193Z" fill="#0E0000"/>
<path d="M1173.57 255.467C1180.25 261.034 1186.19 275.568 1189.84 284.418C1190.86 286.876 1193.68 293.393 1192.6 296.276C1191.55 284.901 1184.63 272.751 1179.37 264.568C1177.43 261.534 1175.51 258.501 1173.57 255.467Z" fill="#0E0000"/>
<path d="M257.849 343.151C257.357 344.043 257.174 344.134 256.19 344.526C256.74 344.068 257.29 343.609 257.849 343.151Z" fill="#0E0000"/>
<path d="M1085.89 -23.5741C1075.14 -19.3575 1062.22 -20.5658 1048.67 -18.3324C1030.89 -15.4074 1013.81 -14.5492 997.382 -10.8908C987.274 -8.49917 977.157 -6.10743 967.049 -3.72409C945.841 2.62591 923.732 8.11755 906.107 -5.93245C886.566 -21.5074 895.574 -48.9241 909.416 -62.7325C929.932 -83.1991 965.516 -89.8574 999.582 -96.6491C1023.42 -101.399 1052.57 -99.8241 1063 -117.882C1069.8 -129.657 1062.05 -143.132 1055 -148.766C1040.05 -160.716 1018.51 -177.924 1018.87 -204.466H1123.93C1124.6 -198.449 1129.42 -192.591 1131.65 -187.374C1136.62 -175.791 1140.1 -163.374 1142.68 -149.324C1144.96 -136.966 1143.92 -120.166 1141.31 -109.066C1133.14 -74.5158 1116.2 -35.4742 1085.88 -23.5908L1085.89 -23.5741Z" fill="#0E0000"/>
<path d="M530.832 68.5176C530.324 69.6759 529.616 69.8509 528.349 70.1759C529.174 69.6259 530.007 69.0759 530.832 68.5176Z" fill="#0E0000"/>
<path d="M413.366 26.8843C411.807 24.0843 409.616 21.3009 408.957 17.7842C410.224 19.3259 413.791 25.1926 413.366 26.8843Z" fill="#0E0000"/>
<path d="M548.757 78.7175H548.207V78.1676L548.757 78.7175Z" fill="#0E0000"/>
<path d="M554.549 73.7592C554.182 73.8509 553.816 73.9425 553.449 74.0342C553.632 73.7592 553.816 73.4842 553.999 73.2092C554.182 73.3925 554.366 73.5759 554.549 73.7592Z" fill="#0E0000"/>
<path d="M541.307 71.276C541.032 71.4593 540.757 71.6426 540.482 71.8259V71.276H541.307Z" fill="#0E0000"/>
<path d="M888.191 -114.299C876.107 -111.841 858.149 -111.424 845.174 -113.474C836.074 -114.024 826.974 -114.574 817.874 -115.132C783.357 -120.966 735.249 -120.666 709.782 -107.691C683.657 -94.374 673.607 -70.4241 661.807 -42.6157C644.899 -2.76572 631.241 44.2177 595.082 64.926C588.799 68.526 580.616 70.6676 572.474 72.0926C569.349 72.1843 566.224 72.2759 563.099 72.3676C554.574 73.7426 544.466 70.7677 537.732 68.7843C512.999 61.4927 495.482 47.4343 485.891 25.2176C480.941 13.751 479.982 0.95095 477.616 -13.6574C476.566 -20.149 477.249 -29.4907 478.166 -35.1657C478.991 -43.624 479.824 -52.0824 480.649 -60.5324C482.799 -72.5241 484.791 -89.924 482.582 -103.824C481.174 -112.666 482.482 -121.749 479.082 -128.457C479.057 -128.699 479.024 -128.949 478.999 -129.191V-128.641C479.032 -128.582 479.057 -128.516 479.082 -128.457C479.974 -120.799 480.866 -113.141 481.757 -105.474C484.332 -88.7991 479.949 -71.8574 479.274 -56.3907C479.916 -68.3407 480.557 -80.2908 481.207 -92.2408C481.082 -112.632 478.057 -133.091 470.732 -147.391C460.549 -167.266 439.657 -179.924 415.582 -185.716C405.691 -188.099 395.024 -188.116 384.149 -189.849C364.574 -190.307 344.991 -190.766 325.416 -191.224C314.849 -193.057 305.382 -194.907 296.466 -198.391C291.757 -200.232 288.516 -202.649 282.399 -203.357V-203.632C285.841 -205.932 296.041 -204.457 301.149 -204.457H533.874C533.666 -202.082 538.482 -198.107 539.941 -195.907C544.507 -189.032 548.324 -181.141 551.249 -172.749C559.749 -148.324 559.407 -112.641 555.107 -85.0657C552.482 -68.2323 556.632 -46.5824 568.891 -44.2574C581.774 -41.8157 589.424 -62.8491 592.882 -71.2824C606.249 -103.907 612.782 -145.049 611.632 -189.024C611.449 -179.374 611.266 -169.724 611.082 -160.074C610.166 -151.707 609.241 -143.349 608.324 -134.982C607.224 -128.641 606.116 -122.299 605.016 -115.957C606.299 -125.699 607.591 -135.441 608.874 -145.182C612.274 -164.391 609.274 -184.957 609.149 -204.466H815.124C814.941 -204.191 814.757 -203.916 814.574 -203.641C834.516 -200.074 850.474 -194.691 869.174 -204.466H965.957C965.441 -186.799 960.707 -169.391 953.824 -157.591C940.074 -134.016 919.182 -120.599 888.199 -114.299H888.191Z" fill="#0E0000"/>
<path d="M72.2822 422.568C71.4572 422.843 70.6238 423.118 69.7988 423.393C70.6238 423.026 71.4572 422.659 72.2822 422.293V422.568Z" fill="#0E0000"/>
<path d="M1429.73 189.293C1429.64 189.568 1429.55 189.843 1429.46 190.118V189.293H1429.73Z" fill="#0E0000"/>
<path d="M1430.01 190.393C1429.92 190.668 1429.82 190.943 1429.73 191.218V190.393H1430.01Z" fill="#0E0000"/>
<path d="M1424.77 248.301C1420.92 247.751 1417.05 247.201 1413.19 246.643C1399.57 243.459 1387.15 239.776 1380.1 230.101C1365.3 209.776 1376.7 168.109 1384.51 149.034C1397.21 118.018 1412.92 92.026 1430.83 66.5926C1439.55 54.2176 1448.29 40.3343 1460.06 31.0259C1466.64 25.8176 1473.68 21.4509 1481.02 16.9593C1488.64 12.2926 1496.52 8.15095 1504.46 3.45095C1506.12 2.44262 1507.77 1.42594 1509.42 0.417608C1508.7 4.38428 1497.79 8.81756 1494.26 10.8926C1480.86 18.7842 1468.17 26.5592 1456.48 35.9842C1445.56 44.7926 1437.66 58.6092 1429.46 70.1759C1409.04 98.9842 1391.31 129.618 1379 166.684C1377.72 172.568 1376.42 178.451 1375.14 184.334C1366.87 228.226 1389.29 247.509 1431.12 248.026C1429 248.118 1426.89 248.209 1424.77 248.301Z" fill="#0E0000"/>
<path d="M1510.25 209.693C1485.94 209.784 1445.74 211.126 1435.52 197.559C1426.53 185.626 1432.84 160.543 1437.18 148.201C1447.51 118.843 1465.67 85.9593 1487.64 68.2343C1492.9 63.9926 1503.6 52.2092 1510.25 50.5842V107.384C1508.69 108.759 1507.12 110.143 1505.57 111.518C1500.51 117.784 1494.51 123.676 1491.22 131.643C1484.79 147.293 1494.36 154.276 1510.25 153.976V209.676V209.693Z" fill="#0E0000"/>
<path d="M1430.84 194.534C1430.66 193.801 1430.47 193.068 1430.29 192.326C1430.82 193.034 1431.12 193.726 1430.84 194.534Z" fill="#0E0000"/>
<path d="M1429.18 174.676C1429.09 174.951 1429 175.226 1428.91 175.501V174.676H1429.18Z" fill="#0E0000"/>
<path d="M592.874 69.0676C594.232 67.4676 597.299 66.4259 599.766 66.0343C597.466 67.0426 595.166 68.0593 592.874 69.0676Z" fill="#0E0000"/>
<path d="M1510.25 47.8342V49.7675L1509.15 48.9425C1479.14 68.4092 1456.06 99.8175 1441.04 134.142C1437.5 142.234 1434.72 150.809 1432.22 159.784C1431.12 164.659 1430.01 169.526 1428.91 174.401C1429.07 158.301 1435.85 144.059 1441.04 132.209C1456.78 96.2592 1479.58 68.8592 1509.7 47.2842C1509.88 47.4675 1510.07 47.6509 1510.25 47.8342Z" fill="#0E0000"/>
<path d="M1510.25 -103.816V-1.5158C1504.92 1.79254 1499.59 5.1009 1494.26 8.40923C1482.27 15.4342 1470.62 21.4175 1460.07 29.6425C1447.69 39.2925 1438.58 53.3759 1429.46 66.3176C1411.92 91.1842 1396.43 116.568 1383.96 146.834C1375.85 166.526 1363.4 209.551 1378.99 230.934C1392.38 249.293 1423.26 250.518 1455.09 250.509C1465.11 250.693 1475.13 250.876 1485.15 251.059C1491.39 252.143 1497.24 253.084 1502.52 255.193C1505.1 256.476 1507.67 257.768 1510.24 259.051V359.693C1504.76 371.401 1498.9 383.676 1493.7 395.818C1487.27 410.818 1483.44 427.693 1461.99 427.801C1456.04 425.501 1451.85 426.034 1448.48 421.459C1443.26 414.359 1448.22 399.518 1450.69 392.509C1456.36 376.401 1476.15 337.909 1463.1 320.268C1440.94 290.309 1347.4 311.951 1314.75 288.559C1296.02 275.134 1287.31 227.576 1287.45 193.709C1287.52 177.276 1292.31 155.751 1286.35 141.868C1275.59 116.834 1243.48 122.726 1232.86 98.0259C1230.75 93.1176 1230.05 87.1759 1229 81.2092C1223.87 52.0675 1235.4 32.0593 1246.92 17.5176C1252.5 10.4759 1259.5 4.77588 1264.3 -3.16578C1274.47 -20.0158 1263.72 -34.9241 1247.76 -38.4574C1231.44 -42.0741 1221.27 -29.5408 1215.22 -21.3658C1196.4 4.04258 1187.79 36.6926 1177.45 71.0092C1173.92 82.7009 1171.26 95.2343 1165.59 104.926C1151.71 128.659 1133.98 148.151 1120.09 171.926C1111.18 187.176 1107.92 206.701 1101.07 224.043C1087.56 258.251 1061.59 294.901 1009.8 290.218C1003.27 289.393 996.749 288.559 990.224 287.734C978.349 284.734 967.307 280.959 957.965 275.326C940.874 265.018 924.041 252.234 916.332 232.584C911.341 219.876 913.541 200.976 917.707 189.018C922.941 174.026 930.607 161.068 936.732 147.109C943.532 130.843 950.332 114.568 957.14 98.3009C966.741 76.4592 978.666 55.8926 998.224 43.9843C1005.22 39.7176 1017.62 34.9426 1028.83 38.4676C1047.72 44.4176 1056.69 61.8676 1047.86 84.5176C1035.16 117.084 1013.64 140.551 1000.71 173.026C992.632 193.309 988.699 221.718 1013.12 227.626C1020.3 229.368 1028.05 226.918 1032.14 223.768C1040.24 217.534 1042.78 204.334 1046.21 193.434C1050.75 178.959 1056.21 164.984 1063.58 153.176C1077.81 130.376 1096.06 112.359 1107.15 86.176C1116.7 63.626 1120.74 37.6426 1129.76 14.4843C1141.53 -15.7491 1155.19 -44.0657 1171.12 -70.1657C1181.67 -87.4574 1192.2 -106.182 1208.62 -117.591C1221.24 -126.366 1246.08 -126.449 1262.93 -121.449C1305.23 -108.907 1320.62 -73.7324 1329.11 -27.4241C1332.07 -11.2908 1328.47 6.21763 1325.8 19.726C1324.05 28.5426 1326.07 36.9009 1331.32 40.4092C1346.97 50.8759 1373.16 27.9343 1381.5 21.3843C1391.79 12.4676 1402.09 3.55087 1412.38 -5.36579C1431.62 -19.8658 1452.07 -33.1241 1470.84 -48.1074C1476.06 -52.2657 1481.02 -57.8074 1485.43 -63.5574C1484.7 -62.4074 1484.05 -61.224 1483.52 -59.9657C1500.74 -72.8157 1509.71 -109.324 1509.17 -140.757L1509.72 -141.032C1511.26 -138.841 1510.27 -109.307 1510.27 -103.807L1510.25 -103.816Z" fill="#0E0000"/>
<path d="M-2.07614 381.484C-1.32614 378.676 -0.601134 375.801 0.082199 372.851C-0.242801 374.643 -0.617805 376.418 -1.0678 378.168C-1.40947 379.276 -1.74281 380.376 -2.08447 381.484H-2.07614Z" fill="#0E0000"/>
<path d="M-12.0928 408.776C-5.87612 394.751 -0.117789 381.618 3.34888 363.834C7.31554 343.509 0.615545 319.709 4.72388 300.143C6.04055 293.859 7.34054 287.359 9.69054 281.943C10.9739 279.368 12.2655 276.793 13.5489 274.226H13.2739C11.6155 276.893 9.96554 279.559 8.30721 282.226C4.47387 291.143 3.69887 302.068 1.96554 313.109C-0.401126 328.184 5.62387 342.709 3.06554 358.051C2.19887 363.226 1.18221 368.134 0.073877 372.868C1.02388 367.651 1.59888 362.243 2.51554 356.676C5.17388 340.526 -1.39279 325.326 1.41554 309.251C3.29054 298.484 4.25721 288.818 8.03221 280.301C15.0822 264.393 40.7572 246.734 67.3155 251.901C77.1489 253.818 85.0989 256.801 93.5072 259.068C87.2655 254.076 74.4155 251.543 64.5572 250.793C70.1655 248.459 86.3239 254.676 90.1989 256.309C112.416 265.651 130.641 286.093 120.807 319.726C117.207 332.034 112.757 343.634 106.466 353.368C97.3572 367.459 85.8989 380.834 78.6155 396.659C70.4572 414.401 64.6655 434.876 54.8989 451.534C22.6072 506.609 -12.2761 544.634 -95.6511 548.318V473.318C-49.4928 469.184 -27.5261 443.593 -12.1011 408.793L-12.0928 408.776Z" fill="#0E0000"/>
<path d="M380.282 172.468C377.799 173.384 375.316 174.309 372.841 175.226C374.082 173.451 377.707 172.534 380.282 172.193V172.468Z" fill="#0E0000"/>
<path d="M285.699 211.626H285.149C284.782 211.351 284.416 211.076 284.049 210.801C284.999 210.609 285.066 210.826 285.707 211.626H285.699Z" fill="#0E0000"/>
<path d="M-85.7178 85.6176C-82.8178 91.5759 -76.3928 96.5676 -70.8261 100.784C-61.0761 108.159 -50.2428 113.876 -36.9094 117.876C-1.83445 128.401 45.8822 117.376 62.9072 94.9926C77.7322 75.5009 83.7822 47.2343 90.7572 19.7176C96.0322 -1.10736 97.2989 -22.8157 107.574 -38.1907C114.724 -48.8823 127.882 -62.6074 147.007 -56.6657C151.399 -55.299 154.341 -52.3073 158.041 -50.599C158.907 -49.3323 162.266 -45.6573 162.724 -46.7407C172.391 -39.3157 178.966 -10.1907 175.407 8.13428C174.124 16.4093 172.832 24.676 171.549 32.951C166.891 54.5843 157.991 91.5926 167.691 114.018C171.124 121.951 177.266 127.468 183.957 132.218C190.474 136.843 199.632 141.851 210.149 142.143C208.524 142.726 205.982 141.918 204.357 141.593C189.524 138.609 182.907 132.409 173.199 125.051C183.007 140.209 210.966 147.843 236.891 142.143C253.449 138.501 269.241 134.484 286.799 131.393C315.407 126.351 344.524 138.343 356.007 152.626C368.399 168.034 377.924 184.484 383.582 206.943C395.232 253.193 366.524 304.034 340.016 319.718C320.099 331.501 283.349 326.193 263.357 337.918C256.749 341.793 249.841 346.701 245.157 352.534C236.007 363.926 227.391 378.318 210.141 381.484C202.266 382.934 194.766 379.493 190.566 376.801C168.932 362.918 169.182 330.584 180.091 305.384C187.407 288.468 201.841 278.476 220.624 272.851C241.082 266.718 267.557 268.518 283.766 258.234C293.816 251.859 301.182 235.751 294.799 220.459C290.141 209.309 276.457 202.834 260.057 206.951C250.407 209.709 240.757 212.468 231.107 215.226C223.666 216.051 216.216 216.884 208.774 217.709C203.716 217.893 198.666 218.076 193.607 218.259C181.241 216.209 170.649 215.018 159.966 211.643C141.407 205.784 124.716 197.459 105.366 192.618C69.6656 183.676 21.1656 189.101 -10.9928 198.959C-28.9261 204.451 -43.5928 212.901 -50.4261 229.293C-62.1178 257.334 -51.6345 299.351 -46.8428 328.009C-45.4011 336.601 -45.7595 348.843 -47.1178 356.959C-51.7511 384.659 -54.9178 405.826 -87.3761 405.493C-90.1345 404.943 -92.8928 404.393 -95.6511 403.834C-94.3511 400.818 -95.6511 382.809 -95.6511 376.259V70.1926H-95.3761C-93.6761 76.6009 -88.2595 80.4343 -85.7261 85.6343L-85.7178 85.6176ZM189.749 217.418H192.507C190.757 217.143 189.016 216.868 187.266 216.593C188.091 216.868 188.924 217.143 189.749 217.418ZM90.7572 27.9842H90.4822C86.4989 49.3842 78.1489 70.2676 70.0739 87.5426C77.8155 81.0093 90.0989 42.4842 90.7572 27.9842Z" fill="#0E0000"/>
<path d="M373.382 168.334C372.374 169.068 371.357 169.801 370.349 170.543C370.832 169.134 371.949 168.709 373.382 168.334Z" fill="#0E0000"/>
<path d="M213.182 220.726C211.899 220.818 210.607 220.909 209.324 221.001C210.607 220.726 211.899 220.451 213.182 220.176V220.726Z" fill="#0E0000"/>
<path d="M256.474 209.143H257.299C257.024 209.326 256.749 209.509 256.474 209.693V209.143Z" fill="#0E0000"/>
<path d="M49.3989 464.751C48.9406 465.484 48.4823 466.218 48.0239 466.959C48.2989 466.318 48.5739 465.676 48.8489 465.026L49.3989 464.751Z" fill="#0E0000"/>
<path d="M70.3489 425.876C70.8989 425.509 71.4489 425.143 72.0072 424.776C71.4072 425.501 71.4655 425.568 70.3489 425.876Z" fill="#0E0000"/>
<path d="M70.349 418.701C70.899 418.518 71.449 418.334 72.0074 418.151C71.0907 419.434 70.1657 420.726 69.249 422.009C69.6157 420.909 69.9824 419.801 70.349 418.701Z" fill="#0E0000"/>
<path d="M44.7073 471.643L45.5323 471.093C44.6156 472.468 43.6906 473.851 42.7739 475.226C43.4156 474.034 44.0573 472.834 44.7073 471.643Z" fill="#0E0000"/>
<path d="M46.3655 469.718C46.0905 470.176 45.8155 470.634 45.5405 471.093C45.6322 470.726 45.7239 470.359 45.8155 469.993L46.3655 469.718Z" fill="#0E0000"/>
<path d="M595.632 71.2759C591.407 72.9343 587.174 74.5842 582.949 76.2426C585.641 74.0676 591.741 71.4259 595.632 71.0009V71.2759Z" fill="#0E0000"/>
<path d="M6.10718 515.768C12.4488 509.793 18.7905 503.818 25.1322 497.843C23.0405 502.226 10.6488 513.768 6.10718 515.768Z" fill="#0E0000"/>
<path d="M3.62396 517.693C-0.892706 523.143 -10.6594 528.776 -17.6094 531.476C-10.5344 526.884 -3.45104 522.284 3.62396 517.693Z" fill="#0E0000"/>
<path d="M37.8155 482.401C36.3239 486.018 32.4739 490.543 29.5405 492.876C32.2989 489.384 35.0572 485.893 37.8155 482.401Z" fill="#0E0000"/>
<path d="M42.2238 475.509L42.7738 475.234C42.4072 475.876 42.0405 476.518 41.6738 477.168C41.8572 476.618 42.0405 476.068 42.2238 475.509Z" fill="#0E0000"/>
<path d="M378.899 183.501L379.999 182.951V183.226L378.899 183.501Z" fill="#0E0000"/>
<path d="M956.849 586.626V586.901C954.091 586.993 951.332 587.084 948.574 587.176C945.432 585.718 942.249 585.534 939.749 583.593C930.057 576.051 935.041 553.401 936.441 541.126H936.715C934.874 562.493 928.899 589.843 956.84 586.626H956.849Z" fill="#0E0000"/>
<path d="M1077.62 434.418C1077.34 435.518 1077.07 436.626 1076.79 437.726C1076.97 436.626 1077.16 435.518 1077.34 434.418H1077.62Z" fill="#0E0000"/>
<path d="M835.524 613.376C834.699 603.418 830.199 595.593 827.807 587.459C829.999 589.601 837.282 608.893 835.524 613.376Z" fill="#0E0000"/>
<path d="M1076.79 438.009C1075.97 442.143 1075.13 446.284 1074.31 450.418C1075.04 446.284 1075.77 442.143 1076.52 438.009H1076.79Z" fill="#0E0000"/>
<path d="M1073.48 474.676C1074.67 480.376 1075.87 486.076 1077.07 491.768C1075.08 487.109 1073.4 481.018 1073.48 474.676Z" fill="#0E0000"/>
<path d="M578.257 72.3759C578.074 72.6509 577.89 72.9259 577.707 73.2009L577.432 72.6509C577.707 72.5592 577.982 72.4676 578.257 72.3759Z" fill="#0E0000"/>
<path d="M591.49 67.9676C591.44 68.0259 577.424 75.9677 577.424 75.9677C580.999 71.8927 585.549 69.7259 591.49 67.9676Z" fill="#0E0000"/>
<path d="M1144.9 297.659H1145.17C1145.08 297.934 1144.99 298.209 1144.9 298.484V297.659Z" fill="#0E0000"/>
<path d="M266.949 134.418C262.357 135.426 257.757 136.443 253.166 137.451C256.249 135.518 262.649 134.243 266.949 134.143V134.418Z" fill="#0E0000"/>
<path d="M232.482 141.868C239.007 140.493 245.532 139.109 252.057 137.734V138.009C245.807 139.251 239.607 141.509 232.482 141.868Z" fill="#0E0000"/>
<path d="M253.166 137.726H252.066C252.432 137.634 252.799 137.543 253.166 137.451V137.726Z" fill="#0E0000"/>
<path d="M363.457 158.134L362.907 158.684C362.999 158.409 363.091 158.134 363.182 157.859C363.274 157.951 363.366 158.043 363.457 158.134Z" fill="#0E0000"/>
<path d="M407.574 15.0259C407.666 15.3009 407.757 15.5759 407.849 15.8509L407.649 16.0509C407.566 15.7176 407.491 15.3676 407.407 15.0259H407.574Z" fill="#0E0000"/>
<path d="M419.157 -94.4406C436.457 -65.3906 398.657 -34.2907 404.541 -0.965712C405.516 4.55095 406.349 10.2677 407.407 15.026H407.299C407.391 15.3927 407.482 15.7593 407.574 16.126L407.649 16.051C407.891 17.0427 408.132 18.001 408.399 18.8843C412.199 31.526 424.274 43.751 431.557 53.626C456.091 86.8593 486.399 109.418 531.099 122.834C538.782 125.143 546.916 126.026 555.366 127.526C577.399 131.426 602.066 123.184 615.749 116.218C666.957 90.1593 679.982 28.701 711.982 -16.4156C726.591 -37.0156 756.357 -64.7074 794.982 -52.5407C800.924 -50.6657 806.732 -47.7157 811.249 -44.2657C829.982 -29.9657 832.366 -0.924033 844.616 19.9843C849.107 27.651 854.949 33.6926 860.332 40.3926C862.724 42.601 865.116 44.801 867.499 47.0093C881.882 64.8677 892.449 74.7759 897.557 102.984C898.716 109.376 898.566 118.776 897.282 125.043C895.841 132.084 893.824 138.418 891.216 144.343C886.182 155.768 877.632 164.443 870.532 173.843C854.966 194.476 838.007 213.534 825.032 236.709C819.216 247.093 808.782 268.159 817.316 282.209C831.332 305.301 869.616 276.251 895.074 281.659C917.691 286.459 924.224 303.418 939.191 315.301C947.274 321.718 955.616 326.984 967.316 329.918C972.741 330.559 978.165 331.201 983.582 331.851C993.282 333.476 1007.96 330.526 1015.84 328.818C1047.47 321.968 1067.03 312.351 1089.74 297.384C1100.91 290.018 1121.82 277.868 1137.99 289.668C1158.14 304.359 1130.13 328.134 1123.37 336.543C1100.46 365.051 1084.66 399.693 1074.29 441.051C1070.12 457.668 1069.42 483.834 1077.05 497.026C1086.36 513.118 1105.14 518.534 1130.54 518.534C1136.42 518.351 1142.31 518.168 1148.19 517.984C1175.13 513.309 1197.57 509.193 1224.02 504.201C1235.54 502.026 1252.5 499.893 1264.82 502.826C1279.26 506.259 1288.75 514.609 1293.77 527.368C1305.57 557.309 1292.67 587.568 1324.38 600.718C1347 610.093 1377.34 602.493 1395.25 594.651C1408.57 588.818 1420.17 581.543 1433.3 575.901C1443.72 571.426 1455.32 569.876 1467.77 567.076C1480.87 564.134 1494.05 561.509 1510.23 561.834V599.609C1496.87 599.643 1486.71 602.326 1476.32 605.401C1461.42 609.818 1447.56 613.276 1433.85 618.634C1421.71 623.384 1409.53 629.184 1396.35 632.701C1384.56 635.843 1363.42 638.376 1348.37 636.009C1339.6 634.626 1326.17 633.443 1317.22 634.909C1280.42 640.926 1261.82 658.334 1256.27 695.568H1217.95V695.293C1224.02 674.618 1230.08 653.926 1236.15 633.251C1237.62 624.334 1239.09 615.418 1240.56 606.501C1245.6 576.501 1229.77 552.526 1208.3 548.593C1199.41 546.968 1190.52 550.793 1183.76 552.451C1171.12 555.559 1158.23 556.993 1144.88 559.343C1130.17 560.443 1115.47 561.551 1100.77 562.651C1085.68 565.401 1073.05 568.768 1061.89 575.334C1044.25 585.718 1031.29 600.493 1015.29 612.284C1001.72 622.284 986.999 631.259 970.065 637.926C949.482 646.026 909.441 659.343 887.899 643.168C879.891 637.159 877.532 627.484 875.491 615.318C875.307 611.368 875.124 607.409 874.941 603.459C874.757 597.851 874.574 592.243 874.391 586.643C874.482 577.268 874.574 567.893 874.666 558.518C873.624 552.559 873.149 547.001 871.082 542.251C864.932 528.084 850.974 519.509 842.957 506.684C835.415 494.609 830.416 478.684 818.141 471.393C807.649 465.159 788.016 466.951 778.432 472.768C765.032 480.909 758.416 500.043 754.166 517.159C752.116 525.426 752.349 536.434 756.099 542.526C767.291 560.743 802.415 564.568 819.515 578.093C836.04 591.159 833.165 622.876 838.265 647.576C840.015 655.384 841.757 663.201 843.507 671.018C845.282 678.559 846.149 686.401 845.991 695.559H784.774C783.491 688.209 782.199 680.851 780.916 673.501C776.016 649.759 773.266 625.243 755.549 614.493C747.624 609.684 736.924 609.318 726.324 607.051C710.366 603.626 696.391 599.451 687.999 588.576C679.032 576.951 677.966 551.193 682.482 533.151C691.024 499.068 703.049 466.993 720.807 441.884C724.774 436.284 728.757 429.859 734.041 425.618C739.757 421.034 745.374 415.784 752.516 412.659C776.807 402.034 833.349 392.618 859.224 407.968C880.474 420.576 891.032 445.643 906.099 464.493C915.607 476.384 937.732 482.484 942.774 497.309C944.399 502.084 943.707 509.868 942.499 514.684C938.607 530.209 921.416 578.801 943.049 587.751C959.607 594.601 975.257 581.134 983.582 574.518C995.299 565.201 1002.7 551.851 1006.19 534.259C1009.64 516.901 1006.04 495.593 1009.22 478.284C1012.63 459.734 1016.14 432.209 1009.22 414.593C1006.71 408.193 1003.02 402.426 997.365 399.151C981.532 389.984 957.757 402.784 939.74 397.218C912.357 388.759 908.024 358.068 880.457 349.793C860.69 343.859 837.607 352.234 820.899 355.859C788.957 362.793 754.991 356.409 740.932 337.109C728.691 320.301 732.849 288.509 738.999 268.176C746.682 242.776 756.582 222.751 770.157 203.651C783.407 185.009 800.082 169.559 809.591 147.126C821.449 119.151 809.724 74.3843 784.224 69.3676C775.282 67.6093 768.974 73.176 764.374 76.2593C749.399 86.2843 737.791 101.009 727.424 115.693C708.582 142.393 700.182 167.043 693.507 206.409V227.093C695.257 238.168 694.349 260.084 692.407 269.834C686.766 298.093 676.507 320.393 670.349 348.418C666.249 367.076 667.857 391.759 670.899 410.734C672.882 423.109 670.341 437.401 668.416 447.134C661.999 479.601 650.216 505.034 633.124 526.543C625.966 535.551 611.324 547.443 593.966 540.609C570.307 531.293 581.949 501.051 588.449 482.426C590.566 475.168 592.674 467.901 594.791 460.643C598.291 449.101 601.532 431.893 598.649 417.076C595.949 403.209 591.707 385.409 594.791 368.826C601.407 333.209 616.366 312.659 625.949 281.968C630.999 265.776 631.032 243.768 622.366 231.509C600.382 200.418 534.532 202.576 495.799 187.393C462.941 174.509 439.774 159.168 414.457 139.418C390.491 120.718 373.166 93.126 340.832 82.8926C328.466 78.976 307.649 76.026 292.299 78.201C275.607 80.576 250.666 83.3677 238.532 74.6177C227.282 66.5093 222.007 46.6677 225.849 26.3677C231.399 -2.94067 241.824 -42.6074 228.057 -69.5907C203.482 -117.732 144.391 -119.299 102.324 -148.724C90.4905 -157.007 75.9572 -172.607 69.5072 -183.741C65.9822 -189.841 62.7572 -199.541 57.0989 -203.591C59.8155 -205.916 86.8739 -204.416 92.9489 -204.416H195.799C194.607 -204.232 193.407 -204.049 192.216 -203.866V-203.316C205.999 -200.224 216.557 -191.174 226.682 -184.016C255.232 -163.841 276.949 -135.841 314.091 -124.732C350.066 -113.974 401.691 -123.716 419.149 -94.399L419.157 -94.4406ZM236.624 -31.2991H236.349C235.432 -23.5824 234.507 -15.8574 233.591 -8.1407C229.574 11.176 220.491 41.1676 229.457 61.3426C230.124 62.2343 230.791 63.1343 231.449 64.0259C231.524 64.1426 231.591 64.2593 231.657 64.376C233.316 66.5843 234.966 68.7843 236.624 70.9926C234.899 68.6676 233.174 66.3509 231.449 64.0259C228.282 58.9343 227.041 50.4343 226.974 42.5926C226.749 15.2426 236.941 -3.64908 236.624 -31.3074V-31.2991Z" fill="#0E0000"/>
<path d="M22.0988 45.0842C8.39051 66.6425 -24.7428 70.6759 -41.3178 48.6676C-38.9262 50.5092 -36.5345 52.3426 -34.1512 54.1842C-39.3678 47.1926 -45.3262 41.7009 -48.2178 32.1259C-52.7512 17.0676 -49.2012 -3.55743 -45.4595 -16.1241C-39.0262 -37.7324 -32.2928 -56.1908 -28.9178 -81.1992C-26.6345 -98.0992 -37.4095 -120.632 -43.8095 -131.107C-46.3845 -134.691 -48.9595 -138.274 -51.5262 -141.857C-51.3428 -141.766 -51.1595 -141.674 -50.9762 -141.582C-60.8928 -157.274 -72.4178 -172.116 -82.6845 -187.632C-85.6178 -192.066 -95.4595 -198.507 -95.6428 -204.449H4.17385C5.89051 -202.824 6.84052 -199.066 8.03219 -197.007C11.3572 -191.257 14.9905 -185.032 18.7822 -179.357C33.5905 -157.232 42.3322 -134.741 48.5655 -105.732C55.9822 -71.2158 47.4822 -34.7241 39.7405 -5.91576C34.7155 12.7926 31.2155 30.7592 22.0905 45.0925L22.0988 45.0842Z" fill="#0E0000"/>
<path d="M937.266 539.751C937.082 540.209 936.899 540.668 936.716 541.126C936.891 540.026 936.691 540.309 937.266 539.751Z" fill="#0E0000"/>
</g>
</g>
<defs>
<clipPath id="clip0_3201_3252">
<rect width="1451" height="1376" fill="white"/>
</clipPath>
</defs>
</svg>
