<svg width="107" height="48" viewBox="0 0 107 48" fill="none" xmlns="http://www.w3.org/2000/svg">
<mask id="path-1-outside-1_3214_3044" maskUnits="userSpaceOnUse" x="0" y="10" width="98" height="38" fill="black">
<rect fill="white" y="10" width="98" height="38"/>
<path d="M21 29.95C21.1 34.75 16.35 36.15 12.3 36.25C8.7 36.25 2.85 34.9 3.05 30.3C3.2 26.4 11 25.9 10.8 31.7C10.75 32.95 11.4 33.6 12.05 33.6C12.7 33.6 13.4 33 13.45 31.85C13.7 25.2 3.4 28.15 3.3 19.75C3.25 15.4 8.35 13.4 12.15 13.4C15.5 13.4 20.6 14.3 20.4 18.6C20.25 22.5 12.8 22.8 12.9 18.6C12.95 17.6 13.35 16 12.3 15.9C11.3 15.8 11.05 17 11 18.15C10.8 23.65 20.8 21.3 21 29.95ZM29.6164 36.5C22.6664 36.5 22.9164 32.3 23.0664 28.7C23.1664 25.95 23.4664 25.05 22.5664 25.05L21.7164 25.1C20.9664 25.8 20.8164 21.85 21.7164 22.6C24.1164 22.2 27.9164 17.85 27.9164 16.65C27.9164 15.25 30.9664 15.5 30.7664 16.5C30.7164 18.45 30.7164 19.3 30.7164 22.6H34.6664C35.3664 21.75 35.4164 26 34.6664 25.1H30.6664C30.6164 25.95 30.6664 29 30.6664 31.05C30.6664 32.55 31.1164 32.85 31.8664 32.85C32.7164 32.85 33.3664 31.6 34.1164 30.5C34.1164 30.5 35.5164 31.25 35.1164 32.3C33.9664 35.35 31.7664 36.45 29.6164 36.5ZM43.2266 28.6C47.0266 28.45 48.2766 21.2 45.5266 20.9C42.4766 20.55 42.2266 26.65 43.2266 28.6ZM45.3766 30.7C46.2766 31.35 47.1266 31.65 48.0266 31.65C50.2266 31.65 52.5266 29.75 53.7266 28C53.7266 28 55.0766 28.55 54.5766 29.7C52.4766 34.45 48.9766 36.3 45.3266 36.35C32.3766 36.55 31.0766 17.8 46.1766 18.45C50.8266 18.65 53.8766 21.75 53.8766 24.75C53.8766 28.5 48.3766 26.95 45.3766 30.7ZM66.459 22.35C63.359 22.3 63.559 30.35 66.459 30.4C69.709 30.5 69.809 22.45 66.459 22.35ZM65.509 43.3C68.359 45.55 52.909 45.4 55.509 43.3C56.909 42.15 57.059 22.05 55.159 20.6C52.259 18.35 65.259 18.3 64.609 20.6C65.209 19.25 67.009 18.45 68.909 18.45C79.509 18.45 78.059 36.45 69.859 36.45C66.459 36.45 64.909 34.45 64.159 31.45C64.109 36.1 64.609 42.65 65.509 43.3ZM85.0547 34.35C87.0547 32.7 86.7047 18.55 84.9547 17.25C82.0547 15.05 97.0047 12.2 94.2047 15C94.2047 15 93.4547 32.7 94.8047 34.35C97.6547 36.6 82.4547 36.45 85.0547 34.35Z"/>
</mask>
<path d="M21 29.95C21.1 34.75 16.35 36.15 12.3 36.25C8.7 36.25 2.85 34.9 3.05 30.3C3.2 26.4 11 25.9 10.8 31.7C10.75 32.95 11.4 33.6 12.05 33.6C12.7 33.6 13.4 33 13.45 31.85C13.7 25.2 3.4 28.15 3.3 19.75C3.25 15.4 8.35 13.4 12.15 13.4C15.5 13.4 20.6 14.3 20.4 18.6C20.25 22.5 12.8 22.8 12.9 18.6C12.95 17.6 13.35 16 12.3 15.9C11.3 15.8 11.05 17 11 18.15C10.8 23.65 20.8 21.3 21 29.95ZM29.6164 36.5C22.6664 36.5 22.9164 32.3 23.0664 28.7C23.1664 25.95 23.4664 25.05 22.5664 25.05L21.7164 25.1C20.9664 25.8 20.8164 21.85 21.7164 22.6C24.1164 22.2 27.9164 17.85 27.9164 16.65C27.9164 15.25 30.9664 15.5 30.7664 16.5C30.7164 18.45 30.7164 19.3 30.7164 22.6H34.6664C35.3664 21.75 35.4164 26 34.6664 25.1H30.6664C30.6164 25.95 30.6664 29 30.6664 31.05C30.6664 32.55 31.1164 32.85 31.8664 32.85C32.7164 32.85 33.3664 31.6 34.1164 30.5C34.1164 30.5 35.5164 31.25 35.1164 32.3C33.9664 35.35 31.7664 36.45 29.6164 36.5ZM43.2266 28.6C47.0266 28.45 48.2766 21.2 45.5266 20.9C42.4766 20.55 42.2266 26.65 43.2266 28.6ZM45.3766 30.7C46.2766 31.35 47.1266 31.65 48.0266 31.65C50.2266 31.65 52.5266 29.75 53.7266 28C53.7266 28 55.0766 28.55 54.5766 29.7C52.4766 34.45 48.9766 36.3 45.3266 36.35C32.3766 36.55 31.0766 17.8 46.1766 18.45C50.8266 18.65 53.8766 21.75 53.8766 24.75C53.8766 28.5 48.3766 26.95 45.3766 30.7ZM66.459 22.35C63.359 22.3 63.559 30.35 66.459 30.4C69.709 30.5 69.809 22.45 66.459 22.35ZM65.509 43.3C68.359 45.55 52.909 45.4 55.509 43.3C56.909 42.15 57.059 22.05 55.159 20.6C52.259 18.35 65.259 18.3 64.609 20.6C65.209 19.25 67.009 18.45 68.909 18.45C79.509 18.45 78.059 36.45 69.859 36.45C66.459 36.45 64.909 34.45 64.159 31.45C64.109 36.1 64.609 42.65 65.509 43.3ZM85.0547 34.35C87.0547 32.7 86.7047 18.55 84.9547 17.25C82.0547 15.05 97.0047 12.2 94.2047 15C94.2047 15 93.4547 32.7 94.8047 34.35C97.6547 36.6 82.4547 36.45 85.0547 34.35Z" fill="#EBAC16"/>
<path d="M21 29.95L23.4995 29.8979L23.4993 29.8922L21 29.95ZM12.3 36.25V38.75H12.3309L12.3617 38.7492L12.3 36.25ZM3.05 30.3L5.54767 30.4086L5.54815 30.3961L3.05 30.3ZM10.8 31.7L13.298 31.7999L13.2985 31.7862L10.8 31.7ZM13.45 31.85L15.9476 31.9586L15.948 31.9513L15.9482 31.9439L13.45 31.85ZM3.3 19.75L0.800165 19.7787L0.800177 19.7798L3.3 19.75ZM20.4 18.6L17.9027 18.4838L17.9022 18.4939L17.9018 18.5039L20.4 18.6ZM12.9 18.6L10.4031 18.4752L10.4015 18.5078L10.4007 18.5405L12.9 18.6ZM12.3 15.9L12.0512 18.3876L12.063 18.3887L12.3 15.9ZM11 18.15L8.50236 18.0414L8.50197 18.0503L8.50165 18.0591L11 18.15ZM18.5005 30.0021C18.5288 31.358 17.9701 32.117 16.9642 32.6929C15.7966 33.3613 14.0716 33.7055 12.2383 33.7508L12.3617 38.7492C14.5784 38.6945 17.2534 38.2887 19.4483 37.0321C21.8049 35.683 23.5712 33.342 23.4995 29.8979L18.5005 30.0021ZM12.3 33.75C10.7336 33.75 8.77743 33.445 7.33812 32.7492C5.95493 32.0805 5.50729 31.3366 5.54764 30.4086L0.55236 30.1914C0.392708 33.8634 2.77007 36.0945 5.16188 37.2508C7.49757 38.38 10.2664 38.75 12.3 38.75V33.75ZM5.54815 30.3961C5.55002 30.3475 5.5462 30.2679 5.74906 30.1313C5.99546 29.9653 6.42376 29.8301 6.9118 29.8583C7.38753 29.8859 7.72856 30.0548 7.92384 30.2508C8.0781 30.4056 8.33092 30.7603 8.30149 31.6138L13.2985 31.7862C13.3691 29.7397 12.7219 27.9819 11.4652 26.7211C10.2496 25.5014 8.66872 24.9516 7.2007 24.8667C5.74499 24.7824 4.20767 25.141 2.95563 25.9844C1.66005 26.8571 0.624979 28.3025 0.551847 30.2039L5.54815 30.3961ZM8.302 31.6001C8.22067 33.6332 9.41611 36.1 12.05 36.1V31.1C12.598 31.1 12.985 31.3805 13.1672 31.625C13.3437 31.8619 13.2906 31.9861 13.298 31.7999L8.302 31.6001ZM12.05 36.1C14.3828 36.1 15.8557 34.0727 15.9476 31.9586L10.9524 31.7414C10.9487 31.8248 10.9357 31.6865 11.1109 31.4904C11.2758 31.3058 11.5958 31.1 12.05 31.1V36.1ZM15.9482 31.9439C16.0407 29.4836 15.0936 27.6938 13.5999 26.4279C12.3266 25.3489 10.6355 24.6701 9.52729 24.1743C8.23685 23.5969 7.36344 23.1346 6.76003 22.5109C6.2632 21.9974 5.81784 21.2341 5.79982 19.7202L0.800177 19.7798C0.832156 22.4659 1.7118 24.4839 3.16653 25.9875C4.51468 27.381 6.2194 28.1719 7.48521 28.7382C8.93324 29.3861 9.7765 29.7417 10.3673 30.2424C10.7376 30.5562 10.9843 30.8914 10.9518 31.7561L15.9482 31.9439ZM5.79983 19.7213C5.78819 18.7081 6.31755 17.8357 7.56523 17.0888C8.85735 16.3154 10.6218 15.9 12.15 15.9V10.9C9.87817 10.9 7.19265 11.4846 4.99727 12.7987C2.75745 14.1393 0.761811 16.4419 0.800165 19.7787L5.79983 19.7213ZM12.15 15.9C13.6796 15.9 15.3747 16.1164 16.5673 16.6614C17.1391 16.9227 17.4684 17.2022 17.6463 17.4462C17.7955 17.6509 17.9277 17.9463 17.9027 18.4838L22.8973 18.7162C22.9723 17.1037 22.542 15.6741 21.6866 14.5007C20.8598 13.3666 19.7422 12.6148 18.6452 12.1136C16.5003 11.1336 13.9704 10.9 12.15 10.9V15.9ZM17.9018 18.5039C17.8987 18.5861 17.8909 18.6641 17.7013 18.7991C17.4598 18.9709 17.0273 19.1275 16.5061 19.138C15.9775 19.1486 15.626 19.0058 15.4831 18.9015C15.453 18.8794 15.437 18.863 15.4298 18.8547C15.4231 18.847 15.4211 18.8431 15.4203 18.8415C15.4196 18.8401 15.4148 18.8307 15.4098 18.8076C15.4047 18.7839 15.3975 18.7366 15.3993 18.6595L10.4007 18.5405C10.3555 20.4406 11.2116 21.9733 12.5341 22.9392C13.7647 23.838 15.2662 24.1639 16.6064 24.137C17.9539 24.11 19.4058 23.7229 20.6003 22.8728C21.8466 21.9859 22.8263 20.5639 22.8982 18.6961L17.9018 18.5039ZM15.3969 18.7248C15.4056 18.5512 15.427 18.3894 15.4635 18.0098C15.4929 17.7046 15.5312 17.256 15.5098 16.7963C15.4903 16.3767 15.4129 15.6359 14.9792 14.9236C14.4484 14.0514 13.562 13.5089 12.537 13.4113L12.063 18.3887C11.8667 18.37 11.5958 18.3039 11.3152 18.1305C11.0321 17.9556 10.8343 17.7303 10.7083 17.5233C10.4934 17.1703 10.5097 16.9108 10.5152 17.0287C10.5188 17.1065 10.5134 17.2517 10.4865 17.5308C10.4668 17.7356 10.4194 18.1488 10.4031 18.4752L15.3969 18.7248ZM12.5488 13.4124C11.7511 13.3326 10.9368 13.5134 10.2399 14.0055C9.59384 14.4618 9.22512 15.0603 9.01333 15.5317C8.61445 16.4195 8.52984 17.4094 8.50236 18.0414L13.4976 18.2586C13.5073 18.036 13.5252 17.8547 13.5486 17.7159C13.5738 17.5671 13.5941 17.5365 13.5742 17.5808C13.5561 17.6209 13.4405 17.8664 13.1241 18.0898C12.7569 18.3491 12.3489 18.4174 12.0512 18.3876L12.5488 13.4124ZM8.50165 18.0591C8.46225 19.1426 8.67576 20.1505 9.15669 21.055C9.628 21.9414 10.2858 22.5967 10.9445 23.0935C12.1285 23.9866 13.7679 24.65 14.782 25.1291C15.9818 25.6961 16.8499 26.2095 17.4571 26.892C17.9927 27.4942 18.4632 28.3863 18.5007 30.0078L23.4993 29.8922C23.4368 27.1887 22.5823 25.1308 21.1929 23.5689C19.8751 22.0874 18.2182 21.2227 16.918 20.6084C15.4321 19.9063 14.5965 19.5853 13.9555 19.1018C13.7017 18.9104 13.6095 18.7793 13.5714 18.7077C13.543 18.6542 13.4877 18.5324 13.4983 18.2408L8.50165 18.0591ZM29.6164 36.5V39H29.6455L29.6745 38.9993L29.6164 36.5ZM23.0664 28.7L25.5643 28.8041L25.5648 28.7908L23.0664 28.7ZM22.5664 25.05V22.55H22.4929L22.4196 22.5543L22.5664 25.05ZM21.7164 25.1L21.5696 22.6043L20.6697 22.6573L20.0106 23.2724L21.7164 25.1ZM21.7164 22.6L20.1159 24.5206L20.9966 25.2544L22.1274 25.066L21.7164 22.6ZM30.7664 16.5L28.315 16.0097L28.2727 16.2208L28.2672 16.4359L30.7664 16.5ZM30.7164 22.6H28.2164V25.1H30.7164V22.6ZM34.6664 22.6V25.1H35.8462L36.5962 24.1893L34.6664 22.6ZM34.6664 25.1L36.587 23.4995L35.8373 22.6H34.6664V25.1ZM30.6664 25.1V22.6H28.3091L28.1707 24.9532L30.6664 25.1ZM34.1164 30.5L35.297 28.2963L33.3165 27.2353L32.0508 29.0917L34.1164 30.5ZM35.1164 32.3L32.7802 31.41L32.7772 31.418L35.1164 32.3ZM29.6164 34C26.6407 34 26.0793 33.144 25.8924 32.7879C25.7214 32.4621 25.5943 31.9814 25.5429 31.26C25.4909 30.529 25.5251 29.7435 25.5642 28.8041L20.5686 28.5959C20.5327 29.4565 20.4794 30.546 20.5555 31.615C20.6323 32.6936 20.849 33.9379 21.4654 35.1121C22.8535 37.756 25.6421 39 29.6164 39V34ZM25.5648 28.7908C25.5884 28.1398 25.6236 27.6038 25.6526 27.1185C25.6789 26.6779 25.7083 26.1722 25.689 25.734C25.6736 25.3833 25.6222 24.501 25.028 23.72C24.2704 22.724 23.1982 22.55 22.5664 22.55V27.55C22.4868 27.55 22.2511 27.5424 21.9508 27.4266C21.6136 27.2965 21.2916 27.0667 21.0486 26.7472C20.8275 26.4567 20.7464 26.19 20.7174 26.0712C20.6892 25.9552 20.6914 25.8989 20.6938 25.9535C20.6996 26.0841 20.6914 26.319 20.6615 26.8205C20.6342 27.2774 20.5944 27.8852 20.5681 28.6092L25.5648 28.7908ZM22.4196 22.5543L21.5696 22.6043L21.8632 27.5957L22.7132 27.5457L22.4196 22.5543ZM20.0106 23.2724C20.1691 23.1244 20.5033 22.8624 21.0211 22.743C21.287 22.6817 21.5759 22.6647 21.8721 22.7067C22.1665 22.7483 22.4253 22.842 22.6411 22.9572C23.0545 23.1778 23.29 23.4642 23.3972 23.6148C23.5112 23.7749 23.5682 23.9055 23.5903 23.96C23.633 24.0653 23.6301 24.0987 23.6178 24.0221C23.6081 23.9616 23.5993 23.8736 23.597 23.7731C23.5946 23.6718 23.5996 23.5915 23.6052 23.5448C23.6133 23.4774 23.6138 23.5467 23.5549 23.695C23.5241 23.7725 23.4514 23.9376 23.305 24.1293C23.1585 24.3211 22.8781 24.617 22.4201 24.8152C21.9228 25.0304 21.3954 25.0517 20.9346 24.9327C20.5185 24.8253 20.2454 24.6284 20.1159 24.5206L23.3169 20.6794C22.8379 20.2803 21.7386 19.6621 20.4344 20.2264C19.4118 20.6689 19.0232 21.5591 18.9076 21.8503C18.6212 22.5719 18.5863 23.374 18.5983 23.8894C18.6108 24.4244 18.6874 25.1746 18.9566 25.8385C19.0537 26.0781 19.3966 26.8932 20.2872 27.3684C20.8288 27.6574 21.4838 27.7675 22.1448 27.6151C22.7467 27.4763 23.1699 27.1631 23.4222 26.9276L20.0106 23.2724ZM22.1274 25.066C23.2671 24.876 24.317 24.2851 25.1257 23.7223C25.9811 23.127 26.8023 22.3955 27.5101 21.6665C28.2176 20.9377 28.8659 20.1556 29.3567 19.4292C29.6006 19.0683 29.8346 18.6783 30.0171 18.2841C30.1697 17.9544 30.4164 17.3536 30.4164 16.65H25.4164C25.4164 16.2464 25.5443 16.044 25.4798 16.1835C25.4451 16.2584 25.3635 16.4083 25.2136 16.6301C24.9169 17.0694 24.4652 17.6248 23.9227 18.1835C23.3806 18.742 22.8017 19.248 22.2696 19.6183C22.0054 19.8022 21.7776 19.9352 21.5931 20.0234C21.5025 20.0668 21.4312 20.0951 21.3789 20.1128C21.3262 20.1307 21.3024 20.1345 21.3054 20.134L22.1274 25.066ZM30.4164 16.65C30.4164 16.9551 30.3254 17.2884 30.1307 17.5821C29.9489 17.8563 29.7372 18.0064 29.608 18.0784C29.3877 18.2014 29.2873 18.1732 29.374 18.1746C29.4611 18.1761 29.3937 18.2017 29.1981 18.0938C29.0943 18.0366 28.8281 17.8705 28.5994 17.5153C28.3344 17.1037 28.2048 16.5604 28.315 16.0097L33.2179 16.9903C33.5821 15.1689 32.2833 14.0853 31.6128 13.7155C30.9017 13.3233 30.1093 13.1864 29.4588 13.1754C28.808 13.1643 27.9577 13.2736 27.1716 13.7122C26.2901 14.2041 25.4164 15.1927 25.4164 16.65H30.4164ZM28.2672 16.4359C28.2163 18.4219 28.2164 19.3015 28.2164 22.6H33.2164C33.2164 19.2985 33.2165 18.4781 33.2656 16.5641L28.2672 16.4359ZM30.7164 25.1H34.6664V20.1H30.7164V25.1ZM36.5962 24.1893C36.5387 24.2591 36.4471 24.3599 36.3165 24.4671C36.1863 24.574 35.9937 24.7067 35.7355 24.8122C35.4695 24.9209 35.1432 24.9963 34.776 24.986C34.4065 24.9756 34.0713 24.8805 33.7893 24.7409C33.5161 24.6057 33.3154 24.4407 33.1781 24.3032C33.0412 24.1663 32.9474 24.0372 32.8871 23.9432C32.7719 23.7639 32.7201 23.6211 32.704 23.5742C32.6841 23.5166 32.6786 23.4866 32.6804 23.4955C32.6817 23.5013 32.686 23.5239 32.691 23.5644C32.7014 23.6475 32.7093 23.7608 32.7102 23.8873C32.7112 24.0141 32.7049 24.124 32.6962 24.2009C32.692 24.2383 32.6886 24.2559 32.6887 24.2555C32.6888 24.2547 32.6907 24.2457 32.6949 24.2296C32.699 24.2138 32.7068 24.1862 32.7197 24.1491C32.7397 24.0916 32.8004 23.9271 32.9362 23.7269C33.0076 23.6217 33.1171 23.4809 33.2757 23.3362C33.4363 23.1899 33.6619 23.0265 33.9589 22.9043C34.2644 22.7785 34.6049 22.7135 34.958 22.7278C35.3051 22.742 35.6017 22.83 35.8338 22.9357C36.0606 23.039 36.2292 23.1603 36.3424 23.2554C36.4564 23.3511 36.5367 23.4392 36.587 23.4995L32.7459 26.7005C32.9918 26.9956 34.1697 28.2245 35.862 27.5279C36.515 27.2592 36.8909 26.8036 37.0736 26.5344C37.2663 26.2504 37.3779 25.9768 37.4428 25.79C37.6749 25.1218 37.7138 24.3576 37.7101 23.8502C37.7063 23.3328 37.6537 22.5899 37.4304 21.943C37.3685 21.7637 37.2657 21.5083 37.0941 21.2412C36.9363 20.9954 36.6024 20.5543 36.007 20.2597C35.3055 19.9125 34.5201 19.9076 33.8445 20.1836C33.273 20.4171 32.9165 20.7922 32.7366 21.0107L36.5962 24.1893ZM34.6664 22.6H30.6664V27.6H34.6664V22.6ZM28.1707 24.9532C28.1151 25.8992 28.1664 29.1367 28.1664 31.05H33.1664C33.1664 28.8633 33.1177 26.0008 33.1621 25.2468L28.1707 24.9532ZM28.1664 31.05C28.1664 31.9058 28.2641 33.0958 29.0194 34.0571C29.9337 35.2208 31.2065 35.35 31.8664 35.35V30.35C31.8235 30.35 31.9659 30.3423 32.1867 30.4195C32.4521 30.5121 32.7356 30.6938 32.951 30.9679C33.1423 31.2115 33.1861 31.4093 33.1872 31.4141C33.1877 31.4162 33.1664 31.3147 33.1664 31.05H28.1664ZM31.8664 35.35C33.5472 35.35 34.5817 34.145 34.9758 33.6558C35.4162 33.1091 35.9408 32.262 36.182 31.9083L32.0508 29.0917C31.8528 29.3821 31.6283 29.732 31.4823 29.9528C31.3109 30.2122 31.186 30.3902 31.082 30.5192C30.9711 30.6568 30.9572 30.6455 31.0386 30.5886C31.1397 30.5179 31.431 30.35 31.8664 30.35V35.35ZM34.1164 30.5C32.9359 32.7037 32.9351 32.7033 32.9344 32.7029C32.9341 32.7028 32.9334 32.7024 32.9329 32.7021C32.9319 32.7016 32.931 32.7011 32.93 32.7006C32.9282 32.6996 32.9264 32.6986 32.9246 32.6976C32.9212 32.6958 32.918 32.694 32.915 32.6924C32.9092 32.6892 32.9043 32.6865 32.9004 32.6843C32.8927 32.6799 32.8884 32.6773 32.8871 32.6765C32.8849 32.6752 32.8919 32.6794 32.9039 32.6877C32.9366 32.7104 32.9516 32.7257 32.9459 32.7197C32.9405 32.7139 32.917 32.6885 32.8858 32.6409C32.8546 32.5933 32.8063 32.5095 32.7649 32.3892C32.6687 32.1095 32.6517 31.7473 32.7802 31.41L37.4526 33.19C38.1626 31.3264 37.1386 29.879 36.5869 29.2928C36.2812 28.968 35.9712 28.7303 35.7539 28.5795C35.6409 28.5011 35.5416 28.4384 35.4645 28.392C35.4256 28.3687 35.3917 28.349 35.3636 28.3331C35.3496 28.3251 35.3369 28.3181 35.3258 28.312C35.3202 28.3089 35.315 28.3061 35.3102 28.3035C35.3078 28.3021 35.3055 28.3009 35.3033 28.2997C35.3022 28.2991 35.3011 28.2985 35.3001 28.298C35.2995 28.2977 35.2988 28.2973 35.2985 28.2971C35.2977 28.2967 35.297 28.2963 34.1164 30.5ZM32.7772 31.418C32.3588 32.5277 31.8148 33.1278 31.324 33.4657C30.8224 33.8109 30.2258 33.9852 29.5583 34.0007L29.6745 38.9993C31.157 38.9648 32.7354 38.5641 34.1589 37.5843C35.593 36.5972 36.7241 35.1223 37.4557 33.182L32.7772 31.418ZM43.2266 28.6L41.002 29.7408L41.7303 31.161L43.3252 31.0981L43.2266 28.6ZM45.5266 20.9L45.2415 23.3837L45.2554 23.3853L45.5266 20.9ZM45.3766 30.7L43.4244 29.1383L41.7838 31.189L43.9128 32.7267L45.3766 30.7ZM53.7266 28L54.6698 25.6848L52.8041 24.9247L51.6647 26.5862L53.7266 28ZM54.5766 29.7L56.8631 30.7109L56.8662 30.7039L56.8692 30.6968L54.5766 29.7ZM45.3266 36.35L45.2923 33.8502L45.288 33.8503L45.3266 36.35ZM46.1766 18.45L46.069 20.9477L46.0691 20.9477L46.1766 18.45ZM43.3252 31.0981C45.1331 31.0267 46.5288 30.0983 47.4687 29.0088C48.3903 27.9405 48.9707 26.624 49.2652 25.3838C49.5547 24.1645 49.6268 22.7668 49.2627 21.5119C48.8896 20.2263 47.8585 18.6396 45.7977 18.4147L45.2554 23.3853C45.0037 23.3578 44.7534 23.2307 44.5832 23.0562C44.4441 22.9135 44.4365 22.8215 44.4608 22.9053C44.5169 23.0988 44.5547 23.5793 44.4004 24.2287C44.2512 24.8573 43.9784 25.4001 43.6828 25.7428C43.4055 26.0642 43.22 26.0983 43.128 26.1019L43.3252 31.0981ZM45.8116 18.4163C44.0472 18.2138 42.6565 19.0191 41.7777 20.132C40.9868 21.1338 40.5954 22.3726 40.3994 23.4332C40.1959 24.5347 40.1578 25.6925 40.2437 26.7311C40.3253 27.7184 40.5381 28.8362 41.002 29.7408L45.4511 27.4592C45.4522 27.4613 45.4388 27.4351 45.4173 27.3728C45.3963 27.3119 45.3718 27.229 45.3469 27.1229C45.2964 26.9084 45.2529 26.6357 45.2266 26.3189C45.1735 25.6762 45.201 24.9653 45.3162 24.3418C45.439 23.6774 45.6195 23.335 45.702 23.2304C45.7267 23.1991 45.6864 23.2613 45.5595 23.3199C45.4177 23.3854 45.2911 23.3894 45.2415 23.3837L45.8116 18.4163ZM43.9128 32.7267C45.1489 33.6194 46.4999 34.15 48.0266 34.15V29.15C47.7532 29.15 47.4043 29.0806 46.8403 28.6733L43.9128 32.7267ZM48.0266 34.15C49.8197 34.15 51.44 33.3933 52.6766 32.5353C53.9363 31.6614 55.024 30.5285 55.7884 29.4138L51.6647 26.5862C51.2291 27.2215 50.5668 27.9136 49.8265 28.4272C49.0632 28.9567 48.4334 29.15 48.0266 29.15V34.15ZM53.7266 28C52.7833 30.3152 52.7824 30.3148 52.7814 30.3144C52.7811 30.3143 52.7801 30.3139 52.7795 30.3137C52.7782 30.3131 52.777 30.3126 52.7757 30.3121C52.7733 30.3111 52.7709 30.3101 52.7685 30.3091C52.7638 30.3072 52.7594 30.3053 52.7551 30.3035C52.7467 30.3 52.7391 30.2967 52.7324 30.2937C52.7189 30.2877 52.7083 30.2828 52.7 30.2788C52.6841 30.2712 52.674 30.2657 52.6665 30.2613C52.6632 30.2594 52.6179 30.2345 52.5515 30.1665C52.485 30.0985 52.3225 29.9097 52.2373 29.5868C52.1405 29.2195 52.2007 28.8946 52.2839 28.7032L56.8692 30.6968C57.2024 29.9304 57.2814 29.1055 57.072 28.3117C56.8744 27.5622 56.4681 27.0202 56.1266 26.671C55.7852 26.3218 55.4336 26.0875 55.1929 25.9465C55.0667 25.8726 54.9549 25.8151 54.8672 25.7729C54.823 25.7517 54.7839 25.7338 54.7508 25.7192C54.7343 25.7119 54.7192 25.7054 54.7057 25.6997C54.6989 25.6968 54.6925 25.6941 54.6866 25.6917C54.6836 25.6904 54.6807 25.6892 54.6779 25.6881C54.6765 25.6875 54.6751 25.6869 54.6738 25.6864C54.6731 25.6861 54.6721 25.6857 54.6718 25.6856C54.6708 25.6852 54.6698 25.6848 53.7266 28ZM52.2901 28.6891C50.579 32.5594 47.9497 33.8138 45.2923 33.8502L45.3608 38.8498C50.0034 38.7862 54.3741 36.3406 56.8631 30.7109L52.2901 28.6891ZM45.288 33.8503C40.2785 33.9277 37.7729 30.4815 37.7326 27.2006C37.7123 25.5465 38.3199 23.9731 39.5494 22.8365C40.7651 21.7127 42.8196 20.8078 46.069 20.9477L46.2841 15.9523C41.9835 15.7672 38.538 16.9623 36.1553 19.165C33.7863 21.355 32.6971 24.3347 32.733 27.2619C32.8052 33.1435 37.4246 38.9723 45.3652 38.8497L45.288 33.8503ZM46.0691 20.9477C49.8073 21.1085 51.3766 23.4776 51.3766 24.75H56.3766C56.3766 20.0224 51.8458 16.1915 46.284 15.9523L46.0691 20.9477ZM51.3766 24.75C51.3766 24.9066 51.3498 24.9105 51.3828 24.8421C51.4175 24.7702 51.4574 24.7438 51.4287 24.7663C51.2769 24.8852 50.9299 25.0484 50.002 25.34C48.4519 25.8272 45.4911 26.5549 43.4244 29.1383L47.3287 32.2617C48.262 31.0951 49.5513 30.7228 51.5011 30.11C52.3232 29.8516 53.5388 29.4648 54.512 28.7024C55.6899 27.7798 56.3766 26.4426 56.3766 24.75H51.3766ZM66.459 22.35L66.5336 19.8511L66.5164 19.8506L66.4993 19.8503L66.459 22.35ZM66.459 30.4L66.5359 27.9012L66.519 27.9007L66.5021 27.9004L66.459 30.4ZM65.509 43.3L67.0581 41.3378L67.0161 41.3046L66.9727 41.2733L65.509 43.3ZM55.509 43.3L57.0798 45.2449L57.0879 45.2384L57.0958 45.2318L55.509 43.3ZM55.159 20.6L53.6265 22.5752L53.6344 22.5813L53.6423 22.5874L55.159 20.6ZM64.609 20.6L62.2032 19.9201L66.8935 21.6153L64.609 20.6ZM64.159 31.45L66.5843 30.8437L61.6591 31.4231L64.159 31.45ZM66.4993 19.8503C64.3999 19.8165 63.1171 21.2344 62.5045 22.4673C61.9029 23.6781 61.6935 25.1061 61.7092 26.3686C61.7249 27.6374 61.9717 29.0411 62.5608 30.2266C63.1293 31.3707 64.3416 32.8639 66.4159 32.8996L66.5021 27.9004C67.1264 27.9111 67.2261 28.3793 67.0384 28.0015C66.8713 27.6652 66.718 27.0501 66.7088 26.3064C66.6995 25.5564 66.8401 24.9782 66.9822 24.6921C67.0471 24.5615 67.0606 24.5961 66.9557 24.6752C66.8182 24.7789 66.6149 24.8528 66.4187 24.8497L66.4993 19.8503ZM66.3821 32.8988C68.4382 32.9621 69.7894 31.6622 70.4844 30.4164C71.1594 29.2066 71.4259 27.7613 71.4339 26.4655C71.442 25.1669 71.1925 23.7147 70.5331 22.4836C69.8559 21.2194 68.5536 19.9114 66.5336 19.8511L66.3844 24.8489C66.0394 24.8386 65.9808 24.5743 66.1255 24.8445C66.288 25.1478 66.4385 25.7206 66.434 26.4345C66.4296 27.1512 66.2711 27.7059 66.118 27.9804C65.9848 28.2191 66.1048 27.8879 66.5359 27.9012L66.3821 32.8988ZM63.9599 45.2622C63.9478 45.2527 63.8829 45.2006 63.7992 45.0997C63.7163 44.9997 63.5846 44.8151 63.4863 44.5426C63.2388 43.857 63.3758 43.1242 63.7412 42.6009C63.8877 42.3909 64.038 42.2608 64.1272 42.1927C64.2185 42.1231 64.2855 42.0885 64.3046 42.0789C64.3358 42.0633 64.2934 42.0876 64.1368 42.1295C63.4537 42.3124 62.135 42.4402 60.6175 42.4313C59.1087 42.4224 57.7533 42.2805 57.0138 42.0852C56.933 42.0639 56.8716 42.0449 56.8276 42.0298C56.7825 42.0142 56.7654 42.0061 56.7703 42.0083C56.773 42.0096 56.8187 42.0308 56.8895 42.0794C56.9573 42.126 57.0868 42.2242 57.2257 42.3901C57.5565 42.7851 57.8556 43.4907 57.6426 44.3042C57.4769 44.9365 57.0964 45.2314 57.0798 45.2449L53.9381 41.3551C53.5965 41.6311 53.032 42.1733 52.8057 43.0373C52.5319 44.0827 52.8936 45.0047 53.3924 45.6004C53.8138 46.1035 54.3256 46.3847 54.6509 46.5369C55.012 46.7059 55.3901 46.8278 55.737 46.9195C57.074 47.2726 58.9155 47.4213 60.588 47.4312C62.2517 47.441 64.0987 47.3157 65.4296 46.9595C65.7765 46.8667 66.1656 46.7383 66.5387 46.552C66.8739 46.3846 67.4243 46.0596 67.8407 45.4634C68.3507 44.733 68.5248 43.7747 68.1893 42.8451C67.9166 42.0896 67.3959 41.6045 67.0581 41.3378L63.9599 45.2622ZM57.0958 45.2318C57.7377 44.7046 58.0063 43.9971 58.1029 43.7347C58.242 43.3565 58.3443 42.9435 58.4239 42.5509C58.5852 41.7556 58.7084 40.7647 58.8026 39.6901C58.9923 37.5244 59.0842 34.7788 59.0715 32.0508C59.0587 29.3261 58.9413 26.5477 58.6972 24.324C58.5761 23.2208 58.4163 22.1825 58.2004 21.3305C58.0931 20.907 57.9551 20.461 57.7685 20.0494C57.608 19.6952 57.2875 19.0796 56.6757 18.6126L53.6423 22.5874C53.2679 22.3017 53.1689 22.013 53.2143 22.1131C53.2336 22.1558 53.2859 22.2915 53.3535 22.5586C53.4876 23.0878 53.6169 23.8667 53.727 24.8697C53.9454 26.8586 54.0592 29.4489 54.0715 32.0742C54.0838 34.6962 53.9944 37.2818 53.8216 39.2537C53.7346 40.2478 53.6312 41.0273 53.5237 41.557C53.469 41.8268 53.4263 41.965 53.4104 42.0082C53.3519 42.1674 53.4553 41.7516 53.9221 41.3682L57.0958 45.2318ZM56.6915 18.6248C56.4579 18.4435 57.6397 19.2438 57.1104 20.7091C56.9096 21.2649 56.5527 21.5389 56.4457 21.614C56.3238 21.6995 56.2648 21.71 56.3422 21.6825C56.731 21.544 57.7161 21.3967 59.0458 21.3937C60.3236 21.3909 61.564 21.5217 62.365 21.7316C62.801 21.8459 62.8748 21.925 62.7766 21.8518C62.7123 21.8039 62.4855 21.6222 62.3145 21.2574C62.117 20.8362 62.081 20.3525 62.2032 19.9201L67.0148 21.2799C67.2182 20.56 67.1568 19.8072 66.8417 19.1351C66.5531 18.5194 66.1165 18.1052 65.7646 17.8429C65.0912 17.341 64.2787 17.0643 63.6327 16.895C62.2696 16.5377 60.5631 16.3904 59.0347 16.3938C57.5582 16.397 55.8776 16.5403 54.6649 16.9722C54.3418 17.0872 53.9489 17.2579 53.5741 17.5208C53.2141 17.7734 52.6852 18.2423 52.4078 19.0103C51.7251 20.9 53.1351 22.194 53.6265 22.5752L56.6915 18.6248ZM66.8935 21.6153C66.8876 21.6286 66.9629 21.4614 67.3599 21.2694C67.745 21.0831 68.2913 20.95 68.909 20.95V15.95C67.6266 15.95 66.3229 16.2169 65.1831 16.7681C64.055 17.3136 62.9303 18.2214 62.3245 19.5847L66.8935 21.6153ZM68.909 20.95C70.7472 20.95 71.8971 21.6826 72.6602 22.7324C73.491 23.8755 73.9601 25.555 73.9342 27.4153C73.9084 29.2723 73.3913 31.0327 72.5795 32.2521C71.7921 33.4348 70.866 33.95 69.859 33.95V38.95C72.952 38.95 75.2821 37.2152 76.7416 35.0229C78.1766 32.8673 78.897 30.1277 78.9337 27.4847C78.9704 24.845 78.3269 22.0245 76.7047 19.7926C75.0146 17.4674 72.3707 15.95 68.909 15.95V20.95ZM69.859 33.95C68.6934 33.95 68.1162 33.6284 67.7517 33.2765C67.3187 32.8584 66.9029 32.1179 66.5843 30.8437L61.7336 32.0563C62.1651 33.7821 62.8993 35.5416 64.2787 36.8735C65.7268 38.2716 67.6246 38.95 69.859 38.95V33.95ZM61.6591 31.4231C61.6332 33.8318 61.7489 36.7247 61.9903 39.1251C62.1102 40.3179 62.2673 41.4533 62.4707 42.3697C62.5711 42.8222 62.6984 43.2942 62.8679 43.7198C62.9882 44.0219 63.3097 44.7955 64.0453 45.3267L66.9727 41.2733C67.4833 41.642 67.5923 42.0688 67.5132 41.87C67.4832 41.7949 67.4242 41.6122 67.352 41.2866C67.21 40.6467 67.0765 39.7321 66.9652 38.6249C66.744 36.4253 66.6347 33.7182 66.6588 31.4769L61.6591 31.4231ZM85.0547 34.35L86.6255 36.2949L86.6356 36.2867L86.6456 36.2784L85.0547 34.35ZM84.9547 17.25L83.4437 19.2417L83.4538 19.2493L83.4639 19.2569L84.9547 17.25ZM94.2047 15L92.4369 13.2322L91.7482 13.921L91.7069 14.8942L94.2047 15ZM94.8047 34.35L92.8698 35.9331L93.0421 36.1436L93.2556 36.3122L94.8047 34.35ZM86.6456 36.2784C87.4758 35.5936 87.8676 34.6006 88.0733 33.9696C88.3145 33.2297 88.4834 32.378 88.6048 31.5115C88.849 29.7674 88.94 27.6681 88.9107 25.6328C88.8813 23.5959 88.7301 21.5272 88.4579 19.8401C88.323 19.0035 88.1471 18.1889 87.9129 17.493C87.7958 17.1449 87.6457 16.7709 87.4477 16.4171C87.2634 16.0878 86.9517 15.6192 86.4455 15.2431L83.4639 19.2569C83.3089 19.1417 83.2118 19.0322 83.1619 18.9698C83.1109 18.906 83.0871 18.8636 83.0847 18.8592C83.083 18.8563 83.118 18.9212 83.174 19.0876C83.2861 19.4209 83.4091 19.9379 83.5218 20.6364C83.7449 22.0197 83.8843 23.8353 83.9112 25.7047C83.9381 27.5757 83.851 29.4045 83.6531 30.8182C83.5533 31.5306 83.4351 32.0652 83.3195 32.42C83.1683 32.8838 83.1336 32.6939 83.4637 32.4216L86.6456 36.2784ZM86.4657 15.2583C86.5191 15.2988 86.798 15.5219 86.9652 15.9888C87.157 16.5247 87.0844 17.0498 86.9189 17.4222C86.6918 17.9332 86.3822 17.9876 86.7932 17.757C87.416 17.4077 88.6361 16.9959 90.0577 16.6963C91.4874 16.395 92.7097 16.2935 93.2945 16.3495C93.4251 16.3621 93.4168 16.3738 93.3236 16.3415C93.2747 16.3246 92.8369 16.1767 92.4707 15.6735C91.9928 15.0167 91.9858 14.2572 92.1635 13.7348C92.2963 13.3441 92.494 13.1751 92.4369 13.2322L95.9725 16.7678C96.2653 16.4749 96.6744 16.0001 96.8973 15.3445C97.1649 14.5573 97.1267 13.5741 96.5137 12.7316C96.0123 12.0426 95.3354 11.747 94.961 11.6172C94.5422 11.4721 94.1217 11.4059 93.7712 11.3723C92.4309 11.244 90.622 11.4675 89.0267 11.8037C87.4233 12.1416 85.6246 12.6798 84.3474 13.3961C83.8085 13.6984 82.8285 14.3144 82.3498 15.3915C82.0586 16.0469 81.9649 16.856 82.2577 17.674C82.5258 18.423 83.0278 18.9262 83.4437 19.2417L86.4657 15.2583ZM94.2047 15C91.7069 14.8942 91.7069 14.8943 91.7069 14.8946C91.7069 14.8947 91.7069 14.895 91.7069 14.8954C91.7069 14.896 91.7068 14.897 91.7068 14.8982C91.7067 14.9006 91.7065 14.9041 91.7063 14.9086C91.7059 14.9176 91.7054 14.9309 91.7047 14.9482C91.7033 14.9829 91.7012 15.0338 91.6986 15.1C91.6933 15.2324 91.6858 15.4258 91.6768 15.6721C91.6587 16.1646 91.6345 16.8688 91.6097 17.7184C91.5601 19.416 91.5079 21.7025 91.4985 24.0461C91.489 26.3799 91.5216 28.8128 91.6464 30.7881C91.7084 31.7699 91.7966 32.6955 91.9264 33.4622C91.991 33.8439 92.0745 34.2382 92.1887 34.6048C92.2859 34.9164 92.4768 35.4528 92.8698 35.9331L96.7396 32.7669C96.9638 33.041 97.0024 33.2457 96.9622 33.1168C96.9391 33.0428 96.9003 32.8877 96.8562 32.6274C96.7687 32.1103 96.6939 31.3824 96.6364 30.4728C96.5222 28.6653 96.4891 26.3638 96.4984 24.0664C96.5077 21.7788 96.5587 19.5371 96.6075 17.8644C96.6319 17.0289 96.6557 16.3373 96.6734 15.8554C96.6823 15.6145 96.6896 15.4261 96.6946 15.2984C96.6972 15.2345 96.6991 15.1859 96.7005 15.1534C96.7011 15.1372 96.7016 15.1251 96.702 15.1171C96.7021 15.1131 96.7023 15.1102 96.7023 15.1083C96.7024 15.1073 96.7024 15.1067 96.7024 15.1063C96.7024 15.106 96.7024 15.1059 96.7024 15.1058C96.7024 15.1058 96.7024 15.1058 94.2047 15ZM93.2556 36.3122C93.245 36.3039 93.1832 36.2544 93.1025 36.1579C93.0225 36.0623 92.8946 35.8854 92.7962 35.6236C92.5497 34.9679 92.6547 34.2404 93.0159 33.6974C93.2863 33.2909 93.5943 33.1436 93.5979 33.1418C93.6383 33.121 93.6058 33.1427 93.4573 33.1834C92.8049 33.3622 91.524 33.4902 90.0385 33.4813C88.5621 33.4724 87.2437 33.3306 86.5342 33.1389C86.3698 33.0945 86.3079 33.0654 86.3163 33.0694C86.3234 33.0728 86.3738 33.0972 86.4487 33.1503C86.5209 33.2015 86.6535 33.3059 86.793 33.4794C87.1279 33.8963 87.3943 34.6032 87.1759 35.3898C87.0066 35.9991 86.6408 36.2825 86.6255 36.2949L83.4838 32.4051C83.1436 32.68 82.5918 33.2106 82.3582 34.0518C82.0754 35.0702 82.399 35.9935 82.8951 36.611C83.3118 37.1296 83.8254 37.4197 84.1502 37.5758C84.5103 37.749 84.8868 37.8731 85.2299 37.9658C86.55 38.3225 88.3661 38.4713 90.0084 38.4812C91.6416 38.491 93.4639 38.3659 94.7787 38.0056C95.122 37.9116 95.5102 37.7806 95.8829 37.5891C96.2188 37.4166 96.7706 37.0805 97.1788 36.4668C97.6779 35.7167 97.8147 34.7638 97.4764 33.8641C97.2 33.129 96.6905 32.6536 96.3538 32.3878L93.2556 36.3122Z" fill="#280000" mask="url(#path-1-outside-1_3214_3044)"/>
<mask id="path-3-outside-2_3214_3044" maskUnits="userSpaceOnUse" x="0" y="5" width="98" height="38" fill="black">
<rect fill="white" y="5" width="98" height="38"/>
<path d="M21 24.95C21.1 29.75 16.35 31.15 12.3 31.25C8.7 31.25 2.85 29.9 3.05 25.3C3.2 21.4 11 20.9 10.8 26.7C10.75 27.95 11.4 28.6 12.05 28.6C12.7 28.6 13.4 28 13.45 26.85C13.7 20.2 3.4 23.15 3.3 14.75C3.25 10.4 8.35 8.4 12.15 8.4C15.5 8.4 20.6 9.3 20.4 13.6C20.25 17.5 12.8 17.8 12.9 13.6C12.95 12.6 13.35 11 12.3 10.9C11.3 10.8 11.05 12 11 13.15C10.8 18.65 20.8 16.3 21 24.95ZM29.6164 31.5C22.6664 31.5 22.9164 27.3 23.0664 23.7C23.1664 20.95 23.4664 20.05 22.5664 20.05L21.7164 20.1C20.9664 20.8 20.8164 16.85 21.7164 17.6C24.1164 17.2 27.9164 12.85 27.9164 11.65C27.9164 10.25 30.9664 10.5 30.7664 11.5C30.7164 13.45 30.7164 14.3 30.7164 17.6H34.6664C35.3664 16.75 35.4164 21 34.6664 20.1H30.6664C30.6164 20.95 30.6664 24 30.6664 26.05C30.6664 27.55 31.1164 27.85 31.8664 27.85C32.7164 27.85 33.3664 26.6 34.1164 25.5C34.1164 25.5 35.5164 26.25 35.1164 27.3C33.9664 30.35 31.7664 31.45 29.6164 31.5ZM43.2266 23.6C47.0266 23.45 48.2766 16.2 45.5266 15.9C42.4766 15.55 42.2266 21.65 43.2266 23.6ZM45.3766 25.7C46.2766 26.35 47.1266 26.65 48.0266 26.65C50.2266 26.65 52.5266 24.75 53.7266 23C53.7266 23 55.0766 23.55 54.5766 24.7C52.4766 29.45 48.9766 31.3 45.3266 31.35C32.3766 31.55 31.0766 12.8 46.1766 13.45C50.8266 13.65 53.8766 16.75 53.8766 19.75C53.8766 23.5 48.3766 21.95 45.3766 25.7ZM66.459 17.35C63.359 17.3 63.559 25.35 66.459 25.4C69.709 25.5 69.809 17.45 66.459 17.35ZM65.509 38.3C68.359 40.55 52.909 40.4 55.509 38.3C56.909 37.15 57.059 17.05 55.159 15.6C52.259 13.35 65.259 13.3 64.609 15.6C65.209 14.25 67.009 13.45 68.909 13.45C79.509 13.45 78.059 31.45 69.859 31.45C66.459 31.45 64.909 29.45 64.159 26.45C64.109 31.1 64.609 37.65 65.509 38.3ZM85.0547 29.35C87.0547 27.7 86.7047 13.55 84.9547 12.25C82.0547 10.05 97.0047 7.2 94.2047 10C94.2047 10 93.4547 27.7 94.8047 29.35C97.6547 31.6 82.4547 31.45 85.0547 29.35Z"/>
</mask>
<path d="M21 24.95C21.1 29.75 16.35 31.15 12.3 31.25C8.7 31.25 2.85 29.9 3.05 25.3C3.2 21.4 11 20.9 10.8 26.7C10.75 27.95 11.4 28.6 12.05 28.6C12.7 28.6 13.4 28 13.45 26.85C13.7 20.2 3.4 23.15 3.3 14.75C3.25 10.4 8.35 8.4 12.15 8.4C15.5 8.4 20.6 9.3 20.4 13.6C20.25 17.5 12.8 17.8 12.9 13.6C12.95 12.6 13.35 11 12.3 10.9C11.3 10.8 11.05 12 11 13.15C10.8 18.65 20.8 16.3 21 24.95ZM29.6164 31.5C22.6664 31.5 22.9164 27.3 23.0664 23.7C23.1664 20.95 23.4664 20.05 22.5664 20.05L21.7164 20.1C20.9664 20.8 20.8164 16.85 21.7164 17.6C24.1164 17.2 27.9164 12.85 27.9164 11.65C27.9164 10.25 30.9664 10.5 30.7664 11.5C30.7164 13.45 30.7164 14.3 30.7164 17.6H34.6664C35.3664 16.75 35.4164 21 34.6664 20.1H30.6664C30.6164 20.95 30.6664 24 30.6664 26.05C30.6664 27.55 31.1164 27.85 31.8664 27.85C32.7164 27.85 33.3664 26.6 34.1164 25.5C34.1164 25.5 35.5164 26.25 35.1164 27.3C33.9664 30.35 31.7664 31.45 29.6164 31.5ZM43.2266 23.6C47.0266 23.45 48.2766 16.2 45.5266 15.9C42.4766 15.55 42.2266 21.65 43.2266 23.6ZM45.3766 25.7C46.2766 26.35 47.1266 26.65 48.0266 26.65C50.2266 26.65 52.5266 24.75 53.7266 23C53.7266 23 55.0766 23.55 54.5766 24.7C52.4766 29.45 48.9766 31.3 45.3266 31.35C32.3766 31.55 31.0766 12.8 46.1766 13.45C50.8266 13.65 53.8766 16.75 53.8766 19.75C53.8766 23.5 48.3766 21.95 45.3766 25.7ZM66.459 17.35C63.359 17.3 63.559 25.35 66.459 25.4C69.709 25.5 69.809 17.45 66.459 17.35ZM65.509 38.3C68.359 40.55 52.909 40.4 55.509 38.3C56.909 37.15 57.059 17.05 55.159 15.6C52.259 13.35 65.259 13.3 64.609 15.6C65.209 14.25 67.009 13.45 68.909 13.45C79.509 13.45 78.059 31.45 69.859 31.45C66.459 31.45 64.909 29.45 64.159 26.45C64.109 31.1 64.609 37.65 65.509 38.3ZM85.0547 29.35C87.0547 27.7 86.7047 13.55 84.9547 12.25C82.0547 10.05 97.0047 7.2 94.2047 10C94.2047 10 93.4547 27.7 94.8047 29.35C97.6547 31.6 82.4547 31.45 85.0547 29.35Z" fill="#E38D12"/>
<path d="M21 24.95L23.4995 24.8979L23.4993 24.8922L21 24.95ZM12.3 31.25V33.75H12.3309L12.3617 33.7492L12.3 31.25ZM3.05 25.3L5.54767 25.4086L5.54815 25.3961L3.05 25.3ZM10.8 26.7L13.298 26.7999L13.2985 26.7862L10.8 26.7ZM13.45 26.85L15.9476 26.9586L15.948 26.9513L15.9482 26.9439L13.45 26.85ZM3.3 14.75L0.800165 14.7787L0.800177 14.7798L3.3 14.75ZM20.4 13.6L17.9027 13.4838L17.9022 13.4939L17.9018 13.5039L20.4 13.6ZM12.9 13.6L10.4031 13.4752L10.4015 13.5078L10.4007 13.5405L12.9 13.6ZM12.3 10.9L12.0512 13.3876L12.063 13.3887L12.3 10.9ZM11 13.15L8.50236 13.0414L8.50197 13.0503L8.50165 13.0591L11 13.15ZM18.5005 25.0021C18.5288 26.358 17.9701 27.117 16.9642 27.6929C15.7966 28.3613 14.0716 28.7055 12.2383 28.7508L12.3617 33.7492C14.5784 33.6945 17.2534 33.2887 19.4483 32.0321C21.8049 30.683 23.5712 28.342 23.4995 24.8979L18.5005 25.0021ZM12.3 28.75C10.7336 28.75 8.77743 28.445 7.33812 27.7492C5.95493 27.0805 5.50729 26.3366 5.54764 25.4086L0.55236 25.1914C0.392708 28.8634 2.77007 31.0945 5.16188 32.2508C7.49757 33.38 10.2664 33.75 12.3 33.75V28.75ZM5.54815 25.3961C5.55002 25.3475 5.5462 25.2679 5.74906 25.1313C5.99546 24.9653 6.42376 24.8301 6.9118 24.8583C7.38753 24.8859 7.72856 25.0548 7.92384 25.2508C8.0781 25.4056 8.33092 25.7603 8.30149 26.6138L13.2985 26.7862C13.3691 24.7397 12.7219 22.9819 11.4652 21.7211C10.2496 20.5014 8.66872 19.9516 7.2007 19.8667C5.74499 19.7824 4.20767 20.141 2.95563 20.9844C1.66005 21.8571 0.624979 23.3025 0.551847 25.2039L5.54815 25.3961ZM8.302 26.6001C8.22067 28.6332 9.41611 31.1 12.05 31.1V26.1C12.598 26.1 12.985 26.3805 13.1672 26.625C13.3437 26.8619 13.2906 26.9861 13.298 26.7999L8.302 26.6001ZM12.05 31.1C14.3828 31.1 15.8557 29.0727 15.9476 26.9586L10.9524 26.7414C10.9487 26.8248 10.9357 26.6865 11.1109 26.4904C11.2758 26.3058 11.5958 26.1 12.05 26.1V31.1ZM15.9482 26.9439C16.0407 24.4836 15.0936 22.6938 13.5999 21.4279C12.3266 20.3489 10.6355 19.6701 9.52729 19.1743C8.23685 18.5969 7.36344 18.1346 6.76003 17.5109C6.2632 16.9974 5.81784 16.2341 5.79982 14.7202L0.800177 14.7798C0.832156 17.4659 1.7118 19.4839 3.16653 20.9875C4.51468 22.381 6.2194 23.1719 7.48521 23.7382C8.93324 24.3861 9.7765 24.7417 10.3673 25.2424C10.7376 25.5562 10.9843 25.8914 10.9518 26.7561L15.9482 26.9439ZM5.79983 14.7213C5.78819 13.7081 6.31755 12.8357 7.56523 12.0888C8.85735 11.3154 10.6218 10.9 12.15 10.9V5.9C9.87817 5.9 7.19265 6.48458 4.99727 7.79866C2.75745 9.13934 0.761811 11.4419 0.800165 14.7787L5.79983 14.7213ZM12.15 10.9C13.6796 10.9 15.3747 11.1164 16.5673 11.6614C17.1391 11.9227 17.4684 12.2022 17.6463 12.4462C17.7955 12.6509 17.9277 12.9463 17.9027 13.4838L22.8973 13.7162C22.9723 12.1037 22.542 10.6741 21.6866 9.50069C20.8598 8.36657 19.7422 7.61484 18.6452 7.11363C16.5003 6.13356 13.9704 5.9 12.15 5.9V10.9ZM17.9018 13.5039C17.8987 13.5861 17.8909 13.6641 17.7013 13.7991C17.4598 13.9709 17.0273 14.1275 16.5061 14.138C15.9775 14.1486 15.626 14.0058 15.4831 13.9015C15.453 13.8794 15.437 13.863 15.4298 13.8547C15.4231 13.847 15.4211 13.8431 15.4203 13.8415C15.4196 13.8401 15.4148 13.8307 15.4098 13.8076C15.4047 13.7839 15.3975 13.7366 15.3993 13.6595L10.4007 13.5405C10.3555 15.4406 11.2116 16.9733 12.5341 17.9392C13.7647 18.838 15.2662 19.1639 16.6064 19.137C17.9539 19.11 19.4058 18.7229 20.6003 17.8728C21.8466 16.9859 22.8263 15.5639 22.8982 13.6961L17.9018 13.5039ZM15.3969 13.7248C15.4056 13.5512 15.427 13.3894 15.4635 13.0098C15.4929 12.7046 15.5312 12.256 15.5098 11.7963C15.4903 11.3767 15.4129 10.6359 14.9792 9.92357C14.4484 9.0514 13.562 8.50888 12.537 8.41126L12.063 13.3887C11.8667 13.37 11.5958 13.3039 11.3152 13.1305C11.0321 12.9556 10.8343 12.7303 10.7083 12.5233C10.4934 12.1703 10.5097 11.9108 10.5152 12.0287C10.5188 12.1065 10.5134 12.2517 10.4865 12.5308C10.4668 12.7356 10.4194 13.1488 10.4031 13.4752L15.3969 13.7248ZM12.5488 8.41241C11.7511 8.33264 10.9368 8.51338 10.2399 9.0055C9.59384 9.46176 9.22512 10.0603 9.01333 10.5317C8.61445 11.4195 8.52984 12.4094 8.50236 13.0414L13.4976 13.2586C13.5073 13.036 13.5252 12.8547 13.5486 12.7159C13.5738 12.5671 13.5941 12.5365 13.5742 12.5808C13.5561 12.6209 13.4405 12.8664 13.1241 13.0898C12.7569 13.3491 12.3489 13.4174 12.0512 13.3876L12.5488 8.41241ZM8.50165 13.0591C8.46225 14.1426 8.67576 15.1505 9.15669 16.055C9.628 16.9414 10.2858 17.5967 10.9445 18.0935C12.1285 18.9866 13.7679 19.65 14.782 20.1291C15.9818 20.6961 16.8499 21.2095 17.4571 21.892C17.9927 22.4942 18.4632 23.3863 18.5007 25.0078L23.4993 24.8922C23.4368 22.1887 22.5823 20.1308 21.1929 18.5689C19.8751 17.0874 18.2182 16.2227 16.918 15.6084C15.4321 14.9063 14.5965 14.5853 13.9555 14.1018C13.7017 13.9104 13.6095 13.7793 13.5714 13.7077C13.543 13.6542 13.4877 13.5324 13.4983 13.2408L8.50165 13.0591ZM29.6164 31.5V34H29.6455L29.6745 33.9993L29.6164 31.5ZM23.0664 23.7L25.5643 23.8041L25.5648 23.7908L23.0664 23.7ZM22.5664 20.05V17.55H22.4929L22.4196 17.5543L22.5664 20.05ZM21.7164 20.1L21.5696 17.6043L20.6697 17.6573L20.0106 18.2724L21.7164 20.1ZM21.7164 17.6L20.1159 19.5206L20.9966 20.2544L22.1274 20.066L21.7164 17.6ZM30.7664 11.5L28.315 11.0097L28.2727 11.2208L28.2672 11.4359L30.7664 11.5ZM30.7164 17.6H28.2164V20.1H30.7164V17.6ZM34.6664 17.6V20.1H35.8462L36.5962 19.1893L34.6664 17.6ZM34.6664 20.1L36.587 18.4995L35.8373 17.6H34.6664V20.1ZM30.6664 20.1V17.6H28.3091L28.1707 19.9532L30.6664 20.1ZM34.1164 25.5L35.297 23.2963L33.3165 22.2353L32.0508 24.0917L34.1164 25.5ZM35.1164 27.3L32.7802 26.41L32.7772 26.418L35.1164 27.3ZM29.6164 29C26.6407 29 26.0793 28.144 25.8924 27.7879C25.7214 27.4621 25.5943 26.9814 25.5429 26.26C25.4909 25.529 25.5251 24.7435 25.5642 23.8041L20.5686 23.5959C20.5327 24.4565 20.4794 25.546 20.5555 26.615C20.6323 27.6936 20.849 28.9379 21.4654 30.1121C22.8535 32.756 25.6421 34 29.6164 34V29ZM25.5648 23.7908C25.5884 23.1398 25.6236 22.6038 25.6526 22.1185C25.6789 21.6779 25.7083 21.1722 25.689 20.734C25.6736 20.3833 25.6222 19.501 25.028 18.72C24.2704 17.724 23.1982 17.55 22.5664 17.55V22.55C22.4868 22.55 22.2511 22.5424 21.9508 22.4266C21.6136 22.2965 21.2916 22.0667 21.0486 21.7472C20.8275 21.4567 20.7464 21.19 20.7174 21.0712C20.6892 20.9552 20.6914 20.8989 20.6938 20.9535C20.6996 21.0841 20.6914 21.319 20.6615 21.8205C20.6342 22.2774 20.5944 22.8852 20.5681 23.6092L25.5648 23.7908ZM22.4196 17.5543L21.5696 17.6043L21.8632 22.5957L22.7132 22.5457L22.4196 17.5543ZM20.0106 18.2724C20.1691 18.1244 20.5033 17.8624 21.0211 17.743C21.287 17.6817 21.5759 17.6647 21.8721 17.7067C22.1665 17.7483 22.4253 17.842 22.6411 17.9572C23.0545 18.1778 23.29 18.4642 23.3972 18.6148C23.5112 18.7749 23.5682 18.9055 23.5903 18.96C23.633 19.0653 23.6301 19.0987 23.6178 19.0221C23.6081 18.9616 23.5993 18.8736 23.597 18.7731C23.5946 18.6718 23.5996 18.5915 23.6052 18.5448C23.6133 18.4774 23.6138 18.5467 23.5549 18.695C23.5241 18.7725 23.4514 18.9376 23.305 19.1293C23.1585 19.3211 22.8781 19.617 22.4201 19.8152C21.9228 20.0304 21.3954 20.0517 20.9346 19.9327C20.5185 19.8253 20.2454 19.6284 20.1159 19.5206L23.3169 15.6794C22.8379 15.2803 21.7386 14.6621 20.4344 15.2264C19.4118 15.6689 19.0232 16.5591 18.9076 16.8503C18.6212 17.5719 18.5863 18.374 18.5983 18.8894C18.6108 19.4244 18.6874 20.1746 18.9566 20.8385C19.0537 21.0781 19.3966 21.8932 20.2872 22.3684C20.8288 22.6574 21.4838 22.7675 22.1448 22.6151C22.7467 22.4763 23.1699 22.1631 23.4222 21.9276L20.0106 18.2724ZM22.1274 20.066C23.2671 19.876 24.317 19.2851 25.1257 18.7223C25.9811 18.127 26.8023 17.3955 27.5101 16.6665C28.2176 15.9377 28.8659 15.1556 29.3567 14.4292C29.6006 14.0683 29.8346 13.6783 30.0171 13.2841C30.1697 12.9544 30.4164 12.3536 30.4164 11.65H25.4164C25.4164 11.2464 25.5443 11.044 25.4798 11.1835C25.4451 11.2584 25.3635 11.4083 25.2136 11.6301C24.9169 12.0694 24.4652 12.6248 23.9227 13.1835C23.3806 13.742 22.8017 14.248 22.2696 14.6183C22.0054 14.8022 21.7776 14.9352 21.5931 15.0234C21.5025 15.0668 21.4312 15.0951 21.3789 15.1128C21.3262 15.1307 21.3024 15.1345 21.3054 15.134L22.1274 20.066ZM30.4164 11.65C30.4164 11.9551 30.3254 12.2884 30.1307 12.5821C29.9489 12.8563 29.7372 13.0064 29.608 13.0784C29.3877 13.2014 29.2873 13.1732 29.374 13.1746C29.4611 13.1761 29.3937 13.2017 29.1981 13.0938C29.0943 13.0366 28.8281 12.8705 28.5994 12.5153C28.3344 12.1037 28.2048 11.5604 28.315 11.0097L33.2179 11.9903C33.5821 10.1689 32.2833 9.08534 31.6128 8.71555C30.9017 8.32334 30.1093 8.18638 29.4588 8.17536C28.808 8.16433 27.9577 8.27359 27.1716 8.7122C26.2901 9.2041 25.4164 10.1927 25.4164 11.65H30.4164ZM28.2672 11.4359C28.2163 13.4219 28.2164 14.3015 28.2164 17.6H33.2164C33.2164 14.2985 33.2165 13.4781 33.2656 11.5641L28.2672 11.4359ZM30.7164 20.1H34.6664V15.1H30.7164V20.1ZM36.5962 19.1893C36.5387 19.2591 36.4471 19.3599 36.3165 19.4671C36.1863 19.574 35.9937 19.7067 35.7355 19.8122C35.4695 19.9209 35.1432 19.9963 34.776 19.986C34.4065 19.9756 34.0713 19.8805 33.7893 19.7409C33.5161 19.6057 33.3154 19.4407 33.1781 19.3032C33.0412 19.1663 32.9474 19.0372 32.8871 18.9432C32.7719 18.7639 32.7201 18.6211 32.704 18.5742C32.6841 18.5166 32.6786 18.4866 32.6804 18.4955C32.6817 18.5013 32.686 18.5239 32.691 18.5644C32.7014 18.6475 32.7093 18.7608 32.7102 18.8873C32.7112 19.0141 32.7049 19.124 32.6962 19.2009C32.692 19.2383 32.6886 19.2559 32.6887 19.2555C32.6888 19.2547 32.6907 19.2457 32.6949 19.2296C32.699 19.2138 32.7068 19.1862 32.7197 19.1491C32.7397 19.0916 32.8004 18.9271 32.9362 18.7269C33.0076 18.6217 33.1171 18.4809 33.2757 18.3362C33.4363 18.1899 33.6619 18.0265 33.9589 17.9043C34.2644 17.7785 34.6049 17.7135 34.958 17.7278C35.3051 17.742 35.6017 17.83 35.8338 17.9357C36.0606 18.039 36.2292 18.1603 36.3424 18.2554C36.4564 18.3511 36.5367 18.4392 36.587 18.4995L32.7459 21.7005C32.9918 21.9956 34.1697 23.2245 35.862 22.5279C36.515 22.2592 36.8909 21.8036 37.0736 21.5344C37.2663 21.2504 37.3779 20.9768 37.4428 20.79C37.6749 20.1218 37.7138 19.3576 37.7101 18.8502C37.7063 18.3328 37.6537 17.5899 37.4304 16.943C37.3685 16.7637 37.2657 16.5083 37.0941 16.2412C36.9363 15.9954 36.6024 15.5543 36.007 15.2597C35.3055 14.9125 34.5201 14.9076 33.8445 15.1836C33.273 15.4171 32.9165 15.7922 32.7366 16.0107L36.5962 19.1893ZM34.6664 17.6H30.6664V22.6H34.6664V17.6ZM28.1707 19.9532C28.1151 20.8992 28.1664 24.1367 28.1664 26.05H33.1664C33.1664 23.8633 33.1177 21.0008 33.1621 20.2468L28.1707 19.9532ZM28.1664 26.05C28.1664 26.9058 28.2641 28.0958 29.0194 29.0571C29.9337 30.2208 31.2065 30.35 31.8664 30.35V25.35C31.8235 25.35 31.9659 25.3423 32.1867 25.4195C32.4521 25.5121 32.7356 25.6938 32.951 25.9679C33.1423 26.2115 33.1861 26.4093 33.1872 26.4141C33.1877 26.4162 33.1664 26.3147 33.1664 26.05H28.1664ZM31.8664 30.35C33.5472 30.35 34.5817 29.145 34.9758 28.6558C35.4162 28.1091 35.9408 27.262 36.182 26.9083L32.0508 24.0917C31.8528 24.3821 31.6283 24.732 31.4823 24.9528C31.3109 25.2122 31.186 25.3902 31.082 25.5192C30.9711 25.6568 30.9572 25.6455 31.0386 25.5886C31.1397 25.5179 31.431 25.35 31.8664 25.35V30.35ZM34.1164 25.5C32.9359 27.7037 32.9351 27.7033 32.9344 27.7029C32.9341 27.7028 32.9334 27.7024 32.9329 27.7021C32.9319 27.7016 32.931 27.7011 32.93 27.7006C32.9282 27.6996 32.9264 27.6986 32.9246 27.6976C32.9212 27.6958 32.918 27.694 32.915 27.6924C32.9092 27.6892 32.9043 27.6865 32.9004 27.6843C32.8927 27.6799 32.8884 27.6773 32.8871 27.6765C32.8849 27.6752 32.8919 27.6794 32.9039 27.6877C32.9366 27.7104 32.9516 27.7257 32.9459 27.7197C32.9405 27.7139 32.917 27.6885 32.8858 27.6409C32.8546 27.5933 32.8063 27.5095 32.7649 27.3892C32.6687 27.1095 32.6517 26.7473 32.7802 26.41L37.4526 28.19C38.1626 26.3264 37.1386 24.879 36.5869 24.2928C36.2812 23.968 35.9712 23.7303 35.7539 23.5795C35.6409 23.5011 35.5416 23.4384 35.4645 23.392C35.4256 23.3687 35.3917 23.349 35.3636 23.3331C35.3496 23.3251 35.3369 23.3181 35.3258 23.312C35.3202 23.3089 35.315 23.3061 35.3102 23.3035C35.3078 23.3021 35.3055 23.3009 35.3033 23.2997C35.3022 23.2991 35.3011 23.2985 35.3001 23.298C35.2995 23.2977 35.2988 23.2973 35.2985 23.2971C35.2977 23.2967 35.297 23.2963 34.1164 25.5ZM32.7772 26.418C32.3588 27.5277 31.8148 28.1278 31.324 28.4657C30.8224 28.8109 30.2258 28.9852 29.5583 29.0007L29.6745 33.9993C31.157 33.9648 32.7354 33.5641 34.1589 32.5843C35.593 31.5972 36.7241 30.1223 37.4557 28.182L32.7772 26.418ZM43.2266 23.6L41.002 24.7408L41.7303 26.161L43.3252 26.0981L43.2266 23.6ZM45.5266 15.9L45.2415 18.3837L45.2554 18.3853L45.5266 15.9ZM45.3766 25.7L43.4244 24.1383L41.7838 26.189L43.9128 27.7267L45.3766 25.7ZM53.7266 23L54.6698 20.6848L52.8041 19.9247L51.6647 21.5862L53.7266 23ZM54.5766 24.7L56.8631 25.7109L56.8662 25.7039L56.8692 25.6968L54.5766 24.7ZM45.3266 31.35L45.2923 28.8502L45.288 28.8503L45.3266 31.35ZM46.1766 13.45L46.069 15.9477L46.0691 15.9477L46.1766 13.45ZM43.3252 26.0981C45.1331 26.0267 46.5288 25.0983 47.4687 24.0088C48.3903 22.9405 48.9707 21.624 49.2652 20.3838C49.5547 19.1645 49.6268 17.7668 49.2627 16.5119C48.8896 15.2263 47.8585 13.6396 45.7977 13.4147L45.2554 18.3853C45.0037 18.3578 44.7534 18.2307 44.5832 18.0562C44.4441 17.9135 44.4365 17.8215 44.4608 17.9053C44.5169 18.0988 44.5547 18.5793 44.4004 19.2287C44.2512 19.8573 43.9784 20.4001 43.6828 20.7428C43.4055 21.0642 43.22 21.0983 43.128 21.1019L43.3252 26.0981ZM45.8116 13.4163C44.0472 13.2138 42.6565 14.0191 41.7777 15.132C40.9868 16.1338 40.5954 17.3726 40.3994 18.4332C40.1959 19.5347 40.1578 20.6925 40.2437 21.7311C40.3253 22.7184 40.5381 23.8362 41.002 24.7408L45.4511 22.4592C45.4522 22.4613 45.4388 22.4351 45.4173 22.3728C45.3963 22.3119 45.3718 22.229 45.3469 22.1229C45.2964 21.9084 45.2529 21.6357 45.2266 21.3189C45.1735 20.6762 45.201 19.9653 45.3162 19.3418C45.439 18.6774 45.6195 18.335 45.702 18.2304C45.7267 18.1991 45.6864 18.2613 45.5595 18.3199C45.4177 18.3854 45.2911 18.3894 45.2415 18.3837L45.8116 13.4163ZM43.9128 27.7267C45.1489 28.6194 46.4999 29.15 48.0266 29.15V24.15C47.7532 24.15 47.4043 24.0806 46.8403 23.6733L43.9128 27.7267ZM48.0266 29.15C49.8197 29.15 51.44 28.3933 52.6766 27.5353C53.9363 26.6614 55.024 25.5285 55.7884 24.4138L51.6647 21.5862C51.2291 22.2215 50.5668 22.9136 49.8265 23.4272C49.0632 23.9567 48.4334 24.15 48.0266 24.15V29.15ZM53.7266 23C52.7833 25.3152 52.7824 25.3148 52.7814 25.3144C52.7811 25.3143 52.7801 25.3139 52.7795 25.3137C52.7782 25.3131 52.777 25.3126 52.7757 25.3121C52.7733 25.3111 52.7709 25.3101 52.7685 25.3091C52.7638 25.3072 52.7594 25.3053 52.7551 25.3035C52.7467 25.3 52.7391 25.2967 52.7324 25.2937C52.7189 25.2877 52.7083 25.2828 52.7 25.2788C52.6841 25.2712 52.674 25.2657 52.6665 25.2613C52.6632 25.2594 52.6179 25.2345 52.5515 25.1665C52.485 25.0985 52.3225 24.9097 52.2373 24.5868C52.1405 24.2195 52.2007 23.8946 52.2839 23.7032L56.8692 25.6968C57.2024 24.9304 57.2814 24.1055 57.072 23.3117C56.8744 22.5622 56.4681 22.0202 56.1266 21.671C55.7852 21.3218 55.4336 21.0875 55.1929 20.9465C55.0667 20.8726 54.9549 20.8151 54.8672 20.7729C54.823 20.7517 54.7839 20.7338 54.7508 20.7192C54.7343 20.7119 54.7192 20.7054 54.7057 20.6997C54.6989 20.6968 54.6925 20.6941 54.6866 20.6917C54.6836 20.6904 54.6807 20.6892 54.6779 20.6881C54.6765 20.6875 54.6751 20.6869 54.6738 20.6864C54.6731 20.6861 54.6721 20.6857 54.6718 20.6856C54.6708 20.6852 54.6698 20.6848 53.7266 23ZM52.2901 23.6891C50.579 27.5594 47.9497 28.8138 45.2923 28.8502L45.3608 33.8498C50.0034 33.7862 54.3741 31.3406 56.8631 25.7109L52.2901 23.6891ZM45.288 28.8503C40.2785 28.9277 37.7729 25.4815 37.7326 22.2006C37.7123 20.5465 38.3199 18.9731 39.5494 17.8365C40.7651 16.7127 42.8196 15.8078 46.069 15.9477L46.2841 10.9523C41.9835 10.7672 38.538 11.9623 36.1553 14.165C33.7863 16.355 32.6971 19.3347 32.733 22.2619C32.8052 28.1435 37.4246 33.9723 45.3652 33.8497L45.288 28.8503ZM46.0691 15.9477C49.8073 16.1085 51.3766 18.4776 51.3766 19.75H56.3766C56.3766 15.0224 51.8458 11.1915 46.284 10.9523L46.0691 15.9477ZM51.3766 19.75C51.3766 19.9066 51.3498 19.9105 51.3828 19.8421C51.4175 19.7702 51.4574 19.7438 51.4287 19.7663C51.2769 19.8852 50.9299 20.0484 50.002 20.34C48.4519 20.8272 45.4911 21.5549 43.4244 24.1383L47.3287 27.2617C48.262 26.0951 49.5513 25.7228 51.5011 25.11C52.3232 24.8516 53.5388 24.4648 54.512 23.7024C55.6899 22.7798 56.3766 21.4426 56.3766 19.75H51.3766ZM66.459 17.35L66.5336 14.8511L66.5164 14.8506L66.4993 14.8503L66.459 17.35ZM66.459 25.4L66.5359 22.9012L66.519 22.9007L66.5021 22.9004L66.459 25.4ZM65.509 38.3L67.0581 36.3378L67.0161 36.3046L66.9727 36.2733L65.509 38.3ZM55.509 38.3L57.0798 40.2449L57.0879 40.2384L57.0958 40.2318L55.509 38.3ZM55.159 15.6L53.6265 17.5752L53.6344 17.5813L53.6423 17.5874L55.159 15.6ZM64.609 15.6L62.2032 14.9201L66.8935 16.6153L64.609 15.6ZM64.159 26.45L66.5843 25.8437L61.6591 26.4231L64.159 26.45ZM66.4993 14.8503C64.3999 14.8165 63.1171 16.2344 62.5045 17.4673C61.9029 18.6781 61.6935 20.1061 61.7092 21.3686C61.7249 22.6374 61.9717 24.0411 62.5608 25.2266C63.1293 26.3707 64.3416 27.8639 66.4159 27.8996L66.5021 22.9004C67.1264 22.9111 67.2261 23.3793 67.0384 23.0015C66.8713 22.6652 66.718 22.0501 66.7088 21.3064C66.6995 20.5564 66.8401 19.9782 66.9822 19.6921C67.0471 19.5615 67.0606 19.5961 66.9557 19.6752C66.8182 19.7789 66.6149 19.8528 66.4187 19.8497L66.4993 14.8503ZM66.3821 27.8988C68.4382 27.9621 69.7894 26.6622 70.4844 25.4164C71.1594 24.2066 71.4259 22.7613 71.4339 21.4655C71.442 20.1669 71.1925 18.7147 70.5331 17.4836C69.8559 16.2194 68.5536 14.9114 66.5336 14.8511L66.3844 19.8489C66.0394 19.8386 65.9808 19.5743 66.1255 19.8445C66.288 20.1478 66.4385 20.7206 66.434 21.4345C66.4296 22.1512 66.2711 22.7059 66.118 22.9804C65.9848 23.2191 66.1048 22.8879 66.5359 22.9012L66.3821 27.8988ZM63.9599 40.2622C63.9478 40.2527 63.8829 40.2006 63.7992 40.0997C63.7163 39.9997 63.5846 39.8151 63.4863 39.5426C63.2388 38.857 63.3758 38.1242 63.7412 37.6009C63.8877 37.3909 64.038 37.2608 64.1272 37.1927C64.2185 37.1231 64.2855 37.0885 64.3046 37.0789C64.3358 37.0633 64.2934 37.0876 64.1368 37.1295C63.4537 37.3124 62.135 37.4402 60.6175 37.4313C59.1087 37.4224 57.7533 37.2805 57.0138 37.0852C56.933 37.0639 56.8716 37.0449 56.8276 37.0298C56.7825 37.0142 56.7654 37.0061 56.7703 37.0083C56.773 37.0096 56.8187 37.0308 56.8895 37.0794C56.9573 37.126 57.0868 37.2242 57.2257 37.3901C57.5565 37.7851 57.8556 38.4907 57.6426 39.3042C57.4769 39.9365 57.0964 40.2314 57.0798 40.2449L53.9381 36.3551C53.5965 36.6311 53.032 37.1733 52.8057 38.0373C52.5319 39.0827 52.8936 40.0047 53.3924 40.6004C53.8138 41.1035 54.3256 41.3847 54.6509 41.5369C55.012 41.7059 55.3901 41.8278 55.737 41.9195C57.074 42.2726 58.9155 42.4213 60.588 42.4312C62.2517 42.441 64.0987 42.3157 65.4296 41.9595C65.7765 41.8667 66.1656 41.7383 66.5387 41.552C66.8739 41.3846 67.4243 41.0596 67.8407 40.4634C68.3507 39.733 68.5248 38.7747 68.1893 37.8451C67.9166 37.0896 67.3959 36.6045 67.0581 36.3378L63.9599 40.2622ZM57.0958 40.2318C57.7377 39.7046 58.0063 38.9971 58.1029 38.7347C58.242 38.3565 58.3443 37.9435 58.4239 37.5509C58.5852 36.7556 58.7084 35.7647 58.8026 34.6901C58.9923 32.5244 59.0842 29.7788 59.0715 27.0508C59.0587 24.3261 58.9413 21.5477 58.6972 19.324C58.5761 18.2208 58.4163 17.1825 58.2004 16.3305C58.0931 15.907 57.9551 15.461 57.7685 15.0494C57.608 14.6952 57.2875 14.0796 56.6757 13.6126L53.6423 17.5874C53.2679 17.3017 53.1689 17.013 53.2143 17.1131C53.2336 17.1558 53.2859 17.2915 53.3535 17.5586C53.4876 18.0878 53.6169 18.8667 53.727 19.8697C53.9454 21.8586 54.0592 24.4489 54.0715 27.0742C54.0838 29.6962 53.9944 32.2818 53.8216 34.2537C53.7346 35.2478 53.6312 36.0273 53.5237 36.557C53.469 36.8268 53.4263 36.965 53.4104 37.0082C53.3519 37.1674 53.4553 36.7516 53.9221 36.3682L57.0958 40.2318ZM56.6915 13.6248C56.4579 13.4435 57.6397 14.2438 57.1104 15.7091C56.9096 16.2649 56.5527 16.5389 56.4457 16.614C56.3238 16.6995 56.2648 16.71 56.3422 16.6825C56.731 16.544 57.7161 16.3967 59.0458 16.3937C60.3236 16.3909 61.564 16.5217 62.365 16.7316C62.801 16.8459 62.8748 16.925 62.7766 16.8518C62.7123 16.8039 62.4855 16.6222 62.3145 16.2574C62.117 15.8362 62.081 15.3525 62.2032 14.9201L67.0148 16.2799C67.2182 15.56 67.1568 14.8072 66.8417 14.1351C66.5531 13.5194 66.1165 13.1052 65.7646 12.8429C65.0912 12.341 64.2787 12.0643 63.6327 11.895C62.2696 11.5377 60.5631 11.3904 59.0347 11.3938C57.5582 11.397 55.8776 11.5403 54.6649 11.9722C54.3418 12.0872 53.9489 12.2579 53.5741 12.5208C53.2141 12.7734 52.6852 13.2423 52.4078 14.0103C51.7251 15.9 53.1351 17.194 53.6265 17.5752L56.6915 13.6248ZM66.8935 16.6153C66.8876 16.6286 66.9629 16.4614 67.3599 16.2694C67.745 16.0831 68.2913 15.95 68.909 15.95V10.95C67.6266 10.95 66.3229 11.2169 65.1831 11.7681C64.055 12.3136 62.9303 13.2214 62.3245 14.5847L66.8935 16.6153ZM68.909 15.95C70.7472 15.95 71.8971 16.6826 72.6602 17.7324C73.491 18.8755 73.9601 20.555 73.9342 22.4153C73.9084 24.2723 73.3913 26.0327 72.5795 27.2521C71.7921 28.4348 70.866 28.95 69.859 28.95V33.95C72.952 33.95 75.2821 32.2152 76.7416 30.0229C78.1766 27.8673 78.897 25.1277 78.9337 22.4847C78.9704 19.845 78.3269 17.0245 76.7047 14.7926C75.0146 12.4674 72.3707 10.95 68.909 10.95V15.95ZM69.859 28.95C68.6934 28.95 68.1162 28.6284 67.7517 28.2765C67.3187 27.8584 66.9029 27.1179 66.5843 25.8437L61.7336 27.0563C62.1651 28.7821 62.8993 30.5416 64.2787 31.8735C65.7268 33.2716 67.6246 33.95 69.859 33.95V28.95ZM61.6591 26.4231C61.6332 28.8318 61.7489 31.7247 61.9903 34.1251C62.1102 35.3179 62.2673 36.4533 62.4707 37.3697C62.5711 37.8222 62.6984 38.2942 62.8679 38.7198C62.9882 39.0219 63.3097 39.7955 64.0453 40.3267L66.9727 36.2733C67.4833 36.642 67.5923 37.0688 67.5132 36.87C67.4832 36.7949 67.4242 36.6122 67.352 36.2866C67.21 35.6467 67.0765 34.7321 66.9652 33.6249C66.744 31.4253 66.6347 28.7182 66.6588 26.4769L61.6591 26.4231ZM85.0547 29.35L86.6255 31.2949L86.6356 31.2867L86.6456 31.2784L85.0547 29.35ZM84.9547 12.25L83.4437 14.2417L83.4538 14.2493L83.4639 14.2569L84.9547 12.25ZM94.2047 10L92.4369 8.23223L91.7482 8.92099L91.7069 9.89416L94.2047 10ZM94.8047 29.35L92.8698 30.9331L93.0421 31.1436L93.2556 31.3122L94.8047 29.35ZM86.6456 31.2784C87.4758 30.5936 87.8676 29.6006 88.0733 28.9696C88.3145 28.2297 88.4834 27.378 88.6048 26.5115C88.849 24.7674 88.94 22.6681 88.9107 20.6328C88.8813 18.5959 88.7301 16.5272 88.4579 14.8401C88.323 14.0035 88.1471 13.1889 87.9129 12.493C87.7958 12.1449 87.6457 11.7709 87.4477 11.4171C87.2634 11.0878 86.9517 10.6192 86.4455 10.2431L83.4639 14.2569C83.3089 14.1417 83.2118 14.0322 83.1619 13.9698C83.1109 13.906 83.0871 13.8636 83.0847 13.8592C83.083 13.8563 83.118 13.9212 83.174 14.0876C83.2861 14.4209 83.4091 14.9379 83.5218 15.6364C83.7449 17.0197 83.8843 18.8353 83.9112 20.7047C83.9381 22.5757 83.851 24.4045 83.6531 25.8182C83.5533 26.5306 83.4351 27.0652 83.3195 27.42C83.1683 27.8838 83.1336 27.6939 83.4637 27.4216L86.6456 31.2784ZM86.4657 10.2583C86.5191 10.2988 86.798 10.5219 86.9652 10.9888C87.157 11.5247 87.0844 12.0498 86.9189 12.4222C86.6918 12.9332 86.3822 12.9876 86.7932 12.757C87.416 12.4077 88.6361 11.9959 90.0577 11.6963C91.4874 11.395 92.7097 11.2935 93.2945 11.3495C93.4251 11.3621 93.4168 11.3738 93.3236 11.3415C93.2747 11.3246 92.8369 11.1767 92.4707 10.6735C91.9928 10.0167 91.9858 9.25722 92.1635 8.73485C92.2963 8.34406 92.494 8.17513 92.4369 8.23223L95.9725 11.7678C96.2653 11.4749 96.6744 11.0001 96.8973 10.3445C97.1649 9.55733 97.1267 8.57412 96.5137 7.7316C96.0123 7.0426 95.3354 6.747 94.961 6.61722C94.5422 6.47208 94.1217 6.4059 93.7712 6.37233C92.4309 6.24396 90.622 6.46753 89.0267 6.80373C87.4233 7.14164 85.6246 7.67976 84.3474 8.39609C83.8085 8.69835 82.8285 9.31443 82.3498 10.3915C82.0586 11.0469 81.9649 11.856 82.2577 12.674C82.5258 13.423 83.0278 13.9262 83.4437 14.2417L86.4657 10.2583ZM94.2047 10C91.7069 9.89416 91.7069 9.89433 91.7069 9.89456C91.7069 9.89473 91.7069 9.89503 91.7069 9.89536C91.7069 9.89603 91.7068 9.89697 91.7068 9.89817C91.7067 9.90058 91.7065 9.90406 91.7063 9.90858C91.7059 9.91763 91.7054 9.93089 91.7047 9.94821C91.7033 9.98286 91.7012 10.0338 91.6986 10.1C91.6933 10.2324 91.6858 10.4258 91.6768 10.6721C91.6587 11.1646 91.6345 11.8688 91.6097 12.7184C91.5601 14.416 91.5079 16.7025 91.4985 19.0461C91.489 21.3799 91.5216 23.8128 91.6464 25.7881C91.7084 26.7699 91.7966 27.6955 91.9264 28.4622C91.991 28.8439 92.0745 29.2382 92.1887 29.6048C92.2859 29.9164 92.4768 30.4528 92.8698 30.9331L96.7396 27.7669C96.9638 28.041 97.0024 28.2457 96.9622 28.1168C96.9391 28.0428 96.9003 27.8877 96.8562 27.6274C96.7687 27.1103 96.6939 26.3824 96.6364 25.4728C96.5222 23.6653 96.4891 21.3638 96.4984 19.0664C96.5077 16.7788 96.5587 14.5371 96.6075 12.8644C96.6319 12.0289 96.6557 11.3373 96.6734 10.8554C96.6823 10.6145 96.6896 10.4261 96.6946 10.2984C96.6972 10.2345 96.6991 10.1859 96.7005 10.1534C96.7011 10.1372 96.7016 10.1251 96.702 10.1171C96.7021 10.1131 96.7023 10.1102 96.7023 10.1083C96.7024 10.1073 96.7024 10.1067 96.7024 10.1063C96.7024 10.106 96.7024 10.1059 96.7024 10.1058C96.7024 10.1058 96.7024 10.1058 94.2047 10ZM93.2556 31.3122C93.245 31.3039 93.1832 31.2544 93.1025 31.1579C93.0225 31.0623 92.8946 30.8854 92.7962 30.6236C92.5497 29.9679 92.6547 29.2404 93.0159 28.6974C93.2863 28.2909 93.5943 28.1436 93.5979 28.1418C93.6383 28.121 93.6058 28.1427 93.4573 28.1834C92.8049 28.3622 91.524 28.4902 90.0385 28.4813C88.5621 28.4724 87.2437 28.3306 86.5342 28.1389C86.3698 28.0945 86.3079 28.0654 86.3163 28.0694C86.3234 28.0728 86.3738 28.0972 86.4487 28.1503C86.5209 28.2015 86.6535 28.3059 86.793 28.4794C87.1279 28.8963 87.3943 29.6032 87.1759 30.3898C87.0066 30.9991 86.6408 31.2825 86.6255 31.2949L83.4838 27.4051C83.1436 27.68 82.5918 28.2106 82.3582 29.0518C82.0754 30.0702 82.399 30.9935 82.8951 31.611C83.3118 32.1296 83.8254 32.4197 84.1502 32.5758C84.5103 32.749 84.8868 32.8731 85.2299 32.9658C86.55 33.3225 88.3661 33.4713 90.0084 33.4812C91.6416 33.491 93.4639 33.3659 94.7787 33.0056C95.122 32.9116 95.5102 32.7806 95.8829 32.5891C96.2188 32.4166 96.7706 32.0805 97.1788 31.4668C97.6779 30.7167 97.8147 29.7638 97.4764 28.8641C97.2 28.129 96.6905 27.6536 96.3538 27.3878L93.2556 31.3122Z" fill="#280000" mask="url(#path-3-outside-2_3214_3044)"/>
<mask id="path-5-outside-3_3214_3044" maskUnits="userSpaceOnUse" x="0" y="0" width="98" height="38" fill="black">
<rect fill="white" width="98" height="38"/>
<path d="M21 19.95C21.1 24.75 16.35 26.15 12.3 26.25C8.7 26.25 2.85 24.9 3.05 20.3C3.2 16.4 11 15.9 10.8 21.7C10.75 22.95 11.4 23.6 12.05 23.6C12.7 23.6 13.4 23 13.45 21.85C13.7 15.2 3.4 18.15 3.3 9.75C3.25 5.4 8.35 3.4 12.15 3.4C15.5 3.4 20.6 4.3 20.4 8.6C20.25 12.5 12.8 12.8 12.9 8.6C12.95 7.6 13.35 6 12.3 5.9C11.3 5.8 11.05 7 11 8.15C10.8 13.65 20.8 11.3 21 19.95ZM29.6164 26.5C22.6664 26.5 22.9164 22.3 23.0664 18.7C23.1664 15.95 23.4664 15.05 22.5664 15.05L21.7164 15.1C20.9664 15.8 20.8164 11.85 21.7164 12.6C24.1164 12.2 27.9164 7.85 27.9164 6.65C27.9164 5.25 30.9664 5.5 30.7664 6.5C30.7164 8.45 30.7164 9.3 30.7164 12.6H34.6664C35.3664 11.75 35.4164 16 34.6664 15.1H30.6664C30.6164 15.95 30.6664 19 30.6664 21.05C30.6664 22.55 31.1164 22.85 31.8664 22.85C32.7164 22.85 33.3664 21.6 34.1164 20.5C34.1164 20.5 35.5164 21.25 35.1164 22.3C33.9664 25.35 31.7664 26.45 29.6164 26.5ZM43.2266 18.6C47.0266 18.45 48.2766 11.2 45.5266 10.9C42.4766 10.55 42.2266 16.65 43.2266 18.6ZM45.3766 20.7C46.2766 21.35 47.1266 21.65 48.0266 21.65C50.2266 21.65 52.5266 19.75 53.7266 18C53.7266 18 55.0766 18.55 54.5766 19.7C52.4766 24.45 48.9766 26.3 45.3266 26.35C32.3766 26.55 31.0766 7.8 46.1766 8.45C50.8266 8.65 53.8766 11.75 53.8766 14.75C53.8766 18.5 48.3766 16.95 45.3766 20.7ZM66.459 12.35C63.359 12.3 63.559 20.35 66.459 20.4C69.709 20.5 69.809 12.45 66.459 12.35ZM65.509 33.3C68.359 35.55 52.909 35.4 55.509 33.3C56.909 32.15 57.059 12.05 55.159 10.6C52.259 8.35 65.259 8.3 64.609 10.6C65.209 9.25 67.009 8.45 68.909 8.45C79.509 8.45 78.059 26.45 69.859 26.45C66.459 26.45 64.909 24.45 64.159 21.45C64.109 26.1 64.609 32.65 65.509 33.3ZM85.0547 24.35C87.0547 22.7 86.7047 8.55 84.9547 7.25C82.0547 5.05 97.0047 2.2 94.2047 5C94.2047 5 93.4547 22.7 94.8047 24.35C97.6547 26.6 82.4547 26.45 85.0547 24.35Z"/>
</mask>
<path d="M21 19.95C21.1 24.75 16.35 26.15 12.3 26.25C8.7 26.25 2.85 24.9 3.05 20.3C3.2 16.4 11 15.9 10.8 21.7C10.75 22.95 11.4 23.6 12.05 23.6C12.7 23.6 13.4 23 13.45 21.85C13.7 15.2 3.4 18.15 3.3 9.75C3.25 5.4 8.35 3.4 12.15 3.4C15.5 3.4 20.6 4.3 20.4 8.6C20.25 12.5 12.8 12.8 12.9 8.6C12.95 7.6 13.35 6 12.3 5.9C11.3 5.8 11.05 7 11 8.15C10.8 13.65 20.8 11.3 21 19.95ZM29.6164 26.5C22.6664 26.5 22.9164 22.3 23.0664 18.7C23.1664 15.95 23.4664 15.05 22.5664 15.05L21.7164 15.1C20.9664 15.8 20.8164 11.85 21.7164 12.6C24.1164 12.2 27.9164 7.85 27.9164 6.65C27.9164 5.25 30.9664 5.5 30.7664 6.5C30.7164 8.45 30.7164 9.3 30.7164 12.6H34.6664C35.3664 11.75 35.4164 16 34.6664 15.1H30.6664C30.6164 15.95 30.6664 19 30.6664 21.05C30.6664 22.55 31.1164 22.85 31.8664 22.85C32.7164 22.85 33.3664 21.6 34.1164 20.5C34.1164 20.5 35.5164 21.25 35.1164 22.3C33.9664 25.35 31.7664 26.45 29.6164 26.5ZM43.2266 18.6C47.0266 18.45 48.2766 11.2 45.5266 10.9C42.4766 10.55 42.2266 16.65 43.2266 18.6ZM45.3766 20.7C46.2766 21.35 47.1266 21.65 48.0266 21.65C50.2266 21.65 52.5266 19.75 53.7266 18C53.7266 18 55.0766 18.55 54.5766 19.7C52.4766 24.45 48.9766 26.3 45.3266 26.35C32.3766 26.55 31.0766 7.8 46.1766 8.45C50.8266 8.65 53.8766 11.75 53.8766 14.75C53.8766 18.5 48.3766 16.95 45.3766 20.7ZM66.459 12.35C63.359 12.3 63.559 20.35 66.459 20.4C69.709 20.5 69.809 12.45 66.459 12.35ZM65.509 33.3C68.359 35.55 52.909 35.4 55.509 33.3C56.909 32.15 57.059 12.05 55.159 10.6C52.259 8.35 65.259 8.3 64.609 10.6C65.209 9.25 67.009 8.45 68.909 8.45C79.509 8.45 78.059 26.45 69.859 26.45C66.459 26.45 64.909 24.45 64.159 21.45C64.109 26.1 64.609 32.65 65.509 33.3ZM85.0547 24.35C87.0547 22.7 86.7047 8.55 84.9547 7.25C82.0547 5.05 97.0047 2.2 94.2047 5C94.2047 5 93.4547 22.7 94.8047 24.35C97.6547 26.6 82.4547 26.45 85.0547 24.35Z" fill="white"/>
<path d="M21 19.95L23.4995 19.8979L23.4993 19.8922L21 19.95ZM12.3 26.25V28.75H12.3309L12.3617 28.7492L12.3 26.25ZM3.05 20.3L5.54767 20.4086L5.54815 20.3961L3.05 20.3ZM10.8 21.7L13.298 21.7999L13.2985 21.7862L10.8 21.7ZM13.45 21.85L15.9476 21.9586L15.948 21.9513L15.9482 21.9439L13.45 21.85ZM3.3 9.75L0.800165 9.77873L0.800177 9.77976L3.3 9.75ZM20.4 8.6L17.9027 8.48385L17.9022 8.49388L17.9018 8.50392L20.4 8.6ZM12.9 8.6L10.4031 8.47515L10.4015 8.50781L10.4007 8.54049L12.9 8.6ZM12.3 5.9L12.0512 8.38762L12.063 8.38874L12.3 5.9ZM11 8.15L8.50236 8.04141L8.50197 8.05028L8.50165 8.05915L11 8.15ZM18.5005 20.0021C18.5288 21.358 17.9701 22.117 16.9642 22.6929C15.7966 23.3613 14.0716 23.7055 12.2383 23.7508L12.3617 28.7492C14.5784 28.6945 17.2534 28.2887 19.4483 27.0321C21.8049 25.683 23.5712 23.342 23.4995 19.8979L18.5005 20.0021ZM12.3 23.75C10.7336 23.75 8.77743 23.445 7.33812 22.7492C5.95493 22.0805 5.50729 21.3366 5.54764 20.4086L0.55236 20.1914C0.392708 23.8634 2.77007 26.0945 5.16188 27.2508C7.49757 28.38 10.2664 28.75 12.3 28.75V23.75ZM5.54815 20.3961C5.55002 20.3475 5.5462 20.2679 5.74906 20.1313C5.99546 19.9653 6.42376 19.8301 6.9118 19.8583C7.38753 19.8859 7.72856 20.0548 7.92384 20.2508C8.0781 20.4056 8.33092 20.7603 8.30149 21.6138L13.2985 21.7862C13.3691 19.7397 12.7219 17.9819 11.4652 16.7211C10.2496 15.5014 8.66872 14.9516 7.2007 14.8667C5.74499 14.7824 4.20767 15.141 2.95563 15.9844C1.66005 16.8571 0.624979 18.3025 0.551847 20.2039L5.54815 20.3961ZM8.302 21.6001C8.22067 23.6332 9.41611 26.1 12.05 26.1V21.1C12.598 21.1 12.985 21.3805 13.1672 21.625C13.3437 21.8619 13.2906 21.9861 13.298 21.7999L8.302 21.6001ZM12.05 26.1C14.3828 26.1 15.8557 24.0727 15.9476 21.9586L10.9524 21.7414C10.9487 21.8248 10.9357 21.6865 11.1109 21.4904C11.2758 21.3058 11.5958 21.1 12.05 21.1V26.1ZM15.9482 21.9439C16.0407 19.4836 15.0936 17.6938 13.5999 16.4279C12.3266 15.3489 10.6355 14.6701 9.52729 14.1743C8.23685 13.5969 7.36344 13.1346 6.76003 12.5109C6.2632 11.9974 5.81784 11.2341 5.79982 9.72024L0.800177 9.77976C0.832156 12.4659 1.7118 14.4839 3.16653 15.9875C4.51468 17.381 6.2194 18.1719 7.48521 18.7382C8.93324 19.3861 9.7765 19.7417 10.3673 20.2424C10.7376 20.5562 10.9843 20.8914 10.9518 21.7561L15.9482 21.9439ZM5.79983 9.72127C5.78819 8.70811 6.31755 7.83566 7.56523 7.08884C8.85735 6.31542 10.6218 5.9 12.15 5.9V0.899999C9.87817 0.899999 7.19265 1.48458 4.99727 2.79866C2.75745 4.13934 0.761811 6.44189 0.800165 9.77873L5.79983 9.72127ZM12.15 5.9C13.6796 5.9 15.3747 6.11644 16.5673 6.66137C17.1391 6.92266 17.4684 7.20217 17.6463 7.44618C17.7955 7.65089 17.9277 7.94634 17.9027 8.48385L22.8973 8.71615C22.9723 7.10365 22.542 5.67411 21.6866 4.50069C20.8598 3.36657 19.7422 2.61484 18.6452 2.11363C16.5003 1.13356 13.9704 0.899999 12.15 0.899999V5.9ZM17.9018 8.50392C17.8987 8.58607 17.8909 8.66409 17.7013 8.79906C17.4598 8.9709 17.0273 9.12754 16.5061 9.138C15.9775 9.14861 15.626 9.00578 15.4831 8.90146C15.453 8.87943 15.437 8.86297 15.4298 8.85469C15.4231 8.84701 15.4211 8.84314 15.4203 8.84147C15.4196 8.84008 15.4148 8.83072 15.4098 8.80762C15.4047 8.78394 15.3975 8.73661 15.3993 8.65951L10.4007 8.54049C10.3555 10.4406 11.2116 11.9733 12.5341 12.9392C13.7647 13.838 15.2662 14.1639 16.6064 14.137C17.9539 14.11 19.4058 13.7229 20.6003 12.8728C21.8466 11.9859 22.8263 10.5639 22.8982 8.69608L17.9018 8.50392ZM15.3969 8.72484C15.4056 8.55124 15.427 8.38937 15.4635 8.00985C15.4929 7.70458 15.5312 7.25602 15.5098 6.79635C15.4903 6.37671 15.4129 5.63593 14.9792 4.92357C14.4484 4.0514 13.562 3.50888 12.537 3.41126L12.063 8.38874C11.8667 8.37005 11.5958 8.30389 11.3152 8.13046C11.0321 7.95558 10.8343 7.7303 10.7083 7.52331C10.4934 7.17032 10.5097 6.91079 10.5152 7.02865C10.5188 7.10648 10.5134 7.25167 10.4865 7.53078C10.4668 7.73562 10.4194 8.14876 10.4031 8.47515L15.3969 8.72484ZM12.5488 3.41241C11.7511 3.33264 10.9368 3.51338 10.2399 4.0055C9.59384 4.46176 9.22512 5.0603 9.01333 5.53171C8.61445 6.41953 8.52984 7.40942 8.50236 8.04141L13.4976 8.25859C13.5073 8.03597 13.5252 7.85472 13.5486 7.71594C13.5738 7.56708 13.5941 7.53653 13.5742 7.58079C13.5561 7.62095 13.4405 7.86637 13.1241 8.08981C12.7569 8.34911 12.3489 8.41736 12.0512 8.38759L12.5488 3.41241ZM8.50165 8.05915C8.46225 9.14261 8.67576 10.1505 9.15669 11.055C9.628 11.9414 10.2858 12.5967 10.9445 13.0935C12.1285 13.9866 13.7679 14.65 14.782 15.1291C15.9818 15.6961 16.8499 16.2095 17.4571 16.892C17.9927 17.4942 18.4632 18.3863 18.5007 20.0078L23.4993 19.8922C23.4368 17.1887 22.5823 15.1308 21.1929 13.5689C19.8751 12.0874 18.2182 11.2227 16.918 10.6084C15.4321 9.90626 14.5965 9.58532 13.9555 9.10176C13.7017 8.91036 13.6095 8.77927 13.5714 8.70768C13.543 8.65418 13.4877 8.53239 13.4983 8.24085L8.50165 8.05915ZM29.6164 26.5V29H29.6455L29.6745 28.9993L29.6164 26.5ZM23.0664 18.7L25.5643 18.8041L25.5648 18.7908L23.0664 18.7ZM22.5664 15.05V12.55H22.4929L22.4196 12.5543L22.5664 15.05ZM21.7164 15.1L21.5696 12.6043L20.6697 12.6573L20.0106 13.2724L21.7164 15.1ZM21.7164 12.6L20.1159 14.5206L20.9966 15.2544L22.1274 15.066L21.7164 12.6ZM30.7664 6.5L28.315 6.00971L28.2727 6.22076L28.2672 6.43592L30.7664 6.5ZM30.7164 12.6H28.2164V15.1H30.7164V12.6ZM34.6664 12.6V15.1H35.8462L36.5962 14.1893L34.6664 12.6ZM34.6664 15.1L36.587 13.4995L35.8373 12.6H34.6664V15.1ZM30.6664 15.1V12.6H28.3091L28.1707 14.9532L30.6664 15.1ZM34.1164 20.5L35.297 18.2963L33.3165 17.2353L32.0508 19.0917L34.1164 20.5ZM35.1164 22.3L32.7802 21.41L32.7772 21.418L35.1164 22.3ZM29.6164 24C26.6407 24 26.0793 23.144 25.8924 22.7879C25.7214 22.4621 25.5943 21.9814 25.5429 21.26C25.4909 20.529 25.5251 19.7435 25.5642 18.8041L20.5686 18.5959C20.5327 19.4565 20.4794 20.546 20.5555 21.615C20.6323 22.6936 20.849 23.9379 21.4654 25.1121C22.8535 27.756 25.6421 29 29.6164 29V24ZM25.5648 18.7908C25.5884 18.1398 25.6236 17.6038 25.6526 17.1185C25.6789 16.6779 25.7083 16.1722 25.689 15.734C25.6736 15.3833 25.6222 14.501 25.028 13.72C24.2704 12.724 23.1982 12.55 22.5664 12.55V17.55C22.4868 17.55 22.2511 17.5424 21.9508 17.4266C21.6136 17.2965 21.2916 17.0667 21.0486 16.7472C20.8275 16.4567 20.7464 16.19 20.7174 16.0712C20.6892 15.9552 20.6914 15.8989 20.6938 15.9535C20.6996 16.0841 20.6914 16.319 20.6615 16.8205C20.6342 17.2774 20.5944 17.8852 20.5681 18.6092L25.5648 18.7908ZM22.4196 12.5543L21.5696 12.6043L21.8632 17.5957L22.7132 17.5457L22.4196 12.5543ZM20.0106 13.2724C20.1691 13.1244 20.5033 12.8624 21.0211 12.743C21.287 12.6817 21.5759 12.6647 21.8721 12.7067C22.1665 12.7483 22.4253 12.842 22.6411 12.9572C23.0545 13.1778 23.29 13.4642 23.3972 13.6148C23.5112 13.7749 23.5682 13.9055 23.5903 13.96C23.633 14.0653 23.6301 14.0987 23.6178 14.0221C23.6081 13.9616 23.5993 13.8736 23.597 13.7731C23.5946 13.6718 23.5996 13.5915 23.6052 13.5448C23.6133 13.4774 23.6138 13.5467 23.5549 13.695C23.5241 13.7725 23.4514 13.9376 23.305 14.1293C23.1585 14.3211 22.8781 14.617 22.4201 14.8152C21.9228 15.0304 21.3954 15.0517 20.9346 14.9327C20.5185 14.8253 20.2454 14.6284 20.1159 14.5206L23.3169 10.6794C22.8379 10.2803 21.7386 9.66205 20.4344 10.2264C19.4118 10.6689 19.0232 11.5591 18.9076 11.8503C18.6212 12.5719 18.5863 13.374 18.5983 13.8894C18.6108 14.4244 18.6874 15.1746 18.9566 15.8385C19.0537 16.0781 19.3966 16.8932 20.2872 17.3684C20.8288 17.6574 21.4838 17.7675 22.1448 17.6151C22.7467 17.4763 23.1699 17.1631 23.4222 16.9276L20.0106 13.2724ZM22.1274 15.066C23.2671 14.876 24.317 14.2851 25.1257 13.7223C25.9811 13.127 26.8023 12.3955 27.5101 11.6665C28.2176 10.9377 28.8659 10.1556 29.3567 9.42923C29.6006 9.06827 29.8346 8.67835 30.0171 8.28407C30.1697 7.9544 30.4164 7.3536 30.4164 6.65H25.4164C25.4164 6.2464 25.5443 6.04404 25.4798 6.18351C25.4451 6.25837 25.3635 6.40829 25.2136 6.63015C24.9169 7.06936 24.4652 7.62478 23.9227 8.18355C23.3806 8.74197 22.8017 9.24799 22.2696 9.61833C22.0054 9.80222 21.7776 9.93521 21.5931 10.0234C21.5025 10.0668 21.4312 10.0951 21.3789 10.1128C21.3262 10.1307 21.3024 10.1345 21.3054 10.134L22.1274 15.066ZM30.4164 6.65C30.4164 6.95511 30.3254 7.28839 30.1307 7.58208C29.9489 7.85631 29.7372 8.00636 29.608 8.07842C29.3877 8.20141 29.2873 8.17317 29.374 8.17464C29.4611 8.17611 29.3937 8.20166 29.1981 8.09382C29.0943 8.03656 28.8281 7.87049 28.5994 7.51526C28.3344 7.10367 28.2048 6.56041 28.315 6.00971L33.2179 6.99029C33.5821 5.16889 32.2833 4.08534 31.6128 3.71555C30.9017 3.32334 30.1093 3.18638 29.4588 3.17536C28.808 3.16433 27.9577 3.27359 27.1716 3.7122C26.2901 4.2041 25.4164 5.19274 25.4164 6.65H30.4164ZM28.2672 6.43592C28.2163 8.4219 28.2164 9.30149 28.2164 12.6H33.2164C33.2164 9.2985 33.2165 8.4781 33.2656 6.56408L28.2672 6.43592ZM30.7164 15.1H34.6664V10.1H30.7164V15.1ZM36.5962 14.1893C36.5387 14.2591 36.4471 14.3599 36.3165 14.4671C36.1863 14.574 35.9937 14.7067 35.7355 14.8122C35.4695 14.9209 35.1432 14.9963 34.776 14.986C34.4065 14.9756 34.0713 14.8805 33.7893 14.7409C33.5161 14.6057 33.3154 14.4407 33.1781 14.3032C33.0412 14.1663 32.9474 14.0372 32.8871 13.9432C32.7719 13.7639 32.7201 13.6211 32.704 13.5742C32.6841 13.5166 32.6786 13.4866 32.6804 13.4955C32.6817 13.5013 32.686 13.5239 32.691 13.5644C32.7014 13.6475 32.7093 13.7608 32.7102 13.8873C32.7112 14.0141 32.7049 14.124 32.6962 14.2009C32.692 14.2383 32.6886 14.2559 32.6887 14.2555C32.6888 14.2547 32.6907 14.2457 32.6949 14.2296C32.699 14.2138 32.7068 14.1862 32.7197 14.1491C32.7397 14.0916 32.8004 13.9271 32.9362 13.7269C33.0076 13.6217 33.1171 13.4809 33.2757 13.3362C33.4363 13.1899 33.6619 13.0265 33.9589 12.9043C34.2644 12.7785 34.6049 12.7135 34.958 12.7278C35.3051 12.742 35.6017 12.83 35.8338 12.9357C36.0606 13.039 36.2292 13.1603 36.3424 13.2554C36.4564 13.3511 36.5367 13.4392 36.587 13.4995L32.7459 16.7005C32.9918 16.9956 34.1697 18.2245 35.862 17.5279C36.515 17.2592 36.8909 16.8036 37.0736 16.5344C37.2663 16.2504 37.3779 15.9768 37.4428 15.79C37.6749 15.1218 37.7138 14.3576 37.7101 13.8502C37.7063 13.3328 37.6537 12.5899 37.4304 11.943C37.3685 11.7637 37.2657 11.5083 37.0941 11.2412C36.9363 10.9954 36.6024 10.5543 36.007 10.2597C35.3055 9.91251 34.5201 9.9076 33.8445 10.1836C33.273 10.4171 32.9165 10.7922 32.7366 11.0107L36.5962 14.1893ZM34.6664 12.6H30.6664V17.6H34.6664V12.6ZM28.1707 14.9532C28.1151 15.8992 28.1664 19.1367 28.1664 21.05H33.1664C33.1664 18.8633 33.1177 16.0008 33.1621 15.2468L28.1707 14.9532ZM28.1664 21.05C28.1664 21.9058 28.2641 23.0958 29.0194 24.0571C29.9337 25.2208 31.2065 25.35 31.8664 25.35V20.35C31.8235 20.35 31.9659 20.3423 32.1867 20.4195C32.4521 20.5121 32.7356 20.6938 32.951 20.9679C33.1423 21.2115 33.1861 21.4093 33.1872 21.4141C33.1877 21.4162 33.1664 21.3147 33.1664 21.05H28.1664ZM31.8664 25.35C33.5472 25.35 34.5817 24.145 34.9758 23.6558C35.4162 23.1091 35.9408 22.262 36.182 21.9083L32.0508 19.0917C31.8528 19.3821 31.6283 19.732 31.4823 19.9528C31.3109 20.2122 31.186 20.3902 31.082 20.5192C30.9711 20.6568 30.9572 20.6455 31.0386 20.5886C31.1397 20.5179 31.431 20.35 31.8664 20.35V25.35ZM34.1164 20.5C32.9359 22.7037 32.9351 22.7033 32.9344 22.7029C32.9341 22.7028 32.9334 22.7024 32.9329 22.7021C32.9319 22.7016 32.931 22.7011 32.93 22.7006C32.9282 22.6996 32.9264 22.6986 32.9246 22.6976C32.9212 22.6958 32.918 22.694 32.915 22.6924C32.9092 22.6892 32.9043 22.6865 32.9004 22.6843C32.8927 22.6799 32.8884 22.6773 32.8871 22.6765C32.8849 22.6752 32.8919 22.6794 32.9039 22.6877C32.9366 22.7104 32.9516 22.7257 32.9459 22.7197C32.9405 22.7139 32.917 22.6885 32.8858 22.6409C32.8546 22.5933 32.8063 22.5095 32.7649 22.3892C32.6687 22.1095 32.6517 21.7473 32.7802 21.41L37.4526 23.19C38.1626 21.3264 37.1386 19.879 36.5869 19.2928C36.2812 18.968 35.9712 18.7303 35.7539 18.5795C35.6409 18.5011 35.5416 18.4384 35.4645 18.392C35.4256 18.3687 35.3917 18.349 35.3636 18.3331C35.3496 18.3251 35.3369 18.3181 35.3258 18.312C35.3202 18.3089 35.315 18.3061 35.3102 18.3035C35.3078 18.3021 35.3055 18.3009 35.3033 18.2997C35.3022 18.2991 35.3011 18.2985 35.3001 18.298C35.2995 18.2977 35.2988 18.2973 35.2985 18.2971C35.2977 18.2967 35.297 18.2963 34.1164 20.5ZM32.7772 21.418C32.3588 22.5277 31.8148 23.1278 31.324 23.4657C30.8224 23.8109 30.2258 23.9852 29.5583 24.0007L29.6745 28.9993C31.157 28.9648 32.7354 28.5641 34.1589 27.5843C35.593 26.5972 36.7241 25.1223 37.4557 23.182L32.7772 21.418ZM43.2266 18.6L41.002 19.7408L41.7303 21.161L43.3252 21.0981L43.2266 18.6ZM45.5266 10.9L45.2415 13.3837L45.2554 13.3853L45.5266 10.9ZM45.3766 20.7L43.4244 19.1383L41.7838 21.189L43.9128 22.7267L45.3766 20.7ZM53.7266 18L54.6698 15.6848L52.8041 14.9247L51.6647 16.5862L53.7266 18ZM54.5766 19.7L56.8631 20.7109L56.8662 20.7039L56.8692 20.6968L54.5766 19.7ZM45.3266 26.35L45.2923 23.8502L45.288 23.8503L45.3266 26.35ZM46.1766 8.45L46.069 10.9477L46.0691 10.9477L46.1766 8.45ZM43.3252 21.0981C45.1331 21.0267 46.5288 20.0983 47.4687 19.0088C48.3903 17.9405 48.9707 16.624 49.2652 15.3838C49.5547 14.1645 49.6268 12.7668 49.2627 11.5119C48.8896 10.2263 47.8585 8.63956 45.7977 8.41474L45.2554 13.3853C45.0037 13.3578 44.7534 13.2307 44.5832 13.0562C44.4441 12.9135 44.4365 12.8215 44.4608 12.9053C44.5169 13.0988 44.5547 13.5793 44.4004 14.2287C44.2512 14.8573 43.9784 15.4001 43.6828 15.7428C43.4055 16.0642 43.22 16.0983 43.128 16.1019L43.3252 21.0981ZM45.8116 8.4163C44.0472 8.21383 42.6565 9.01908 41.7777 10.132C40.9868 11.1338 40.5954 12.3726 40.3994 13.4332C40.1959 14.5347 40.1578 15.6925 40.2437 16.7311C40.3253 17.7184 40.5381 18.8362 41.002 19.7408L45.4511 17.4592C45.4522 17.4613 45.4388 17.4351 45.4173 17.3728C45.3963 17.3119 45.3718 17.229 45.3469 17.1229C45.2964 16.9084 45.2529 16.6357 45.2266 16.3189C45.1735 15.6762 45.201 14.9653 45.3162 14.3418C45.439 13.6774 45.6195 13.335 45.702 13.2304C45.7267 13.1991 45.6864 13.2613 45.5595 13.3199C45.4177 13.3854 45.2911 13.3894 45.2415 13.3837L45.8116 8.4163ZM43.9128 22.7267C45.1489 23.6194 46.4999 24.15 48.0266 24.15V19.15C47.7532 19.15 47.4043 19.0806 46.8403 18.6733L43.9128 22.7267ZM48.0266 24.15C49.8197 24.15 51.44 23.3933 52.6766 22.5353C53.9363 21.6614 55.024 20.5285 55.7884 19.4138L51.6647 16.5862C51.2291 17.2215 50.5668 17.9136 49.8265 18.4272C49.0632 18.9567 48.4334 19.15 48.0266 19.15V24.15ZM53.7266 18C52.7833 20.3152 52.7824 20.3148 52.7814 20.3144C52.7811 20.3143 52.7801 20.3139 52.7795 20.3137C52.7782 20.3131 52.777 20.3126 52.7757 20.3121C52.7733 20.3111 52.7709 20.3101 52.7685 20.3091C52.7638 20.3072 52.7594 20.3053 52.7551 20.3035C52.7467 20.3 52.7391 20.2967 52.7324 20.2937C52.7189 20.2877 52.7083 20.2828 52.7 20.2788C52.6841 20.2712 52.674 20.2657 52.6665 20.2613C52.6632 20.2594 52.6179 20.2345 52.5515 20.1665C52.485 20.0985 52.3225 19.9097 52.2373 19.5868C52.1405 19.2195 52.2007 18.8946 52.2839 18.7032L56.8692 20.6968C57.2024 19.9304 57.2814 19.1055 57.072 18.3117C56.8744 17.5622 56.4681 17.0202 56.1266 16.671C55.7852 16.3218 55.4336 16.0875 55.1929 15.9465C55.0667 15.8726 54.9549 15.8151 54.8672 15.7729C54.823 15.7517 54.7839 15.7338 54.7508 15.7192C54.7343 15.7119 54.7192 15.7054 54.7057 15.6997C54.6989 15.6968 54.6925 15.6941 54.6866 15.6917C54.6836 15.6904 54.6807 15.6892 54.6779 15.6881C54.6765 15.6875 54.6751 15.6869 54.6738 15.6864C54.6731 15.6861 54.6721 15.6857 54.6718 15.6856C54.6708 15.6852 54.6698 15.6848 53.7266 18ZM52.2901 18.6891C50.579 22.5594 47.9497 23.8138 45.2923 23.8502L45.3608 28.8498C50.0034 28.7862 54.3741 26.3406 56.8631 20.7109L52.2901 18.6891ZM45.288 23.8503C40.2785 23.9277 37.7729 20.4815 37.7326 17.2006C37.7123 15.5465 38.3199 13.9731 39.5494 12.8365C40.7651 11.7127 42.8196 10.8078 46.069 10.9477L46.2841 5.95231C41.9835 5.76719 38.538 6.96234 36.1553 9.16503C33.7863 11.355 32.6971 14.3347 32.733 17.2619C32.8052 23.1435 37.4246 28.9723 45.3652 28.8497L45.288 23.8503ZM46.0691 10.9477C49.8073 11.1085 51.3766 13.4776 51.3766 14.75H56.3766C56.3766 10.0224 51.8458 6.19153 46.284 5.95231L46.0691 10.9477ZM51.3766 14.75C51.3766 14.9066 51.3498 14.9105 51.3828 14.8421C51.4175 14.7702 51.4574 14.7438 51.4287 14.7663C51.2769 14.8852 50.9299 15.0484 50.002 15.34C48.4519 15.8272 45.4911 16.5549 43.4244 19.1383L47.3287 22.2617C48.262 21.0951 49.5513 20.7228 51.5011 20.11C52.3232 19.8516 53.5388 19.4648 54.512 18.7024C55.6899 17.7798 56.3766 16.4426 56.3766 14.75H51.3766ZM66.459 12.35L66.5336 9.85111L66.5164 9.8506L66.4993 9.85033L66.459 12.35ZM66.459 20.4L66.5359 17.9012L66.519 17.9007L66.5021 17.9004L66.459 20.4ZM65.509 33.3L67.0581 31.3378L67.0161 31.3046L66.9727 31.2733L65.509 33.3ZM55.509 33.3L57.0798 35.2449L57.0879 35.2384L57.0958 35.2318L55.509 33.3ZM55.159 10.6L53.6265 12.5752L53.6344 12.5813L53.6423 12.5874L55.159 10.6ZM64.609 10.6L62.2032 9.92011L66.8935 11.6153L64.609 10.6ZM64.159 21.45L66.5843 20.8437L61.6591 21.4231L64.159 21.45ZM66.4993 9.85033C64.3999 9.81646 63.1171 11.2344 62.5045 12.4673C61.9029 13.6781 61.6935 15.1061 61.7092 16.3686C61.7249 17.6374 61.9717 19.0411 62.5608 20.2266C63.1293 21.3707 64.3416 22.8639 66.4159 22.8996L66.5021 17.9004C67.1264 17.9111 67.2261 18.3793 67.0384 18.0015C66.8713 17.6652 66.718 17.0501 66.7088 16.3064C66.6995 15.5564 66.8401 14.9782 66.9822 14.6921C67.0471 14.5615 67.0606 14.5961 66.9557 14.6752C66.8182 14.7789 66.6149 14.8528 66.4187 14.8497L66.4993 9.85033ZM66.3821 22.8988C68.4382 22.9621 69.7894 21.6622 70.4844 20.4164C71.1594 19.2066 71.4259 17.7613 71.4339 16.4655C71.442 15.1669 71.1925 13.7147 70.5331 12.4836C69.8559 11.2194 68.5536 9.91141 66.5336 9.85111L66.3844 14.8489C66.0394 14.8386 65.9808 14.5743 66.1255 14.8445C66.288 15.1478 66.4385 15.7206 66.434 16.4345C66.4296 17.1512 66.2711 17.7059 66.118 17.9804C65.9848 18.2191 66.1048 17.8879 66.5359 17.9012L66.3821 22.8988ZM63.9599 35.2622C63.9478 35.2527 63.8829 35.2006 63.7992 35.0997C63.7163 34.9997 63.5846 34.8151 63.4863 34.5426C63.2388 33.857 63.3758 33.1242 63.7412 32.6009C63.8877 32.3909 64.038 32.2608 64.1272 32.1927C64.2185 32.1231 64.2855 32.0885 64.3046 32.0789C64.3358 32.0633 64.2934 32.0876 64.1368 32.1295C63.4537 32.3124 62.135 32.4402 60.6175 32.4313C59.1087 32.4224 57.7533 32.2805 57.0138 32.0852C56.933 32.0639 56.8716 32.0449 56.8276 32.0298C56.7825 32.0142 56.7654 32.0061 56.7703 32.0083C56.773 32.0096 56.8187 32.0308 56.8895 32.0794C56.9573 32.126 57.0868 32.2242 57.2257 32.3901C57.5565 32.7851 57.8556 33.4907 57.6426 34.3042C57.4769 34.9365 57.0964 35.2314 57.0798 35.2449L53.9381 31.3551C53.5965 31.6311 53.032 32.1733 52.8057 33.0373C52.5319 34.0827 52.8936 35.0047 53.3924 35.6004C53.8138 36.1035 54.3256 36.3847 54.6509 36.5369C55.012 36.7059 55.3901 36.8278 55.737 36.9195C57.074 37.2726 58.9155 37.4213 60.588 37.4312C62.2517 37.441 64.0987 37.3157 65.4296 36.9595C65.7765 36.8667 66.1656 36.7383 66.5387 36.552C66.8739 36.3846 67.4243 36.0596 67.8407 35.4634C68.3507 34.733 68.5248 33.7747 68.1893 32.8451C67.9166 32.0896 67.3959 31.6045 67.0581 31.3378L63.9599 35.2622ZM57.0958 35.2318C57.7377 34.7046 58.0063 33.9971 58.1029 33.7347C58.242 33.3565 58.3443 32.9435 58.4239 32.5509C58.5852 31.7556 58.7084 30.7647 58.8026 29.6901C58.9923 27.5244 59.0842 24.7788 59.0715 22.0508C59.0587 19.3261 58.9413 16.5477 58.6972 14.324C58.5761 13.2208 58.4163 12.1825 58.2004 11.3305C58.0931 10.907 57.9551 10.461 57.7685 10.0494C57.608 9.6952 57.2875 9.07957 56.6757 8.61262L53.6423 12.5874C53.2679 12.3017 53.1689 12.013 53.2143 12.1131C53.2336 12.1558 53.2859 12.2915 53.3535 12.5586C53.4876 13.0878 53.6169 13.8667 53.727 14.8697C53.9454 16.8586 54.0592 19.4489 54.0715 22.0742C54.0838 24.6962 53.9944 27.2818 53.8216 29.2537C53.7346 30.2478 53.6312 31.0273 53.5237 31.557C53.469 31.8268 53.4263 31.965 53.4104 32.0082C53.3519 32.1674 53.4553 31.7516 53.9221 31.3682L57.0958 35.2318ZM56.6915 8.62479C56.4579 8.44354 57.6397 9.24376 57.1104 10.7091C56.9096 11.2649 56.5527 11.5389 56.4457 11.614C56.3238 11.6995 56.2648 11.71 56.3422 11.6825C56.731 11.544 57.7161 11.3967 59.0458 11.3937C60.3236 11.3909 61.564 11.5217 62.365 11.7316C62.801 11.8459 62.8748 11.925 62.7766 11.8518C62.7123 11.8039 62.4855 11.6222 62.3145 11.2574C62.117 10.8362 62.081 10.3525 62.2032 9.92011L67.0148 11.2799C67.2182 10.56 67.1568 9.8072 66.8417 9.13506C66.5531 8.51942 66.1165 8.10517 65.7646 7.84288C65.0912 7.34099 64.2787 7.06427 63.6327 6.89496C62.2696 6.5377 60.5631 6.39035 59.0347 6.39376C57.5582 6.39704 55.8776 6.54034 54.6649 6.97221C54.3418 7.08723 53.9489 7.25785 53.5741 7.52083C53.2141 7.77335 52.6852 8.24225 52.4078 9.01026C51.7251 10.9 53.1351 12.194 53.6265 12.5752L56.6915 8.62479ZM66.8935 11.6153C66.8876 11.6286 66.9629 11.4614 67.3599 11.2694C67.745 11.0831 68.2913 10.95 68.909 10.95V5.95C67.6266 5.95 66.3229 6.21687 65.1831 6.76812C64.055 7.31365 62.9303 8.22141 62.3245 9.58465L66.8935 11.6153ZM68.909 10.95C70.7472 10.95 71.8971 11.6826 72.6602 12.7324C73.491 13.8755 73.9601 15.555 73.9342 17.4153C73.9084 19.2723 73.3913 21.0327 72.5795 22.2521C71.7921 23.4348 70.866 23.95 69.859 23.95V28.95C72.952 28.95 75.2821 27.2152 76.7416 25.0229C78.1766 22.8673 78.897 20.1277 78.9337 17.4847C78.9704 14.845 78.3269 12.0245 76.7047 9.79263C75.0146 7.46743 72.3707 5.95 68.909 5.95V10.95ZM69.859 23.95C68.6934 23.95 68.1162 23.6284 67.7517 23.2765C67.3187 22.8584 66.9029 22.1179 66.5843 20.8437L61.7336 22.0563C62.1651 23.7821 62.8993 25.5416 64.2787 26.8735C65.7268 28.2716 67.6246 28.95 69.859 28.95V23.95ZM61.6591 21.4231C61.6332 23.8318 61.7489 26.7247 61.9903 29.1251C62.1102 30.3179 62.2673 31.4533 62.4707 32.3697C62.5711 32.8222 62.6984 33.2942 62.8679 33.7198C62.9882 34.0219 63.3097 34.7955 64.0453 35.3267L66.9727 31.2733C67.4833 31.642 67.5923 32.0688 67.5132 31.87C67.4832 31.7949 67.4242 31.6122 67.352 31.2866C67.21 30.6467 67.0765 29.7321 66.9652 28.6249C66.744 26.4253 66.6347 23.7182 66.6588 21.4769L61.6591 21.4231ZM85.0547 24.35L86.6255 26.2949L86.6356 26.2867L86.6456 26.2784L85.0547 24.35ZM84.9547 7.25L83.4437 9.24173L83.4538 9.24934L83.4639 9.25686L84.9547 7.25ZM94.2047 5L92.4369 3.23223L91.7482 3.92099L91.7069 4.89416L94.2047 5ZM94.8047 24.35L92.8698 25.9331L93.0421 26.1436L93.2556 26.3122L94.8047 24.35ZM86.6456 26.2784C87.4758 25.5936 87.8676 24.6006 88.0733 23.9696C88.3145 23.2297 88.4834 22.378 88.6048 21.5115C88.849 19.7674 88.94 17.6681 88.9107 15.6328C88.8813 13.5959 88.7301 11.5272 88.4579 9.84012C88.323 9.00354 88.1471 8.1889 87.9129 7.49302C87.7958 7.14489 87.6457 6.77089 87.4477 6.41709C87.2634 6.08783 86.9517 5.61917 86.4455 5.24314L83.4639 9.25686C83.3089 9.14171 83.2118 9.03216 83.1619 8.96984C83.1109 8.90595 83.0871 8.86358 83.0847 8.85921C83.083 8.8563 83.118 8.92122 83.174 9.08764C83.2861 9.42087 83.4091 9.93787 83.5218 10.6364C83.7449 12.0197 83.8843 13.8353 83.9112 15.7047C83.9381 17.5757 83.851 19.4045 83.6531 20.8182C83.5533 21.5306 83.4351 22.0652 83.3195 22.42C83.1683 22.8838 83.1336 22.6939 83.4637 22.4216L86.6456 26.2784ZM86.4657 5.25827C86.5191 5.2988 86.798 5.52191 86.9652 5.98885C87.157 6.52471 87.0844 7.04982 86.9189 7.42218C86.6918 7.93322 86.3822 7.98758 86.7932 7.75703C87.416 7.40774 88.6361 6.99586 90.0577 6.69627C91.4874 6.39497 92.7097 6.29354 93.2945 6.34955C93.4251 6.36206 93.4168 6.37381 93.3236 6.34152C93.2747 6.32458 92.8369 6.17673 92.4707 5.67347C91.9928 5.0167 91.9858 4.25722 92.1635 3.73485C92.2963 3.34406 92.494 3.17513 92.4369 3.23223L95.9725 6.76777C96.2653 6.47487 96.6744 6.00008 96.8973 5.3445C97.1649 4.55733 97.1267 3.57412 96.5137 2.7316C96.0123 2.0426 95.3354 1.747 94.961 1.61722C94.5422 1.47208 94.1217 1.4059 93.7712 1.37233C92.4309 1.24396 90.622 1.46753 89.0267 1.80373C87.4233 2.14164 85.6246 2.67976 84.3474 3.39609C83.8085 3.69835 82.8285 4.31443 82.3498 5.39149C82.0586 6.04685 81.9649 6.85604 82.2577 7.67399C82.5258 8.42301 83.0278 8.92619 83.4437 9.24173L86.4657 5.25827ZM94.2047 5C91.7069 4.89416 91.7069 4.89433 91.7069 4.89456C91.7069 4.89473 91.7069 4.89503 91.7069 4.89536C91.7069 4.89603 91.7068 4.89697 91.7068 4.89817C91.7067 4.90058 91.7065 4.90406 91.7063 4.90858C91.7059 4.91763 91.7054 4.93089 91.7047 4.94821C91.7033 4.98286 91.7012 5.03379 91.6986 5.09999C91.6933 5.23238 91.6858 5.42585 91.6768 5.67213C91.6587 6.16462 91.6345 6.86875 91.6097 7.71842C91.5601 9.41602 91.5079 11.7025 91.4985 14.0461C91.489 16.3799 91.5216 18.8128 91.6464 20.7881C91.7084 21.7699 91.7966 22.6955 91.9264 23.4622C91.991 23.8439 92.0745 24.2382 92.1887 24.6048C92.2859 24.9164 92.4768 25.4528 92.8698 25.9331L96.7396 22.7669C96.9638 23.041 97.0024 23.2457 96.9622 23.1168C96.9391 23.0428 96.9003 22.8877 96.8562 22.6274C96.7687 22.1103 96.6939 21.3824 96.6364 20.4728C96.5222 18.6653 96.4891 16.3638 96.4984 14.0664C96.5077 11.7788 96.5587 9.5371 96.6075 7.86439C96.6319 7.0289 96.6557 6.33734 96.6734 5.85541C96.6823 5.61448 96.6896 5.42606 96.6946 5.29837C96.6972 5.23453 96.6991 5.18587 96.7005 5.15344C96.7011 5.13722 96.7016 5.12506 96.702 5.11709C96.7021 5.1131 96.7023 5.11015 96.7023 5.10827C96.7024 5.10733 96.7024 5.10666 96.7024 5.10625C96.7024 5.10605 96.7024 5.10595 96.7024 5.10584C96.7024 5.10581 96.7024 5.10584 94.2047 5ZM93.2556 26.3122C93.245 26.3039 93.1832 26.2544 93.1025 26.1579C93.0225 26.0623 92.8946 25.8854 92.7962 25.6236C92.5497 24.9679 92.6547 24.2404 93.0159 23.6974C93.2863 23.2909 93.5943 23.1436 93.5979 23.1418C93.6383 23.121 93.6058 23.1427 93.4573 23.1834C92.8049 23.3622 91.524 23.4902 90.0385 23.4813C88.5621 23.4724 87.2437 23.3306 86.5342 23.1389C86.3698 23.0945 86.3079 23.0654 86.3163 23.0694C86.3234 23.0728 86.3738 23.0972 86.4487 23.1503C86.5209 23.2015 86.6535 23.3059 86.793 23.4794C87.1279 23.8963 87.3943 24.6032 87.1759 25.3898C87.0066 25.9991 86.6408 26.2825 86.6255 26.2949L83.4838 22.4051C83.1436 22.68 82.5918 23.2106 82.3582 24.0518C82.0754 25.0702 82.399 25.9935 82.8951 26.611C83.3118 27.1296 83.8254 27.4197 84.1502 27.5758C84.5103 27.749 84.8868 27.8731 85.2299 27.9658C86.55 28.3225 88.3661 28.4713 90.0084 28.4812C91.6416 28.491 93.4639 28.3659 94.7787 28.0056C95.122 27.9116 95.5102 27.7806 95.8829 27.5891C96.2188 27.4166 96.7706 27.0805 97.1788 26.4668C97.6779 25.7167 97.8147 24.7638 97.4764 23.8641C97.2 23.129 96.6905 22.6536 96.3538 22.3878L93.2556 26.3122Z" fill="#280000" mask="url(#path-5-outside-3_3214_3044)"/>
</svg>
