<svg width="1482" height="844" viewBox="0 0 1482 844" fill="none" xmlns="http://www.w3.org/2000/svg">
<g clip-path="url(#clip0_3214_3274)">
<path opacity="0.25" d="M-60.2168 37.972C540.045 238.712 879.828 37.972 1482.17 37.972V981C866.284 778.477 542.121 981 -60.2168 981C-60.2168 981 -660.479 -162.768 -60.2168 37.972Z" fill="#160000"/>
<path opacity="0.25" d="M-60.2168 29.6386C540.045 230.379 879.828 29.6386 1482.17 29.6386V972.667C866.284 770.143 542.121 972.667 -60.2168 972.667C-60.2168 972.667 -660.479 -171.101 -60.2168 29.6386Z" fill="#160000"/>
<path opacity="0.25" d="M-60.2168 37.972C540.045 238.712 879.828 37.972 1482.17 37.972V981C866.284 778.477 542.121 981 -60.2168 981C-60.2168 981 -660.479 -162.768 -60.2168 37.972Z" fill="#160000"/>
<path opacity="0.25" d="M-60.2168 29.6386C540.045 230.379 879.828 29.6386 1482.17 29.6386V972.667C866.284 770.143 542.121 972.667 -60.2168 972.667C-60.2168 972.667 -660.479 -171.101 -60.2168 29.6386Z" fill="#160000"/>
<path opacity="0.25" d="M-60.2168 10.4719C540.045 211.212 879.828 10.4719 1482.17 10.4719V953.5C866.284 750.976 542.121 953.5 -60.2168 953.5C-60.2168 953.5 -660.479 -190.268 -60.2168 10.4719Z" fill="#160000"/>
<path opacity="0.25" d="M-60.2168 2.13859C540.045 202.879 879.828 2.13859 1482.17 2.13859V945.167C866.284 742.643 542.121 945.167 -60.2168 945.167C-60.2168 945.167 -660.479 -198.601 -60.2168 2.13859Z" fill="#160000"/>
<path opacity="0.25" d="M-60.2168 10.4719C540.045 211.212 879.828 10.4719 1482.17 10.4719V953.5C866.284 750.976 542.121 953.5 -60.2168 953.5C-60.2168 953.5 -660.479 -190.268 -60.2168 10.4719Z" fill="#160000"/>
<path opacity="0.25" d="M-60.2168 2.13859C540.045 202.879 879.828 2.13859 1482.17 2.13859V945.167C866.284 742.643 542.121 945.167 -60.2168 945.167C-60.2168 945.167 -660.479 -198.601 -60.2168 2.13859Z" fill="#160000"/>
<path d="M-60.2168 19.6386C540.045 220.379 879.828 19.6386 1482.17 19.6386V962.667C866.284 760.143 542.121 962.667 -60.2168 962.667C-60.2168 962.667 -660.479 -181.101 -60.2168 19.6386Z" fill="#160000"/>
<mask id="mask0_3214_3274" style="mask-type:alpha" maskUnits="userSpaceOnUse" x="-315" y="-4" width="1810" height="967">
<path d="M-48.2168 19.6386C552.045 220.379 891.828 19.6386 1494.17 19.6386V962.667C878.284 760.143 554.121 962.667 -48.2168 962.667C-48.2168 962.667 -648.479 -181.101 -48.2168 19.6386Z" fill="#160000"/>
</mask>
<g mask="url(#mask0_3214_3274)">
<g style="mix-blend-mode:plus-lighter" opacity="0.25">
<path d="M337.137 437.564L423.859 489.57L424.341 668.886L424.342 669.121L424.544 669.242L574.772 758.896V863.046L337.137 721.697V437.564ZM424.062 309.425L423.858 309.546V309.782V413.676L337.084 361.616V257.459L424.276 205.149L511.5 257.223L424.062 309.425ZM638.428 797.047L725.405 849.228L725.618 849.356L725.833 849.228L813.24 797.045V900.704L725.619 953.014L638.428 900.705V797.047ZM1114.53 361.616L1027.33 413.678V309.782V309.546L1027.12 309.425L940.111 257.223L1026.91 205.149L1114.53 257.459V361.616ZM1027.12 669.242L1027.33 669.121L1027.33 668.885L1027.81 489.57L1114.58 437.51V721.642L876.949 862.992V758.842L1027.12 669.242ZM876.425 294.924L963.67 347.01L964.152 451.881L813.497 541.535L813.293 541.656V541.893V721.642L726.102 773.464L638.91 721.642V541.893V541.656L638.707 541.535L488.051 451.88V347.235L575.617 294.925L725.35 385.007L725.565 385.135L725.779 385.007L876.425 294.924ZM725.833 129.493L725.619 129.365L725.405 129.493L575.188 219.575L488.391 167.502L725.619 25.652L963.275 167.503L876.478 219.575L725.833 129.493ZM725.62 309.297L638.821 257.223L725.62 205.149L812.844 257.223L725.62 309.297ZM574.772 683.006L487.997 631.431V527.285L574.772 579.345V683.006ZM963.67 527.285V631.431L876.896 683.006V579.345L963.67 527.285Z" fill="url(#paint0_linear_3214_3274)"/>
<path d="M337.137 437.564L423.859 489.57L424.341 668.886L424.342 669.121L424.544 669.242L574.772 758.896V863.046L337.137 721.697V437.564ZM424.062 309.425L423.858 309.546V309.782V413.676L337.084 361.616V257.459L424.276 205.149L511.5 257.223L424.062 309.425ZM638.428 797.047L725.405 849.228L725.618 849.356L725.833 849.228L813.24 797.045V900.704L725.619 953.014L638.428 900.705V797.047ZM1114.53 361.616L1027.33 413.678V309.782V309.546L1027.12 309.425L940.111 257.223L1026.91 205.149L1114.53 257.459V361.616ZM1027.12 669.242L1027.33 669.121L1027.33 668.885L1027.81 489.57L1114.58 437.51V721.642L876.949 862.992V758.842L1027.12 669.242ZM876.425 294.924L963.67 347.01L964.152 451.881L813.497 541.535L813.293 541.656V541.893V721.642L726.102 773.464L638.91 721.642V541.893V541.656L638.707 541.535L488.051 451.88V347.235L575.617 294.925L725.35 385.007L725.565 385.135L725.779 385.007L876.425 294.924ZM725.833 129.493L725.619 129.365L725.405 129.493L575.188 219.575L488.391 167.502L725.619 25.652L963.275 167.503L876.478 219.575L725.833 129.493ZM725.62 309.297L638.821 257.223L725.62 205.149L812.844 257.223L725.62 309.297ZM574.772 683.006L487.997 631.431V527.285L574.772 579.345V683.006ZM963.67 527.285V631.431L876.896 683.006V579.345L963.67 527.285Z" stroke="black" stroke-width="0.833333"/>
</g>
<mask id="mask1_3214_3274" style="mask-type:alpha" maskUnits="userSpaceOnUse" x="-61" y="-353" width="1574" height="1665">
<path d="M-57.1885 -241.755C-77.3486 -308.407 -10.2763 -370.247 55.5544 -347.548C164.238 -310.074 307.545 -266.934 421.933 -254.423C553.115 -240.076 630.158 -232.143 763.599 -231.998C895.572 -231.854 968.84 -239.436 1101.52 -253.59C1220.63 -266.298 1369.61 -311.571 1482.84 -351.113C1504.87 -358.808 1523.1 -324.452 1503.98 -311.068C1498.78 -307.426 1495.68 -301.474 1495.68 -295.123V48.9103C1495.68 94.4738 1458.75 131.41 1413.18 131.41H116.92C80.5566 131.41 48.4812 107.602 37.9534 72.7953L-57.1885 -241.755Z" fill="#160000"/>
<path d="M-57.1885 1201.24C-77.3486 1267.89 -10.2763 1329.73 55.5544 1307.04C164.238 1269.56 307.545 1226.42 421.933 1213.91C553.115 1199.56 630.158 1191.63 763.599 1191.48C895.572 1191.34 968.84 1198.92 1101.52 1213.08C1220.63 1225.78 1369.61 1271.06 1482.84 1310.6C1504.87 1318.29 1523.1 1283.94 1503.98 1270.55C1498.78 1266.91 1495.68 1260.96 1495.68 1254.61V910.577C1495.68 865.014 1458.75 828.077 1413.18 828.077H116.92C80.5566 828.077 48.4812 851.886 37.9534 886.692L-57.1885 1201.24Z" fill="#160000"/>
<path d="M40.6826 -20.2564H1480.68V1091.41H40.6826V-20.2564Z" fill="#160000"/>
</mask>
<g mask="url(#mask1_3214_3274)">
<path d="M462.191 525.932C477.333 530.557 498.758 527.415 512.649 523.998C548.691 515.148 569.974 510.34 585.166 480.157H416.416C418.808 484.107 421.199 488.065 423.583 492.015C432.933 506.915 443.624 520.265 462.183 525.932H462.191Z" fill="#0E0000"/>
<path d="M269.999 638.44C269.649 636.807 268.882 635.99 267.516 635.407C268.341 636.415 269.174 637.432 269.999 638.44Z" fill="#0E0000"/>
<path d="M105.107 628.507C115.232 641.107 126.999 652.632 135.715 666.557C148.424 686.857 152.674 718.873 177.907 726.665C216.424 738.565 246.132 696.298 282.69 712.323C296.932 718.565 300.199 733.798 307.782 746.79C313.665 756.865 319.89 768.073 328.74 775.19C339.065 783.498 350.274 790.307 363.757 795.598C379.957 801.957 396.699 805.407 410.357 813.798C435.49 829.232 449.774 855.14 464.957 880.523C473.624 895.023 481.84 909.723 494.74 919.957C509.182 931.407 531.049 940.348 556.232 932.64C564.065 930.24 572.082 926.748 578.565 922.715C591.157 914.882 602.724 904.082 607.515 888.523C614.357 866.298 606.482 838.848 601.724 819.59C598.824 807.857 598.574 795.557 596.482 782.64C595.307 775.373 596.565 766.29 597.582 760.032C598.04 753.507 598.499 746.982 598.957 740.457C598.774 738.34 598.59 736.232 598.407 734.115C598.315 730.257 598.224 726.39 598.132 722.532C596.849 715.09 595.557 707.64 594.274 700.198C590.049 685.773 585.815 671.34 581.59 656.907C579.649 650.557 576.199 641.44 577.732 632.64C578.974 625.515 581.565 620.257 585.174 615.548C601.565 594.148 648.624 591.24 672.032 574.74C680.007 569.123 688.124 561.682 693.815 553.782C699.582 545.782 703.399 535.69 712.84 531.448C724.94 526.015 741.082 530.098 756.132 527.04C774.574 523.282 781.307 511.723 786.19 494.223C787.199 489.54 788.215 484.848 789.224 480.157H693.265C678.715 480.157 659.79 478.265 650.524 483.74C628.607 496.707 624.424 525.823 599.79 536.407C591.44 539.99 582.024 541.082 572.765 543.848C551.074 550.34 524.824 558.032 513.482 575.007C509.624 580.782 507.949 588.582 506.315 596.515C499.29 630.515 513.924 662.565 521.482 686.682C527.34 705.373 529.132 725.39 532.79 747.34C536.274 768.282 536.89 804.14 523.14 812.415C511.899 819.173 498.965 808.248 493.357 802.765C473.024 782.873 459.399 754.007 431.04 742.382C423.665 739.357 415.432 738.465 407.324 736.04C392.774 731.682 377.74 725.315 369.274 714.807C362.399 706.282 356.007 697.507 350.249 687.782C341.157 672.432 335.807 654.665 320.465 645.59C298.632 632.673 258.182 644.398 231.124 638.423C192.39 629.865 152.19 599.257 144.265 560.115C141.557 546.757 143.815 529.673 145.924 517.648C147.99 505.84 148.157 493.757 148.132 480.148H82.7821C82.7321 496.515 79.7487 510.673 76.7154 524.54C75.5237 532.998 74.3237 541.457 73.1321 549.907C71.4821 559.232 71.4487 572.132 73.6821 580.79C79.2154 602.198 93.2404 613.723 105.115 628.49L105.107 628.507Z" fill="#0E0000"/>
<path d="M199.416 535.032C206.041 567.29 221.608 587.457 253.733 594.315C289.725 601.998 337.575 585.182 362.925 604.515C386.3 622.34 385.033 666.048 409.525 682.548C421.391 690.548 441.875 692.573 451.158 680.615C462.375 666.165 459.125 636.457 453.091 618.848C437.716 573.998 416.875 549.165 365.408 540.265C337.608 535.457 292.875 545.89 272.483 533.373C261.225 526.465 260.758 511.048 257.316 496.148C256.216 490.907 255.108 485.673 254.008 480.432C233.791 480.34 213.566 480.248 193.35 480.157C194.45 486.957 195.558 493.757 196.658 500.565C197.575 512.057 198.5 523.548 199.416 535.032Z" fill="#0E0000"/>
<path d="M334.799 487.882C339.59 486.44 343.207 483.657 347.207 481.815C347.574 481.357 347.94 480.898 348.307 480.44C333.232 480.348 318.157 480.257 303.082 480.165C306.649 488.032 323.657 491.232 334.79 487.882H334.799Z" fill="#0E0000"/>
<path d="M473.774 777.682C472.399 776.023 471.016 774.373 469.641 772.715C470.374 773.815 471.107 774.923 471.849 776.023C472.491 776.573 473.132 777.123 473.782 777.682H473.774Z" fill="#0E0000"/>
<path d="M295.365 638.157L295.64 637.882C294.999 637.057 294.357 636.223 293.707 635.398C293.982 636.132 294.257 636.865 294.532 637.607C294.807 637.79 295.082 637.973 295.357 638.157H295.365Z" fill="#0E0000"/>
<path d="M117.241 745.698L110.35 738.807C111.341 741.932 114.525 744.298 117.241 745.698Z" fill="#0E0000"/>
<path d="M820.374 527.59C819.99 530.932 819.299 534.132 818.315 537.173C819.849 533.707 821.39 529.515 820.374 527.59Z" fill="#0E0000"/>
<path d="M816.232 541.648C815.191 544.032 814.124 546.19 812.982 548.14C815.224 544.832 817.016 541.14 818.307 537.165C817.482 539.023 816.657 540.673 816.232 541.648Z" fill="#0E0000"/>
<path d="M566.965 504.432C563.474 506.64 559.982 508.84 556.49 511.048C567.357 508.998 583.615 490.207 586.824 480.165H585.999C583.099 488.94 573.782 499.14 566.974 504.432H566.965Z" fill="#0E0000"/>
<path d="M1055.57 557.09C1056.58 557.823 1057.6 558.557 1058.61 559.298C1057.82 558.24 1056.98 557.548 1055.57 557.09Z" fill="#0E0000"/>
<path d="M1058.61 559.298C1060.63 560.765 1062.65 562.24 1064.67 563.707C1063.3 562.015 1060.84 560.04 1058.61 559.298Z" fill="#0E0000"/>
<path d="M625.973 509.115C625.882 509.39 625.79 509.665 625.698 509.94C626.09 509.39 625.915 509.515 625.973 509.115Z" fill="#0E0000"/>
<path d="M625.15 510.49C624.966 510.948 624.783 511.407 624.6 511.865C625.216 511.207 625.15 511.132 625.15 510.49Z" fill="#0E0000"/>
<path d="M763.016 525.932C765.857 526.757 770.382 523.14 772.391 521.798C781.707 515.582 785.474 506.715 788.932 494.498C789.566 492.265 792.682 481.657 791.416 480.157C788.499 498.873 780.382 522.157 763.016 525.932Z" fill="#0E0000"/>
<path d="M641.416 488.99C643.607 487.24 649.566 483.873 649.966 481.548C647.207 483.573 644.449 485.59 641.691 487.615C635.916 492.223 628.741 501.607 626.249 509.123C632.366 503.54 634.866 494.198 641.416 488.998V488.99Z" fill="#0E0000"/>
<path d="M278.274 804.157C277.199 801.848 274.041 799.09 271.657 798.09C273.866 800.115 276.066 802.132 278.274 804.157Z" fill="#0E0000"/>
<path d="M317.424 839.173V838.898C313.933 837.148 310.441 835.407 306.949 833.657C309.033 835.923 313.974 838.54 317.424 839.173Z" fill="#0E0000"/>
<path d="M126.891 778.232V778.782H127.166C127.074 778.598 126.982 778.415 126.891 778.232Z" fill="#0E0000"/>
<path d="M280.482 806.632C283.207 812.398 297.657 828.615 303.366 831.173C299.874 827.773 296.382 824.373 292.891 820.973C289.107 816.232 285.316 810.298 280.482 806.632Z" fill="#0E0000"/>
<path d="M265.866 790.365C265.499 790.273 265.132 790.182 264.766 790.09C265.132 790.273 265.499 790.457 265.866 790.64V790.365Z" fill="#0E0000"/>
<path d="M117.241 740.732C115.066 738.198 110.707 735.94 108.141 733.84C109.307 737.248 113.791 739.665 117.241 740.732Z" fill="#0E0000"/>
<path d="M125.516 775.757C125.149 774.932 124.783 774.098 124.416 773.273C124.691 773.915 124.966 774.557 125.241 775.207V775.757H125.516Z" fill="#0E0000"/>
<path d="M106.49 730.257C107.332 733.09 113.115 735.24 116.415 735.498V735.223C112.732 734.465 109.157 732.19 106.49 730.257Z" fill="#0E0000"/>
<path d="M122.207 758.932C122.94 759.39 123.674 759.848 124.415 760.307C123.849 759.315 123.532 759.173 122.207 758.932Z" fill="#0E0000"/>
<path d="M120.549 757.557H119.999V758.107C120.182 757.923 120.366 757.74 120.549 757.557Z" fill="#0E0000"/>
<path d="M1092.52 587.148C1091.06 585.957 1089.58 584.757 1088.12 583.565C1089.01 585.04 1090.83 586.498 1092.52 587.148Z" fill="#0E0000"/>
<path d="M790.591 564.265C802.049 561.123 808.166 556.44 812.991 548.148C806.424 557.832 795.991 564.323 782.874 565.648C785.057 566.457 788.616 564.815 790.591 564.273V564.265Z" fill="#0E0000"/>
<path d="M1405.77 833.107C1405.86 832.923 1405.95 832.74 1406.04 832.557C1391.97 831.19 1377.92 830.265 1365.51 827.04C1357.05 824.098 1348.59 821.157 1340.14 818.215C1342.49 821.682 1349.79 822.873 1353.92 824.557C1367.86 830.232 1386.75 833.182 1405.77 833.107Z" fill="#0E0000"/>
<path d="M1440.51 712.057C1440.42 711.782 1440.32 711.507 1440.23 711.232V712.057H1440.51Z" fill="#0E0000"/>
<path d="M1441.61 706.815C1441.42 707.64 1441.24 708.473 1441.06 709.298C1441.24 709.023 1441.42 708.748 1441.61 708.473C1442.14 707.915 1442.07 707.682 1441.61 706.815Z" fill="#0E0000"/>
<path d="M1440.78 709.573C1440.69 709.94 1440.6 710.307 1440.51 710.673L1441.06 710.398C1440.91 709.54 1441.37 710.215 1440.78 709.573Z" fill="#0E0000"/>
<path d="M1245.56 759.757C1251.62 762.698 1257.69 765.64 1263.76 768.582C1260.9 765.382 1256.34 764.173 1252.45 761.965C1238.12 753.823 1221.25 749.615 1202.27 745.973C1188.8 743.39 1173.08 745.648 1163.67 739.357C1157.21 735.04 1151.77 726.282 1150.16 717.298C1149.42 713.165 1151.4 708.49 1151.26 706.548C1145.12 718.04 1154.54 733.007 1161.18 738.257C1172.36 747.098 1195.02 745.073 1211.37 748.732C1223.67 751.49 1235.06 755.123 1245.56 759.765V759.757Z" fill="#0E0000"/>
<path d="M1149.32 662.973H1148.22C1142.67 665.873 1136.71 666.307 1133.06 670.973C1138.46 668.598 1142.31 664.373 1149.32 663.257V662.982V662.973Z" fill="#0E0000"/>
<path d="M1298.77 867.298C1291.78 834.59 1275.52 817.473 1251.07 802.498C1241.84 796.848 1230.99 790.098 1216.33 790.365C1213.5 791.44 1210.34 790.923 1208.06 792.298C1198.32 798.148 1204.51 810.457 1209.43 816.84C1219.85 830.332 1246.92 846.34 1242.25 873.64C1238.93 893.023 1232.27 906.015 1222.95 919.14C1215.42 929.732 1207.6 938.257 1204.75 953.882C1200.37 977.857 1219.68 1010.61 1243.62 1006.27C1282.01 999.323 1289.61 955.732 1297.67 918.04C1300.72 903.773 1302.06 882.707 1298.77 867.307L1298.77 867.298Z" fill="#0E0000"/>
<path d="M1443.54 704.615C1443.45 704.34 1443.36 704.065 1443.27 703.79V704.615H1443.54Z" fill="#0E0000"/>
<path d="M1107.42 597.623V597.348C1102.54 594.04 1097.67 590.732 1092.8 587.423C1095.56 591.048 1102.6 596.407 1107.42 597.623Z" fill="#0E0000"/>
<path d="M1516.06 699.373C1513.85 698.548 1511.65 697.715 1509.44 696.89C1497.82 692.415 1487.43 686.89 1471.39 687.24V687.515C1475.62 687.973 1479.85 688.432 1484.07 688.89C1494.65 691.898 1505.41 695.315 1515.23 699.365H1516.06V699.373Z" fill="#0E0000"/>
<path d="M1443.82 703.232C1446.57 700.348 1448.67 697.182 1451.53 694.407L1450.98 694.132C1448.52 696.982 1444.74 698.873 1443.82 703.232Z" fill="#0E0000"/>
<path d="M1557.41 704.89V666.84C1553.71 666.682 1551.09 664.982 1548.04 664.082C1539.49 661.557 1530.99 658.765 1522.95 656.64C1500.59 650.715 1478.38 645.99 1454.29 641.198C1440.27 638.407 1412.65 640.357 1404.93 647.265C1400.15 651.548 1394.57 655.407 1391.15 661.048C1386.18 669.248 1379.61 705.507 1382.32 720.057C1384.2 730.14 1390.53 754.032 1386.46 763.348C1382.34 772.765 1374.5 771.648 1363.57 771.065V771.34C1365.69 771.798 1367.8 772.257 1369.91 772.715C1367.74 774.59 1360.92 771.273 1359.17 770.232C1350.67 765.223 1344.27 757.223 1336.56 751.207C1304.68 726.365 1264.26 710.332 1217.44 700.473C1198.67 696.523 1156.67 694.465 1151.81 710.948C1149.59 718.515 1154.36 725.932 1157.06 729.973C1169.27 748.315 1203.77 742.607 1226.81 749.823C1271.56 763.84 1301.25 791.54 1337.94 813.515C1349.56 820.482 1362.04 824.923 1377.92 828.132C1384.72 828.773 1391.52 829.415 1398.33 830.065C1405.01 831.182 1415.07 831.34 1421.77 830.065C1434.61 827.623 1445.56 822.982 1449.9 812.14C1452.87 804.707 1450.39 792.69 1448.52 786.498C1444.19 772.165 1441.07 758.932 1438.05 742.657C1434.59 724.073 1439.83 701.59 1449.08 694.407C1473.94 675.098 1510.72 695.223 1532.08 704.607C1536.93 706.74 1555.56 712.715 1556.07 717.565C1558.52 716.198 1557.45 708.548 1557.45 704.882L1557.41 704.89Z" fill="#0E0000"/>
<path d="M1452.08 693.582C1451.9 693.673 1451.72 693.765 1451.53 693.857C1452.13 694.015 1451.89 693.84 1452.08 693.582Z" fill="#0E0000"/>
<path d="M1258.52 709.848V709.573C1258.24 709.482 1257.97 709.39 1257.69 709.298C1258.19 709.857 1257.69 709.507 1258.52 709.848Z" fill="#0E0000"/>
<path d="M1353.37 764.448C1355.27 766.998 1359.45 770.082 1363.02 770.79C1359.81 768.673 1356.59 766.565 1353.37 764.448Z" fill="#0E0000"/>
<path d="M1318.63 737.148C1322.86 739.907 1327.09 742.665 1331.32 745.423C1338.27 750.348 1343.87 756.957 1350.62 761.965C1347.46 755.265 1326.48 739.307 1318.63 737.148Z" fill="#0E0000"/>
<path d="M1254.38 708.473V708.198C1253.1 707.832 1251.81 707.465 1250.52 707.098C1251.28 708.032 1252.81 708.39 1254.38 708.473Z" fill="#0E0000"/>
<path d="M1239.22 704.065C1241.61 704.798 1244 705.532 1246.38 706.273C1245.27 704.957 1241.44 704.098 1239.22 704.065Z" fill="#0E0000"/>
<path d="M1236.46 703.232C1237.37 703.507 1238.3 703.782 1239.22 704.057V703.782C1238.3 703.598 1237.37 703.415 1236.46 703.232Z" fill="#0E0000"/>
<path d="M1158.7 568.948C1176.18 575.323 1203.92 577.698 1217.98 566.74C1234.35 553.998 1224.25 508.823 1217.43 491.465C1215.77 487.698 1214.12 483.932 1212.47 480.157H1171.93C1175.2 486.598 1178.42 493.723 1179.93 501.665C1181.86 511.773 1171.49 519.69 1163.39 515.448C1161.76 514.598 1160.22 513.957 1158.15 512.965C1159.73 515.157 1163.92 515.823 1166.42 517.098H1166.97C1162.22 518.782 1154.7 512.49 1151.81 510.482C1145.27 505.948 1138.02 500.848 1133.06 494.765C1128.74 490.082 1124.42 485.39 1120.1 480.698C1118.08 478.94 1109.62 480.148 1106.32 480.148H1067.44C1069.72 490.348 1079.37 502.632 1085.09 510.207C1101.17 531.498 1131.77 559.123 1158.72 568.94L1158.7 568.948Z" fill="#0E0000"/>
<path d="M1363.85 496.982C1382.82 505.148 1413.57 491.357 1437.2 495.607C1464.1 500.44 1483.07 508.498 1504.48 517.94C1519.54 524.582 1535.3 534.432 1557.42 532.557V514.357C1533.04 514.223 1513.78 499.132 1498.14 489.265C1493.46 486.232 1488.77 483.198 1484.07 480.165H1349.79C1353.67 486.723 1356.57 493.848 1363.86 496.982H1363.85Z" fill="#0E0000"/>
<path d="M1425.34 640.09C1424.61 639.998 1423.87 639.907 1423.13 639.815C1423.4 640.382 1423.27 640.298 1425.34 640.09Z" fill="#0E0000"/>
<path d="M1240.32 876.673C1244.2 871.557 1238.51 854.865 1237.01 851.582C1229.97 836.182 1217.27 828.807 1208.06 816.015C1206.11 813.307 1202.46 809.348 1201.27 804.532C1202.33 809.498 1205.12 814.465 1207.78 817.94C1220.76 834.873 1243.37 844.59 1240.32 876.673Z" fill="#0E0000"/>
<path d="M1200.93 802.332C1200.98 803.082 1201.1 803.815 1201.27 804.532C1201.12 803.798 1201 803.065 1200.93 802.332Z" fill="#0E0000"/>
<path d="M1201.17 798.915C1201.77 796.173 1203.86 794.265 1205.57 792.573C1213.57 784.698 1229.88 789.59 1240.95 794.14C1233.82 790.59 1226.2 787.407 1214.67 787.615C1212.01 788.44 1209.34 789.273 1206.67 790.098C1201.81 793.09 1200.45 797.615 1200.92 802.34C1200.85 801.24 1200.9 800.098 1201.16 798.923L1201.17 798.915Z" fill="#0E0000"/>
<path d="M1254.11 800.29C1253.52 800.073 1252.95 799.848 1252.38 799.615C1252.96 799.932 1253.53 800.248 1254.11 800.565V800.29Z" fill="#0E0000"/>
<path d="M1248.59 797.54C1246.62 796.615 1243.98 795.39 1240.95 794.14C1244.72 796.015 1248.37 797.99 1252.38 799.623C1251.12 798.932 1249.86 798.232 1248.59 797.54Z" fill="#0E0000"/>
<path d="M1288.3 721.707V721.432C1278.62 718.498 1270.11 711.848 1259.35 710.123C1269 713.982 1278.65 717.848 1288.3 721.707Z" fill="#0E0000"/>
<path d="M1159.25 822.357C1154.75 814.082 1150.24 805.815 1145.74 797.54C1142.16 789.265 1138.57 780.998 1134.99 772.723C1136.13 781.723 1153.89 817.64 1159.26 822.357H1159.25Z" fill="#0E0000"/>
<path d="M1200.34 659.94C1191.7 659.573 1183.06 659.207 1174.42 658.84C1173.05 658.932 1171.67 659.023 1170.29 659.115C1174.52 659.298 1178.75 659.482 1182.97 659.665C1192.17 660.582 1201.36 661.507 1210.55 662.423C1233.5 667.065 1257.32 676.123 1283.62 675.657C1273.32 673.998 1263.02 672.348 1252.73 670.69C1235.41 666.807 1218.82 663.273 1200.34 659.94Z" fill="#0E0000"/>
<path d="M1290.51 836.415C1294.27 848.773 1300.74 860.532 1300.98 877.223C1304.37 868.607 1293.87 839.84 1290.51 836.415Z" fill="#0E0000"/>
<path d="M1133.61 770.515L1134.16 770.79C1131.58 763.073 1129.01 755.348 1126.44 747.632C1127.34 756.148 1132.23 762.673 1133.61 770.515Z" fill="#0E0000"/>
<path d="M305.016 832.557C304.524 831.665 304.341 831.573 303.357 831.182C303.907 831.64 304.457 832.098 305.016 832.557Z" fill="#0E0000"/>
<path d="M119.449 753.14C118.624 752.865 117.791 752.59 116.966 752.315C117.791 752.682 118.624 753.048 119.449 753.415V753.14Z" fill="#0E0000"/>
<path d="M1557.41 1279.52V1177.22C1552.08 1173.92 1546.76 1170.61 1541.42 1167.3C1529.44 1160.27 1517.78 1154.29 1507.23 1146.07C1494.86 1136.42 1485.75 1122.33 1476.62 1109.39C1459.09 1084.52 1443.6 1059.14 1431.12 1028.87C1423.01 1009.18 1410.56 966.157 1426.16 944.773C1439.55 926.415 1470.42 925.19 1502.26 925.198C1512.27 925.015 1522.3 924.832 1532.31 924.648C1538.56 923.565 1544.41 922.623 1549.69 920.515C1552.26 919.232 1554.84 917.94 1557.41 916.657V816.015C1551.92 804.307 1546.06 792.032 1540.86 779.89C1534.44 764.89 1530.61 748.015 1509.16 747.907C1503.21 750.207 1499.01 749.673 1495.65 754.248C1490.42 761.348 1495.39 776.19 1497.86 783.198C1503.52 799.307 1523.31 837.798 1510.26 855.44C1488.11 885.398 1394.56 863.757 1361.91 887.148C1343.18 900.573 1334.47 948.132 1334.61 981.998C1334.68 998.432 1339.47 1019.96 1333.51 1033.84C1322.76 1058.87 1290.65 1052.98 1280.02 1077.68C1277.91 1082.59 1277.21 1088.53 1276.16 1094.5C1271.04 1123.64 1282.56 1143.65 1294.09 1158.19C1299.66 1165.23 1306.66 1170.93 1311.46 1178.87C1321.64 1195.72 1310.88 1210.63 1294.92 1214.17C1278.61 1217.78 1268.44 1205.25 1262.39 1197.07C1243.56 1171.67 1234.96 1139.02 1224.61 1104.7C1221.09 1093.01 1218.42 1080.47 1212.76 1070.78C1198.87 1047.05 1181.15 1027.56 1167.26 1003.78C1158.35 988.532 1155.08 969.007 1148.23 951.665C1134.72 917.457 1108.76 880.807 1056.96 885.49C1050.44 886.315 1043.91 887.148 1037.39 887.973C1025.51 890.973 1014.47 894.748 1005.13 900.382C988.04 910.69 971.207 923.473 963.498 943.123C958.507 955.832 960.707 974.732 964.873 986.69C970.107 1001.68 977.773 1014.64 983.898 1028.6C990.698 1044.87 997.498 1061.14 1004.31 1077.41C1013.91 1099.25 1025.83 1119.82 1045.39 1131.72C1052.39 1135.99 1064.79 1140.77 1076 1137.24C1094.88 1131.29 1103.86 1113.84 1095.02 1091.19C1082.32 1058.62 1060.81 1035.16 1047.87 1002.68C1039.8 982.398 1035.86 953.99 1060.28 948.082C1067.46 946.34 1075.21 948.79 1079.31 951.94C1087.41 958.173 1089.95 971.373 1093.37 982.273C1097.91 996.748 1103.37 1010.72 1110.75 1022.53C1124.97 1045.33 1143.22 1063.35 1154.31 1089.53C1163.86 1112.08 1167.91 1138.07 1176.92 1161.22C1188.7 1191.46 1202.36 1219.77 1218.28 1245.87C1228.83 1263.17 1239.36 1281.89 1255.78 1293.3C1268.41 1302.07 1293.25 1302.16 1310.1 1297.16C1352.4 1284.62 1367.79 1249.44 1376.27 1203.13C1379.23 1187 1375.64 1169.49 1372.96 1155.98C1371.21 1147.17 1373.24 1138.81 1378.48 1135.3C1394.14 1124.83 1420.32 1147.77 1428.66 1154.32C1438.96 1163.24 1449.26 1172.16 1459.55 1181.07C1478.78 1195.57 1499.24 1208.83 1518.01 1223.82C1523.22 1227.97 1528.19 1233.52 1532.6 1239.27C1531.86 1238.12 1531.21 1236.93 1530.69 1235.67C1547.91 1248.52 1556.87 1285.03 1556.33 1316.47L1556.88 1316.74C1558.42 1314.55 1557.43 1285.02 1557.43 1279.52L1557.41 1279.52Z" fill="#0E0000"/>
<path d="M41.9658 784.023C43.0075 787.423 44.0492 790.823 45.0825 794.215C44.1575 790.732 43.1992 787.34 42.2408 784.023H41.9658Z" fill="#0E0000"/>
<path d="M45.0913 794.223C45.8413 797.032 46.5663 799.907 47.2497 802.857C46.9247 801.065 46.5497 799.29 46.0997 797.54C45.758 796.432 45.4247 795.332 45.083 794.223H45.0913Z" fill="#0E0000"/>
<path d="M35.074 766.932C41.2906 780.957 47.049 794.09 50.5156 811.873C54.4823 832.198 47.7823 855.998 51.8906 875.565C53.2073 881.848 54.5073 888.348 56.8573 893.765C58.1406 896.34 59.4323 898.915 60.7156 901.482H60.4406C58.7823 898.815 57.1323 896.148 55.474 893.482C51.6406 884.565 50.8656 873.64 49.1323 862.598C46.7656 847.523 52.7906 832.998 50.2323 817.657C49.3656 812.482 48.349 807.573 47.2406 802.84C48.1906 808.057 48.7656 813.465 49.6823 819.032C52.3406 835.182 45.774 850.382 48.5823 866.457C50.4573 877.223 51.424 886.89 55.199 895.407C62.249 911.315 87.924 928.973 114.482 923.807C124.316 921.89 132.266 918.907 140.674 916.64C134.432 921.632 121.582 924.165 111.724 924.915C117.332 927.248 133.491 921.032 137.366 919.398C159.582 910.057 177.807 889.615 167.974 855.982C164.374 843.673 159.924 832.073 153.632 822.34C144.524 808.248 133.066 794.873 125.782 779.048C117.624 761.307 111.832 740.832 102.066 724.173C69.7739 669.098 34.8906 631.073 -48.4844 627.39V702.39C-2.32604 706.523 19.6406 732.115 35.0656 766.915L35.074 766.932Z" fill="#0E0000"/>
<path d="M12.182 637.057C12.5486 637.332 12.9153 637.607 13.282 637.882C12.182 635.49 11.0736 633.098 9.97363 630.715C10.707 632.832 11.4403 634.94 12.182 637.057Z" fill="#0E0000"/>
<path d="M22.3901 539.448C25.7234 533.715 27.0068 526.898 28.7318 519.598C30.7151 511.232 34.0484 489.898 30.1068 480.723C28.4901 479.323 14.0568 480.173 10.5318 480.173H-45.4432C-45.9766 482.982 -47.7099 484.49 -48.4766 486.515V573.373C-14.0516 578.157 10.3818 560.132 22.3901 539.457V539.448Z" fill="#0E0000"/>
<path d="M-38.551 1090.09C-35.651 1084.13 -29.226 1079.14 -23.6594 1074.92C-13.9094 1067.55 -3.07603 1061.83 10.2573 1057.83C45.3323 1047.31 93.049 1058.33 110.074 1080.72C124.899 1100.21 130.949 1128.47 137.924 1155.99C143.199 1176.82 144.466 1198.52 154.741 1213.9C161.891 1224.59 175.049 1238.32 194.174 1232.37C198.566 1231.01 201.507 1228.01 205.207 1226.31C206.074 1225.04 209.432 1221.36 209.891 1222.45C219.557 1215.02 226.132 1185.9 222.574 1167.57C221.291 1159.3 219.999 1151.03 218.716 1142.76C214.057 1121.12 205.157 1084.12 214.857 1061.69C218.291 1053.76 224.432 1048.24 231.124 1043.49C237.641 1038.87 246.799 1033.86 257.316 1033.57C255.691 1032.98 253.149 1033.79 251.524 1034.12C236.691 1037.1 230.074 1043.3 220.366 1050.66C230.174 1035.5 258.132 1027.87 284.057 1033.57C300.616 1037.21 316.407 1041.22 333.966 1044.32C362.574 1049.36 391.691 1037.37 403.174 1023.08C415.566 1007.67 425.091 991.223 430.749 968.765C442.399 922.515 413.691 871.673 387.182 855.99C367.266 844.207 330.516 849.515 310.524 837.79C303.916 833.915 297.007 829.007 292.324 823.173C283.174 811.782 274.557 797.39 257.307 794.223C249.432 792.773 241.932 796.215 237.732 798.907C216.099 812.79 216.349 845.123 227.257 870.323C234.574 887.24 249.007 897.232 267.791 902.857C288.249 908.99 314.724 907.19 330.932 917.473C340.982 923.848 348.349 939.957 341.966 955.248C337.307 966.398 323.624 972.873 307.224 968.757C297.574 965.998 287.924 963.24 278.274 960.482C270.832 959.657 263.382 958.823 255.941 957.998C250.882 957.815 245.832 957.632 240.774 957.448C228.407 959.498 217.816 960.69 207.132 964.065C188.574 969.923 171.882 978.248 152.532 983.09C116.832 992.032 68.3323 986.607 36.174 976.748C18.2406 971.257 3.57396 962.807 -3.25938 946.415C-14.951 918.373 -4.46771 876.357 0.32396 847.698C1.76563 839.107 1.40729 826.865 0.0489589 818.748C-4.58437 791.048 -7.75104 769.882 -40.2094 770.215C-42.9677 770.765 -45.726 771.315 -48.4844 771.873C-47.1844 774.89 -48.4844 792.898 -48.4844 799.448V1105.52H-48.2094C-46.5094 1099.11 -41.0927 1095.27 -38.5594 1090.07L-38.551 1090.09ZM236.916 958.29H239.674C237.924 958.565 236.182 958.84 234.432 959.115C235.257 958.84 236.091 958.565 236.916 958.29ZM137.924 1147.72H137.649C133.666 1126.32 125.316 1105.44 117.241 1088.16C124.982 1094.7 137.266 1133.22 137.924 1147.72Z" fill="#0E0000"/>
<path d="M96.5654 710.957C96.1071 710.223 95.6488 709.49 95.1904 708.748C95.4654 709.39 95.7404 710.032 96.0154 710.682L96.5654 710.957Z" fill="#0E0000"/>
<path d="M117.516 749.832C118.066 750.198 118.616 750.565 119.174 750.932C118.574 750.207 118.632 750.14 117.516 749.832Z" fill="#0E0000"/>
<path d="M117.516 757.007C118.066 757.19 118.616 757.373 119.174 757.557C118.258 756.273 117.333 754.982 116.416 753.698C116.783 754.798 117.149 755.907 117.516 757.007Z" fill="#0E0000"/>
<path d="M91.8738 704.065L92.6988 704.615C91.7821 703.24 90.8571 701.857 89.9404 700.482C90.5821 701.673 91.2238 702.873 91.8738 704.065Z" fill="#0E0000"/>
<path d="M93.533 705.99C93.258 705.532 92.983 705.073 92.708 704.615C92.7997 704.982 92.8913 705.348 92.983 705.715L93.533 705.99Z" fill="#0E0000"/>
<path d="M53.2744 659.94C59.6161 665.915 65.9577 671.89 72.2994 677.865C70.2077 673.482 57.8161 661.94 53.2744 659.94Z" fill="#0E0000"/>
<path d="M50.791 658.015C46.2743 652.565 36.5076 646.932 29.5576 644.232C36.6326 648.823 43.716 653.423 50.791 658.015Z" fill="#0E0000"/>
<path d="M84.982 693.307C83.4904 689.69 79.6404 685.165 76.707 682.832C79.4654 686.323 82.2237 689.815 84.982 693.307Z" fill="#0E0000"/>
<path d="M89.3908 700.198L89.9408 700.473C89.5742 699.832 89.2075 699.19 88.8408 698.54C89.0242 699.09 89.2075 699.64 89.3908 700.198Z" fill="#0E0000"/>
<path d="M1004.02 589.082V588.807C1001.26 588.715 998.499 588.623 995.741 588.532C992.599 589.99 989.415 590.173 986.915 592.115C977.224 599.657 982.207 622.307 983.607 634.582H983.882C982.04 613.215 976.065 585.865 1004.01 589.082H1004.02Z" fill="#0E0000"/>
<path d="M1124.78 741.29C1124.51 740.19 1124.23 739.082 1123.96 737.982C1124.14 739.082 1124.32 740.19 1124.51 741.29H1124.78Z" fill="#0E0000"/>
<path d="M882.691 562.332C881.866 572.29 877.366 580.115 874.975 588.248C877.166 586.107 884.45 566.815 882.691 562.332Z" fill="#0E0000"/>
<path d="M1123.96 737.698C1123.13 733.565 1122.3 729.423 1121.47 725.29C1122.21 729.423 1122.94 733.565 1123.68 737.698H1123.96Z" fill="#0E0000"/>
<path d="M1120.65 701.032C1121.84 695.332 1123.04 689.632 1124.23 683.94C1122.25 688.598 1120.57 694.69 1120.65 701.032Z" fill="#0E0000"/>
<path d="M466.324 1270.15C483.624 1241.1 445.824 1210 451.707 1176.67C452.682 1171.16 453.516 1165.44 454.574 1160.68H454.466C454.557 1160.31 454.649 1159.95 454.741 1159.58L454.816 1159.66C455.057 1158.66 455.299 1157.71 455.566 1156.82C459.366 1144.18 471.441 1131.96 478.724 1122.08C503.257 1088.85 533.566 1066.29 578.266 1052.87C585.949 1050.56 594.082 1049.68 602.532 1048.18C624.566 1044.28 649.232 1052.52 662.916 1059.49C714.124 1085.55 727.149 1147.01 759.149 1192.12C773.757 1212.72 803.524 1240.42 842.149 1228.25C848.091 1226.37 853.899 1223.42 858.416 1219.97C877.149 1205.67 879.532 1176.63 891.782 1155.72C896.274 1148.06 902.116 1142.02 907.499 1135.32C909.891 1133.11 912.282 1130.91 914.666 1128.7C929.049 1110.84 939.616 1100.93 944.724 1072.72C945.882 1066.33 945.732 1056.93 944.449 1050.66C943.007 1043.62 940.991 1037.29 938.382 1031.37C933.349 1019.94 924.799 1011.27 917.699 1001.87C902.132 981.232 885.174 962.173 872.199 938.998C866.382 928.615 855.949 907.548 864.482 893.498C878.499 870.407 916.782 899.457 942.241 894.048C964.857 889.248 971.391 872.29 986.357 860.407C994.441 853.99 1002.78 848.723 1014.48 845.79C1019.91 845.148 1025.33 844.507 1030.75 843.857C1040.45 842.232 1055.12 845.182 1063.01 846.89C1094.64 853.74 1114.2 863.357 1136.91 878.323C1148.07 885.69 1168.99 897.84 1185.16 886.04C1205.31 871.348 1177.3 847.573 1170.54 839.165C1147.62 810.657 1131.82 776.015 1121.46 734.657C1117.29 718.04 1116.59 691.873 1124.22 678.682C1133.52 662.59 1152.31 657.173 1177.71 657.173C1183.59 657.357 1189.47 657.54 1195.36 657.723C1222.3 662.398 1244.74 666.515 1271.18 671.507C1282.71 673.682 1299.67 675.815 1311.99 672.882C1326.42 669.448 1335.92 661.098 1340.94 648.34C1352.74 618.398 1339.84 588.14 1371.55 574.99C1394.17 565.615 1424.51 573.215 1442.42 581.057C1455.73 586.89 1467.34 594.165 1480.47 599.807C1490.88 604.282 1502.49 605.832 1514.93 608.632C1528.03 611.573 1541.22 614.198 1557.4 613.873V576.098C1544.04 576.065 1533.87 573.382 1523.48 570.307C1508.58 565.89 1494.72 562.432 1481.02 557.073C1468.87 552.323 1456.7 546.523 1443.52 543.007C1431.72 539.865 1410.58 537.332 1395.54 539.698C1386.77 541.082 1373.33 542.265 1364.38 540.798C1327.58 534.782 1308.98 517.373 1303.44 480.14H1265.12V480.415C1271.18 501.09 1277.25 521.782 1283.32 542.457C1284.78 551.373 1286.26 560.29 1287.72 569.207C1292.77 599.207 1276.94 623.182 1255.47 627.115C1246.57 628.74 1237.69 624.915 1230.92 623.257C1218.28 620.148 1205.4 618.715 1192.05 616.365C1177.34 615.265 1162.63 614.157 1147.93 613.057C1132.85 610.307 1120.22 606.94 1109.06 600.373C1091.42 589.99 1078.46 575.215 1062.46 563.423C1048.89 553.423 1034.17 544.448 1017.23 537.782C996.649 529.682 956.607 516.365 935.066 532.54C927.057 538.548 924.699 548.223 922.657 560.39C922.474 564.34 922.291 568.298 922.107 572.248C921.924 577.857 921.741 583.465 921.557 589.065C921.649 598.44 921.741 607.815 921.832 617.19C920.791 623.148 920.316 628.707 918.249 633.457C912.099 647.623 898.141 656.198 890.124 669.023C882.582 681.098 877.582 697.023 865.307 704.315C854.816 710.548 835.182 708.757 825.599 702.94C812.199 694.798 805.582 675.665 801.332 658.548C799.282 650.282 799.516 639.273 803.266 633.182C814.457 614.965 849.582 611.14 866.682 597.615C883.207 584.548 880.332 552.832 885.432 528.132C887.182 520.323 888.924 512.507 890.674 504.69C892.449 497.148 893.316 489.307 893.157 480.148H831.941C830.657 487.498 829.366 494.857 828.082 502.207C823.182 525.948 820.432 550.465 802.716 561.215C794.791 566.023 784.091 566.39 773.491 568.657C757.532 572.082 743.557 576.257 735.166 587.132C726.199 598.757 725.132 624.515 729.649 642.557C738.191 676.64 750.216 708.715 767.974 733.823C771.941 739.423 775.924 745.848 781.207 750.09C786.924 754.673 792.541 759.923 799.682 763.048C823.974 773.673 880.516 783.09 906.391 767.74C927.641 755.132 938.199 730.065 953.266 711.215C962.774 699.323 984.899 693.223 989.941 678.398C991.566 673.623 990.874 665.84 989.666 661.023C985.774 645.498 968.582 596.907 990.216 587.957C1006.77 581.107 1022.42 594.573 1030.75 601.19C1042.47 610.507 1049.87 623.857 1053.36 641.448C1056.81 658.807 1053.21 680.115 1056.39 697.423C1059.8 715.973 1063.31 743.498 1056.39 761.115C1053.87 767.515 1050.19 773.282 1044.53 776.557C1028.7 785.723 1004.92 772.923 986.907 778.49C959.524 786.948 955.191 817.64 927.624 825.915C907.857 831.848 884.774 823.473 868.066 819.848C836.124 812.915 802.157 819.298 788.099 838.598C775.857 855.407 780.016 887.198 786.166 907.532C793.849 932.932 803.749 952.957 817.324 972.057C830.574 990.698 847.249 1006.15 856.757 1028.58C868.616 1056.56 856.891 1101.32 831.391 1106.34C822.449 1108.1 816.141 1102.53 811.541 1099.45C796.566 1089.42 784.957 1074.7 774.591 1060.02C755.749 1033.32 747.349 1008.67 740.674 969.298V948.615C742.424 937.54 741.516 915.623 739.574 905.873C733.932 877.615 723.674 855.315 717.516 827.29C713.416 808.632 715.024 783.948 718.066 764.973C720.049 752.598 717.507 738.307 715.582 728.573C709.166 696.107 697.382 670.673 680.291 649.165C673.132 640.157 658.491 628.265 641.132 635.098C617.474 644.415 629.116 674.657 635.616 693.282C637.732 700.54 639.841 707.807 641.957 715.065C645.457 726.607 648.699 743.815 645.816 758.632C643.116 772.498 638.874 790.298 641.957 806.882C648.574 842.498 663.532 863.048 673.116 893.74C678.166 909.932 678.199 931.94 669.532 944.198C647.549 975.29 581.699 973.132 542.966 988.315C510.107 1001.2 486.941 1016.54 461.624 1036.29C437.657 1054.99 420.332 1082.58 387.999 1092.82C375.632 1096.73 354.816 1099.68 339.466 1097.51C322.774 1095.13 297.832 1092.34 285.699 1101.09C274.449 1109.2 269.174 1129.04 273.016 1149.34C278.566 1178.65 288.991 1218.31 275.224 1245.3C250.649 1293.44 191.557 1295.01 149.491 1324.43C137.657 1332.71 123.124 1348.31 116.674 1359.45C113.149 1365.55 109.924 1375.25 104.266 1379.3C106.982 1381.62 134.041 1380.12 140.116 1380.12H242.966C241.774 1379.94 240.574 1379.76 239.382 1379.57V1379.02C253.166 1375.93 263.724 1366.88 273.849 1359.72C302.399 1339.55 324.116 1311.55 361.257 1300.44C397.232 1289.68 448.857 1299.42 466.316 1270.11L466.324 1270.15ZM283.791 1207.01H283.516C282.599 1199.29 281.674 1191.57 280.757 1183.85C276.741 1164.53 267.657 1134.54 276.624 1114.37C277.291 1113.47 277.957 1112.57 278.616 1111.68C278.691 1111.57 278.757 1111.45 278.824 1111.33C280.482 1109.12 282.132 1106.92 283.791 1104.72C282.066 1107.04 280.341 1109.36 278.616 1111.68C275.449 1116.77 274.207 1125.27 274.141 1133.12C273.916 1160.47 284.107 1179.36 283.791 1207.02V1207.01Z" fill="#0E0000"/>
<path d="M984.433 635.957C984.25 635.498 984.066 635.04 983.883 634.582C984.058 635.682 983.858 635.398 984.433 635.957Z" fill="#0E0000"/>
<path d="M462.191 434.443C477.333 429.818 498.758 432.959 512.649 436.376C548.691 445.226 569.974 450.034 585.166 480.218H416.416C418.808 476.268 421.199 472.309 423.583 468.359C432.933 453.459 443.624 440.109 462.183 434.443H462.191Z" fill="#0E0000"/>
<path d="M269.999 321.934C269.649 323.568 268.882 324.384 267.516 324.968C268.341 323.959 269.174 322.943 269.999 321.934Z" fill="#0E0000"/>
<path d="M105.107 331.868C115.232 319.268 126.999 307.743 135.715 293.818C148.424 273.518 152.674 241.501 177.907 233.709C216.424 221.809 246.132 264.076 282.69 248.051C296.932 241.81 300.199 226.576 307.782 213.585C313.665 203.51 319.89 192.301 328.74 185.185C339.065 176.876 350.274 170.068 363.757 164.776C379.957 158.418 396.699 154.968 410.357 146.576C435.49 131.143 449.774 105.234 464.957 79.8511C473.624 65.3512 481.84 50.6512 494.74 40.4178C509.182 28.9678 531.049 20.0261 556.232 27.7344C564.065 30.1344 572.082 33.6261 578.565 37.6595C591.157 45.4928 602.724 56.2928 607.515 71.8512C614.357 94.0762 606.482 121.526 601.724 140.784C598.824 152.518 598.574 164.818 596.482 177.734C595.307 185.001 596.565 194.085 597.582 200.343C598.04 206.868 598.499 213.393 598.957 219.918C598.774 222.034 598.59 224.143 598.407 226.259C598.315 230.118 598.224 233.985 598.132 237.843C596.849 245.285 595.557 252.734 594.274 260.176C590.049 274.601 585.815 289.035 581.59 303.468C579.649 309.818 576.199 318.934 577.732 327.734C578.974 334.859 581.565 340.118 585.174 344.826C601.565 366.226 648.624 369.134 672.032 385.634C680.007 391.251 688.124 398.693 693.815 406.593C699.582 414.593 703.399 424.684 712.84 428.926C724.94 434.359 741.082 430.276 756.132 433.334C774.574 437.093 781.307 448.651 786.19 466.151C787.199 470.834 788.215 475.526 789.224 480.218H693.265C678.715 480.218 659.79 482.109 650.524 476.634C628.607 463.668 624.424 434.551 599.79 423.968C591.44 420.384 582.024 419.293 572.765 416.526C551.074 410.034 524.824 402.343 513.482 385.368C509.624 379.593 507.949 371.793 506.315 363.859C499.29 329.859 513.924 297.81 521.482 273.693C527.34 255.001 529.132 234.984 532.79 213.034C536.274 192.093 536.89 156.234 523.14 147.959C511.899 141.201 498.965 152.126 493.357 157.609C473.024 177.501 459.399 206.368 431.04 217.993C423.665 221.018 415.432 221.909 407.324 224.334C392.774 228.693 377.74 235.06 369.274 245.568C362.399 254.093 356.007 262.868 350.249 272.593C341.157 287.943 335.807 305.71 320.465 314.785C298.632 327.701 258.182 315.976 231.124 321.951C192.39 330.509 152.19 361.118 144.265 400.259C141.557 413.618 143.815 430.701 145.924 442.726C147.99 454.534 148.157 466.618 148.132 480.226H82.7821C82.7321 463.859 79.7487 449.701 76.7154 435.834C75.5237 427.376 74.3237 418.918 73.1321 410.468C71.4821 401.143 71.4487 388.243 73.6821 379.584C79.2154 358.176 93.2404 346.651 105.115 331.884L105.107 331.868Z" fill="#0E0000"/>
<path d="M199.416 425.343C206.041 393.084 221.608 372.918 253.733 366.059C289.725 358.376 337.575 375.193 362.925 355.859C386.3 338.034 385.033 294.326 409.525 277.826C421.391 269.826 441.875 267.801 451.158 279.759C462.375 294.209 459.125 323.918 453.091 341.526C437.716 386.376 416.875 411.209 365.408 420.109C337.608 424.918 292.875 414.484 272.483 427.001C261.225 433.909 260.758 449.326 257.316 464.226C256.216 469.468 255.108 474.701 254.008 479.943C233.791 480.034 213.566 480.126 193.35 480.218C194.45 473.418 195.558 466.618 196.658 459.809C197.575 448.318 198.5 436.826 199.416 425.343Z" fill="#0E0000"/>
<path d="M334.799 472.493C339.59 473.934 343.207 476.718 347.207 478.559C347.574 479.018 347.94 479.476 348.307 479.934C333.232 480.026 318.157 480.118 303.082 480.209C306.649 472.343 323.657 469.143 334.79 472.493H334.799Z" fill="#0E0000"/>
<path d="M473.774 182.693C472.399 184.351 471.016 186.001 469.641 187.659C470.374 186.559 471.107 185.451 471.849 184.351C472.491 183.801 473.132 183.251 473.782 182.693H473.774Z" fill="#0E0000"/>
<path d="M295.365 322.217L295.64 322.493C294.999 323.318 294.357 324.151 293.707 324.976C293.982 324.242 294.257 323.509 294.532 322.767C294.807 322.584 295.082 322.401 295.357 322.217H295.365Z" fill="#0E0000"/>
<path d="M117.241 214.676L110.35 221.568C111.341 218.443 114.525 216.076 117.241 214.676Z" fill="#0E0000"/>
<path d="M820.374 432.784C819.99 429.443 819.299 426.243 818.315 423.201C819.849 426.668 821.39 430.859 820.374 432.784Z" fill="#0E0000"/>
<path d="M816.232 418.726C815.191 416.343 814.124 414.184 812.982 412.234C815.224 415.543 817.016 419.234 818.307 423.209C817.482 421.351 816.657 419.701 816.232 418.726Z" fill="#0E0000"/>
<path d="M566.965 455.943C563.474 453.734 559.982 451.534 556.49 449.326C567.357 451.376 583.615 470.168 586.824 480.209H585.999C583.099 471.434 573.782 461.234 566.974 455.943H566.965Z" fill="#0E0000"/>
<path d="M1055.57 403.284C1056.58 402.551 1057.6 401.818 1058.61 401.076C1057.82 402.134 1056.98 402.826 1055.57 403.284Z" fill="#0E0000"/>
<path d="M1058.61 401.076C1060.63 399.609 1062.65 398.134 1064.67 396.668C1063.3 398.359 1060.84 400.334 1058.61 401.076Z" fill="#0E0000"/>
<path d="M625.973 451.259C625.882 450.984 625.79 450.709 625.698 450.434C626.09 450.984 625.915 450.859 625.973 451.259Z" fill="#0E0000"/>
<path d="M625.15 449.884C624.966 449.426 624.783 448.968 624.6 448.509C625.216 449.168 625.15 449.243 625.15 449.884Z" fill="#0E0000"/>
<path d="M763.016 434.443C765.857 433.618 770.382 437.234 772.391 438.576C781.707 444.793 785.474 453.659 788.932 465.876C789.566 468.109 792.682 478.718 791.416 480.218C788.499 461.501 780.382 438.218 763.016 434.443Z" fill="#0E0000"/>
<path d="M641.416 471.384C643.607 473.134 649.566 476.501 649.966 478.826C647.207 476.801 644.449 474.784 641.691 472.759C635.916 468.151 628.741 458.768 626.249 451.251C632.366 456.834 634.866 466.176 641.416 471.376V471.384Z" fill="#0E0000"/>
<path d="M421.657 66.8842C421.199 67.6175 420.741 68.3507 420.282 69.0924C420.557 68.4507 420.832 67.8091 421.107 67.1591L421.657 66.8842Z" fill="#0E0000"/>
<path d="M278.274 156.217C277.199 158.526 274.041 161.284 271.657 162.284C273.866 160.259 276.066 158.242 278.274 156.217Z" fill="#0E0000"/>
<path d="M387.741 105.484C393.966 101.801 403.308 96.0927 406.491 89.4927C406.949 89.126 407.408 88.7593 407.866 88.3926C404.558 95.9343 386.958 108.584 377.808 110.451C381.116 108.793 384.424 107.143 387.733 105.484H387.741Z" fill="#0E0000"/>
<path d="M317.424 121.201V121.476C313.933 123.226 310.441 124.968 306.949 126.718C309.033 124.451 313.974 121.834 317.424 121.201Z" fill="#0E0000"/>
<path d="M126.891 182.143V181.593H127.166C127.074 181.776 126.982 181.959 126.891 182.143Z" fill="#0E0000"/>
<path d="M280.482 153.743C283.207 147.976 297.657 131.759 303.366 129.201C299.874 132.601 296.382 136.001 292.891 139.401C289.107 144.142 285.316 150.076 280.482 153.743Z" fill="#0E0000"/>
<path d="M265.866 170.009C265.499 170.101 265.132 170.193 264.766 170.284C265.132 170.101 265.499 169.918 265.866 169.734V170.009Z" fill="#0E0000"/>
<path d="M117.241 219.643C115.066 222.176 110.707 224.434 108.141 226.534C109.307 223.126 113.791 220.709 117.241 219.643Z" fill="#0E0000"/>
<path d="M125.516 184.618C125.149 185.443 124.783 186.276 124.416 187.101C124.691 186.459 124.966 185.817 125.241 185.167V184.618H125.516Z" fill="#0E0000"/>
<path d="M106.49 230.118C107.332 227.284 113.115 225.134 116.415 224.876V225.151C112.732 225.909 109.157 228.184 106.49 230.118Z" fill="#0E0000"/>
<path d="M122.207 201.443C122.94 200.984 123.674 200.526 124.415 200.067C123.849 201.059 123.532 201.201 122.207 201.443Z" fill="#0E0000"/>
<path d="M120.549 202.818H119.999V202.268C120.182 202.451 120.366 202.634 120.549 202.818Z" fill="#0E0000"/>
<path d="M420.274 69.0844C419.816 69.9094 419.358 70.7427 418.899 71.5677C419.174 70.8344 419.449 70.1011 419.724 69.3594L420.274 69.0844Z" fill="#0E0000"/>
<path d="M1092.52 373.226C1091.06 374.417 1089.58 375.617 1088.12 376.809C1089.01 375.334 1090.83 373.876 1092.52 373.226Z" fill="#0E0000"/>
<path d="M418.899 71.5676C418.449 73.5926 417.165 75.8176 415.865 77.0842C416.782 75.4259 417.707 73.7758 418.624 72.1175V71.5676H418.899Z" fill="#0E0000"/>
<path d="M790.591 396.109C802.049 399.251 808.166 403.934 812.991 412.226C806.424 402.542 795.991 396.051 782.874 394.726C785.057 393.917 788.616 395.559 790.591 396.101V396.109Z" fill="#0E0000"/>
<path d="M1405.77 127.268C1405.86 127.451 1405.95 127.634 1406.04 127.818C1391.97 129.184 1377.92 130.109 1365.51 133.334C1357.05 136.276 1348.59 139.218 1340.14 142.159C1342.49 138.693 1349.79 137.501 1353.92 135.818C1367.86 130.143 1386.75 127.193 1405.77 127.268Z" fill="#0E0000"/>
<path d="M1440.51 248.317C1440.42 248.592 1440.32 248.867 1440.23 249.142V248.317H1440.51Z" fill="#0E0000"/>
<path d="M1441.61 253.559C1441.42 252.734 1441.24 251.901 1441.06 251.076C1441.24 251.351 1441.42 251.626 1441.61 251.901C1442.14 252.459 1442.07 252.693 1441.61 253.559Z" fill="#0E0000"/>
<path d="M1440.78 250.801C1440.69 250.434 1440.6 250.067 1440.51 249.701L1441.06 249.976C1440.91 250.834 1441.37 250.159 1440.78 250.801Z" fill="#0E0000"/>
<path d="M1335.72 15.3176H1336C1337.37 28.3676 1341.33 43.6592 1346.47 53.9175C1347.59 56.1509 1353.05 65.4676 1352.82 66.0509C1351.26 63.9342 1349.69 61.8259 1348.13 59.7092C1342.44 50.0176 1335.76 29.6259 1335.72 15.3176Z" fill="#0E0000"/>
<path d="M1245.56 200.618C1251.62 197.676 1257.69 194.735 1263.76 191.793C1260.9 194.993 1256.34 196.201 1252.45 198.41C1238.12 206.551 1221.25 210.76 1202.27 214.401C1188.8 216.985 1173.08 214.726 1163.67 221.018C1157.21 225.335 1151.77 234.093 1150.16 243.076C1149.42 247.209 1151.4 251.885 1151.26 253.826C1145.12 242.335 1154.54 227.368 1161.18 222.118C1172.36 213.276 1195.02 215.301 1211.37 211.643C1223.67 208.885 1235.06 205.251 1245.56 200.61V200.618Z" fill="#0E0000"/>
<path d="M1149.32 297.401H1148.22C1142.67 294.501 1136.71 294.068 1133.06 289.401C1138.47 291.776 1142.31 296.001 1149.32 297.118V297.393V297.401Z" fill="#0E0000"/>
<path d="M1298.77 93.0761C1291.78 125.784 1275.52 142.901 1251.07 157.876C1241.84 163.526 1230.99 170.276 1216.33 170.009C1213.5 168.934 1210.34 169.451 1208.06 168.076C1198.32 162.226 1204.51 149.918 1209.43 143.534C1219.85 130.043 1246.92 114.034 1242.25 86.7344C1238.93 67.3511 1232.27 54.3595 1222.95 41.2345C1215.42 30.6428 1207.6 22.1177 1204.75 6.49275C1200.37 -17.4823 1219.68 -50.2322 1243.62 -45.8989C1282.01 -38.9489 1289.61 4.64275 1297.67 42.3344C1300.72 56.6011 1302.06 77.6678 1298.77 93.0678L1298.77 93.0761Z" fill="#0E0000"/>
<path d="M1443.54 255.759C1443.45 256.034 1443.36 256.309 1443.27 256.584V255.759H1443.54Z" fill="#0E0000"/>
<path d="M1294.92 21.3844C1294.82 21.6594 1294.73 21.9345 1294.64 22.2095V21.3844H1294.92Z" fill="#0E0000"/>
<path d="M1295.19 22.2094C1296.27 27.6677 1302.3 44.4343 1300.16 50.0593C1298.41 40.776 1296.67 31.4927 1294.92 22.2094H1295.19Z" fill="#0E0000"/>
<path d="M1107.42 362.751V363.026C1102.54 366.334 1097.67 369.643 1092.8 372.951C1095.56 369.326 1102.6 363.968 1107.42 362.751Z" fill="#0E0000"/>
<path d="M1516.06 261.001C1513.85 261.826 1511.65 262.659 1509.44 263.484C1497.82 267.959 1487.43 273.484 1471.39 273.134V272.859C1475.62 272.401 1479.85 271.943 1484.07 271.484C1494.65 268.476 1505.41 265.059 1515.23 261.009H1516.06V261.001Z" fill="#0E0000"/>
<path d="M1443.82 257.143C1446.57 260.026 1448.67 263.193 1451.53 265.968L1450.98 266.243C1448.52 263.393 1444.74 261.501 1443.82 257.143Z" fill="#0E0000"/>
<path d="M1557.42 255.484V293.534C1553.72 293.693 1551.09 295.393 1548.04 296.293C1539.49 298.818 1530.99 301.609 1522.95 303.734C1500.59 309.659 1478.38 314.384 1454.29 319.176C1440.27 321.968 1412.65 320.018 1404.93 313.109C1400.15 308.826 1394.57 304.968 1391.15 299.326C1386.18 291.126 1379.62 254.868 1382.32 240.318C1384.2 230.234 1390.53 206.343 1386.46 197.026C1382.34 187.609 1374.5 188.726 1363.57 189.309V189.034C1365.69 188.576 1367.8 188.118 1369.92 187.659C1367.74 185.784 1360.92 189.101 1359.17 190.143C1350.67 195.151 1344.27 203.151 1336.56 209.167C1304.68 234.009 1264.26 250.043 1217.44 259.901C1198.67 263.851 1156.67 265.909 1151.82 249.426C1149.59 241.859 1154.36 234.443 1157.06 230.401C1169.27 212.059 1203.77 217.768 1226.82 210.551C1271.57 196.534 1301.25 168.834 1337.94 146.859C1349.57 139.893 1362.04 135.451 1377.92 132.243C1384.72 131.601 1391.52 130.959 1398.33 130.309C1405.01 129.193 1415.07 129.034 1421.77 130.309C1434.61 132.751 1445.56 137.393 1449.9 148.234C1452.87 155.668 1450.39 167.684 1448.52 173.876C1444.19 188.209 1441.07 201.443 1438.05 217.718C1434.59 236.301 1439.83 258.784 1449.08 265.968C1473.94 285.276 1510.72 265.151 1532.08 255.768C1536.93 253.634 1555.57 247.659 1556.07 242.809C1558.52 244.176 1557.45 251.826 1557.45 255.493L1557.42 255.484Z" fill="#0E0000"/>
<path d="M1452.08 266.792C1451.9 266.701 1451.72 266.609 1451.53 266.517C1452.13 266.359 1451.89 266.534 1452.08 266.792Z" fill="#0E0000"/>
<path d="M1192.62 83.1511C1194.77 96.3677 1188.17 107.676 1180.76 113.209C1185.47 103.143 1194.17 99.4594 1192.34 83.1511H1192.62Z" fill="#0E0000"/>
<path d="M1258.52 250.526V250.801C1258.24 250.893 1257.97 250.984 1257.69 251.076C1258.19 250.518 1257.69 250.868 1258.52 250.526Z" fill="#0E0000"/>
<path d="M1353.38 195.926C1355.27 193.376 1359.45 190.293 1363.03 189.584C1359.81 191.701 1356.59 193.809 1353.38 195.926Z" fill="#0E0000"/>
<path d="M1318.63 223.226C1322.86 220.468 1327.09 217.709 1331.32 214.951C1338.27 210.026 1343.87 203.418 1350.62 198.41C1347.46 205.11 1326.48 221.068 1318.63 223.226Z" fill="#0E0000"/>
<path d="M1254.38 251.901V252.176C1253.1 252.543 1251.81 252.909 1250.52 253.276C1251.28 252.343 1252.81 251.984 1254.38 251.901Z" fill="#0E0000"/>
<path d="M1239.22 256.309C1241.61 255.576 1244 254.843 1246.38 254.101C1245.27 255.418 1241.44 256.276 1239.22 256.309Z" fill="#0E0000"/>
<path d="M1236.46 257.143C1237.37 256.868 1238.3 256.593 1239.22 256.318V256.593C1238.3 256.776 1237.37 256.959 1236.46 257.143Z" fill="#0E0000"/>
<path d="M1158.7 391.426C1176.18 385.051 1203.92 382.676 1217.98 393.634C1234.35 406.376 1224.25 451.551 1217.43 468.909C1215.77 472.676 1214.12 476.443 1212.47 480.218H1171.93C1175.2 473.776 1178.42 466.651 1179.93 458.709C1181.86 448.601 1171.49 440.684 1163.39 444.926C1161.76 445.776 1160.22 446.418 1158.15 447.409C1159.73 445.218 1163.92 444.551 1166.42 443.276H1166.97C1162.22 441.593 1154.7 447.884 1151.81 449.893C1145.27 454.426 1138.02 459.526 1133.06 465.609C1128.74 470.293 1124.42 474.984 1120.1 479.676C1118.08 481.434 1109.62 480.226 1106.32 480.226H1067.44C1069.72 470.026 1079.37 457.743 1085.09 450.168C1101.17 428.876 1131.77 401.251 1158.72 391.434L1158.7 391.426Z" fill="#0E0000"/>
<path d="M1363.85 463.393C1382.82 455.226 1413.57 469.018 1437.2 464.768C1464.1 459.934 1483.07 451.876 1504.48 442.434C1519.54 435.793 1535.3 425.943 1557.42 427.818V446.018C1533.04 446.151 1513.78 461.243 1498.14 471.109C1493.46 474.143 1488.77 477.176 1484.07 480.209H1349.79C1353.67 473.651 1356.57 466.526 1363.86 463.393H1363.85Z" fill="#0E0000"/>
<path d="M1425.34 320.284C1424.61 320.376 1423.87 320.467 1423.13 320.559C1423.4 319.992 1423.27 320.076 1425.34 320.284Z" fill="#0E0000"/>
<path d="M1240.32 83.7011C1244.2 88.8178 1238.51 105.509 1237.01 108.793C1229.97 124.193 1217.27 131.568 1208.06 144.359C1206.11 147.068 1202.46 151.026 1201.27 155.843C1202.33 150.876 1205.12 145.909 1207.78 142.434C1220.76 125.501 1243.37 115.784 1240.32 83.7011Z" fill="#0E0000"/>
<path d="M1200.93 158.043C1200.98 157.293 1201.1 156.56 1201.27 155.843C1201.12 156.576 1201 157.31 1200.93 158.043Z" fill="#0E0000"/>
<path d="M1201.17 161.459C1201.77 164.201 1203.86 166.109 1205.57 167.801C1213.57 175.676 1229.88 170.784 1240.95 166.234C1233.82 169.784 1226.2 172.967 1214.67 172.759C1212.01 171.934 1209.34 171.101 1206.67 170.276C1201.81 167.284 1200.45 162.759 1200.92 158.034C1200.85 159.134 1200.9 160.276 1201.16 161.451L1201.17 161.459Z" fill="#0E0000"/>
<path d="M1254.11 160.085C1253.52 160.301 1252.95 160.526 1252.38 160.76C1252.96 160.443 1253.53 160.126 1254.11 159.81V160.085Z" fill="#0E0000"/>
<path d="M1248.59 162.834C1246.62 163.759 1243.98 164.984 1240.95 166.234C1244.72 164.359 1248.37 162.384 1252.38 160.751C1251.12 161.442 1249.86 162.142 1248.59 162.834Z" fill="#0E0000"/>
<path d="M1288.3 238.668V238.943C1278.62 241.876 1270.11 248.526 1259.35 250.251C1269 246.393 1278.65 242.526 1288.3 238.668Z" fill="#0E0000"/>
<path d="M1159.25 138.018C1154.75 146.293 1150.24 154.559 1145.74 162.834C1142.16 171.109 1138.57 179.376 1134.99 187.651C1136.13 178.651 1153.89 142.734 1159.26 138.018H1159.25Z" fill="#0E0000"/>
<path d="M1200.34 300.434C1191.7 300.801 1183.06 301.168 1174.42 301.534C1173.05 301.443 1171.67 301.351 1170.29 301.259C1174.52 301.076 1178.75 300.893 1182.97 300.709C1192.17 299.793 1201.36 298.868 1210.55 297.951C1233.5 293.309 1257.32 284.251 1283.62 284.718C1273.32 286.376 1263.02 288.026 1252.73 289.684C1235.41 293.568 1218.82 297.101 1200.34 300.434Z" fill="#0E0000"/>
<path d="M1290.51 123.959C1294.27 111.601 1300.74 99.8425 1300.98 83.1508C1304.37 91.7675 1293.87 120.534 1290.51 123.959Z" fill="#0E0000"/>
<path d="M1133.61 189.859L1134.16 189.584C1131.58 197.301 1129.01 205.026 1126.44 212.743C1127.34 204.226 1132.23 197.701 1133.61 189.859Z" fill="#0E0000"/>
<path d="M1220.74 40.1343C1227.42 45.701 1233.36 60.2344 1237.01 69.0844C1238.02 71.5428 1240.85 78.0594 1239.77 80.9427C1238.72 69.5677 1231.8 57.4177 1226.53 49.2344C1224.6 46.201 1222.67 43.1677 1220.74 40.1343Z" fill="#0E0000"/>
<path d="M305.016 127.818C304.524 128.709 304.341 128.801 303.357 129.193C303.907 128.734 304.457 128.276 305.016 127.818Z" fill="#0E0000"/>
<path d="M119.449 207.234C118.624 207.509 117.791 207.784 116.966 208.059C117.791 207.693 118.624 207.326 119.449 206.959V207.234Z" fill="#0E0000"/>
<path d="M1471.94 32.9678C1468.08 32.4178 1464.22 31.8678 1460.36 31.3094C1446.73 28.1261 1434.32 24.4428 1427.27 14.7678C1412.47 -5.5572 1423.87 -47.2239 1431.67 -66.2989C1444.37 -97.3156 1460.08 -123.307 1478 -148.74C1486.72 -161.115 1495.46 -174.999 1507.22 -184.307C1513.81 -189.516 1520.85 -193.882 1528.18 -198.374C1535.81 -203.041 1543.69 -207.182 1551.62 -211.882C1553.28 -212.891 1554.93 -213.907 1556.59 -214.916C1555.87 -210.949 1544.96 -206.516 1541.42 -204.441C1528.02 -196.549 1515.33 -188.774 1503.65 -179.349C1492.72 -170.541 1484.82 -156.724 1476.62 -145.157C1456.21 -116.349 1438.47 -85.7155 1426.17 -48.6488C1424.88 -42.7655 1423.59 -36.8822 1422.31 -30.9989C1414.03 12.8928 1436.46 32.1761 1478.28 32.6928C1476.17 32.7845 1474.06 32.8761 1471.94 32.9678Z" fill="#0E0000"/>
<path d="M1557.41 -319.149V-216.849C1552.08 -213.541 1546.76 -210.232 1541.42 -206.924C1529.44 -199.899 1517.78 -193.916 1507.23 -185.691C1494.86 -176.041 1485.75 -161.957 1476.62 -149.016C1459.09 -124.149 1443.6 -98.7658 1431.12 -68.4992C1423.01 -48.8075 1410.56 -5.78246 1426.16 15.6009C1439.55 33.9592 1470.42 35.1842 1502.26 35.1759C1512.27 35.3592 1522.3 35.5426 1532.31 35.7259C1538.56 36.8092 1544.41 37.7509 1549.69 39.8592C1552.26 41.1425 1554.84 42.4342 1557.41 43.7175V144.359C1551.92 156.068 1546.06 168.343 1540.86 180.484C1534.44 195.484 1530.61 212.359 1509.16 212.468C1503.21 210.168 1499.01 210.701 1495.65 206.126C1490.42 199.026 1495.39 184.184 1497.86 177.176C1503.52 161.068 1523.31 122.576 1510.26 104.934C1488.11 74.9758 1394.56 96.6176 1361.91 73.2259C1343.18 59.8009 1334.47 12.2425 1334.61 -21.6242C1334.68 -38.0575 1339.47 -59.5825 1333.51 -73.4658C1322.76 -98.4991 1290.65 -92.6074 1280.02 -117.307C1277.91 -122.216 1277.21 -128.157 1276.16 -134.124C1271.04 -163.266 1282.56 -183.274 1294.09 -197.816C1299.66 -204.857 1306.66 -210.557 1311.46 -218.499C1321.64 -235.349 1310.88 -250.257 1294.92 -253.791C1278.61 -257.407 1268.44 -244.874 1262.39 -236.699C1243.56 -211.291 1234.96 -178.641 1224.61 -144.324C1221.09 -132.632 1218.42 -120.099 1212.76 -110.407C1198.87 -86.6741 1181.15 -67.1825 1167.26 -43.4075C1158.35 -28.1575 1155.08 -8.63247 1148.23 8.70919C1134.72 42.9175 1108.76 79.5676 1056.96 74.8842C1050.44 74.0592 1043.91 73.2259 1037.39 72.4009C1025.51 69.4009 1014.47 65.6259 1005.13 59.9926C988.04 49.6842 971.207 36.9009 963.498 17.2509C958.507 4.54253 960.707 -14.3575 964.873 -26.3158C970.107 -41.3075 977.773 -54.2658 983.898 -68.2241C990.698 -84.4908 997.498 -100.766 1004.31 -117.032C1013.91 -138.874 1025.83 -159.441 1045.39 -171.349C1052.39 -175.616 1064.79 -180.391 1076 -176.866C1094.88 -170.916 1103.86 -153.466 1095.02 -130.816C1082.32 -98.2491 1060.81 -74.7824 1047.87 -42.3074C1039.8 -22.0241 1035.86 6.38423 1060.28 12.2926C1067.46 14.0342 1075.21 11.5842 1079.31 8.43423C1087.41 2.2009 1089.95 -10.9991 1093.37 -21.8991C1097.91 -36.3741 1103.37 -50.3492 1110.75 -62.1575C1124.97 -84.9575 1143.22 -102.974 1154.31 -129.157C1163.86 -151.707 1167.91 -177.691 1176.92 -200.849C1188.7 -231.082 1202.36 -259.399 1218.28 -285.499C1228.83 -302.791 1239.36 -321.516 1255.78 -332.924C1268.41 -341.699 1293.25 -341.782 1310.1 -336.782C1352.4 -324.241 1367.79 -289.066 1376.27 -242.757C1379.23 -226.624 1375.64 -209.116 1372.96 -195.607C1371.21 -186.791 1373.24 -178.432 1378.48 -174.924C1394.14 -164.457 1420.32 -187.399 1428.66 -193.949C1438.96 -202.866 1449.26 -211.783 1459.55 -220.699C1478.78 -235.199 1499.24 -248.457 1518.01 -263.441C1523.22 -267.599 1528.19 -273.141 1532.6 -278.891C1531.86 -277.741 1531.21 -276.557 1530.69 -275.299C1547.91 -288.149 1556.87 -324.657 1556.33 -356.091L1556.88 -356.366C1558.42 -354.174 1557.43 -324.641 1557.43 -319.141L1557.41 -319.149Z" fill="#0E0000"/>
<path d="M41.9658 176.351C43.0075 172.951 44.0492 169.551 45.0825 166.159C44.1575 169.643 43.1992 173.035 42.2408 176.351H41.9658Z" fill="#0E0000"/>
<path d="M45.0913 166.151C45.8413 163.343 46.5663 160.468 47.2497 157.518C46.9247 159.309 46.5497 161.084 46.0997 162.834C45.758 163.943 45.4247 165.043 45.083 166.151H45.0913Z" fill="#0E0000"/>
<path d="M35.074 193.443C41.2906 179.418 47.049 166.284 50.5156 148.501C54.4823 128.176 47.7823 104.376 51.8906 84.8096C53.2073 78.5262 54.5073 72.0261 56.8573 66.6095C58.1406 64.0345 59.4323 61.4595 60.7156 58.8928H60.4406C58.7823 61.5595 57.1323 64.2262 55.474 66.8929C51.6406 75.8096 50.8656 86.7345 49.1323 97.7762C46.7656 112.851 52.7906 127.376 50.2323 142.718C49.3656 147.893 48.349 152.801 47.2406 157.535C48.1906 152.318 48.7656 146.91 49.6823 141.343C52.3406 125.193 45.774 109.993 48.5823 93.9178C50.4573 83.1512 51.424 73.4845 55.199 64.9678C62.249 49.0595 87.924 31.4012 114.482 36.5679C124.316 38.4845 132.266 41.4679 140.674 43.7345C134.432 38.7429 121.582 36.2095 111.724 35.4595C117.332 33.1261 133.491 39.3428 137.366 40.9761C159.582 50.3178 177.807 70.7596 167.974 104.393C164.374 116.701 159.924 128.301 153.632 138.035C144.524 152.126 133.066 165.501 125.782 181.326C117.624 199.068 111.832 219.543 102.066 236.201C69.7739 291.276 34.8906 329.301 -48.4844 332.984V257.984C-2.32604 253.851 19.6406 228.26 35.0656 193.46L35.074 193.443Z" fill="#0E0000"/>
<path d="M12.182 323.318C12.5486 323.043 12.9153 322.768 13.282 322.493C12.182 324.884 11.0736 327.276 9.97363 329.659C10.707 327.543 11.4403 325.434 12.182 323.318Z" fill="#0E0000"/>
<path d="M22.3901 420.926C25.7234 426.659 27.0068 433.476 28.7318 440.776C30.7151 449.143 34.0484 470.476 30.1068 479.651C28.4901 481.051 14.0568 480.201 10.5318 480.201H-45.4432C-45.9766 477.393 -47.7099 475.884 -48.4766 473.859V387.001C-14.0516 382.218 10.3818 400.243 22.3901 420.918V420.926Z" fill="#0E0000"/>
<path d="M-38.551 -129.716C-35.651 -123.758 -29.226 -118.766 -23.6594 -114.549C-13.9094 -107.174 -3.07603 -101.458 10.2573 -97.4576C45.3323 -86.9326 93.049 -97.9576 110.074 -120.341C124.899 -139.833 130.949 -168.099 137.924 -195.616C143.199 -216.441 144.466 -238.149 154.741 -253.524C161.891 -264.216 175.049 -277.941 194.174 -271.999C198.566 -270.633 201.507 -267.641 205.207 -265.933C206.074 -264.666 209.432 -260.991 209.891 -262.074C219.557 -254.649 226.132 -225.524 222.574 -207.199C221.291 -198.924 219.999 -190.658 218.716 -182.383C214.057 -160.749 205.157 -123.741 214.857 -101.316C218.291 -93.3826 224.432 -87.8659 231.124 -83.1159C237.641 -78.4909 246.799 -73.4826 257.316 -73.1909C255.691 -72.6076 253.149 -73.4159 251.524 -73.7409C236.691 -76.7242 230.074 -82.9243 220.366 -90.2826C230.174 -75.1243 258.132 -67.4909 284.057 -73.1909C300.616 -76.8326 316.407 -80.8492 333.966 -83.9409C362.574 -88.9825 391.691 -76.9909 403.174 -62.7075C415.566 -47.2992 425.091 -30.8493 430.749 -8.39092C442.399 37.8591 413.691 88.7008 387.182 104.384C367.266 116.167 330.516 110.859 310.524 122.584C303.916 126.459 297.007 131.367 292.324 137.201C283.174 148.592 274.557 162.984 257.307 166.151C249.432 167.601 241.932 164.159 237.732 161.467C216.099 147.584 216.349 115.251 227.257 90.0507C234.574 73.1341 249.007 63.1425 267.791 57.5175C288.249 51.3842 314.724 53.1841 330.932 42.9008C340.982 36.5258 348.349 20.4175 341.966 5.12583C337.307 -6.02417 323.624 -12.4992 307.224 -8.38258C297.574 -5.62424 287.924 -2.86586 278.274 -0.107532C270.832 0.717468 263.382 1.55079 255.941 2.37579C250.882 2.55912 245.832 2.74248 240.774 2.92581C228.407 0.875814 217.816 -0.315906 207.132 -3.69091C188.574 -9.54924 171.882 -17.8742 152.532 -22.7159C116.832 -31.6575 68.3323 -26.2325 36.174 -16.3742C18.2406 -10.8825 3.57396 -2.43253 -3.25938 13.9591C-14.951 42.0008 -4.46771 84.0174 0.32396 112.676C1.76563 121.267 1.40729 133.509 0.0489589 141.626C-4.58437 169.326 -7.75104 190.492 -40.2094 190.159C-42.9677 189.609 -45.726 189.059 -48.4844 188.501C-47.1844 185.484 -48.4844 167.476 -48.4844 160.926V-145.141H-48.2094C-46.5094 -138.733 -41.0927 -134.899 -38.5594 -129.699L-38.551 -129.716ZM236.916 2.08414H239.674C237.924 1.80914 236.182 1.53415 234.432 1.25915C235.257 1.53415 236.091 1.80914 236.916 2.08414ZM137.924 -187.349H137.649C133.666 -165.949 125.316 -145.066 117.241 -127.791C124.982 -134.324 137.266 -172.849 137.924 -187.349Z" fill="#0E0000"/>
<path d="M260.349 5.39264C259.065 5.48431 257.774 5.57594 256.49 5.6676C257.774 5.3926 259.065 5.11761 260.349 4.84261V5.39264Z" fill="#0E0000"/>
<path d="M96.5654 249.418C96.1071 250.151 95.6488 250.884 95.1904 251.626C95.4654 250.984 95.7404 250.343 96.0154 249.693L96.5654 249.418Z" fill="#0E0000"/>
<path d="M117.516 210.542C118.066 210.176 118.616 209.809 119.174 209.442C118.574 210.167 118.632 210.234 117.516 210.542Z" fill="#0E0000"/>
<path d="M117.516 203.368C118.066 203.184 118.616 203.001 119.174 202.818C118.258 204.101 117.333 205.393 116.416 206.676C116.783 205.576 117.149 204.468 117.516 203.368Z" fill="#0E0000"/>
<path d="M91.8738 256.309L92.6988 255.759C91.7821 257.134 90.8571 258.518 89.9404 259.893C90.5821 258.701 91.2238 257.501 91.8738 256.309Z" fill="#0E0000"/>
<path d="M93.533 254.384C93.258 254.843 92.983 255.301 92.708 255.759C92.7997 255.393 92.8913 255.026 92.983 254.659L93.533 254.384Z" fill="#0E0000"/>
<path d="M53.2744 300.434C59.6161 294.459 65.9577 288.484 72.2994 282.509C70.2077 286.893 57.8161 298.434 53.2744 300.434Z" fill="#0E0000"/>
<path d="M50.791 302.359C46.2743 307.809 36.5076 313.443 29.5576 316.143C36.6326 311.551 43.716 306.951 50.791 302.359Z" fill="#0E0000"/>
<path d="M84.982 267.068C83.4904 270.684 79.6404 275.209 76.707 277.543C79.4654 274.051 82.2237 270.559 84.982 267.068Z" fill="#0E0000"/>
<path d="M89.3908 260.176L89.9408 259.901C89.5742 260.542 89.2075 261.184 88.8408 261.834C89.0242 261.284 89.2075 260.734 89.3908 260.176Z" fill="#0E0000"/>
<path d="M1004.02 371.293V371.568C1001.26 371.659 998.499 371.751 995.741 371.843C992.599 370.384 989.415 370.201 986.915 368.259C977.224 360.718 982.207 338.068 983.607 325.793H983.882C982.04 347.159 976.065 374.509 1004.01 371.293H1004.02Z" fill="#0E0000"/>
<path d="M1124.78 219.084C1124.51 220.184 1124.23 221.293 1123.96 222.393C1124.14 221.293 1124.32 220.184 1124.51 219.084H1124.78Z" fill="#0E0000"/>
<path d="M882.69 398.042C881.865 388.084 877.365 380.259 874.974 372.126C877.165 374.267 884.449 393.559 882.69 398.042Z" fill="#0E0000"/>
<path d="M1123.96 222.676C1123.13 226.809 1122.3 230.951 1121.47 235.084C1122.21 230.951 1122.94 226.809 1123.68 222.676H1123.96Z" fill="#0E0000"/>
<path d="M1120.65 259.343C1121.84 265.043 1123.04 270.743 1124.23 276.434C1122.25 271.776 1120.57 265.684 1120.65 259.343Z" fill="#0E0000"/>
<path d="M1192.07 82.326H1192.34C1192.25 82.601 1192.16 82.876 1192.07 83.151V82.326Z" fill="#0E0000"/>
<path d="M466.324 -309.774C483.624 -280.724 445.824 -249.624 451.707 -216.299C452.682 -210.782 453.516 -205.066 454.574 -200.307H454.466C454.557 -199.941 454.649 -199.574 454.741 -199.207L454.816 -199.282C455.057 -198.291 455.299 -197.332 455.566 -196.449C459.366 -183.807 471.441 -171.582 478.724 -161.707C503.257 -128.474 533.566 -105.916 578.266 -92.499C585.949 -90.1907 594.082 -89.3074 602.532 -87.8074C624.566 -83.9074 649.232 -92.1491 662.916 -99.1158C714.124 -125.174 727.149 -186.632 759.149 -231.749C773.757 -252.349 803.524 -280.041 842.149 -267.874C848.091 -265.999 853.899 -263.049 858.416 -259.599C877.149 -245.299 879.532 -216.257 891.782 -195.349C896.274 -187.682 902.116 -181.641 907.499 -174.941C909.891 -172.732 912.282 -170.532 914.666 -168.324C929.049 -150.466 939.616 -140.557 944.724 -112.349C945.882 -105.957 945.732 -96.5574 944.449 -90.2907C943.007 -83.249 940.991 -76.9158 938.382 -70.9908C933.349 -59.5658 924.799 -50.8907 917.699 -41.4907C902.132 -20.8574 885.174 -1.79902 872.199 21.376C866.382 31.7593 855.949 52.826 864.482 66.876C878.499 89.9676 916.782 60.9176 942.241 66.3259C964.857 71.1259 971.391 88.0843 986.357 99.9676C994.441 106.384 1002.78 111.651 1014.48 114.584C1019.91 115.226 1025.33 115.868 1030.75 116.518C1040.45 118.143 1055.12 115.193 1063.01 113.484C1094.64 106.634 1114.2 97.0176 1136.91 82.0509C1148.07 74.6843 1168.99 62.5342 1185.16 74.3342C1205.31 89.0259 1177.3 112.801 1170.54 121.209C1147.62 149.718 1131.82 184.359 1121.46 225.718C1117.29 242.334 1116.59 268.501 1124.22 281.693C1133.52 297.784 1152.31 303.201 1177.71 303.201C1183.59 303.018 1189.47 302.834 1195.36 302.651C1222.3 297.976 1244.74 293.859 1271.18 288.868C1282.71 286.693 1299.67 284.559 1311.99 287.493C1326.42 290.926 1335.92 299.276 1340.94 312.034C1352.74 341.976 1339.84 372.234 1371.55 385.384C1394.17 394.759 1424.51 387.159 1442.42 379.318C1455.73 373.484 1467.34 366.209 1480.47 360.568C1490.88 356.093 1502.49 354.543 1514.93 351.743C1528.03 348.801 1541.22 346.176 1557.4 346.501V384.276C1544.04 384.309 1533.87 386.993 1523.48 390.068C1508.58 394.484 1494.72 397.943 1481.02 403.301C1468.87 408.051 1456.7 413.851 1443.52 417.368C1431.72 420.509 1410.58 423.043 1395.54 420.676C1386.77 419.293 1373.33 418.109 1364.38 419.576C1327.58 425.593 1308.98 443.001 1303.44 480.234H1265.12V479.959C1271.18 459.284 1277.25 438.593 1283.32 417.918C1284.78 409.001 1286.26 400.084 1287.72 391.168C1292.77 361.168 1276.94 337.193 1255.47 333.259C1246.57 331.634 1237.69 335.459 1230.92 337.118C1218.28 340.226 1205.4 341.659 1192.05 344.009C1177.34 345.109 1162.63 346.218 1147.93 347.318C1132.85 350.068 1120.22 353.434 1109.06 360.001C1091.42 370.384 1078.46 385.159 1062.46 396.951C1048.89 406.951 1034.17 415.926 1017.23 422.593C996.649 430.693 956.607 444.009 935.066 427.834C927.057 421.826 924.699 412.151 922.657 399.984C922.474 396.034 922.291 392.076 922.107 388.126C921.924 382.518 921.741 376.909 921.557 371.309C921.649 361.934 921.741 352.559 921.832 343.184C920.791 337.226 920.316 331.668 918.249 326.918C912.099 312.751 898.141 304.176 890.124 291.351C882.582 279.276 877.582 263.351 865.307 256.059C854.816 249.826 835.182 251.618 825.599 257.434C812.199 265.576 805.582 284.709 801.332 301.826C799.282 310.093 799.516 321.101 803.266 327.193C814.457 345.409 849.582 349.234 866.682 362.759C883.207 375.826 880.332 407.543 885.432 432.243C887.182 440.051 888.924 447.868 890.674 455.684C892.449 463.226 893.316 471.068 893.157 480.226H831.941C830.657 472.876 829.366 465.518 828.082 458.168C823.182 434.426 820.432 409.909 802.716 399.159C794.791 394.351 784.091 393.984 773.491 391.718C757.532 388.293 743.557 384.118 735.166 373.243C726.199 361.618 725.132 335.859 729.649 317.818C738.191 283.734 750.216 251.659 767.974 226.551C771.941 220.951 775.924 214.526 781.207 210.284C786.924 205.701 792.541 200.451 799.682 197.326C823.974 186.701 880.516 177.284 906.391 192.634C927.641 205.243 938.199 230.309 953.266 249.159C962.774 261.051 984.899 267.151 989.941 281.976C991.566 286.751 990.874 294.534 989.666 299.351C985.774 314.876 968.582 363.468 990.216 372.418C1006.77 379.268 1022.42 365.801 1030.75 359.184C1042.47 349.868 1049.87 336.518 1053.36 318.926C1056.81 301.568 1053.21 280.259 1056.39 262.951C1059.8 244.401 1063.31 216.876 1056.39 199.259C1053.87 192.859 1050.19 187.093 1044.53 183.818C1028.7 174.651 1004.92 187.451 986.907 181.884C959.524 173.426 955.191 142.734 927.624 134.459C907.857 128.526 884.774 136.901 868.066 140.526C836.124 147.459 802.157 141.076 788.099 121.776C775.857 104.968 780.016 73.1759 786.166 52.8425C793.849 27.4426 803.749 7.41761 817.324 -11.6824C830.574 -30.3241 847.249 -45.774 856.757 -68.2074C868.616 -96.1824 856.891 -140.949 831.391 -145.966C822.449 -147.724 816.141 -142.157 811.541 -139.074C796.566 -129.049 784.957 -114.324 774.591 -99.6408C755.749 -72.9408 747.349 -48.2908 740.674 -8.92411V11.7593C742.424 22.8343 741.516 44.751 739.574 54.501C733.932 82.7593 723.674 105.059 717.516 133.084C713.416 151.743 715.024 176.426 718.066 195.401C720.049 207.776 717.507 222.068 715.582 231.801C709.166 264.268 697.382 289.701 680.291 311.209C673.132 320.218 658.491 332.109 641.132 325.276C617.474 315.959 629.116 285.718 635.616 267.093C637.732 259.834 639.841 252.568 641.957 245.309C645.457 233.768 648.699 216.559 645.816 201.743C643.116 187.876 638.874 170.076 641.957 153.493C648.574 117.876 663.532 97.3259 673.116 66.6343C678.166 50.4426 678.199 28.4342 669.532 16.1759C647.549 -14.9158 581.699 -12.7574 542.966 -27.9407C510.107 -40.8241 486.941 -56.1657 461.624 -75.9157C437.657 -94.6157 420.332 -122.207 387.999 -132.441C375.632 -136.357 354.816 -139.307 339.466 -137.132C322.774 -134.757 297.832 -131.966 285.699 -140.716C274.449 -148.824 269.174 -168.666 273.016 -188.966C278.566 -218.274 288.991 -257.941 275.224 -284.924C250.649 -333.066 191.557 -334.632 149.491 -364.057C137.657 -372.341 123.124 -387.941 116.674 -399.074C113.149 -405.174 109.924 -414.874 104.266 -418.924C106.982 -421.249 134.041 -419.749 140.116 -419.749H242.966C241.774 -419.566 240.574 -419.382 239.382 -419.199V-418.649C253.166 -415.557 263.724 -406.507 273.849 -399.349C302.399 -379.174 324.116 -351.174 361.257 -340.066C397.232 -329.307 448.857 -339.049 466.316 -309.732L466.324 -309.774ZM283.791 -246.632H283.516C282.599 -238.916 281.674 -231.191 280.757 -223.474C276.741 -204.157 267.657 -174.166 276.624 -153.991C277.291 -153.099 277.957 -152.199 278.616 -151.307C278.691 -151.191 278.757 -151.074 278.824 -150.957C280.482 -148.749 282.132 -146.549 283.791 -144.341C282.066 -146.666 280.341 -148.982 278.616 -151.307C275.449 -156.399 274.207 -164.899 274.141 -172.741C273.916 -200.091 284.107 -218.982 283.791 -246.641V-246.632Z" fill="#0E0000"/>
<path d="M984.433 324.418C984.25 324.876 984.066 325.334 983.883 325.792C984.058 324.692 983.858 324.976 984.433 324.418Z" fill="#0E0000"/>
</g>
<g style="mix-blend-mode:plus-lighter" opacity="0.25">
<path d="M337.137 437.564L423.859 489.57L424.341 668.886L424.342 669.121L424.544 669.242L574.772 758.896V863.046L337.137 721.697V437.564ZM424.062 309.425L423.858 309.546V309.782V413.676L337.084 361.616V257.459L424.276 205.149L511.5 257.223L424.062 309.425ZM638.428 797.047L725.405 849.228L725.618 849.356L725.833 849.228L813.24 797.045V900.704L725.619 953.014L638.428 900.705V797.047ZM1114.53 361.616L1027.33 413.678V309.782V309.546L1027.12 309.425L940.111 257.223L1026.91 205.149L1114.53 257.459V361.616ZM1027.12 669.242L1027.33 669.121L1027.33 668.885L1027.81 489.57L1114.58 437.51V721.642L876.949 862.992V758.842L1027.12 669.242ZM876.425 294.924L963.67 347.01L964.152 451.881L813.497 541.535L813.293 541.656V541.893V721.642L726.102 773.464L638.91 721.642V541.893V541.656L638.707 541.535L488.051 451.88V347.235L575.617 294.925L725.35 385.007L725.565 385.135L725.779 385.007L876.425 294.924ZM725.833 129.493L725.619 129.365L725.405 129.493L575.188 219.575L488.391 167.502L725.619 25.652L963.275 167.503L876.478 219.575L725.833 129.493ZM725.62 309.297L638.821 257.223L725.62 205.149L812.844 257.223L725.62 309.297ZM574.772 683.006L487.997 631.431V527.285L574.772 579.345V683.006ZM963.67 527.285V631.431L876.896 683.006V579.345L963.67 527.285Z" fill="url(#paint1_linear_3214_3274)"/>
<path d="M337.137 437.564L423.859 489.57L424.341 668.886L424.342 669.121L424.544 669.242L574.772 758.896V863.046L337.137 721.697V437.564ZM424.062 309.425L423.858 309.546V309.782V413.676L337.084 361.616V257.459L424.276 205.149L511.5 257.223L424.062 309.425ZM638.428 797.047L725.405 849.228L725.618 849.356L725.833 849.228L813.24 797.045V900.704L725.619 953.014L638.428 900.705V797.047ZM1114.53 361.616L1027.33 413.678V309.782V309.546L1027.12 309.425L940.111 257.223L1026.91 205.149L1114.53 257.459V361.616ZM1027.12 669.242L1027.33 669.121L1027.33 668.885L1027.81 489.57L1114.58 437.51V721.642L876.949 862.992V758.842L1027.12 669.242ZM876.425 294.924L963.67 347.01L964.152 451.881L813.497 541.535L813.293 541.656V541.893V721.642L726.102 773.464L638.91 721.642V541.893V541.656L638.707 541.535L488.051 451.88V347.235L575.617 294.925L725.35 385.007L725.565 385.135L725.779 385.007L876.425 294.924ZM725.833 129.493L725.619 129.365L725.405 129.493L575.188 219.575L488.391 167.502L725.619 25.652L963.275 167.503L876.478 219.575L725.833 129.493ZM725.62 309.297L638.821 257.223L725.62 205.149L812.844 257.223L725.62 309.297ZM574.772 683.006L487.997 631.431V527.285L574.772 579.345V683.006ZM963.67 527.285V631.431L876.896 683.006V579.345L963.67 527.285Z" stroke="black" stroke-width="0.833333"/>
</g>
</g>
</g>
<defs>
<linearGradient id="paint0_linear_3214_3274" x1="789.736" y1="-42.3485" x2="653.152" y2="930.174" gradientUnits="userSpaceOnUse">
<stop stop-color="#FFD126"/>
<stop offset="1" stop-color="#FFD126" stop-opacity="0"/>
</linearGradient>
<linearGradient id="paint1_linear_3214_3274" x1="789.736" y1="-42.3485" x2="653.152" y2="930.174" gradientUnits="userSpaceOnUse">
<stop stop-color="#FFD126"/>
<stop offset="1" stop-color="#FFD126" stop-opacity="0"/>
</linearGradient>
<clipPath id="clip0_3214_3274">
<rect width="1482" height="844" fill="white"/>
</clipPath>
</defs>
</svg>
