<svg width="496" height="93" viewBox="0 0 496 93" fill="none" xmlns="http://www.w3.org/2000/svg">
<mask id="path-1-outside-1_3390_1658" maskUnits="userSpaceOnUse" x="1.06348" y="15.4557" width="494" height="76" fill="black">
<rect fill="white" x="1.06348" y="15.4557" width="494" height="76"/>
<path d="M24.2485 44.0203H29.7903C35.5453 44.0203 35.5453 28.1745 29.6837 28.1745C29.6837 28.1745 24.4616 28.1745 24.2485 28.1745C24.2485 28.1745 24.1419 41.168 24.2485 44.0203ZM5.06531 66.0988C9.32825 62.6127 9.1151 30.9211 5.38503 28.1745C3.46672 29.7591 3.78644 21.4136 5.38503 22.8925C9.54139 22.8925 29.0443 22.8925 34.373 22.8925C56.1139 22.8925 56.1139 49.3022 30.3232 49.3022H24.2485C24.2485 49.3022 23.9288 62.2958 25.8471 66.0988C31.9218 70.8526 -0.476495 70.5357 5.06531 66.0988Z"/>
<path d="M74.0815 51.8376C72.696 53.5278 69.3923 54.056 67.3674 55.3237C64.2768 57.2252 64.4899 63.2466 69.1791 63.2466C74.8275 63.2466 74.1881 56.0631 74.0815 51.8376ZM70.7777 37.8932C67.9002 37.9989 67.2608 40.9568 67.2608 44.7598C67.2608 50.9925 51.1682 51.6263 51.1682 44.3372C51.1682 38.3158 59.9072 32.9282 69.8186 32.6113C78.451 32.5057 90.0675 34.5128 89.9609 43.5977C89.8543 52.3658 89.8543 56.9082 89.7478 60.0774C101.258 72.3315 69.8186 70.8526 73.0158 65.9932C68.7528 72.1202 50.2091 72.1202 50.3157 60.6056C50.4222 47.8233 69.1791 51.6263 72.9092 46.45C73.7618 45.288 74.1881 44.2316 74.1881 42.8583C74.1881 40.4286 73.3355 37.9989 70.7777 37.8932Z"/>
<path d="M113.357 48.5628C111.332 51.6263 111.439 63.7748 114.529 66.0988C120.604 70.8526 87.7795 70.5357 93.3213 66.0988C97.5842 62.6127 96.8382 45.1823 93.1081 42.4357C86.9269 37.7876 119.751 31.7662 113.783 37.682C113.677 37.7876 112.718 39.4778 112.291 42.9639C114.743 36.0974 120.178 32.5057 125.613 32.2944C140.746 32.2944 134.565 55.9575 122.736 48.9853C116.767 45.4992 115.169 45.8162 113.357 48.5628Z"/>
<path d="M152.838 70.6413C138.025 70.6413 138.557 61.7676 138.877 54.1616C139.09 48.3515 139.73 46.45 137.811 46.45L136 46.5556C134.401 48.0346 134.081 39.6891 136 41.2737C141.115 40.4286 149.215 31.238 149.215 28.7027C149.215 25.7448 155.716 26.273 155.289 28.3857C155.183 32.5057 155.183 34.3015 155.183 41.2737H163.602C165.094 39.4778 165.201 48.4571 163.602 46.5556H155.076C154.97 48.3515 155.076 54.7955 155.076 59.1267C155.076 62.2958 156.035 62.9297 157.634 62.9297C159.446 62.9297 160.831 60.2887 162.43 57.9646C162.43 57.9646 165.414 59.5492 164.561 61.7676C162.11 68.2116 157.421 70.5357 152.838 70.6413Z"/>
<path d="M211.902 43.5977C212.008 47.1895 211.582 57.5421 211.582 60.1831C223.092 72.4372 190.587 70.9582 193.784 66.0988C195.702 64.6199 197.94 45.0767 190.48 45.3936C183.02 45.7105 183.553 63.3522 187.07 66.0988C193.145 70.8526 160.32 70.5357 165.862 66.0988C170.125 62.6127 169.379 45.1823 165.649 42.4357C159.467 37.7876 192.292 31.7662 186.324 37.682C186.217 37.7876 185.258 39.4778 184.832 42.9639C190.587 26.8012 211.688 30.7098 211.902 43.5977Z"/>
<path d="M231.18 53.9504C239.279 53.6334 241.944 38.3158 236.082 37.682C229.581 36.9425 229.048 49.8304 231.18 53.9504ZM235.762 58.3872C237.681 59.7605 239.492 60.3943 241.411 60.3943C246.1 60.3943 251.002 56.3801 253.56 52.6827C253.56 52.6827 256.438 53.8447 255.372 56.2744C250.896 66.3101 243.436 70.2187 235.656 70.3244C208.053 70.7469 205.282 31.1324 237.467 32.5057C247.379 32.9282 253.88 39.4778 253.88 45.8162C253.88 53.7391 242.157 50.4643 235.762 58.3872Z"/>
<path d="M276.756 48.5628C274.731 51.6263 274.837 63.7748 277.928 66.0988C284.003 70.8526 251.178 70.5357 256.72 66.0988C260.983 62.6127 260.237 45.1823 256.507 42.4357C250.325 37.7876 283.15 31.7662 277.182 37.682C277.075 37.7876 276.116 39.4778 275.69 42.9639C278.141 36.0974 283.576 32.5057 289.011 32.2944C304.145 32.2944 297.964 55.9575 286.134 48.9853C280.166 45.4992 278.567 45.8162 276.756 48.5628Z"/>
<path d="M316.77 70.1131C305.153 69.7962 299.185 65.9932 299.185 60.8169C299.185 54.3729 315.171 53.3165 315.171 60.2887C315.171 61.9789 314.532 64.5142 316.663 64.6199C317.729 64.6199 318.901 63.7748 318.901 62.0846C318.901 51.0981 298.546 57.0139 298.865 43.3865C298.972 35.6748 309.842 32.2944 317.302 32.2944C328.919 32.6113 334.887 36.4143 334.887 41.5906C334.887 48.0346 318.901 49.091 318.901 42.1188C318.901 40.4286 319.541 37.7876 317.409 37.682C315.384 37.5763 314.958 39.5835 314.958 41.485C314.958 50.5699 335.846 44.9711 335.846 59.1267C335.846 67.2609 326.468 69.9018 316.77 70.1131Z"/>
<path d="M336.962 66.0988C341.012 63.0353 339.839 32.4 336.855 29.9703C330.674 25.3222 358.49 18.667 357.744 25.2166C355.825 26.5899 355.186 33.1395 355.293 42.9639C361.048 26.8012 382.788 30.7098 383.002 43.5977C383.108 47.1895 382.682 57.5421 382.682 60.1831C394.192 72.4372 361.687 70.9582 364.884 66.0988C366.802 64.6199 369.041 45.0767 361.58 45.3936C354.12 45.7105 354.653 63.3522 358.17 66.0988C364.245 70.8526 331.42 70.5357 336.962 66.0988Z"/>
<path d="M386.294 66.0988C390.557 62.6127 389.811 45.1823 386.081 42.4357C379.899 37.7876 411.765 31.7662 405.797 37.682C405.797 37.682 403.772 64.1973 407.075 66.0988C413.15 70.8526 380.752 70.5357 386.294 66.0988ZM397.164 34.0902C386.507 34.0902 386.507 18.4557 397.164 18.4557C407.822 18.4557 407.822 34.0902 397.164 34.0902Z"/>
<path d="M432.961 40.7455C426.354 40.6399 426.78 57.6477 432.961 57.7534C439.888 57.9646 440.102 40.9568 432.961 40.7455ZM430.936 85.0082C437.011 89.7619 404.08 89.445 409.622 85.0082C412.606 82.5785 412.925 40.1117 408.876 37.0481C402.694 32.2944 430.403 32.1887 429.018 37.0481C430.297 34.1959 434.133 32.5057 438.183 32.5057C460.777 32.5057 457.686 70.5357 440.208 70.5357C432.961 70.5357 429.657 66.3101 428.059 59.9718C427.952 69.7962 429.018 83.6349 430.936 85.0082Z"/>
<path d="M472.987 70.1131C461.37 69.7962 455.402 65.9932 455.402 60.8169C455.402 54.3729 471.388 53.3165 471.388 60.2887C471.388 61.9789 470.749 64.5142 472.88 64.6199C473.946 64.6199 475.118 63.7748 475.118 62.0846C475.118 51.0981 454.763 57.0139 455.083 43.3865C455.189 35.6748 466.06 32.2944 473.52 32.2944C485.136 32.6113 491.104 36.4143 491.104 41.5906C491.104 48.0346 475.118 49.091 475.118 42.1188C475.118 40.4286 475.758 37.7876 473.626 37.682C471.601 37.5763 471.175 39.5835 471.175 41.485C471.175 50.5699 492.063 44.9711 492.063 59.1267C492.063 67.2609 482.685 69.9018 472.987 70.1131Z"/>
</mask>
<path d="M24.2485 44.0203H29.7903C35.5453 44.0203 35.5453 28.1745 29.6837 28.1745C29.6837 28.1745 24.4616 28.1745 24.2485 28.1745C24.2485 28.1745 24.1419 41.168 24.2485 44.0203ZM5.06531 66.0988C9.32825 62.6127 9.1151 30.9211 5.38503 28.1745C3.46672 29.7591 3.78644 21.4136 5.38503 22.8925C9.54139 22.8925 29.0443 22.8925 34.373 22.8925C56.1139 22.8925 56.1139 49.3022 30.3232 49.3022H24.2485C24.2485 49.3022 23.9288 62.2958 25.8471 66.0988C31.9218 70.8526 -0.476495 70.5357 5.06531 66.0988Z" fill="#EBAC16"/>
<path d="M74.0815 51.8376C72.696 53.5278 69.3923 54.056 67.3674 55.3237C64.2768 57.2252 64.4899 63.2466 69.1791 63.2466C74.8275 63.2466 74.1881 56.0631 74.0815 51.8376ZM70.7777 37.8932C67.9002 37.9989 67.2608 40.9568 67.2608 44.7598C67.2608 50.9925 51.1682 51.6263 51.1682 44.3372C51.1682 38.3158 59.9072 32.9282 69.8186 32.6113C78.451 32.5057 90.0675 34.5128 89.9609 43.5977C89.8543 52.3658 89.8543 56.9082 89.7478 60.0774C101.258 72.3315 69.8186 70.8526 73.0158 65.9932C68.7528 72.1202 50.2091 72.1202 50.3157 60.6056C50.4222 47.8233 69.1791 51.6263 72.9092 46.45C73.7618 45.288 74.1881 44.2316 74.1881 42.8583C74.1881 40.4286 73.3355 37.9989 70.7777 37.8932Z" fill="#EBAC16"/>
<path d="M113.357 48.5628C111.332 51.6263 111.439 63.7748 114.529 66.0988C120.604 70.8526 87.7795 70.5357 93.3213 66.0988C97.5842 62.6127 96.8382 45.1823 93.1081 42.4357C86.9269 37.7876 119.751 31.7662 113.783 37.682C113.677 37.7876 112.718 39.4778 112.291 42.9639C114.743 36.0974 120.178 32.5057 125.613 32.2944C140.746 32.2944 134.565 55.9575 122.736 48.9853C116.767 45.4992 115.169 45.8162 113.357 48.5628Z" fill="#EBAC16"/>
<path d="M152.838 70.6413C138.025 70.6413 138.557 61.7676 138.877 54.1616C139.09 48.3515 139.73 46.45 137.811 46.45L136 46.5556C134.401 48.0346 134.081 39.6891 136 41.2737C141.115 40.4286 149.215 31.238 149.215 28.7027C149.215 25.7448 155.716 26.273 155.289 28.3857C155.183 32.5057 155.183 34.3015 155.183 41.2737H163.602C165.094 39.4778 165.201 48.4571 163.602 46.5556H155.076C154.97 48.3515 155.076 54.7955 155.076 59.1267C155.076 62.2958 156.035 62.9297 157.634 62.9297C159.446 62.9297 160.831 60.2887 162.43 57.9646C162.43 57.9646 165.414 59.5492 164.561 61.7676C162.11 68.2116 157.421 70.5357 152.838 70.6413Z" fill="#EBAC16"/>
<path d="M211.902 43.5977C212.008 47.1895 211.582 57.5421 211.582 60.1831C223.092 72.4372 190.587 70.9582 193.784 66.0988C195.702 64.6199 197.94 45.0767 190.48 45.3936C183.02 45.7105 183.553 63.3522 187.07 66.0988C193.145 70.8526 160.32 70.5357 165.862 66.0988C170.125 62.6127 169.379 45.1823 165.649 42.4357C159.467 37.7876 192.292 31.7662 186.324 37.682C186.217 37.7876 185.258 39.4778 184.832 42.9639C190.587 26.8012 211.688 30.7098 211.902 43.5977Z" fill="#EBAC16"/>
<path d="M231.18 53.9504C239.279 53.6334 241.944 38.3158 236.082 37.682C229.581 36.9425 229.048 49.8304 231.18 53.9504ZM235.762 58.3872C237.681 59.7605 239.492 60.3943 241.411 60.3943C246.1 60.3943 251.002 56.3801 253.56 52.6827C253.56 52.6827 256.438 53.8447 255.372 56.2744C250.896 66.3101 243.436 70.2187 235.656 70.3244C208.053 70.7469 205.282 31.1324 237.467 32.5057C247.379 32.9282 253.88 39.4778 253.88 45.8162C253.88 53.7391 242.157 50.4643 235.762 58.3872Z" fill="#EBAC16"/>
<path d="M276.756 48.5628C274.731 51.6263 274.837 63.7748 277.928 66.0988C284.003 70.8526 251.178 70.5357 256.72 66.0988C260.983 62.6127 260.237 45.1823 256.507 42.4357C250.325 37.7876 283.15 31.7662 277.182 37.682C277.075 37.7876 276.116 39.4778 275.69 42.9639C278.141 36.0974 283.576 32.5057 289.011 32.2944C304.145 32.2944 297.964 55.9575 286.134 48.9853C280.166 45.4992 278.567 45.8162 276.756 48.5628Z" fill="#EBAC16"/>
<path d="M316.77 70.1131C305.153 69.7962 299.185 65.9932 299.185 60.8169C299.185 54.3729 315.171 53.3165 315.171 60.2887C315.171 61.9789 314.532 64.5142 316.663 64.6199C317.729 64.6199 318.901 63.7748 318.901 62.0846C318.901 51.0981 298.546 57.0139 298.865 43.3865C298.972 35.6748 309.842 32.2944 317.302 32.2944C328.919 32.6113 334.887 36.4143 334.887 41.5906C334.887 48.0346 318.901 49.091 318.901 42.1188C318.901 40.4286 319.541 37.7876 317.409 37.682C315.384 37.5763 314.958 39.5835 314.958 41.485C314.958 50.5699 335.846 44.9711 335.846 59.1267C335.846 67.2609 326.468 69.9018 316.77 70.1131Z" fill="#EBAC16"/>
<path d="M336.962 66.0988C341.012 63.0353 339.839 32.4 336.855 29.9703C330.674 25.3222 358.49 18.667 357.744 25.2166C355.825 26.5899 355.186 33.1395 355.293 42.9639C361.048 26.8012 382.788 30.7098 383.002 43.5977C383.108 47.1895 382.682 57.5421 382.682 60.1831C394.192 72.4372 361.687 70.9582 364.884 66.0988C366.802 64.6199 369.041 45.0767 361.58 45.3936C354.12 45.7105 354.653 63.3522 358.17 66.0988C364.245 70.8526 331.42 70.5357 336.962 66.0988Z" fill="#EBAC16"/>
<path d="M386.294 66.0988C390.557 62.6127 389.811 45.1823 386.081 42.4357C379.899 37.7876 411.765 31.7662 405.797 37.682C405.797 37.682 403.772 64.1973 407.075 66.0988C413.15 70.8526 380.752 70.5357 386.294 66.0988ZM397.164 34.0902C386.507 34.0902 386.507 18.4557 397.164 18.4557C407.822 18.4557 407.822 34.0902 397.164 34.0902Z" fill="#EBAC16"/>
<path d="M432.961 40.7455C426.354 40.6399 426.78 57.6477 432.961 57.7534C439.888 57.9646 440.102 40.9568 432.961 40.7455ZM430.936 85.0082C437.011 89.7619 404.08 89.445 409.622 85.0082C412.606 82.5785 412.925 40.1117 408.876 37.0481C402.694 32.2944 430.403 32.1887 429.018 37.0481C430.297 34.1959 434.133 32.5057 438.183 32.5057C460.777 32.5057 457.686 70.5357 440.208 70.5357C432.961 70.5357 429.657 66.3101 428.059 59.9718C427.952 69.7962 429.018 83.6349 430.936 85.0082Z" fill="#EBAC16"/>
<path d="M472.987 70.1131C461.37 69.7962 455.402 65.9932 455.402 60.8169C455.402 54.3729 471.388 53.3165 471.388 60.2887C471.388 61.9789 470.749 64.5142 472.88 64.6199C473.946 64.6199 475.118 63.7748 475.118 62.0846C475.118 51.0981 454.763 57.0139 455.083 43.3865C455.189 35.6748 466.06 32.2944 473.52 32.2944C485.136 32.6113 491.104 36.4143 491.104 41.5906C491.104 48.0346 475.118 49.091 475.118 42.1188C475.118 40.4286 475.758 37.7876 473.626 37.682C471.601 37.5763 471.175 39.5835 471.175 41.485C471.175 50.5699 492.063 44.9711 492.063 59.1267C492.063 67.2609 482.685 69.9018 472.987 70.1131Z" fill="#EBAC16"/>
<path d="M24.2485 44.0203H29.7903C35.5453 44.0203 35.5453 28.1745 29.6837 28.1745C29.6837 28.1745 24.4616 28.1745 24.2485 28.1745C24.2485 28.1745 24.1419 41.168 24.2485 44.0203ZM5.06531 66.0988C9.32825 62.6127 9.1151 30.9211 5.38503 28.1745C3.46672 29.7591 3.78644 21.4136 5.38503 22.8925C9.54139 22.8925 29.0443 22.8925 34.373 22.8925C56.1139 22.8925 56.1139 49.3022 30.3232 49.3022H24.2485C24.2485 49.3022 23.9288 62.2958 25.8471 66.0988C31.9218 70.8526 -0.476495 70.5357 5.06531 66.0988Z" stroke="#280000" stroke-width="5" mask="url(#path-1-outside-1_3390_1658)"/>
<path d="M74.0815 51.8376C72.696 53.5278 69.3923 54.056 67.3674 55.3237C64.2768 57.2252 64.4899 63.2466 69.1791 63.2466C74.8275 63.2466 74.1881 56.0631 74.0815 51.8376ZM70.7777 37.8932C67.9002 37.9989 67.2608 40.9568 67.2608 44.7598C67.2608 50.9925 51.1682 51.6263 51.1682 44.3372C51.1682 38.3158 59.9072 32.9282 69.8186 32.6113C78.451 32.5057 90.0675 34.5128 89.9609 43.5977C89.8543 52.3658 89.8543 56.9082 89.7478 60.0774C101.258 72.3315 69.8186 70.8526 73.0158 65.9932C68.7528 72.1202 50.2091 72.1202 50.3157 60.6056C50.4222 47.8233 69.1791 51.6263 72.9092 46.45C73.7618 45.288 74.1881 44.2316 74.1881 42.8583C74.1881 40.4286 73.3355 37.9989 70.7777 37.8932Z" stroke="#280000" stroke-width="5" mask="url(#path-1-outside-1_3390_1658)"/>
<path d="M113.357 48.5628C111.332 51.6263 111.439 63.7748 114.529 66.0988C120.604 70.8526 87.7795 70.5357 93.3213 66.0988C97.5842 62.6127 96.8382 45.1823 93.1081 42.4357C86.9269 37.7876 119.751 31.7662 113.783 37.682C113.677 37.7876 112.718 39.4778 112.291 42.9639C114.743 36.0974 120.178 32.5057 125.613 32.2944C140.746 32.2944 134.565 55.9575 122.736 48.9853C116.767 45.4992 115.169 45.8162 113.357 48.5628Z" stroke="#280000" stroke-width="5" mask="url(#path-1-outside-1_3390_1658)"/>
<path d="M152.838 70.6413C138.025 70.6413 138.557 61.7676 138.877 54.1616C139.09 48.3515 139.73 46.45 137.811 46.45L136 46.5556C134.401 48.0346 134.081 39.6891 136 41.2737C141.115 40.4286 149.215 31.238 149.215 28.7027C149.215 25.7448 155.716 26.273 155.289 28.3857C155.183 32.5057 155.183 34.3015 155.183 41.2737H163.602C165.094 39.4778 165.201 48.4571 163.602 46.5556H155.076C154.97 48.3515 155.076 54.7955 155.076 59.1267C155.076 62.2958 156.035 62.9297 157.634 62.9297C159.446 62.9297 160.831 60.2887 162.43 57.9646C162.43 57.9646 165.414 59.5492 164.561 61.7676C162.11 68.2116 157.421 70.5357 152.838 70.6413Z" stroke="#280000" stroke-width="5" mask="url(#path-1-outside-1_3390_1658)"/>
<path d="M211.902 43.5977C212.008 47.1895 211.582 57.5421 211.582 60.1831C223.092 72.4372 190.587 70.9582 193.784 66.0988C195.702 64.6199 197.94 45.0767 190.48 45.3936C183.02 45.7105 183.553 63.3522 187.07 66.0988C193.145 70.8526 160.32 70.5357 165.862 66.0988C170.125 62.6127 169.379 45.1823 165.649 42.4357C159.467 37.7876 192.292 31.7662 186.324 37.682C186.217 37.7876 185.258 39.4778 184.832 42.9639C190.587 26.8012 211.688 30.7098 211.902 43.5977Z" stroke="#280000" stroke-width="5" mask="url(#path-1-outside-1_3390_1658)"/>
<path d="M231.18 53.9504C239.279 53.6334 241.944 38.3158 236.082 37.682C229.581 36.9425 229.048 49.8304 231.18 53.9504ZM235.762 58.3872C237.681 59.7605 239.492 60.3943 241.411 60.3943C246.1 60.3943 251.002 56.3801 253.56 52.6827C253.56 52.6827 256.438 53.8447 255.372 56.2744C250.896 66.3101 243.436 70.2187 235.656 70.3244C208.053 70.7469 205.282 31.1324 237.467 32.5057C247.379 32.9282 253.88 39.4778 253.88 45.8162C253.88 53.7391 242.157 50.4643 235.762 58.3872Z" stroke="#280000" stroke-width="5" mask="url(#path-1-outside-1_3390_1658)"/>
<path d="M276.756 48.5628C274.731 51.6263 274.837 63.7748 277.928 66.0988C284.003 70.8526 251.178 70.5357 256.72 66.0988C260.983 62.6127 260.237 45.1823 256.507 42.4357C250.325 37.7876 283.15 31.7662 277.182 37.682C277.075 37.7876 276.116 39.4778 275.69 42.9639C278.141 36.0974 283.576 32.5057 289.011 32.2944C304.145 32.2944 297.964 55.9575 286.134 48.9853C280.166 45.4992 278.567 45.8162 276.756 48.5628Z" stroke="#280000" stroke-width="5" mask="url(#path-1-outside-1_3390_1658)"/>
<path d="M316.77 70.1131C305.153 69.7962 299.185 65.9932 299.185 60.8169C299.185 54.3729 315.171 53.3165 315.171 60.2887C315.171 61.9789 314.532 64.5142 316.663 64.6199C317.729 64.6199 318.901 63.7748 318.901 62.0846C318.901 51.0981 298.546 57.0139 298.865 43.3865C298.972 35.6748 309.842 32.2944 317.302 32.2944C328.919 32.6113 334.887 36.4143 334.887 41.5906C334.887 48.0346 318.901 49.091 318.901 42.1188C318.901 40.4286 319.541 37.7876 317.409 37.682C315.384 37.5763 314.958 39.5835 314.958 41.485C314.958 50.5699 335.846 44.9711 335.846 59.1267C335.846 67.2609 326.468 69.9018 316.77 70.1131Z" stroke="#280000" stroke-width="5" mask="url(#path-1-outside-1_3390_1658)"/>
<path d="M336.962 66.0988C341.012 63.0353 339.839 32.4 336.855 29.9703C330.674 25.3222 358.49 18.667 357.744 25.2166C355.825 26.5899 355.186 33.1395 355.293 42.9639C361.048 26.8012 382.788 30.7098 383.002 43.5977C383.108 47.1895 382.682 57.5421 382.682 60.1831C394.192 72.4372 361.687 70.9582 364.884 66.0988C366.802 64.6199 369.041 45.0767 361.58 45.3936C354.12 45.7105 354.653 63.3522 358.17 66.0988C364.245 70.8526 331.42 70.5357 336.962 66.0988Z" stroke="#280000" stroke-width="5" mask="url(#path-1-outside-1_3390_1658)"/>
<path d="M386.294 66.0988C390.557 62.6127 389.811 45.1823 386.081 42.4357C379.899 37.7876 411.765 31.7662 405.797 37.682C405.797 37.682 403.772 64.1973 407.075 66.0988C413.15 70.8526 380.752 70.5357 386.294 66.0988ZM397.164 34.0902C386.507 34.0902 386.507 18.4557 397.164 18.4557C407.822 18.4557 407.822 34.0902 397.164 34.0902Z" stroke="#280000" stroke-width="5" mask="url(#path-1-outside-1_3390_1658)"/>
<path d="M432.961 40.7455C426.354 40.6399 426.78 57.6477 432.961 57.7534C439.888 57.9646 440.102 40.9568 432.961 40.7455ZM430.936 85.0082C437.011 89.7619 404.08 89.445 409.622 85.0082C412.606 82.5785 412.925 40.1117 408.876 37.0481C402.694 32.2944 430.403 32.1887 429.018 37.0481C430.297 34.1959 434.133 32.5057 438.183 32.5057C460.777 32.5057 457.686 70.5357 440.208 70.5357C432.961 70.5357 429.657 66.3101 428.059 59.9718C427.952 69.7962 429.018 83.6349 430.936 85.0082Z" stroke="#280000" stroke-width="5" mask="url(#path-1-outside-1_3390_1658)"/>
<path d="M472.987 70.1131C461.37 69.7962 455.402 65.9932 455.402 60.8169C455.402 54.3729 471.388 53.3165 471.388 60.2887C471.388 61.9789 470.749 64.5142 472.88 64.6199C473.946 64.6199 475.118 63.7748 475.118 62.0846C475.118 51.0981 454.763 57.0139 455.083 43.3865C455.189 35.6748 466.06 32.2944 473.52 32.2944C485.136 32.6113 491.104 36.4143 491.104 41.5906C491.104 48.0346 475.118 49.091 475.118 42.1188C475.118 40.4286 475.758 37.7876 473.626 37.682C471.601 37.5763 471.175 39.5835 471.175 41.485C471.175 50.5699 492.063 44.9711 492.063 59.1267C492.063 67.2609 482.685 69.9018 472.987 70.1131Z" stroke="#280000" stroke-width="5" mask="url(#path-1-outside-1_3390_1658)"/>
<mask id="path-2-outside-2_3390_1658" maskUnits="userSpaceOnUse" x="1.06348" y="7.95569" width="494" height="76" fill="black">
<rect fill="white" x="1.06348" y="7.95569" width="494" height="76"/>
<path d="M24.2485 36.5203H29.7903C35.5453 36.5203 35.5453 20.6745 29.6837 20.6745C29.6837 20.6745 24.4616 20.6745 24.2485 20.6745C24.2485 20.6745 24.1419 33.668 24.2485 36.5203ZM5.06531 58.5988C9.32825 55.1127 9.1151 23.4211 5.38503 20.6745C3.46672 22.2591 3.78644 13.9136 5.38503 15.3925C9.54139 15.3925 29.0443 15.3925 34.373 15.3925C56.1139 15.3925 56.1139 41.8022 30.3232 41.8022H24.2485C24.2485 41.8022 23.9288 54.7958 25.8471 58.5988C31.9218 63.3526 -0.476495 63.0357 5.06531 58.5988Z"/>
<path d="M74.0815 44.3376C72.696 46.0278 69.3923 46.556 67.3674 47.8237C64.2768 49.7252 64.4899 55.7466 69.1791 55.7466C74.8275 55.7466 74.1881 48.5631 74.0815 44.3376ZM70.7777 30.3932C67.9002 30.4989 67.2608 33.4568 67.2608 37.2598C67.2608 43.4925 51.1682 44.1263 51.1682 36.8372C51.1682 30.8158 59.9072 25.4282 69.8186 25.1113C78.451 25.0057 90.0675 27.0128 89.9609 36.0977C89.8543 44.8658 89.8543 49.4082 89.7478 52.5774C101.258 64.8315 69.8186 63.3526 73.0158 58.4932C68.7528 64.6202 50.2091 64.6202 50.3157 53.1056C50.4222 40.3233 69.1791 44.1263 72.9092 38.95C73.7618 37.788 74.1881 36.7316 74.1881 35.3583C74.1881 32.9286 73.3355 30.4989 70.7777 30.3932Z"/>
<path d="M113.357 41.0628C111.332 44.1263 111.439 56.2748 114.529 58.5988C120.604 63.3526 87.7795 63.0357 93.3213 58.5988C97.5842 55.1127 96.8382 37.6823 93.1081 34.9357C86.9269 30.2876 119.751 24.2662 113.783 30.182C113.677 30.2876 112.718 31.9778 112.291 35.4639C114.743 28.5974 120.178 25.0057 125.613 24.7944C140.746 24.7944 134.565 48.4575 122.736 41.4853C116.767 37.9992 115.169 38.3162 113.357 41.0628Z"/>
<path d="M152.838 63.1413C138.025 63.1413 138.557 54.2676 138.877 46.6616C139.09 40.8515 139.73 38.95 137.811 38.95L136 39.0556C134.401 40.5346 134.081 32.1891 136 33.7737C141.115 32.9286 149.215 23.738 149.215 21.2027C149.215 18.2448 155.716 18.773 155.289 20.8857C155.183 25.0057 155.183 26.8015 155.183 33.7737H163.602C165.094 31.9778 165.201 40.9571 163.602 39.0556H155.076C154.97 40.8515 155.076 47.2955 155.076 51.6267C155.076 54.7958 156.035 55.4297 157.634 55.4297C159.446 55.4297 160.831 52.7887 162.43 50.4646C162.43 50.4646 165.414 52.0492 164.561 54.2676C162.11 60.7116 157.421 63.0357 152.838 63.1413Z"/>
<path d="M211.902 36.0977C212.008 39.6895 211.582 50.0421 211.582 52.6831C223.092 64.9372 190.587 63.4582 193.784 58.5988C195.702 57.1199 197.94 37.5767 190.48 37.8936C183.02 38.2105 183.553 55.8522 187.07 58.5988C193.145 63.3526 160.32 63.0357 165.862 58.5988C170.125 55.1127 169.379 37.6823 165.649 34.9357C159.467 30.2876 192.292 24.2662 186.324 30.182C186.217 30.2876 185.258 31.9778 184.832 35.4639C190.587 19.3012 211.688 23.2098 211.902 36.0977Z"/>
<path d="M231.18 46.4504C239.279 46.1334 241.944 30.8158 236.082 30.182C229.581 29.4425 229.048 42.3304 231.18 46.4504ZM235.762 50.8872C237.681 52.2605 239.492 52.8943 241.411 52.8943C246.1 52.8943 251.002 48.8801 253.56 45.1827C253.56 45.1827 256.438 46.3447 255.372 48.7744C250.896 58.8101 243.436 62.7187 235.656 62.8244C208.053 63.2469 205.282 23.6324 237.467 25.0057C247.379 25.4282 253.88 31.9778 253.88 38.3162C253.88 46.2391 242.157 42.9643 235.762 50.8872Z"/>
<path d="M276.756 41.0628C274.731 44.1263 274.837 56.2748 277.928 58.5988C284.003 63.3526 251.178 63.0357 256.72 58.5988C260.983 55.1127 260.237 37.6823 256.507 34.9357C250.325 30.2876 283.15 24.2662 277.182 30.182C277.075 30.2876 276.116 31.9778 275.69 35.4639C278.141 28.5974 283.576 25.0057 289.011 24.7944C304.145 24.7944 297.964 48.4575 286.134 41.4853C280.166 37.9992 278.567 38.3162 276.756 41.0628Z"/>
<path d="M316.77 62.6131C305.153 62.2962 299.185 58.4932 299.185 53.3169C299.185 46.8729 315.171 45.8165 315.171 52.7887C315.171 54.4789 314.532 57.0142 316.663 57.1199C317.729 57.1199 318.901 56.2748 318.901 54.5846C318.901 43.5981 298.546 49.5139 298.865 35.8865C298.972 28.1748 309.842 24.7944 317.302 24.7944C328.919 25.1113 334.887 28.9143 334.887 34.0906C334.887 40.5346 318.901 41.591 318.901 34.6188C318.901 32.9286 319.541 30.2876 317.409 30.182C315.384 30.0763 314.958 32.0835 314.958 33.985C314.958 43.0699 335.846 37.4711 335.846 51.6267C335.846 59.7609 326.468 62.4018 316.77 62.6131Z"/>
<path d="M336.962 58.5988C341.012 55.5353 339.839 24.9 336.855 22.4703C330.674 17.8222 358.49 11.167 357.744 17.7166C355.825 19.0899 355.186 25.6395 355.293 35.4639C361.048 19.3012 382.788 23.2098 383.002 36.0977C383.108 39.6895 382.682 50.0421 382.682 52.6831C394.192 64.9372 361.687 63.4582 364.884 58.5988C366.802 57.1199 369.041 37.5767 361.58 37.8936C354.12 38.2105 354.653 55.8522 358.17 58.5988C364.245 63.3526 331.42 63.0357 336.962 58.5988Z"/>
<path d="M386.294 58.5988C390.557 55.1127 389.811 37.6823 386.081 34.9357C379.899 30.2876 411.765 24.2662 405.797 30.182C405.797 30.182 403.772 56.6973 407.075 58.5988C413.15 63.3526 380.752 63.0357 386.294 58.5988ZM397.164 26.5902C386.507 26.5902 386.507 10.9557 397.164 10.9557C407.822 10.9557 407.822 26.5902 397.164 26.5902Z"/>
<path d="M432.961 33.2455C426.354 33.1399 426.78 50.1477 432.961 50.2534C439.888 50.4646 440.102 33.4568 432.961 33.2455ZM430.936 77.5082C437.011 82.2619 404.08 81.945 409.622 77.5082C412.606 75.0785 412.925 32.6117 408.876 29.5481C402.694 24.7944 430.403 24.6887 429.018 29.5481C430.297 26.6959 434.133 25.0057 438.183 25.0057C460.777 25.0057 457.686 63.0357 440.208 63.0357C432.961 63.0357 429.657 58.8101 428.059 52.4718C427.952 62.2962 429.018 76.1349 430.936 77.5082Z"/>
<path d="M472.987 62.6131C461.37 62.2962 455.402 58.4932 455.402 53.3169C455.402 46.8729 471.388 45.8165 471.388 52.7887C471.388 54.4789 470.749 57.0142 472.88 57.1199C473.946 57.1199 475.118 56.2748 475.118 54.5846C475.118 43.5981 454.763 49.5139 455.083 35.8865C455.189 28.1748 466.06 24.7944 473.52 24.7944C485.136 25.1113 491.104 28.9143 491.104 34.0906C491.104 40.5346 475.118 41.591 475.118 34.6188C475.118 32.9286 475.758 30.2876 473.626 30.182C471.601 30.0763 471.175 32.0835 471.175 33.985C471.175 43.0699 492.063 37.4711 492.063 51.6267C492.063 59.7609 482.685 62.4018 472.987 62.6131Z"/>
</mask>
<path d="M24.2485 36.5203H29.7903C35.5453 36.5203 35.5453 20.6745 29.6837 20.6745C29.6837 20.6745 24.4616 20.6745 24.2485 20.6745C24.2485 20.6745 24.1419 33.668 24.2485 36.5203ZM5.06531 58.5988C9.32825 55.1127 9.1151 23.4211 5.38503 20.6745C3.46672 22.2591 3.78644 13.9136 5.38503 15.3925C9.54139 15.3925 29.0443 15.3925 34.373 15.3925C56.1139 15.3925 56.1139 41.8022 30.3232 41.8022H24.2485C24.2485 41.8022 23.9288 54.7958 25.8471 58.5988C31.9218 63.3526 -0.476495 63.0357 5.06531 58.5988Z" fill="#E38D12"/>
<path d="M74.0815 44.3376C72.696 46.0278 69.3923 46.556 67.3674 47.8237C64.2768 49.7252 64.4899 55.7466 69.1791 55.7466C74.8275 55.7466 74.1881 48.5631 74.0815 44.3376ZM70.7777 30.3932C67.9002 30.4989 67.2608 33.4568 67.2608 37.2598C67.2608 43.4925 51.1682 44.1263 51.1682 36.8372C51.1682 30.8158 59.9072 25.4282 69.8186 25.1113C78.451 25.0057 90.0675 27.0128 89.9609 36.0977C89.8543 44.8658 89.8543 49.4082 89.7478 52.5774C101.258 64.8315 69.8186 63.3526 73.0158 58.4932C68.7528 64.6202 50.2091 64.6202 50.3157 53.1056C50.4222 40.3233 69.1791 44.1263 72.9092 38.95C73.7618 37.788 74.1881 36.7316 74.1881 35.3583C74.1881 32.9286 73.3355 30.4989 70.7777 30.3932Z" fill="#E38D12"/>
<path d="M113.357 41.0628C111.332 44.1263 111.439 56.2748 114.529 58.5988C120.604 63.3526 87.7795 63.0357 93.3213 58.5988C97.5842 55.1127 96.8382 37.6823 93.1081 34.9357C86.9269 30.2876 119.751 24.2662 113.783 30.182C113.677 30.2876 112.718 31.9778 112.291 35.4639C114.743 28.5974 120.178 25.0057 125.613 24.7944C140.746 24.7944 134.565 48.4575 122.736 41.4853C116.767 37.9992 115.169 38.3162 113.357 41.0628Z" fill="#E38D12"/>
<path d="M152.838 63.1413C138.025 63.1413 138.557 54.2676 138.877 46.6616C139.09 40.8515 139.73 38.95 137.811 38.95L136 39.0556C134.401 40.5346 134.081 32.1891 136 33.7737C141.115 32.9286 149.215 23.738 149.215 21.2027C149.215 18.2448 155.716 18.773 155.289 20.8857C155.183 25.0057 155.183 26.8015 155.183 33.7737H163.602C165.094 31.9778 165.201 40.9571 163.602 39.0556H155.076C154.97 40.8515 155.076 47.2955 155.076 51.6267C155.076 54.7958 156.035 55.4297 157.634 55.4297C159.446 55.4297 160.831 52.7887 162.43 50.4646C162.43 50.4646 165.414 52.0492 164.561 54.2676C162.11 60.7116 157.421 63.0357 152.838 63.1413Z" fill="#E38D12"/>
<path d="M211.902 36.0977C212.008 39.6895 211.582 50.0421 211.582 52.6831C223.092 64.9372 190.587 63.4582 193.784 58.5988C195.702 57.1199 197.94 37.5767 190.48 37.8936C183.02 38.2105 183.553 55.8522 187.07 58.5988C193.145 63.3526 160.32 63.0357 165.862 58.5988C170.125 55.1127 169.379 37.6823 165.649 34.9357C159.467 30.2876 192.292 24.2662 186.324 30.182C186.217 30.2876 185.258 31.9778 184.832 35.4639C190.587 19.3012 211.688 23.2098 211.902 36.0977Z" fill="#E38D12"/>
<path d="M231.18 46.4504C239.279 46.1334 241.944 30.8158 236.082 30.182C229.581 29.4425 229.048 42.3304 231.18 46.4504ZM235.762 50.8872C237.681 52.2605 239.492 52.8943 241.411 52.8943C246.1 52.8943 251.002 48.8801 253.56 45.1827C253.56 45.1827 256.438 46.3447 255.372 48.7744C250.896 58.8101 243.436 62.7187 235.656 62.8244C208.053 63.2469 205.282 23.6324 237.467 25.0057C247.379 25.4282 253.88 31.9778 253.88 38.3162C253.88 46.2391 242.157 42.9643 235.762 50.8872Z" fill="#E38D12"/>
<path d="M276.756 41.0628C274.731 44.1263 274.837 56.2748 277.928 58.5988C284.003 63.3526 251.178 63.0357 256.72 58.5988C260.983 55.1127 260.237 37.6823 256.507 34.9357C250.325 30.2876 283.15 24.2662 277.182 30.182C277.075 30.2876 276.116 31.9778 275.69 35.4639C278.141 28.5974 283.576 25.0057 289.011 24.7944C304.145 24.7944 297.964 48.4575 286.134 41.4853C280.166 37.9992 278.567 38.3162 276.756 41.0628Z" fill="#E38D12"/>
<path d="M316.77 62.6131C305.153 62.2962 299.185 58.4932 299.185 53.3169C299.185 46.8729 315.171 45.8165 315.171 52.7887C315.171 54.4789 314.532 57.0142 316.663 57.1199C317.729 57.1199 318.901 56.2748 318.901 54.5846C318.901 43.5981 298.546 49.5139 298.865 35.8865C298.972 28.1748 309.842 24.7944 317.302 24.7944C328.919 25.1113 334.887 28.9143 334.887 34.0906C334.887 40.5346 318.901 41.591 318.901 34.6188C318.901 32.9286 319.541 30.2876 317.409 30.182C315.384 30.0763 314.958 32.0835 314.958 33.985C314.958 43.0699 335.846 37.4711 335.846 51.6267C335.846 59.7609 326.468 62.4018 316.77 62.6131Z" fill="#E38D12"/>
<path d="M336.962 58.5988C341.012 55.5353 339.839 24.9 336.855 22.4703C330.674 17.8222 358.49 11.167 357.744 17.7166C355.825 19.0899 355.186 25.6395 355.293 35.4639C361.048 19.3012 382.788 23.2098 383.002 36.0977C383.108 39.6895 382.682 50.0421 382.682 52.6831C394.192 64.9372 361.687 63.4582 364.884 58.5988C366.802 57.1199 369.041 37.5767 361.58 37.8936C354.12 38.2105 354.653 55.8522 358.17 58.5988C364.245 63.3526 331.42 63.0357 336.962 58.5988Z" fill="#E38D12"/>
<path d="M386.294 58.5988C390.557 55.1127 389.811 37.6823 386.081 34.9357C379.899 30.2876 411.765 24.2662 405.797 30.182C405.797 30.182 403.772 56.6973 407.075 58.5988C413.15 63.3526 380.752 63.0357 386.294 58.5988ZM397.164 26.5902C386.507 26.5902 386.507 10.9557 397.164 10.9557C407.822 10.9557 407.822 26.5902 397.164 26.5902Z" fill="#E38D12"/>
<path d="M432.961 33.2455C426.354 33.1399 426.78 50.1477 432.961 50.2534C439.888 50.4646 440.102 33.4568 432.961 33.2455ZM430.936 77.5082C437.011 82.2619 404.08 81.945 409.622 77.5082C412.606 75.0785 412.925 32.6117 408.876 29.5481C402.694 24.7944 430.403 24.6887 429.018 29.5481C430.297 26.6959 434.133 25.0057 438.183 25.0057C460.777 25.0057 457.686 63.0357 440.208 63.0357C432.961 63.0357 429.657 58.8101 428.059 52.4718C427.952 62.2962 429.018 76.1349 430.936 77.5082Z" fill="#E38D12"/>
<path d="M472.987 62.6131C461.37 62.2962 455.402 58.4932 455.402 53.3169C455.402 46.8729 471.388 45.8165 471.388 52.7887C471.388 54.4789 470.749 57.0142 472.88 57.1199C473.946 57.1199 475.118 56.2748 475.118 54.5846C475.118 43.5981 454.763 49.5139 455.083 35.8865C455.189 28.1748 466.06 24.7944 473.52 24.7944C485.136 25.1113 491.104 28.9143 491.104 34.0906C491.104 40.5346 475.118 41.591 475.118 34.6188C475.118 32.9286 475.758 30.2876 473.626 30.182C471.601 30.0763 471.175 32.0835 471.175 33.985C471.175 43.0699 492.063 37.4711 492.063 51.6267C492.063 59.7609 482.685 62.4018 472.987 62.6131Z" fill="#E38D12"/>
<path d="M24.2485 36.5203H29.7903C35.5453 36.5203 35.5453 20.6745 29.6837 20.6745C29.6837 20.6745 24.4616 20.6745 24.2485 20.6745C24.2485 20.6745 24.1419 33.668 24.2485 36.5203ZM5.06531 58.5988C9.32825 55.1127 9.1151 23.4211 5.38503 20.6745C3.46672 22.2591 3.78644 13.9136 5.38503 15.3925C9.54139 15.3925 29.0443 15.3925 34.373 15.3925C56.1139 15.3925 56.1139 41.8022 30.3232 41.8022H24.2485C24.2485 41.8022 23.9288 54.7958 25.8471 58.5988C31.9218 63.3526 -0.476495 63.0357 5.06531 58.5988Z" stroke="#280000" stroke-width="5" mask="url(#path-2-outside-2_3390_1658)"/>
<path d="M74.0815 44.3376C72.696 46.0278 69.3923 46.556 67.3674 47.8237C64.2768 49.7252 64.4899 55.7466 69.1791 55.7466C74.8275 55.7466 74.1881 48.5631 74.0815 44.3376ZM70.7777 30.3932C67.9002 30.4989 67.2608 33.4568 67.2608 37.2598C67.2608 43.4925 51.1682 44.1263 51.1682 36.8372C51.1682 30.8158 59.9072 25.4282 69.8186 25.1113C78.451 25.0057 90.0675 27.0128 89.9609 36.0977C89.8543 44.8658 89.8543 49.4082 89.7478 52.5774C101.258 64.8315 69.8186 63.3526 73.0158 58.4932C68.7528 64.6202 50.2091 64.6202 50.3157 53.1056C50.4222 40.3233 69.1791 44.1263 72.9092 38.95C73.7618 37.788 74.1881 36.7316 74.1881 35.3583C74.1881 32.9286 73.3355 30.4989 70.7777 30.3932Z" stroke="#280000" stroke-width="5" mask="url(#path-2-outside-2_3390_1658)"/>
<path d="M113.357 41.0628C111.332 44.1263 111.439 56.2748 114.529 58.5988C120.604 63.3526 87.7795 63.0357 93.3213 58.5988C97.5842 55.1127 96.8382 37.6823 93.1081 34.9357C86.9269 30.2876 119.751 24.2662 113.783 30.182C113.677 30.2876 112.718 31.9778 112.291 35.4639C114.743 28.5974 120.178 25.0057 125.613 24.7944C140.746 24.7944 134.565 48.4575 122.736 41.4853C116.767 37.9992 115.169 38.3162 113.357 41.0628Z" stroke="#280000" stroke-width="5" mask="url(#path-2-outside-2_3390_1658)"/>
<path d="M152.838 63.1413C138.025 63.1413 138.557 54.2676 138.877 46.6616C139.09 40.8515 139.73 38.95 137.811 38.95L136 39.0556C134.401 40.5346 134.081 32.1891 136 33.7737C141.115 32.9286 149.215 23.738 149.215 21.2027C149.215 18.2448 155.716 18.773 155.289 20.8857C155.183 25.0057 155.183 26.8015 155.183 33.7737H163.602C165.094 31.9778 165.201 40.9571 163.602 39.0556H155.076C154.97 40.8515 155.076 47.2955 155.076 51.6267C155.076 54.7958 156.035 55.4297 157.634 55.4297C159.446 55.4297 160.831 52.7887 162.43 50.4646C162.43 50.4646 165.414 52.0492 164.561 54.2676C162.11 60.7116 157.421 63.0357 152.838 63.1413Z" stroke="#280000" stroke-width="5" mask="url(#path-2-outside-2_3390_1658)"/>
<path d="M211.902 36.0977C212.008 39.6895 211.582 50.0421 211.582 52.6831C223.092 64.9372 190.587 63.4582 193.784 58.5988C195.702 57.1199 197.94 37.5767 190.48 37.8936C183.02 38.2105 183.553 55.8522 187.07 58.5988C193.145 63.3526 160.32 63.0357 165.862 58.5988C170.125 55.1127 169.379 37.6823 165.649 34.9357C159.467 30.2876 192.292 24.2662 186.324 30.182C186.217 30.2876 185.258 31.9778 184.832 35.4639C190.587 19.3012 211.688 23.2098 211.902 36.0977Z" stroke="#280000" stroke-width="5" mask="url(#path-2-outside-2_3390_1658)"/>
<path d="M231.18 46.4504C239.279 46.1334 241.944 30.8158 236.082 30.182C229.581 29.4425 229.048 42.3304 231.18 46.4504ZM235.762 50.8872C237.681 52.2605 239.492 52.8943 241.411 52.8943C246.1 52.8943 251.002 48.8801 253.56 45.1827C253.56 45.1827 256.438 46.3447 255.372 48.7744C250.896 58.8101 243.436 62.7187 235.656 62.8244C208.053 63.2469 205.282 23.6324 237.467 25.0057C247.379 25.4282 253.88 31.9778 253.88 38.3162C253.88 46.2391 242.157 42.9643 235.762 50.8872Z" stroke="#280000" stroke-width="5" mask="url(#path-2-outside-2_3390_1658)"/>
<path d="M276.756 41.0628C274.731 44.1263 274.837 56.2748 277.928 58.5988C284.003 63.3526 251.178 63.0357 256.72 58.5988C260.983 55.1127 260.237 37.6823 256.507 34.9357C250.325 30.2876 283.15 24.2662 277.182 30.182C277.075 30.2876 276.116 31.9778 275.69 35.4639C278.141 28.5974 283.576 25.0057 289.011 24.7944C304.145 24.7944 297.964 48.4575 286.134 41.4853C280.166 37.9992 278.567 38.3162 276.756 41.0628Z" stroke="#280000" stroke-width="5" mask="url(#path-2-outside-2_3390_1658)"/>
<path d="M316.77 62.6131C305.153 62.2962 299.185 58.4932 299.185 53.3169C299.185 46.8729 315.171 45.8165 315.171 52.7887C315.171 54.4789 314.532 57.0142 316.663 57.1199C317.729 57.1199 318.901 56.2748 318.901 54.5846C318.901 43.5981 298.546 49.5139 298.865 35.8865C298.972 28.1748 309.842 24.7944 317.302 24.7944C328.919 25.1113 334.887 28.9143 334.887 34.0906C334.887 40.5346 318.901 41.591 318.901 34.6188C318.901 32.9286 319.541 30.2876 317.409 30.182C315.384 30.0763 314.958 32.0835 314.958 33.985C314.958 43.0699 335.846 37.4711 335.846 51.6267C335.846 59.7609 326.468 62.4018 316.77 62.6131Z" stroke="#280000" stroke-width="5" mask="url(#path-2-outside-2_3390_1658)"/>
<path d="M336.962 58.5988C341.012 55.5353 339.839 24.9 336.855 22.4703C330.674 17.8222 358.49 11.167 357.744 17.7166C355.825 19.0899 355.186 25.6395 355.293 35.4639C361.048 19.3012 382.788 23.2098 383.002 36.0977C383.108 39.6895 382.682 50.0421 382.682 52.6831C394.192 64.9372 361.687 63.4582 364.884 58.5988C366.802 57.1199 369.041 37.5767 361.58 37.8936C354.12 38.2105 354.653 55.8522 358.17 58.5988C364.245 63.3526 331.42 63.0357 336.962 58.5988Z" stroke="#280000" stroke-width="5" mask="url(#path-2-outside-2_3390_1658)"/>
<path d="M386.294 58.5988C390.557 55.1127 389.811 37.6823 386.081 34.9357C379.899 30.2876 411.765 24.2662 405.797 30.182C405.797 30.182 403.772 56.6973 407.075 58.5988C413.15 63.3526 380.752 63.0357 386.294 58.5988ZM397.164 26.5902C386.507 26.5902 386.507 10.9557 397.164 10.9557C407.822 10.9557 407.822 26.5902 397.164 26.5902Z" stroke="#280000" stroke-width="5" mask="url(#path-2-outside-2_3390_1658)"/>
<path d="M432.961 33.2455C426.354 33.1399 426.78 50.1477 432.961 50.2534C439.888 50.4646 440.102 33.4568 432.961 33.2455ZM430.936 77.5082C437.011 82.2619 404.08 81.945 409.622 77.5082C412.606 75.0785 412.925 32.6117 408.876 29.5481C402.694 24.7944 430.403 24.6887 429.018 29.5481C430.297 26.6959 434.133 25.0057 438.183 25.0057C460.777 25.0057 457.686 63.0357 440.208 63.0357C432.961 63.0357 429.657 58.8101 428.059 52.4718C427.952 62.2962 429.018 76.1349 430.936 77.5082Z" stroke="#280000" stroke-width="5" mask="url(#path-2-outside-2_3390_1658)"/>
<path d="M472.987 62.6131C461.37 62.2962 455.402 58.4932 455.402 53.3169C455.402 46.8729 471.388 45.8165 471.388 52.7887C471.388 54.4789 470.749 57.0142 472.88 57.1199C473.946 57.1199 475.118 56.2748 475.118 54.5846C475.118 43.5981 454.763 49.5139 455.083 35.8865C455.189 28.1748 466.06 24.7944 473.52 24.7944C485.136 25.1113 491.104 28.9143 491.104 34.0906C491.104 40.5346 475.118 41.591 475.118 34.6188C475.118 32.9286 475.758 30.2876 473.626 30.182C471.601 30.0763 471.175 32.0835 471.175 33.985C471.175 43.0699 492.063 37.4711 492.063 51.6267C492.063 59.7609 482.685 62.4018 472.987 62.6131Z" stroke="#280000" stroke-width="5" mask="url(#path-2-outside-2_3390_1658)"/>
<mask id="path-3-outside-3_3390_1658" maskUnits="userSpaceOnUse" x="1.06348" y="1.20679" width="494" height="76" fill="black">
<rect fill="white" x="1.06348" y="1.20679" width="494" height="76"/>
<path d="M24.2485 29.7714H29.7903C35.5453 29.7714 35.5453 13.9256 29.6837 13.9256C29.6837 13.9256 24.4616 13.9256 24.2485 13.9256C24.2485 13.9256 24.1419 26.9191 24.2485 29.7714ZM5.06531 51.8499C9.32825 48.3638 9.1151 16.6722 5.38503 13.9256C3.46672 15.5102 3.78644 7.16468 5.38503 8.64362C9.54139 8.64362 29.0443 8.64362 34.373 8.64362C56.1139 8.64362 56.1139 35.0533 30.3232 35.0533H24.2485C24.2485 35.0533 23.9288 48.0469 25.8471 51.8499C31.9218 56.6037 -0.476495 56.2868 5.06531 51.8499Z"/>
<path d="M74.0815 37.5887C72.696 39.2789 69.3923 39.8071 67.3674 41.0748C64.2768 42.9763 64.4899 48.9977 69.1791 48.9977C74.8275 48.9977 74.1881 41.8142 74.0815 37.5887ZM70.7777 23.6443C67.9002 23.75 67.2608 26.7079 67.2608 30.5109C67.2608 36.7436 51.1682 37.3774 51.1682 30.0883C51.1682 24.0669 59.9072 18.6793 69.8186 18.3624C78.451 18.2568 90.0675 20.2639 89.9609 29.3488C89.8543 38.1169 89.8543 42.6593 89.7478 45.8285C101.258 58.0826 69.8186 56.6037 73.0158 51.7443C68.7528 57.8713 50.2091 57.8713 50.3157 46.3567C50.4222 33.5744 69.1791 37.3774 72.9092 32.2011C73.7618 31.0391 74.1881 29.9827 74.1881 28.6094C74.1881 26.1797 73.3355 23.75 70.7777 23.6443Z"/>
<path d="M113.357 34.3139C111.332 37.3774 111.439 49.5259 114.529 51.8499C120.604 56.6037 87.7795 56.2868 93.3213 51.8499C97.5842 48.3638 96.8382 30.9334 93.1081 28.1868C86.9269 23.5387 119.751 17.5173 113.783 23.4331C113.677 23.5387 112.718 25.2289 112.291 28.715C114.743 21.8485 120.178 18.2568 125.613 18.0455C140.746 18.0455 134.565 41.7086 122.736 34.7364C116.767 31.2503 115.169 31.5673 113.357 34.3139Z"/>
<path d="M152.838 56.3924C138.025 56.3924 138.557 47.5187 138.877 39.9127C139.09 34.1026 139.73 32.2011 137.811 32.2011L136 32.3067C134.401 33.7857 134.081 25.4402 136 27.0248C141.115 26.1797 149.215 16.9891 149.215 14.4538C149.215 11.4959 155.716 12.0241 155.289 14.1368C155.183 18.2568 155.183 20.0526 155.183 27.0248H163.602C165.094 25.2289 165.201 34.2082 163.602 32.3067H155.076C154.97 34.1026 155.076 40.5466 155.076 44.8778C155.076 48.0469 156.035 48.6808 157.634 48.6808C159.446 48.6808 160.831 46.0398 162.43 43.7157C162.43 43.7157 165.414 45.3003 164.561 47.5187C162.11 53.9627 157.421 56.2868 152.838 56.3924Z"/>
<path d="M211.902 29.3488C212.008 32.9406 211.582 43.2932 211.582 45.9342C223.092 58.1883 190.587 56.7093 193.784 51.8499C195.702 50.371 197.94 30.8278 190.48 31.1447C183.02 31.4616 183.553 49.1033 187.07 51.8499C193.145 56.6037 160.32 56.2868 165.862 51.8499C170.125 48.3638 169.379 30.9334 165.649 28.1868C159.467 23.5387 192.292 17.5173 186.324 23.4331C186.217 23.5387 185.258 25.2289 184.832 28.715C190.587 12.5523 211.688 16.4609 211.902 29.3488Z"/>
<path d="M231.18 39.7015C239.279 39.3845 241.944 24.0669 236.082 23.4331C229.581 22.6936 229.048 35.5815 231.18 39.7015ZM235.762 44.1383C237.681 45.5116 239.492 46.1454 241.411 46.1454C246.1 46.1454 251.002 42.1312 253.56 38.4338C253.56 38.4338 256.438 39.5958 255.372 42.0255C250.896 52.0612 243.436 55.9698 235.656 56.0755C208.053 56.498 205.282 16.8835 237.467 18.2568C247.379 18.6793 253.88 25.2289 253.88 31.5673C253.88 39.4902 242.157 36.2154 235.762 44.1383Z"/>
<path d="M276.756 34.3139C274.731 37.3774 274.837 49.5259 277.928 51.8499C284.003 56.6037 251.178 56.2868 256.72 51.8499C260.983 48.3638 260.237 30.9334 256.507 28.1868C250.325 23.5387 283.15 17.5173 277.182 23.4331C277.075 23.5387 276.116 25.2289 275.69 28.715C278.141 21.8485 283.576 18.2568 289.011 18.0455C304.145 18.0455 297.964 41.7086 286.134 34.7364C280.166 31.2503 278.567 31.5673 276.756 34.3139Z"/>
<path d="M316.77 55.8642C305.153 55.5473 299.185 51.7443 299.185 46.568C299.185 40.124 315.171 39.0676 315.171 46.0398C315.171 47.73 314.532 50.2653 316.663 50.371C317.729 50.371 318.901 49.5259 318.901 47.8356C318.901 36.8492 298.546 42.765 298.865 29.1376C298.972 21.4259 309.842 18.0455 317.302 18.0455C328.919 18.3624 334.887 22.1654 334.887 27.3417C334.887 33.7857 318.901 34.8421 318.901 27.8699C318.901 26.1797 319.541 23.5387 317.409 23.4331C315.384 23.3274 314.958 25.3346 314.958 27.2361C314.958 36.321 335.846 30.7222 335.846 44.8778C335.846 53.012 326.468 55.6529 316.77 55.8642Z"/>
<path d="M336.962 51.8499C341.012 48.7864 339.839 18.1511 336.855 15.7214C330.674 11.0733 358.49 4.41807 357.744 10.9677C355.825 12.341 355.186 18.8906 355.293 28.715C361.048 12.5523 382.788 16.4609 383.002 29.3488C383.108 32.9406 382.682 43.2932 382.682 45.9342C394.192 58.1883 361.687 56.7093 364.884 51.8499C366.802 50.371 369.041 30.8278 361.58 31.1447C354.12 31.4616 354.653 49.1033 358.17 51.8499C364.245 56.6037 331.42 56.2868 336.962 51.8499Z"/>
<path d="M386.294 51.8499C390.557 48.3638 389.811 30.9334 386.081 28.1868C379.899 23.5387 411.765 17.5173 405.797 23.4331C405.797 23.4331 403.772 49.9484 407.075 51.8499C413.15 56.6037 380.752 56.2868 386.294 51.8499ZM397.164 19.8413C386.507 19.8413 386.507 4.20679 397.164 4.20679C407.822 4.20679 407.822 19.8413 397.164 19.8413Z"/>
<path d="M432.961 26.4966C426.354 26.391 426.78 43.3988 432.961 43.5045C439.888 43.7157 440.102 26.7079 432.961 26.4966ZM430.936 70.7593C437.011 75.513 404.08 75.1961 409.622 70.7593C412.606 68.3296 412.925 25.8628 408.876 22.7992C402.694 18.0455 430.403 17.9398 429.018 22.7992C430.297 19.947 434.133 18.2568 438.183 18.2568C460.777 18.2568 457.686 56.2868 440.208 56.2868C432.961 56.2868 429.657 52.0612 428.059 45.7229C427.952 55.5473 429.018 69.386 430.936 70.7593Z"/>
<path d="M472.987 55.8642C461.37 55.5473 455.402 51.7443 455.402 46.568C455.402 40.124 471.388 39.0676 471.388 46.0398C471.388 47.73 470.749 50.2653 472.88 50.371C473.946 50.371 475.118 49.5259 475.118 47.8356C475.118 36.8492 454.763 42.765 455.083 29.1376C455.189 21.4259 466.06 18.0455 473.52 18.0455C485.136 18.3624 491.104 22.1654 491.104 27.3417C491.104 33.7857 475.118 34.8421 475.118 27.8699C475.118 26.1797 475.758 23.5387 473.626 23.4331C471.601 23.3274 471.175 25.3346 471.175 27.2361C471.175 36.321 492.063 30.7222 492.063 44.8778C492.063 53.012 482.685 55.6529 472.987 55.8642Z"/>
</mask>
<path d="M24.2485 29.7714H29.7903C35.5453 29.7714 35.5453 13.9256 29.6837 13.9256C29.6837 13.9256 24.4616 13.9256 24.2485 13.9256C24.2485 13.9256 24.1419 26.9191 24.2485 29.7714ZM5.06531 51.8499C9.32825 48.3638 9.1151 16.6722 5.38503 13.9256C3.46672 15.5102 3.78644 7.16468 5.38503 8.64362C9.54139 8.64362 29.0443 8.64362 34.373 8.64362C56.1139 8.64362 56.1139 35.0533 30.3232 35.0533H24.2485C24.2485 35.0533 23.9288 48.0469 25.8471 51.8499C31.9218 56.6037 -0.476495 56.2868 5.06531 51.8499Z" fill="#FFD026"/>
<path d="M74.0815 37.5887C72.696 39.2789 69.3923 39.8071 67.3674 41.0748C64.2768 42.9763 64.4899 48.9977 69.1791 48.9977C74.8275 48.9977 74.1881 41.8142 74.0815 37.5887ZM70.7777 23.6443C67.9002 23.75 67.2608 26.7079 67.2608 30.5109C67.2608 36.7436 51.1682 37.3774 51.1682 30.0883C51.1682 24.0669 59.9072 18.6793 69.8186 18.3624C78.451 18.2568 90.0675 20.2639 89.9609 29.3488C89.8543 38.1169 89.8543 42.6593 89.7478 45.8285C101.258 58.0826 69.8186 56.6037 73.0158 51.7443C68.7528 57.8713 50.2091 57.8713 50.3157 46.3567C50.4222 33.5744 69.1791 37.3774 72.9092 32.2011C73.7618 31.0391 74.1881 29.9827 74.1881 28.6094C74.1881 26.1797 73.3355 23.75 70.7777 23.6443Z" fill="#FFD026"/>
<path d="M113.357 34.3139C111.332 37.3774 111.439 49.5259 114.529 51.8499C120.604 56.6037 87.7795 56.2868 93.3213 51.8499C97.5842 48.3638 96.8382 30.9334 93.1081 28.1868C86.9269 23.5387 119.751 17.5173 113.783 23.4331C113.677 23.5387 112.718 25.2289 112.291 28.715C114.743 21.8485 120.178 18.2568 125.613 18.0455C140.746 18.0455 134.565 41.7086 122.736 34.7364C116.767 31.2503 115.169 31.5673 113.357 34.3139Z" fill="#FFD026"/>
<path d="M152.838 56.3924C138.025 56.3924 138.557 47.5187 138.877 39.9127C139.09 34.1026 139.73 32.2011 137.811 32.2011L136 32.3067C134.401 33.7857 134.081 25.4402 136 27.0248C141.115 26.1797 149.215 16.9891 149.215 14.4538C149.215 11.4959 155.716 12.0241 155.289 14.1368C155.183 18.2568 155.183 20.0526 155.183 27.0248H163.602C165.094 25.2289 165.201 34.2082 163.602 32.3067H155.076C154.97 34.1026 155.076 40.5466 155.076 44.8778C155.076 48.0469 156.035 48.6808 157.634 48.6808C159.446 48.6808 160.831 46.0398 162.43 43.7157C162.43 43.7157 165.414 45.3003 164.561 47.5187C162.11 53.9627 157.421 56.2868 152.838 56.3924Z" fill="#FFD026"/>
<path d="M211.902 29.3488C212.008 32.9406 211.582 43.2932 211.582 45.9342C223.092 58.1883 190.587 56.7093 193.784 51.8499C195.702 50.371 197.94 30.8278 190.48 31.1447C183.02 31.4616 183.553 49.1033 187.07 51.8499C193.145 56.6037 160.32 56.2868 165.862 51.8499C170.125 48.3638 169.379 30.9334 165.649 28.1868C159.467 23.5387 192.292 17.5173 186.324 23.4331C186.217 23.5387 185.258 25.2289 184.832 28.715C190.587 12.5523 211.688 16.4609 211.902 29.3488Z" fill="#FFD026"/>
<path d="M231.18 39.7015C239.279 39.3845 241.944 24.0669 236.082 23.4331C229.581 22.6936 229.048 35.5815 231.18 39.7015ZM235.762 44.1383C237.681 45.5116 239.492 46.1454 241.411 46.1454C246.1 46.1454 251.002 42.1312 253.56 38.4338C253.56 38.4338 256.438 39.5958 255.372 42.0255C250.896 52.0612 243.436 55.9698 235.656 56.0755C208.053 56.498 205.282 16.8835 237.467 18.2568C247.379 18.6793 253.88 25.2289 253.88 31.5673C253.88 39.4902 242.157 36.2154 235.762 44.1383Z" fill="#FFD026"/>
<path d="M276.756 34.3139C274.731 37.3774 274.837 49.5259 277.928 51.8499C284.003 56.6037 251.178 56.2868 256.72 51.8499C260.983 48.3638 260.237 30.9334 256.507 28.1868C250.325 23.5387 283.15 17.5173 277.182 23.4331C277.075 23.5387 276.116 25.2289 275.69 28.715C278.141 21.8485 283.576 18.2568 289.011 18.0455C304.145 18.0455 297.964 41.7086 286.134 34.7364C280.166 31.2503 278.567 31.5673 276.756 34.3139Z" fill="#FFD026"/>
<path d="M316.77 55.8642C305.153 55.5473 299.185 51.7443 299.185 46.568C299.185 40.124 315.171 39.0676 315.171 46.0398C315.171 47.73 314.532 50.2653 316.663 50.371C317.729 50.371 318.901 49.5259 318.901 47.8356C318.901 36.8492 298.546 42.765 298.865 29.1376C298.972 21.4259 309.842 18.0455 317.302 18.0455C328.919 18.3624 334.887 22.1654 334.887 27.3417C334.887 33.7857 318.901 34.8421 318.901 27.8699C318.901 26.1797 319.541 23.5387 317.409 23.4331C315.384 23.3274 314.958 25.3346 314.958 27.2361C314.958 36.321 335.846 30.7222 335.846 44.8778C335.846 53.012 326.468 55.6529 316.77 55.8642Z" fill="#FFD026"/>
<path d="M336.962 51.8499C341.012 48.7864 339.839 18.1511 336.855 15.7214C330.674 11.0733 358.49 4.41807 357.744 10.9677C355.825 12.341 355.186 18.8906 355.293 28.715C361.048 12.5523 382.788 16.4609 383.002 29.3488C383.108 32.9406 382.682 43.2932 382.682 45.9342C394.192 58.1883 361.687 56.7093 364.884 51.8499C366.802 50.371 369.041 30.8278 361.58 31.1447C354.12 31.4616 354.653 49.1033 358.17 51.8499C364.245 56.6037 331.42 56.2868 336.962 51.8499Z" fill="#FFD026"/>
<path d="M386.294 51.8499C390.557 48.3638 389.811 30.9334 386.081 28.1868C379.899 23.5387 411.765 17.5173 405.797 23.4331C405.797 23.4331 403.772 49.9484 407.075 51.8499C413.15 56.6037 380.752 56.2868 386.294 51.8499ZM397.164 19.8413C386.507 19.8413 386.507 4.20679 397.164 4.20679C407.822 4.20679 407.822 19.8413 397.164 19.8413Z" fill="#FFD026"/>
<path d="M432.961 26.4966C426.354 26.391 426.78 43.3988 432.961 43.5045C439.888 43.7157 440.102 26.7079 432.961 26.4966ZM430.936 70.7593C437.011 75.513 404.08 75.1961 409.622 70.7593C412.606 68.3296 412.925 25.8628 408.876 22.7992C402.694 18.0455 430.403 17.9398 429.018 22.7992C430.297 19.947 434.133 18.2568 438.183 18.2568C460.777 18.2568 457.686 56.2868 440.208 56.2868C432.961 56.2868 429.657 52.0612 428.059 45.7229C427.952 55.5473 429.018 69.386 430.936 70.7593Z" fill="#FFD026"/>
<path d="M472.987 55.8642C461.37 55.5473 455.402 51.7443 455.402 46.568C455.402 40.124 471.388 39.0676 471.388 46.0398C471.388 47.73 470.749 50.2653 472.88 50.371C473.946 50.371 475.118 49.5259 475.118 47.8356C475.118 36.8492 454.763 42.765 455.083 29.1376C455.189 21.4259 466.06 18.0455 473.52 18.0455C485.136 18.3624 491.104 22.1654 491.104 27.3417C491.104 33.7857 475.118 34.8421 475.118 27.8699C475.118 26.1797 475.758 23.5387 473.626 23.4331C471.601 23.3274 471.175 25.3346 471.175 27.2361C471.175 36.321 492.063 30.7222 492.063 44.8778C492.063 53.012 482.685 55.6529 472.987 55.8642Z" fill="#FFD026"/>
<path d="M24.2485 29.7714H29.7903C35.5453 29.7714 35.5453 13.9256 29.6837 13.9256C29.6837 13.9256 24.4616 13.9256 24.2485 13.9256C24.2485 13.9256 24.1419 26.9191 24.2485 29.7714ZM5.06531 51.8499C9.32825 48.3638 9.1151 16.6722 5.38503 13.9256C3.46672 15.5102 3.78644 7.16468 5.38503 8.64362C9.54139 8.64362 29.0443 8.64362 34.373 8.64362C56.1139 8.64362 56.1139 35.0533 30.3232 35.0533H24.2485C24.2485 35.0533 23.9288 48.0469 25.8471 51.8499C31.9218 56.6037 -0.476495 56.2868 5.06531 51.8499Z" stroke="#280000" stroke-width="5" mask="url(#path-3-outside-3_3390_1658)"/>
<path d="M74.0815 37.5887C72.696 39.2789 69.3923 39.8071 67.3674 41.0748C64.2768 42.9763 64.4899 48.9977 69.1791 48.9977C74.8275 48.9977 74.1881 41.8142 74.0815 37.5887ZM70.7777 23.6443C67.9002 23.75 67.2608 26.7079 67.2608 30.5109C67.2608 36.7436 51.1682 37.3774 51.1682 30.0883C51.1682 24.0669 59.9072 18.6793 69.8186 18.3624C78.451 18.2568 90.0675 20.2639 89.9609 29.3488C89.8543 38.1169 89.8543 42.6593 89.7478 45.8285C101.258 58.0826 69.8186 56.6037 73.0158 51.7443C68.7528 57.8713 50.2091 57.8713 50.3157 46.3567C50.4222 33.5744 69.1791 37.3774 72.9092 32.2011C73.7618 31.0391 74.1881 29.9827 74.1881 28.6094C74.1881 26.1797 73.3355 23.75 70.7777 23.6443Z" stroke="#280000" stroke-width="5" mask="url(#path-3-outside-3_3390_1658)"/>
<path d="M113.357 34.3139C111.332 37.3774 111.439 49.5259 114.529 51.8499C120.604 56.6037 87.7795 56.2868 93.3213 51.8499C97.5842 48.3638 96.8382 30.9334 93.1081 28.1868C86.9269 23.5387 119.751 17.5173 113.783 23.4331C113.677 23.5387 112.718 25.2289 112.291 28.715C114.743 21.8485 120.178 18.2568 125.613 18.0455C140.746 18.0455 134.565 41.7086 122.736 34.7364C116.767 31.2503 115.169 31.5673 113.357 34.3139Z" stroke="#280000" stroke-width="5" mask="url(#path-3-outside-3_3390_1658)"/>
<path d="M152.838 56.3924C138.025 56.3924 138.557 47.5187 138.877 39.9127C139.09 34.1026 139.73 32.2011 137.811 32.2011L136 32.3067C134.401 33.7857 134.081 25.4402 136 27.0248C141.115 26.1797 149.215 16.9891 149.215 14.4538C149.215 11.4959 155.716 12.0241 155.289 14.1368C155.183 18.2568 155.183 20.0526 155.183 27.0248H163.602C165.094 25.2289 165.201 34.2082 163.602 32.3067H155.076C154.97 34.1026 155.076 40.5466 155.076 44.8778C155.076 48.0469 156.035 48.6808 157.634 48.6808C159.446 48.6808 160.831 46.0398 162.43 43.7157C162.43 43.7157 165.414 45.3003 164.561 47.5187C162.11 53.9627 157.421 56.2868 152.838 56.3924Z" stroke="#280000" stroke-width="5" mask="url(#path-3-outside-3_3390_1658)"/>
<path d="M211.902 29.3488C212.008 32.9406 211.582 43.2932 211.582 45.9342C223.092 58.1883 190.587 56.7093 193.784 51.8499C195.702 50.371 197.94 30.8278 190.48 31.1447C183.02 31.4616 183.553 49.1033 187.07 51.8499C193.145 56.6037 160.32 56.2868 165.862 51.8499C170.125 48.3638 169.379 30.9334 165.649 28.1868C159.467 23.5387 192.292 17.5173 186.324 23.4331C186.217 23.5387 185.258 25.2289 184.832 28.715C190.587 12.5523 211.688 16.4609 211.902 29.3488Z" stroke="#280000" stroke-width="5" mask="url(#path-3-outside-3_3390_1658)"/>
<path d="M231.18 39.7015C239.279 39.3845 241.944 24.0669 236.082 23.4331C229.581 22.6936 229.048 35.5815 231.18 39.7015ZM235.762 44.1383C237.681 45.5116 239.492 46.1454 241.411 46.1454C246.1 46.1454 251.002 42.1312 253.56 38.4338C253.56 38.4338 256.438 39.5958 255.372 42.0255C250.896 52.0612 243.436 55.9698 235.656 56.0755C208.053 56.498 205.282 16.8835 237.467 18.2568C247.379 18.6793 253.88 25.2289 253.88 31.5673C253.88 39.4902 242.157 36.2154 235.762 44.1383Z" stroke="#280000" stroke-width="5" mask="url(#path-3-outside-3_3390_1658)"/>
<path d="M276.756 34.3139C274.731 37.3774 274.837 49.5259 277.928 51.8499C284.003 56.6037 251.178 56.2868 256.72 51.8499C260.983 48.3638 260.237 30.9334 256.507 28.1868C250.325 23.5387 283.15 17.5173 277.182 23.4331C277.075 23.5387 276.116 25.2289 275.69 28.715C278.141 21.8485 283.576 18.2568 289.011 18.0455C304.145 18.0455 297.964 41.7086 286.134 34.7364C280.166 31.2503 278.567 31.5673 276.756 34.3139Z" stroke="#280000" stroke-width="5" mask="url(#path-3-outside-3_3390_1658)"/>
<path d="M316.77 55.8642C305.153 55.5473 299.185 51.7443 299.185 46.568C299.185 40.124 315.171 39.0676 315.171 46.0398C315.171 47.73 314.532 50.2653 316.663 50.371C317.729 50.371 318.901 49.5259 318.901 47.8356C318.901 36.8492 298.546 42.765 298.865 29.1376C298.972 21.4259 309.842 18.0455 317.302 18.0455C328.919 18.3624 334.887 22.1654 334.887 27.3417C334.887 33.7857 318.901 34.8421 318.901 27.8699C318.901 26.1797 319.541 23.5387 317.409 23.4331C315.384 23.3274 314.958 25.3346 314.958 27.2361C314.958 36.321 335.846 30.7222 335.846 44.8778C335.846 53.012 326.468 55.6529 316.77 55.8642Z" stroke="#280000" stroke-width="5" mask="url(#path-3-outside-3_3390_1658)"/>
<path d="M336.962 51.8499C341.012 48.7864 339.839 18.1511 336.855 15.7214C330.674 11.0733 358.49 4.41807 357.744 10.9677C355.825 12.341 355.186 18.8906 355.293 28.715C361.048 12.5523 382.788 16.4609 383.002 29.3488C383.108 32.9406 382.682 43.2932 382.682 45.9342C394.192 58.1883 361.687 56.7093 364.884 51.8499C366.802 50.371 369.041 30.8278 361.58 31.1447C354.12 31.4616 354.653 49.1033 358.17 51.8499C364.245 56.6037 331.42 56.2868 336.962 51.8499Z" stroke="#280000" stroke-width="5" mask="url(#path-3-outside-3_3390_1658)"/>
<path d="M386.294 51.8499C390.557 48.3638 389.811 30.9334 386.081 28.1868C379.899 23.5387 411.765 17.5173 405.797 23.4331C405.797 23.4331 403.772 49.9484 407.075 51.8499C413.15 56.6037 380.752 56.2868 386.294 51.8499ZM397.164 19.8413C386.507 19.8413 386.507 4.20679 397.164 4.20679C407.822 4.20679 407.822 19.8413 397.164 19.8413Z" stroke="#280000" stroke-width="5" mask="url(#path-3-outside-3_3390_1658)"/>
<path d="M432.961 26.4966C426.354 26.391 426.78 43.3988 432.961 43.5045C439.888 43.7157 440.102 26.7079 432.961 26.4966ZM430.936 70.7593C437.011 75.513 404.08 75.1961 409.622 70.7593C412.606 68.3296 412.925 25.8628 408.876 22.7992C402.694 18.0455 430.403 17.9398 429.018 22.7992C430.297 19.947 434.133 18.2568 438.183 18.2568C460.777 18.2568 457.686 56.2868 440.208 56.2868C432.961 56.2868 429.657 52.0612 428.059 45.7229C427.952 55.5473 429.018 69.386 430.936 70.7593Z" stroke="#280000" stroke-width="5" mask="url(#path-3-outside-3_3390_1658)"/>
<path d="M472.987 55.8642C461.37 55.5473 455.402 51.7443 455.402 46.568C455.402 40.124 471.388 39.0676 471.388 46.0398C471.388 47.73 470.749 50.2653 472.88 50.371C473.946 50.371 475.118 49.5259 475.118 47.8356C475.118 36.8492 454.763 42.765 455.083 29.1376C455.189 21.4259 466.06 18.0455 473.52 18.0455C485.136 18.3624 491.104 22.1654 491.104 27.3417C491.104 33.7857 475.118 34.8421 475.118 27.8699C475.118 26.1797 475.758 23.5387 473.626 23.4331C471.601 23.3274 471.175 25.3346 471.175 27.2361C471.175 36.321 492.063 30.7222 492.063 44.8778C492.063 53.012 482.685 55.6529 472.987 55.8642Z" stroke="#280000" stroke-width="5" mask="url(#path-3-outside-3_3390_1658)"/>
</svg>
